<svg width="370" height="152" viewBox="0 0 370 152" fill="none" xmlns="http://www.w3.org/2000/svg">
<path d="M317.573 129.133C325.949 131.63 329.574 131.159 329.577 137.034C329.58 142.409 322.018 142.265 318.269 143.383C314.519 144.5 323.327 137.162 323.327 135.912C323.326 134.366 318.075 131.664 317.573 129.133Z" fill="#B6B03F" fill-opacity="0.71"/>
<path d="M350.447 124.519C357.072 124.516 369.449 130.629 369.452 135.76C369.454 140.891 355.707 145.95 350.456 145.65C345.206 145.349 330.955 142.991 330.952 136.778C330.45 132.409 339.953 124.524 350.447 124.519Z" fill="#DDD301"/>
<path d="M350.446 124.519C357.071 124.516 369.449 130.629 369.451 135.76C369.454 140.891 355.706 145.95 350.456 145.65C346.864 145.444 339.061 144.275 334.488 141.568C332.672 140.669 331.362 140.033 330.453 140.034C329.704 141.534 329.704 141.751 328.33 143.035C326.955 144.319 322.955 143.787 315.83 143.791C324.329 141.412 327.329 140.785 327.327 136.41C327.324 131.585 326.2 131.911 315.823 128.666C327.073 128.66 327.657 128.535 330.45 133.159C330.861 133.159 332.871 131.563 335.424 129.869C339.097 126.957 344.618 124.522 350.446 124.519Z" fill="url(#paint0_linear_66_28062)"/>
<path d="M351.831 145.58C351.158 147.094 340.539 146.679 337.206 145.893C332.038 144.471 329.705 143.978 332.455 143.27C335.205 142.562 333.697 140.836 335.268 141.595C339.907 143.839 345.933 144.709 351.831 145.58Z" fill="#B6B03F" fill-opacity="0.71"/>
<path d="M353.072 137.908C353.571 138.737 351.977 140.082 348.658 142.081C344.536 144.563 340.664 144.072 342.655 142.047C344.647 140.023 342.433 138.531 344.177 138.517C348.824 138.479 352.279 136.592 353.072 137.908Z" fill="url(#paint1_linear_66_28062)"/>
<path d="M349.071 124.525C348.039 123.229 337.275 125.02 334.247 126.619C329.601 129.293 327.467 130.357 330.307 130.351C333.146 130.346 332.034 132.284 333.45 131.266C337.948 128.03 341.572 125.529 349.071 124.525Z" fill="#B6B03F" fill-opacity="0.71"/>
<circle cx="361.2" cy="131.645" r="1.875" transform="rotate(-0.0260272 361.2 131.645)" fill="#FEFEFE"/>
<circle cx="361.7" cy="131.645" r="1.375" transform="rotate(-0.0260272 361.7 131.645)" fill="black"/>
<path d="M222.159 109.794C230.189 113.244 233.844 113.197 233.166 119.033C232.545 124.372 225.052 123.352 221.198 124.028C217.344 124.703 226.943 118.435 227.088 117.194C227.266 115.658 222.364 112.366 222.159 109.794Z" fill="url(#paint2_linear_66_28062)" fill-opacity="0.45"/>
<path d="M255.346 109.021C261.927 109.786 273.512 117.293 272.92 122.39C272.327 127.486 258.086 130.917 252.906 130.011C247.726 129.103 233.844 125.109 234.562 118.937C234.57 114.54 244.923 107.809 255.346 109.021Z" fill="#DDD301"/>
<path d="M255.346 109.021C261.926 109.786 273.512 117.293 272.919 122.39C272.327 127.486 258.085 130.918 252.906 130.011C249.362 129.39 241.747 127.324 237.519 124.106C235.819 123.002 234.591 122.219 233.689 122.114C232.771 123.517 232.746 123.732 231.232 124.848C229.718 125.964 225.806 124.973 218.729 124.15C227.446 122.772 230.498 122.498 231.003 118.152C231.56 113.36 230.405 113.552 220.475 109.126C231.65 110.425 232.244 110.369 234.483 115.285C234.891 115.332 237.072 113.981 239.805 112.593C243.79 110.127 249.556 108.348 255.346 109.021Z" fill="url(#paint3_linear_66_28062)"/>
<path d="M254.279 130.1C253.435 131.526 242.935 129.883 239.717 128.716C234.748 126.704 232.488 125.944 235.302 125.56C238.115 125.175 236.817 123.286 238.289 124.222C242.638 126.989 248.522 128.552 254.279 130.1Z" fill="url(#paint4_linear_66_28062)" fill-opacity="0.71"/>
<path d="M256.4 122.624C256.8 123.506 255.062 124.657 251.533 126.257C247.151 128.245 243.362 127.308 245.574 125.528C247.787 123.748 245.761 122.01 247.496 122.198C252.115 122.699 255.766 121.225 256.4 122.624Z" fill="url(#paint5_linear_66_28062)"/>
<path d="M253.979 108.868C253.104 107.461 242.205 107.992 239.012 109.229C234.087 111.347 231.845 112.156 234.666 112.479C237.487 112.803 236.157 114.6 237.682 113.752C242.524 111.06 246.414 108.995 253.979 108.868Z" fill="url(#paint6_linear_66_28062)" fill-opacity="0.71"/>
<circle cx="265.2" cy="117.346" r="1.875" transform="rotate(6.63074 265.2 117.346)" fill="#FEFEFE"/>
<circle cx="265.697" cy="117.403" r="1.375" transform="rotate(6.63074 265.697 117.403)" fill="black"/>
<path d="M296.89 75.4745C305.105 78.4596 308.751 78.2034 308.408 84.0684C308.094 89.4342 300.554 88.845 296.746 89.74C292.937 90.6349 302.161 83.828 302.234 82.58C302.325 81.0366 297.242 78.0306 296.89 75.4745Z" fill="url(#paint7_linear_66_28062)" fill-opacity="0.45"/>
<path d="M329.979 72.8036C336.593 73.191 348.589 80.0225 348.289 85.1446C347.989 90.2667 333.968 94.5072 328.744 93.8984C323.521 93.2893 309.433 90.0959 309.796 83.8933C309.553 79.5025 319.503 72.1905 329.979 72.8036Z" fill="#DDD301"/>
<path d="M329.978 72.8034C336.592 73.1905 348.588 80.0222 348.288 85.1444C347.988 90.2666 333.967 94.5073 328.743 93.8982C325.17 93.4815 317.449 91.8548 313.044 88.8834C311.283 87.8786 310.013 87.1673 309.106 87.1142C308.27 88.5677 308.257 88.7841 306.809 89.9849C305.362 91.1857 301.4 90.4196 294.287 90.0032C302.911 88.129 305.943 87.6803 306.198 83.3128C306.48 78.4961 305.338 78.7547 295.171 74.9041C306.401 75.5614 306.991 75.4709 309.508 80.2509C309.918 80.275 312.018 78.8006 314.667 77.2592C318.505 74.5686 324.16 72.4629 329.978 72.8034Z" fill="url(#paint8_linear_66_28062)"/>
<path d="M330.12 93.9096C329.359 95.3811 318.783 94.3423 315.502 93.3608C310.426 91.6373 308.127 91.0078 310.914 90.4628C313.7 89.9178 312.297 88.1058 313.82 88.9567C318.32 91.4702 324.284 92.6932 330.12 93.9096Z" fill="url(#paint9_linear_66_28062)" fill-opacity="0.71"/>
<path d="M331.81 86.3243C332.26 87.1812 330.59 88.4299 327.158 90.2298C322.897 92.4647 319.061 91.7461 321.168 89.8428C323.275 87.9394 321.153 86.3197 322.896 86.4082C327.536 86.644 331.096 84.9632 331.81 86.3243Z" fill="url(#paint10_linear_66_28062)"/>
<path d="M328.605 72.7293C327.651 71.3746 316.8 72.5288 313.683 73.9464C308.888 76.3427 306.695 77.2783 309.53 77.4401C312.365 77.602 311.14 79.4715 312.614 78.538C317.295 75.5732 321.06 73.2894 328.605 72.7293Z" fill="url(#paint11_linear_66_28062)" fill-opacity="0.71"/>
<circle cx="340.293" cy="80.5502" r="1.875" transform="rotate(3.34973 340.293 80.5502)" fill="#FEFEFE"/>
<circle cx="340.792" cy="80.5795" r="1.375" transform="rotate(3.34973 340.792 80.5795)" fill="black"/>
<path d="M194.515 67.6357C202.643 70.8498 206.295 70.6958 205.787 76.5489C205.323 81.9038 197.803 81.1036 193.971 81.8915C190.138 82.6794 199.55 76.1336 199.658 74.8881C199.791 73.3478 194.795 70.2006 194.515 67.6357Z" fill="#C79C40" fill-opacity="0.69"/>
<path d="M227.665 65.8926C234.265 66.465 246.065 73.63 245.622 78.7417C245.179 83.8534 231.044 87.6995 225.84 86.9445C220.635 86.1892 206.643 82.6024 207.18 76.4124C207.059 72.0166 217.211 64.9862 227.665 65.8926Z" fill="#DDD301"/>
<path d="M227.665 65.8927C234.265 66.4649 246.065 73.63 245.622 78.7418C245.179 83.8536 231.044 87.6998 225.839 86.9446C222.279 86.4279 214.607 84.5856 210.286 81.4919C208.555 80.4381 207.305 79.6915 206.4 79.613C205.523 81.0426 205.504 81.2585 204.024 82.4183C202.543 83.578 198.604 82.7012 191.506 82.0857C200.179 80.4539 203.222 80.0903 203.6 75.7317C204.016 70.9248 202.868 71.1513 192.812 67.0173C204.02 67.989 204.612 67.915 206.994 72.7637C207.403 72.7992 209.544 71.3843 212.235 69.9177C216.146 67.3357 221.858 65.3893 227.665 65.8927Z" fill="url(#paint12_linear_66_28062)"/>
<path d="M227.215 86.9944C226.413 88.444 215.87 87.1093 212.618 86.0362C207.593 84.1712 205.312 83.4775 208.113 83.0108C210.914 82.5441 209.562 80.6936 211.06 81.5867C215.488 84.2253 221.415 85.615 227.215 86.9944Z" fill="url(#paint13_linear_66_28062)" fill-opacity="0.71"/>
<path d="M229.117 79.4596C229.542 80.3288 227.838 81.5302 224.357 83.2332C220.035 85.3479 216.221 84.5221 218.38 82.6785C220.54 80.8349 218.464 79.1564 220.203 79.2937C224.835 79.6594 228.441 78.079 229.117 79.4596Z" fill="url(#paint14_linear_66_28062)"/>
<path d="M226.294 65.7796C225.378 64.3988 214.499 65.2485 211.344 66.5782C206.483 68.8392 204.265 69.713 207.095 69.9542C209.924 70.1954 208.647 72.0299 210.147 71.138C214.908 68.3056 218.736 66.1281 226.294 65.7796Z" fill="url(#paint15_linear_66_28062)" fill-opacity="0.71"/>
<circle cx="237.758" cy="73.9255" r="1.875" transform="rotate(4.95524 237.758 73.9255)" fill="#FEFEFE"/>
<circle cx="238.256" cy="73.9686" r="1.375" transform="rotate(4.95524 238.256 73.9686)" fill="black"/>
<path d="M117.515 30.6357C125.643 33.8498 129.295 33.6958 128.787 39.5489C128.323 44.9038 120.803 44.1036 116.971 44.8915C113.138 45.6794 122.55 39.1336 122.658 37.8881C122.791 36.3478 117.795 33.2006 117.515 30.6357Z" fill="url(#paint16_linear_66_28062)" fill-opacity="0.45"/>
<path d="M150.665 28.8926C157.265 29.4651 169.065 36.63 168.622 41.7417C168.179 46.8534 154.044 50.6994 148.84 49.9445C143.635 49.1892 129.643 45.6024 130.18 39.4124C130.059 35.0166 140.211 27.9862 150.665 28.8926Z" fill="#DDD301"/>
<path d="M150.665 28.8927C157.265 29.4649 169.065 36.63 168.622 41.7418C168.179 46.8536 154.044 50.6998 148.839 49.9446C145.279 49.4279 137.607 47.5856 133.286 44.4919C131.555 43.4381 130.305 42.6915 129.4 42.613C128.523 44.0426 128.504 44.2585 127.024 45.4183C125.543 46.578 121.604 45.7012 114.506 45.0857C123.179 43.4539 126.222 43.0903 126.6 38.7317C127.016 33.9247 125.868 34.1513 115.812 30.0173C127.02 30.989 127.612 30.915 129.994 35.7637C130.403 35.7992 132.544 34.3843 135.235 32.9177C139.146 30.3357 144.858 28.3893 150.665 28.8927Z" fill="url(#paint17_linear_66_28062)"/>
<path d="M150.215 49.9944C149.413 51.444 138.87 50.1093 135.618 49.0362C130.593 47.1712 128.312 46.4775 131.113 46.0108C133.914 45.5441 132.562 43.6936 134.06 44.5867C138.488 47.2253 144.415 48.615 150.215 49.9944Z" fill="url(#paint18_linear_66_28062)" fill-opacity="0.71"/>
<path d="M152.117 42.4596C152.542 43.3288 150.838 44.5302 147.357 46.2332C143.035 48.3479 139.221 47.5221 141.38 45.6785C143.54 43.8349 141.464 42.1564 143.203 42.2937C147.835 42.6594 151.441 41.079 152.117 42.4596Z" fill="url(#paint19_linear_66_28062)"/>
<path d="M149.294 28.7796C148.378 27.3988 137.499 28.2485 134.344 29.5782C129.483 31.8392 127.265 32.713 130.095 32.9542C132.924 33.1954 131.647 35.0299 133.147 34.138C137.908 31.3056 141.736 29.1281 149.294 28.7796Z" fill="url(#paint20_linear_66_28062)" fill-opacity="0.71"/>
<circle cx="160.758" cy="36.9255" r="1.875" transform="rotate(4.95524 160.758 36.9255)" fill="#FEFEFE"/>
<circle cx="161.256" cy="36.9686" r="1.375" transform="rotate(4.95524 161.256 36.9686)" fill="black"/>
<path d="M15.5575 12.8421C22.1039 18.6328 25.59 19.7323 23.1189 25.0623C20.8581 29.9387 14.0605 26.6244 10.1889 26.0596C6.31732 25.4947 17.396 22.5469 17.9218 21.4127C18.5721 20.0101 14.9465 15.3488 15.5575 12.8421Z" fill="#B6B03F" fill-opacity="0.71"/>
<path d="M47.3178 22.4969C53.3282 25.2837 61.9814 36.0401 59.8233 40.695C57.6652 45.35 43.0657 44.1505 38.4297 41.6676C33.7941 39.1846 21.8607 31.0454 24.474 25.4085C25.8581 21.2345 37.7977 18.0832 47.3178 22.4969Z" fill="#DDD301"/>
<path d="M47.3174 22.4965C53.3279 25.2831 61.9812 36.0396 59.823 40.6947C57.6648 45.3497 43.065 44.1502 38.4294 41.6672C35.2583 39.9686 28.6728 35.6228 25.6645 31.2421C24.3955 29.6615 23.475 28.5339 22.6506 28.1517C21.3393 29.197 21.2481 29.3936 19.4609 29.9796C17.6736 30.5655 14.269 28.3992 7.80495 25.4023C16.5154 26.8228 19.5 27.5176 21.3402 23.5485C23.3697 19.1711 22.2123 18.9927 14.1668 11.6803C24.3731 16.4122 24.955 16.5444 25.5424 21.9144C25.9153 22.0873 28.4099 21.4863 31.4394 21.0241C35.9966 19.9292 42.03 20.0451 47.3174 22.4965Z" fill="url(#paint21_linear_66_28062)"/>
<path d="M39.7062 42.183C38.4581 43.2726 29.0006 38.4259 26.3091 36.3093C22.2195 32.8437 20.3115 31.4145 23.1038 31.9299C25.8961 32.4454 25.2554 30.2449 26.3601 31.5952C29.6237 35.5842 34.7232 38.9102 39.7062 42.183Z" fill="#B6B03F" fill-opacity="0.71"/>
<path d="M44.0609 35.747C44.1646 36.7091 42.1533 37.2581 38.3006 37.6734C33.5167 38.1892 30.2118 36.1133 32.8702 35.1157C35.5287 34.1181 34.1488 31.8328 35.7372 32.5544C39.9676 34.4763 43.8962 34.2189 44.0609 35.747Z" fill="url(#paint22_linear_66_28062)"/>
<path d="M46.0675 21.9235C45.6771 20.3133 35.159 17.4058 31.7394 17.581C26.3996 18.0509 24.0165 18.1169 26.5943 19.3075C29.1722 20.4981 27.3468 21.7879 29.0604 21.4602C34.5023 20.4194 38.8426 19.6761 46.0675 21.9235Z" fill="#B6B03F" fill-opacity="0.71"/>
<circle cx="54.0711" cy="33.4878" r="1.875" transform="rotate(24.8736 54.0711 33.4878)" fill="#FEFEFE"/>
<circle cx="54.5246" cy="33.6979" r="1.375" transform="rotate(24.8736 54.5246 33.6979)" fill="black"/>
<path d="M96.5847 82.941C105.158 84.642 108.723 83.8342 109.275 89.6832C109.781 95.0343 102.24 95.5987 98.6112 97.0625C94.9828 98.5264 103.065 90.3957 102.947 89.1511C102.802 87.6119 97.3207 85.4139 96.5847 82.941Z" fill="#B6B03F" fill-opacity="0.71"/>
<path d="M128.881 75.2686C135.477 74.6455 148.373 79.573 148.855 84.6811C149.338 89.7892 136.125 96.113 130.869 96.3057C125.614 96.4981 111.205 95.4845 110.62 89.2988C109.711 84.9962 118.434 76.2558 128.881 75.2686Z" fill="#DDD301"/>
<path d="M128.881 75.2688C135.477 74.6455 148.373 79.5732 148.855 84.6814C149.338 89.7896 136.124 96.1136 130.869 96.3059C127.274 96.4376 119.396 96.004 114.589 93.7373C112.697 93.0119 111.333 92.502 110.429 92.5875C109.823 94.1513 109.843 94.3672 108.595 95.7741C107.347 97.1811 103.315 97.0265 96.2213 97.6968C104.46 94.5327 107.388 93.6282 106.976 89.2726C106.522 84.4691 105.433 84.8984 94.7983 82.6389C105.998 81.5805 106.567 81.4013 109.782 85.743C110.191 85.7043 112.043 83.9277 114.426 82.0014C117.81 78.7585 123.079 75.8171 128.881 75.2688Z" fill="url(#paint23_linear_66_28062)"/>
<path d="M132.232 96.1073C131.703 97.6776 121.092 98.2594 117.7 97.7882C112.421 96.8567 110.053 96.5842 112.724 95.6218C115.396 94.6593 113.733 93.0819 115.368 93.6912C120.197 95.4911 126.278 95.7928 132.232 96.1073Z" fill="#B6B03F" fill-opacity="0.71"/>
<path d="M132.748 88.3537C133.323 89.1324 131.862 90.6204 128.744 92.9213C124.873 95.7783 120.972 95.6515 122.765 93.4498C124.558 91.2481 122.214 89.9701 123.95 89.7926C128.572 89.3198 131.836 87.1171 132.748 88.3537Z" fill="url(#paint24_linear_66_28062)"/>
<path d="M127.513 75.4037C126.364 74.2099 115.814 77.0011 112.949 78.8762C108.575 81.9739 106.55 83.2321 109.376 82.9609C112.203 82.6897 111.277 84.7238 112.591 83.5769C116.766 79.9348 120.14 77.1049 127.513 75.4037Z" fill="#B6B03F" fill-opacity="0.71"/>
<circle cx="140.254" cy="81.3568" r="1.875" transform="rotate(-5.39843 140.254 81.3568)" fill="#FEFEFE"/>
<circle cx="140.752" cy="81.3094" r="1.375" transform="rotate(-5.39843 140.752 81.3094)" fill="black"/>
<path d="M241.585 36.941C250.158 38.642 253.723 37.8342 254.275 43.6832C254.781 49.0343 247.24 49.5987 243.611 51.0625C239.983 52.5264 248.065 44.3957 247.947 43.1511C247.802 41.6119 242.321 39.4139 241.585 36.941Z" fill="#C79C40" fill-opacity="0.69"/>
<path d="M273.881 29.2686C280.477 28.6454 293.373 33.573 293.855 38.6811C294.338 43.7893 281.125 50.1131 275.869 50.3057C270.614 50.4981 256.205 49.4845 255.62 43.2988C254.711 38.9962 263.434 30.2558 273.881 29.2686Z" fill="#DDD301"/>
<path d="M273.881 29.2688C280.477 28.6455 293.373 33.5732 293.855 38.6814C294.338 43.7896 281.124 50.1136 275.869 50.3059C272.274 50.4376 264.396 50.004 259.589 47.7373C257.697 47.0119 256.333 46.502 255.429 46.5875C254.823 48.1513 254.843 48.3672 253.595 49.7741C252.347 51.1811 248.315 51.0265 241.221 51.6968C249.46 48.5327 252.388 47.6282 251.976 43.2726C251.522 38.4691 250.433 38.8984 239.798 36.6389C250.998 35.5805 251.567 35.4013 254.782 39.743C255.191 39.7043 257.043 37.9277 259.426 36.0014C262.81 32.7585 268.079 29.8171 273.881 29.2688Z" fill="url(#paint25_linear_66_28062)"/>
<path d="M277.232 50.1073C276.703 51.6776 266.092 52.2594 262.7 51.7882C257.421 50.8567 255.053 50.5842 257.724 49.6218C260.396 48.6593 258.733 47.0819 260.368 47.6912C265.197 49.4911 271.278 49.7928 277.232 50.1073Z" fill="url(#paint26_linear_66_28062)" fill-opacity="0.71"/>
<path d="M277.748 42.3537C278.323 43.1324 276.862 44.6204 273.744 46.9213C269.873 49.7783 265.972 49.6515 267.765 47.4498C269.558 45.2481 267.214 43.9701 268.95 43.7926C273.572 43.3198 276.836 41.1171 277.748 42.3537Z" fill="url(#paint27_linear_66_28062)"/>
<path d="M272.513 29.4037C271.364 28.2099 260.814 31.0011 257.949 32.8762C253.575 35.9739 251.55 37.2321 254.376 36.9609C257.203 36.6897 256.277 38.7238 257.591 37.5769C261.766 33.9348 265.14 31.1049 272.513 29.4037Z" fill="url(#paint28_linear_66_28062)" fill-opacity="0.71"/>
<circle cx="285.254" cy="35.3568" r="1.875" transform="rotate(-5.39843 285.254 35.3568)" fill="#FEFEFE"/>
<circle cx="285.752" cy="35.3094" r="1.375" transform="rotate(-5.39843 285.752 35.3094)" fill="black"/>
<defs>
<linearGradient id="paint0_linear_66_28062" x1="369.451" y1="135.082" x2="315.826" y2="135.107" gradientUnits="userSpaceOnUse">
<stop stop-color="#DDD301"/>
<stop offset="1" stop-color="#8C6D16"/>
</linearGradient>
<linearGradient id="paint1_linear_66_28062" x1="347.313" y1="137.982" x2="347.965" y2="143.258" gradientUnits="userSpaceOnUse">
<stop stop-color="#E6DD23"/>
<stop offset="1" stop-color="#A29C16"/>
</linearGradient>
<linearGradient id="paint2_linear_66_28062" x1="234.039" y1="118.507" x2="222.035" y2="116.803" gradientUnits="userSpaceOnUse">
<stop offset="0.302885" stop-color="#7E0FB1"/>
<stop offset="0.8125" stop-color="#D021A1"/>
</linearGradient>
<linearGradient id="paint3_linear_66_28062" x1="272.998" y1="121.716" x2="219.731" y2="115.524" gradientUnits="userSpaceOnUse">
<stop stop-color="#4C1B88"/>
<stop offset="1" stop-color="#B501DD"/>
</linearGradient>
<linearGradient id="paint4_linear_66_28062" x1="245.898" y1="125.136" x2="242.352" y2="131.124" gradientUnits="userSpaceOnUse">
<stop offset="0.216346" stop-color="#800EB2"/>
<stop offset="0.682692" stop-color="#C9348A"/>
</linearGradient>
<linearGradient id="paint5_linear_66_28062" x1="251.701" y1="122.023" x2="252.878" y2="126.515" gradientUnits="userSpaceOnUse">
<stop stop-color="#7910AC"/>
<stop offset="1" stop-color="#96346E"/>
</linearGradient>
<linearGradient id="paint6_linear_66_28062" x1="241.452" y1="106.852" x2="245.849" y2="113.923" gradientUnits="userSpaceOnUse">
<stop offset="0.274038" stop-color="#CC2C93"/>
<stop offset="0.644231" stop-color="#820EB4"/>
</linearGradient>
<linearGradient id="paint7_linear_66_28062" x1="309.249" y1="83.4933" x2="297.168" y2="82.4794" gradientUnits="userSpaceOnUse">
<stop offset="0.302885" stop-color="#7E0FB1"/>
<stop offset="0.8125" stop-color="#D021A1"/>
</linearGradient>
<linearGradient id="paint8_linear_66_28062" x1="348.328" y1="84.4675" x2="294.794" y2="81.3341" gradientUnits="userSpaceOnUse">
<stop stop-color="#4C1B88"/>
<stop offset="1" stop-color="#B501DD"/>
</linearGradient>
<linearGradient id="paint9_linear_66_28062" x1="321.469" y1="89.4335" x2="318.271" y2="95.6145" gradientUnits="userSpaceOnUse">
<stop offset="0.216346" stop-color="#800EB2"/>
<stop offset="0.682692" stop-color="#C9348A"/>
</linearGradient>
<linearGradient id="paint10_linear_66_28062" x1="327.084" y1="85.9933" x2="328.516" y2="90.4105" gradientUnits="userSpaceOnUse">
<stop stop-color="#7910AC"/>
<stop offset="1" stop-color="#96346E"/>
</linearGradient>
<linearGradient id="paint11_linear_66_28062" x1="315.983" y1="71.434" x2="320.777" y2="78.2416" gradientUnits="userSpaceOnUse">
<stop offset="0.274038" stop-color="#CC2C93"/>
<stop offset="0.644231" stop-color="#820EB4"/>
</linearGradient>
<linearGradient id="paint12_linear_66_28062" x1="245.68" y1="78.0663" x2="192.256" y2="73.4343" gradientUnits="userSpaceOnUse">
<stop stop-color="#DD01CB"/>
<stop offset="1" stop-color="#A98522"/>
</linearGradient>
<linearGradient id="paint13_linear_66_28062" x1="218.692" y1="82.2777" x2="215.323" y2="88.3666" gradientUnits="userSpaceOnUse">
<stop stop-color="#CF239F"/>
<stop offset="1" stop-color="#B6B03F"/>
</linearGradient>
<linearGradient id="paint14_linear_66_28062" x1="224.401" y1="78.9963" x2="225.709" y2="83.4519" gradientUnits="userSpaceOnUse">
<stop stop-color="#96346E"/>
<stop offset="1" stop-color="#E6DD23"/>
</linearGradient>
<linearGradient id="paint15_linear_66_28062" x1="213.714" y1="64.1313" x2="218.315" y2="71.0705" gradientUnits="userSpaceOnUse">
<stop stop-color="#B6B03F"/>
<stop offset="1" stop-color="#CC2C93"/>
</linearGradient>
<linearGradient id="paint16_linear_66_28062" x1="129.645" y1="38.9976" x2="117.596" y2="37.6456" gradientUnits="userSpaceOnUse">
<stop offset="0.302885" stop-color="#7E0FB1"/>
<stop offset="0.8125" stop-color="#D021A1"/>
</linearGradient>
<linearGradient id="paint17_linear_66_28062" x1="168.68" y1="41.0663" x2="115.256" y2="36.4343" gradientUnits="userSpaceOnUse">
<stop stop-color="#4C1B88"/>
<stop offset="1" stop-color="#B501DD"/>
</linearGradient>
<linearGradient id="paint18_linear_66_28062" x1="141.692" y1="45.2777" x2="138.323" y2="51.3666" gradientUnits="userSpaceOnUse">
<stop offset="0.216346" stop-color="#800EB2"/>
<stop offset="0.682692" stop-color="#C9348A"/>
</linearGradient>
<linearGradient id="paint19_linear_66_28062" x1="147.401" y1="41.9963" x2="148.709" y2="46.4519" gradientUnits="userSpaceOnUse">
<stop stop-color="#7910AC"/>
<stop offset="1" stop-color="#96346E"/>
</linearGradient>
<linearGradient id="paint20_linear_66_28062" x1="136.714" y1="27.1313" x2="141.315" y2="34.0705" gradientUnits="userSpaceOnUse">
<stop offset="0.274038" stop-color="#CC2C93"/>
<stop offset="0.644231" stop-color="#820EB4"/>
</linearGradient>
<linearGradient id="paint21_linear_66_28062" x1="60.1082" y1="40.0795" x2="11.4576" y2="17.5239" gradientUnits="userSpaceOnUse">
<stop stop-color="#DDD301"/>
<stop offset="1" stop-color="#8C6D16"/>
</linearGradient>
<linearGradient id="paint22_linear_66_28062" x1="38.8065" y1="33.3897" x2="37.1768" y2="38.4497" gradientUnits="userSpaceOnUse">
<stop stop-color="#E6DD23"/>
<stop offset="1" stop-color="#A29C16"/>
</linearGradient>
<linearGradient id="paint23_linear_66_28062" x1="148.791" y1="84.0063" x2="95.4043" y2="89.0514" gradientUnits="userSpaceOnUse">
<stop stop-color="#DDD301"/>
<stop offset="1" stop-color="#8C6D16"/>
</linearGradient>
<linearGradient id="paint24_linear_66_28062" x1="127.022" y1="88.9667" x2="128.165" y2="94.1583" gradientUnits="userSpaceOnUse">
<stop stop-color="#E6DD23"/>
<stop offset="1" stop-color="#A29C16"/>
</linearGradient>
<linearGradient id="paint25_linear_66_28062" x1="293.791" y1="38.0063" x2="240.404" y2="43.0514" gradientUnits="userSpaceOnUse">
<stop stop-color="#DD01CB"/>
<stop offset="1" stop-color="#A98522"/>
</linearGradient>
<linearGradient id="paint26_linear_66_28062" x1="268" y1="46.9992" x2="265.779" y2="53.5946" gradientUnits="userSpaceOnUse">
<stop stop-color="#CF239F"/>
<stop offset="1" stop-color="#B6B03F"/>
</linearGradient>
<linearGradient id="paint27_linear_66_28062" x1="273.026" y1="42.7455" x2="275.114" y2="46.8934" gradientUnits="userSpaceOnUse">
<stop stop-color="#96346E"/>
<stop offset="1" stop-color="#E6DD23"/>
</linearGradient>
<linearGradient id="paint28_linear_66_28062" x1="259.841" y1="30.0432" x2="265.615" y2="36.0424" gradientUnits="userSpaceOnUse">
<stop stop-color="#B6B03F"/>
<stop offset="1" stop-color="#CC2C93"/>
</linearGradient>
</defs>
</svg>
