<svg width="1548" height="1002" viewBox="0 0 1548 1002" fill="none" xmlns="http://www.w3.org/2000/svg">
<g filter="url(#filter0_d_195_1716)">
<path d="M243.32 68.2402C266.61 -25.454 154.696 20.6401 5.92555 83.3213L5.92555 802.081C179.57 803.683 230.595 825.846 279.054 822.694C305 821.007 449.406 793.657 513.572 772.69C597.813 745.164 452.67 722.25 467.446 695.937C496.461 644.271 433.007 657.312 412.786 664.925C348.145 689.261 386.25 643.925 412.786 623.086C438.928 602.556 428.986 562.296 438.928 545.116C450.357 525.366 440.583 513.823 368.107 525.366C304.439 535.507 350.046 474.354 422.767 433.95C450.45 418.57 452.992 409.537 447.963 402.598C428.303 409.243 392.89 414.21 371.806 412.473C328.519 404.424 364.971 392.161 379.106 376.109C393.241 360.058 379.706 346.296 422.994 354.345C434.099 356.41 441.419 358.785 446.323 361.45C477.436 334.863 433.65 319.172 332.935 326.154C264.989 330.865 259.307 299.634 349.117 289.15C418.058 284.127 422.065 235.725 316.774 243.286C195.12 252.022 436.394 105.52 428.307 54.7266C421.178 9.95426 225.124 141.442 243.32 68.2402Z" fill="url(#paint0_linear_195_1716)"/>
</g>
<g filter="url(#filter1_d_195_1716)">
<path d="M1268.6 117.111C1244.14 4.2859 1361.69 59.7914 1517.96 135.271L1517.96 1000.8C1335.57 1002.72 1141.49 997.867 1090.59 994.071C1063.34 992.039 1052.12 990.653 984.721 965.405C896.234 932.259 1048.69 904.664 1033.17 872.979C1002.7 810.763 1069.35 826.466 1090.59 835.634C1158.49 864.94 1118.46 810.346 1090.59 785.252C1063.13 760.53 1073.57 712.049 1063.13 691.361C1051.12 667.579 1061.39 653.678 1137.52 667.578C1204.4 679.789 1156.49 606.151 1080.11 557.496C1003.72 508.842 1109.56 512.936 1063.13 476.905C1016.7 440.875 1061.48 418.71 1174.47 427.689C1245.84 433.362 1251.81 395.753 1157.47 383.129C1085.05 377.08 1080.84 318.795 1191.44 327.899C1319.23 338.419 1065.79 162.002 1074.29 100.838C1081.78 46.9247 1287.71 205.26 1268.6 117.111ZM1311.02 774.472C1266.35 774.253 1190.34 717.706 1189.67 750.44C1189.01 783.176 1237.73 842.814 1309.62 843.166C1354.29 843.384 1423.4 846.05 1424.07 813.314C1424.73 780.58 1355.68 774.69 1311.02 774.472ZM1215.12 489.103C1200.27 469.773 1214.49 453.202 1169.02 462.894C1123.55 472.585 1138.5 487.96 1128.55 507.554C1120.06 520.458 1188.97 536.087 1222.78 532.892C1268.26 523.2 1229.96 508.432 1215.12 489.103ZM1345.93 134C1302.85 134 1318.43 188.832 1318.43 235.5C1318.43 282.168 1338.85 320 1381.93 320C1425 320 1474.43 282.168 1474.43 235.5C1474.43 188.832 1389 134 1345.93 134Z" fill="url(#paint1_linear_195_1716)"/>
</g>
<path d="M1223.87 590.475C1218.05 649.905 1261.49 556.142 1321.4 609.193C1354.05 628.992 1369.68 633.303 1385.59 635.493C1442.51 643.327 1492.76 614.007 1484.76 588.982C1461.78 517.117 1465.36 615.346 1430.32 598.399C1395.28 581.453 1406.35 589.495 1427.93 579.374C1449.51 569.252 1459.39 539.873 1473.14 525.367C1486.89 510.861 1529.8 498.789 1514.1 491.192C1487.15 478.159 1463.46 479.834 1450.43 507.817C1439.43 526.21 1417.07 552.236 1415.97 523.979C1414.86 495.722 1491.04 434.625 1440.91 435.734C1404.85 436.532 1439.77 499.461 1381.42 494.139C1361.9 492.359 1385.52 442.141 1395.79 421.21C1409.87 392.513 1396.97 387.855 1372.57 386.634C1348.18 385.414 1362.31 460.259 1357.44 474.882C1340.18 526.719 1319.21 405.328 1328.54 381.387C1337.86 357.445 1344.13 349.9 1280.97 357.653C1217.81 365.405 1242.15 391.401 1265.36 411.017C1288.57 430.634 1342.54 552.663 1259.6 461.487C1219.67 417.587 1238.58 453.507 1215.44 490.832C1202.27 512.084 1274.94 510.122 1306.95 562.445C1333.65 606.08 1231.79 509.739 1223.87 590.475Z" fill="#22757F"/>
<g filter="url(#filter2_i_195_1716)">
<circle cx="19.8281" cy="19.8281" r="19.8281" transform="matrix(-0.547366 -0.836894 -0.836894 0.547366 1096.68 226.688)" fill="url(#paint2_linear_195_1716)" fill-opacity="0.75"/>
</g>
<circle cx="19.8281" cy="19.8281" r="19.4062" transform="matrix(-0.547366 -0.836894 -0.836894 0.547366 1096.68 226.688)" stroke="#97CBDB" stroke-width="0.84375"/>
<path d="M1067.32 206.429C1067.31 208.761 1070.62 206.3 1074.51 207.895C1078.39 209.49 1080.36 214.699 1081.38 212.204C1082.41 209.709 1080.09 206.393 1076.21 204.798C1072.32 203.204 1066.5 203.41 1067.32 206.429Z" fill="white" fill-opacity="0.72"/>
<g filter="url(#filter3_i_195_1716)">
<circle cx="13.2188" cy="13.2188" r="13.2188" transform="matrix(-0.695855 -0.718182 -0.718182 0.695855 1037.43 168.237)" fill="url(#paint3_linear_195_1716)" fill-opacity="0.75"/>
</g>
<circle cx="13.2188" cy="13.2188" r="12.9375" transform="matrix(-0.695855 -0.718182 -0.718182 0.695855 1037.43 168.237)" stroke="#97CBDB" stroke-width="0.5625"/>
<path d="M1015.65 158.678C1015.94 160.207 1017.8 158.177 1020.54 158.732C1023.29 159.286 1025.23 162.448 1025.59 160.685C1025.94 158.922 1024.01 157.044 1021.27 156.49C1018.52 155.936 1014.73 156.807 1015.65 158.678Z" fill="white" fill-opacity="0.72"/>
<g filter="url(#filter4_i_195_1716)">
<circle cx="26.4375" cy="26.4375" r="26.4375" transform="matrix(-0.828568 -0.559888 -0.559888 0.828568 1098.18 286.104)" fill="url(#paint4_linear_195_1716)" fill-opacity="0.75"/>
</g>
<circle cx="26.4375" cy="26.4375" r="25.875" transform="matrix(-0.828568 -0.559888 -0.559888 0.828568 1098.18 286.104)" stroke="#97CBDB" stroke-width="1.125"/>
<path d="M1051.63 276.341C1052.82 279.216 1055.63 274.479 1061.22 274.436C1066.82 274.394 1071.93 279.783 1071.9 276.186C1071.87 272.59 1067.31 269.709 1061.72 269.752C1056.12 269.795 1049.06 273.056 1051.63 276.341Z" fill="white" fill-opacity="0.72"/>
<g filter="url(#filter5_i_195_1716)">
<circle cx="26.4375" cy="26.4375" r="26.4375" transform="matrix(0.00328086 -0.999995 -0.999995 -0.00328086 1005 239.798)" fill="url(#paint5_linear_195_1716)" fill-opacity="0.75"/>
</g>
<circle cx="26.4375" cy="26.4375" r="25.875" transform="matrix(0.00328086 -0.999995 -0.999995 -0.00328086 1005 239.798)" stroke="#97CBDB" stroke-width="1.125"/>
<path d="M987.177 195.71C985.451 198.296 990.948 197.988 994.102 202.612C997.256 207.236 995.628 214.482 998.599 212.455C1001.57 210.428 1001.42 205.037 998.268 200.413C995.114 195.789 988.472 191.744 987.177 195.71Z" fill="white" fill-opacity="0.72"/>
<g filter="url(#filter6_i_195_1716)">
<circle cx="26.4375" cy="26.4375" r="26.4375" transform="matrix(-0.787274 -0.616604 -0.616604 0.787274 987.926 145.103)" fill="url(#paint6_linear_195_1716)" fill-opacity="0.75"/>
</g>
<circle cx="26.4375" cy="26.4375" r="25.875" transform="matrix(-0.787274 -0.616604 -0.616604 0.787274 987.926 145.103)" stroke="#97CBDB" stroke-width="1.125"/>
<path d="M942.182 132.101C943.163 135.052 946.296 130.524 951.882 130.873C957.469 131.223 962.187 136.957 962.412 133.368C962.637 129.778 958.29 126.585 952.704 126.235C947.117 125.885 939.847 128.644 942.182 132.101Z" fill="white" fill-opacity="0.72"/>
<g filter="url(#filter7_i_195_1716)">
<circle cx="19.8281" cy="19.8281" r="19.8281" transform="matrix(-0.387369 -0.921925 -0.921925 0.387369 1055.43 97.3101)" fill="url(#paint7_linear_195_1716)" fill-opacity="0.75"/>
</g>
<circle cx="19.8281" cy="19.8281" r="19.4062" transform="matrix(-0.387369 -0.921925 -0.921925 0.387369 1055.43 97.3101)" stroke="#97CBDB" stroke-width="0.84375"/>
<path d="M1030.21 72.0869C1029.77 74.3783 1033.48 72.556 1037.01 74.8253C1040.54 77.0947 1041.54 82.5743 1043 80.3049C1044.46 78.0355 1042.78 74.3561 1039.24 72.0868C1035.71 69.8174 1029.94 68.9691 1030.21 72.0869Z" fill="white" fill-opacity="0.72"/>
<g filter="url(#filter8_i_195_1716)">
<circle cx="13.2188" cy="13.2188" r="13.2188" transform="matrix(-0.853945 -0.520364 -0.520364 0.853945 1005.93 270.257)" fill="url(#paint8_linear_195_1716)" fill-opacity="0.75"/>
</g>
<circle cx="13.2188" cy="13.2188" r="12.9375" transform="matrix(-0.853945 -0.520364 -0.520364 0.853945 1005.93 270.257)" stroke="#97CBDB" stroke-width="0.5625"/>
<path d="M982.451 266.474C983.11 267.882 984.401 265.45 987.196 265.297C989.99 265.145 992.668 267.716 992.57 265.921C992.472 264.125 990.127 262.793 987.333 262.946C984.538 263.099 981.089 264.894 982.451 266.474Z" fill="white" fill-opacity="0.72"/>
<defs>
<filter id="filter0_d_195_1716" x="1.09673e-05" y="15" width="545.96" height="819.852" filterUnits="userSpaceOnUse" color-interpolation-filters="sRGB">
<feFlood flood-opacity="0" result="BackgroundImageFix"/>
<feColorMatrix in="SourceAlpha" type="matrix" values="0 0 0 0 0 0 0 0 0 0 0 0 0 0 0 0 0 0 127 0" result="hardAlpha"/>
<feOffset dy="5.92553"/>
<feGaussianBlur stdDeviation="2.96276"/>
<feComposite in2="hardAlpha" operator="out"/>
<feColorMatrix type="matrix" values="0 0 0 0 0 0 0 0 0 0 0 0 0 0 0 0 0 0 0.25 0"/>
<feBlend mode="normal" in2="BackgroundImageFix" result="effect1_dropShadow_195_1716"/>
<feBlend mode="normal" in="SourceGraphic" in2="effect1_dropShadow_195_1716" result="shape"/>
</filter>
<filter id="filter1_d_195_1716" x="956.926" y="33.0292" width="590.995" height="968.204" filterUnits="userSpaceOnUse" color-interpolation-filters="sRGB">
<feFlood flood-opacity="0" result="BackgroundImageFix"/>
<feColorMatrix in="SourceAlpha" type="matrix" values="0 0 0 0 0 0 0 0 0 0 0 0 0 0 0 0 0 0 127 0" result="hardAlpha"/>
<feOffset dx="19.9708" dy="-9.98538"/>
<feGaussianBlur stdDeviation="4.99269"/>
<feComposite in2="hardAlpha" operator="out"/>
<feColorMatrix type="matrix" values="0 0 0 0 0 0 0 0 0 0 0 0 0 0 0 0 0 0 0.25 0"/>
<feBlend mode="normal" in2="BackgroundImageFix" result="effect1_dropShadow_195_1716"/>
<feBlend mode="normal" in="SourceGraphic" in2="effect1_dropShadow_195_1716" result="shape"/>
</filter>
<filter id="filter2_i_195_1716" x="1048.27" y="199.992" width="40.7856" height="40.7856" filterUnits="userSpaceOnUse" color-interpolation-filters="sRGB">
<feFlood flood-opacity="0" result="BackgroundImageFix"/>
<feBlend mode="normal" in="SourceGraphic" in2="BackgroundImageFix" result="shape"/>
<feColorMatrix in="SourceAlpha" type="matrix" values="0 0 0 0 0 0 0 0 0 0 0 0 0 0 0 0 0 0 127 0" result="hardAlpha"/>
<feOffset dx="-1.40625" dy="-2.8125"/>
<feGaussianBlur stdDeviation="0.5625"/>
<feComposite in2="hardAlpha" operator="arithmetic" k2="-1" k3="1"/>
<feColorMatrix type="matrix" values="0 0 0 0 0.283449 0 0 0 0 0.362029 0 0 0 0 0.597769 0 0 0 0.45 0"/>
<feBlend mode="normal" in2="shape" result="effect1_innerShadow_195_1716"/>
</filter>
<filter id="filter3_i_195_1716" x="1004.76" y="153.973" width="27.1875" height="27.1875" filterUnits="userSpaceOnUse" color-interpolation-filters="sRGB">
<feFlood flood-opacity="0" result="BackgroundImageFix"/>
<feBlend mode="normal" in="SourceGraphic" in2="BackgroundImageFix" result="shape"/>
<feColorMatrix in="SourceAlpha" type="matrix" values="0 0 0 0 0 0 0 0 0 0 0 0 0 0 0 0 0 0 127 0" result="hardAlpha"/>
<feOffset dx="-0.9375" dy="-1.875"/>
<feGaussianBlur stdDeviation="0.375"/>
<feComposite in2="hardAlpha" operator="arithmetic" k2="-1" k3="1"/>
<feColorMatrix type="matrix" values="0 0 0 0 0.283449 0 0 0 0 0.362029 0 0 0 0 0.597769 0 0 0 0.45 0"/>
<feBlend mode="normal" in2="shape" result="effect1_innerShadow_195_1716"/>
</filter>
<filter id="filter4_i_195_1716" x="1033.53" y="265.267" width="54.3804" height="54.3804" filterUnits="userSpaceOnUse" color-interpolation-filters="sRGB">
<feFlood flood-opacity="0" result="BackgroundImageFix"/>
<feBlend mode="normal" in="SourceGraphic" in2="BackgroundImageFix" result="shape"/>
<feColorMatrix in="SourceAlpha" type="matrix" values="0 0 0 0 0 0 0 0 0 0 0 0 0 0 0 0 0 0 127 0" result="hardAlpha"/>
<feOffset dx="-1.875" dy="-3.75"/>
<feGaussianBlur stdDeviation="0.75"/>
<feComposite in2="hardAlpha" operator="arithmetic" k2="-1" k3="1"/>
<feColorMatrix type="matrix" values="0 0 0 0 0.283449 0 0 0 0 0.362029 0 0 0 0 0.597769 0 0 0 0.45 0"/>
<feBlend mode="normal" in2="shape" result="effect1_innerShadow_195_1716"/>
</filter>
<filter id="filter5_i_195_1716" x="950.714" y="185.337" width="54.375" height="54.375" filterUnits="userSpaceOnUse" color-interpolation-filters="sRGB">
<feFlood flood-opacity="0" result="BackgroundImageFix"/>
<feBlend mode="normal" in="SourceGraphic" in2="BackgroundImageFix" result="shape"/>
<feColorMatrix in="SourceAlpha" type="matrix" values="0 0 0 0 0 0 0 0 0 0 0 0 0 0 0 0 0 0 127 0" result="hardAlpha"/>
<feOffset dx="-1.875" dy="-3.75"/>
<feGaussianBlur stdDeviation="0.75"/>
<feComposite in2="hardAlpha" operator="arithmetic" k2="-1" k3="1"/>
<feColorMatrix type="matrix" values="0 0 0 0 0.283449 0 0 0 0 0.362029 0 0 0 0 0.597769 0 0 0 0.45 0"/>
<feBlend mode="normal" in2="shape" result="effect1_innerShadow_195_1716"/>
</filter>
<filter id="filter6_i_195_1716" x="922.872" y="121.676" width="54.3774" height="54.3774" filterUnits="userSpaceOnUse" color-interpolation-filters="sRGB">
<feFlood flood-opacity="0" result="BackgroundImageFix"/>
<feBlend mode="normal" in="SourceGraphic" in2="BackgroundImageFix" result="shape"/>
<feColorMatrix in="SourceAlpha" type="matrix" values="0 0 0 0 0 0 0 0 0 0 0 0 0 0 0 0 0 0 127 0" result="hardAlpha"/>
<feOffset dx="-1.875" dy="-3.75"/>
<feGaussianBlur stdDeviation="0.75"/>
<feComposite in2="hardAlpha" operator="arithmetic" k2="-1" k3="1"/>
<feColorMatrix type="matrix" values="0 0 0 0 0.283449 0 0 0 0 0.362029 0 0 0 0 0.597769 0 0 0 0.45 0"/>
<feBlend mode="normal" in2="shape" result="effect1_innerShadow_195_1716"/>
</filter>
<filter id="filter7_i_195_1716" x="1008.51" y="65.7524" width="40.7915" height="40.7915" filterUnits="userSpaceOnUse" color-interpolation-filters="sRGB">
<feFlood flood-opacity="0" result="BackgroundImageFix"/>
<feBlend mode="normal" in="SourceGraphic" in2="BackgroundImageFix" result="shape"/>
<feColorMatrix in="SourceAlpha" type="matrix" values="0 0 0 0 0 0 0 0 0 0 0 0 0 0 0 0 0 0 127 0" result="hardAlpha"/>
<feOffset dx="-1.40625" dy="-2.8125"/>
<feGaussianBlur stdDeviation="0.5625"/>
<feComposite in2="hardAlpha" operator="arithmetic" k2="-1" k3="1"/>
<feColorMatrix type="matrix" values="0 0 0 0 0.283449 0 0 0 0 0.362029 0 0 0 0 0.597769 0 0 0 0.45 0"/>
<feBlend mode="normal" in2="shape" result="effect1_innerShadow_195_1716"/>
</filter>
<filter id="filter8_i_195_1716" x="973.788" y="260.696" width="27.1912" height="27.1914" filterUnits="userSpaceOnUse" color-interpolation-filters="sRGB">
<feFlood flood-opacity="0" result="BackgroundImageFix"/>
<feBlend mode="normal" in="SourceGraphic" in2="BackgroundImageFix" result="shape"/>
<feColorMatrix in="SourceAlpha" type="matrix" values="0 0 0 0 0 0 0 0 0 0 0 0 0 0 0 0 0 0 127 0" result="hardAlpha"/>
<feOffset dx="-0.9375" dy="-1.875"/>
<feGaussianBlur stdDeviation="0.375"/>
<feComposite in2="hardAlpha" operator="arithmetic" k2="-1" k3="1"/>
<feColorMatrix type="matrix" values="0 0 0 0 0.283449 0 0 0 0 0.362029 0 0 0 0 0.597769 0 0 0 0.45 0"/>
<feBlend mode="normal" in2="shape" result="effect1_innerShadow_195_1716"/>
</filter>
<linearGradient id="paint0_linear_195_1716" x1="357.85" y1="6.22306" x2="357.85" y2="821.956" gradientUnits="userSpaceOnUse">
<stop stop-color="#15253E"/>
<stop offset="1" stop-color="#2C4876"/>
</linearGradient>
<linearGradient id="paint1_linear_195_1716" x1="1237.45" y1="43.9263" x2="1237.45" y2="1001.23" gradientUnits="userSpaceOnUse">
<stop offset="0.302885" stop-color="#637EA7"/>
<stop offset="0.701923" stop-color="#0C203F"/>
</linearGradient>
<linearGradient id="paint2_linear_195_1716" x1="19.8281" y1="0" x2="19.8281" y2="39.6562" gradientUnits="userSpaceOnUse">
<stop stop-color="#ADCDF2" stop-opacity="0.5"/>
<stop offset="0.961538" stop-color="#64768C" stop-opacity="0.5"/>
</linearGradient>
<linearGradient id="paint3_linear_195_1716" x1="13.2188" y1="0" x2="13.2188" y2="26.4375" gradientUnits="userSpaceOnUse">
<stop stop-color="#ADCDF2" stop-opacity="0.5"/>
<stop offset="0.961538" stop-color="#64768C" stop-opacity="0.5"/>
</linearGradient>
<linearGradient id="paint4_linear_195_1716" x1="26.4375" y1="0" x2="26.4375" y2="52.875" gradientUnits="userSpaceOnUse">
<stop stop-color="#ADCDF2" stop-opacity="0.5"/>
<stop offset="0.961538" stop-color="#64768C" stop-opacity="0.5"/>
</linearGradient>
<linearGradient id="paint5_linear_195_1716" x1="26.4375" y1="0" x2="26.4375" y2="52.875" gradientUnits="userSpaceOnUse">
<stop stop-color="#ADCDF2" stop-opacity="0.5"/>
<stop offset="0.961538" stop-color="#64768C" stop-opacity="0.5"/>
</linearGradient>
<linearGradient id="paint6_linear_195_1716" x1="26.4375" y1="0" x2="26.4375" y2="52.875" gradientUnits="userSpaceOnUse">
<stop stop-color="#ADCDF2" stop-opacity="0.5"/>
<stop offset="0.961538" stop-color="#64768C" stop-opacity="0.5"/>
</linearGradient>
<linearGradient id="paint7_linear_195_1716" x1="19.8281" y1="0" x2="19.8281" y2="39.6562" gradientUnits="userSpaceOnUse">
<stop stop-color="#ADCDF2" stop-opacity="0.5"/>
<stop offset="0.961538" stop-color="#64768C" stop-opacity="0.5"/>
</linearGradient>
<linearGradient id="paint8_linear_195_1716" x1="13.2188" y1="0" x2="13.2188" y2="26.4375" gradientUnits="userSpaceOnUse">
<stop stop-color="#ADCDF2" stop-opacity="0.5"/>
<stop offset="0.961538" stop-color="#64768C" stop-opacity="0.5"/>
</linearGradient>
</defs>
</svg>
