    <svg width="100%" height="100%" viewBox="0 0 1219 2454" fill="none" xmlns="http://www.w3.org/2000/svg">
        <g clip-path="url(#clip0_72_2)">
            <g filter="url(#filter0_d_72_2)">
                <path
                    d="M286.462 2322.42C318.625 2551.4 197.186 2442.28 35.6376 2293.77L-23.2505 530.922C159.183 520.896 211.013 464.745 262.22 470.774C289.636 474.002 443.702 536.007 512.882 585.176C603.706 649.728 452.984 711.028 470.675 775.043C505.414 900.742 437.632 870.987 415.748 853.025C345.792 795.607 389.57 905.462 419.176 955.64C448.343 1005.07 441.189 1104.17 453.049 1145.95C466.683 1193.99 457.353 1222.65 380.208 1196.88C312.438 1174.24 365.398 1322.63 445.166 1419.17C475.531 1455.92 478.943 1477.98 474.224 1495.18C453.01 1479.57 415.371 1468.63 393.346 1473.64C348.494 1494.9 387.825 1523.69 404.001 1562.57C420.177 1601.44 407.074 1635.66 451.926 1614.4C463.434 1608.95 470.933 1602.87 475.871 1596.16C510.759 1660.27 466.01 1700.29 359.55 1686.71C287.727 1677.54 284.312 1754.34 379.595 1776.89C452.489 1786.79 460.668 1905.36 349.349 1890.52C220.728 1873.36 486.401 2224.2 482.06 2349.06C478.232 2459.12 261.334 2143.52 286.462 2322.42Z"
                    fill="url(#paint0_linear_72_2)" />
            </g>
            <path class="seaweed"
                d="M63.5339 782.838C11.3241 829.301 129.585 781.183 151.208 870.541C170.051 911.451 183.089 926.63 198.059 940.198C251.63 988.748 327.024 1000.66 338.056 973.408C369.738 895.15 297.275 981.655 273.706 941.417C250.137 901.178 255.502 916.191 285.969 923.418C316.436 930.646 349.574 912.82 375.236 910.545C400.897 908.269 455.234 929.522 444.669 911.484C426.542 880.538 400.421 864.549 365.053 878.858C339.266 886.48 295.644 892.261 316.406 867.318C337.168 842.375 464.394 846.227 411.004 810.309C372.6 784.472 360.369 863.887 303.355 816.433C284.283 800.558 348 775.052 374.999 764.731C412.015 750.581 402.105 737.111 377.49 718.13C352.874 699.148 309.616 773.45 293.169 782.356C234.866 813.924 307.075 694.855 335.42 681.268C363.765 667.682 376.189 665.851 303.992 626.023C231.794 586.196 237.127 626.29 246.233 660.111C255.338 693.931 217.209 837.812 201.044 698.972C193.261 632.122 185.203 676.696 132.006 691.555C101.716 700.016 179.382 751.778 172.334 819.998C166.456 876.889 134.46 719.717 63.5339 782.838Z"
                fill="#22757F" />
            <path
                d="M953.32 297.499C994.104 329.602 946.34 255.2 1014.27 238.703C1044.59 225.416 1055.33 216.61 1064.63 206.612C1097.94 170.835 1100.75 122.146 1078.51 115.876C1014.67 97.8715 1088.47 141.779 1059.07 158.076C1029.67 174.374 1040.94 170.491 1043.96 150.745C1046.98 130.999 1030.2 110.278 1026.22 93.8926C1022.23 77.5073 1034.15 42.0439 1020.97 49.3495C998.364 61.8835 988.126 79.1016 1002.35 101.355C1010.52 117.664 1018.79 145.46 997.523 132.885C976.255 120.309 968.308 38.6271 944.854 73.9154C927.983 99.2995 991.058 104.8 958.906 142.752C948.151 155.447 922.744 115.349 912.358 98.3432C898.119 75.0286 888.454 81.7789 875.749 98.1201C863.044 114.461 924.798 140.005 933.169 150.287C962.845 186.736 863.635 143.951 850.583 126.179C837.531 108.407 835.031 100.495 810.144 147.957C785.256 195.419 816.11 190.818 841.739 183.983C867.369 177.149 983.021 197.352 875.981 211.809C824.442 218.77 859.948 222.622 876.133 256.29C885.35 275.461 919.087 224.141 972.973 226.649C1017.91 228.74 897.916 253.887 953.32 297.499Z"
                fill="#22757F" />
            <g filter="url(#filter1_d_72_2)">
                <path
                    d="M-119.497 190.905C35.4196 31.0333 178.174 -82.2074 143.039 293.663C125.738 478.74 220.055 293.591 228.68 406.599C238.465 534.802 94.4453 585.982 228.889 629.881C336.443 665.001 272.351 726.36 246.211 762.663C212.787 787.269 180.781 904.049 214.052 847.389C269.122 753.608 393.285 741.659 347.54 817.693C301.794 893.728 392.652 957.05 317.172 1059.86C241.691 1162.67 218.832 1328.93 272.595 1303.59C346.751 1268.65 380.95 1275.04 336.208 1368.22C317.172 1407.86 355.704 1565.36 300.646 1559.84C245.589 1554.32 295.602 1655.88 323.101 1655.61C350.599 1655.34 478.176 1676.41 448.776 1736.83C419.376 1797.26 494.387 1834.3 399.463 1892.62C304.539 1950.94 361.547 1929.95 336.773 1974.34C314.175 2014.84 81.2671 2008.51 -101.431 2006.29L-119.497 190.905ZM219.795 693.203C202.146 669.733 136.852 656.455 115.4 676.074C93.9492 695.694 122.273 800.877 139.921 824.348C157.569 847.819 155.623 777.714 177.074 758.095C198.525 738.475 237.442 716.674 219.795 693.203ZM94.563 102.358C78.2044 91.1705 40.556 96.1553 30.2779 135.368C20.0001 174.582 14.6487 234.83 40.0623 242.988C65.4759 251.146 113.617 251.949 104.687 186.757C106.221 135.29 119.282 119.263 94.563 102.358Z"
                    fill="url(#paint1_linear_72_2)" />
            </g>
            <g filter="url(#filter2_d_72_2)">
                <path
                    d="M1252.59 2449.99C1101.44 2613.43 961.357 2729.96 987.731 2353.38C1000.72 2167.95 910.736 2355.24 899.482 2242.46C886.715 2114.52 1029.5 2060 894.075 2019.25C785.731 1986.64 848.378 1923.81 873.665 1886.91C906.507 1861.53 935.785 1744.03 903.842 1801.45C850.971 1896.49 727.12 1911.33 771.082 1834.25C815.045 1757.17 722.737 1695.98 795.803 1591.44C868.869 1486.9 887.851 1320.16 834.692 1346.74C761.37 1383.4 727.031 1377.81 769.591 1283.61C787.699 1243.53 745.51 1086.97 800.681 1091.21C855.853 1095.45 803.488 995.076 776.003 995.99C748.518 996.904 620.486 978.811 648.47 917.718C676.455 856.624 600.602 821.334 694.142 760.821C787.683 700.308 731.179 722.625 754.912 677.664C776.561 636.652 1009.55 637.551 1192.25 635.523L1252.59 2449.99ZM1040.65 2543.5C1057.26 2554.3 1094.78 2548.44 1104.15 2509C1113.51 2469.56 1117.46 2409.2 1091.86 2401.64C1066.26 2394.08 1018.12 2394.39 1028.56 2459.36C1028.23 2510.85 1015.54 2527.18 1040.65 2543.5Z"
                    fill="url(#paint2_linear_72_2)" />
            </g>
            <g filter="url(#filter3_d_72_2)">
                <path
                    d="M1058.45 150.986C1031.66 -78.683 1150.51 33.2549 1308.54 185.509L1326.09 1949.25C1143.47 1955 949.024 1947.03 897.972 1939.8C870.639 1935.93 859.382 1933.22 791.374 1882.44C702.088 1815.78 854.205 1758.03 838.019 1693.62C806.237 1567.14 873.302 1598.47 894.759 1616.94C963.35 1675.99 922.159 1565.14 893.737 1514.28C865.738 1464.17 875.212 1365.28 864.335 1323.22C851.83 1274.88 861.829 1246.45 938.349 1274.02C1005.57 1298.24 956.102 1148.65 878.619 1050.27C801.137 951.883 907.214 959.171 859.986 886.212C812.758 813.253 857.15 767.639 970.482 784.812C1042.07 795.659 1047.29 718.961 952.557 694.177C879.915 682.572 874.518 563.843 985.458 581.294C1113.64 601.458 856.264 244.486 863.532 119.762C869.938 9.82198 1079.38 330.423 1058.45 150.986ZM1012.43 909.551C997.174 870.31 1011.08 836.4 965.737 856.604C920.399 876.807 935.692 907.987 926.123 948.013C917.876 974.393 987.202 1005.55 1021 998.706C1066.34 978.503 1027.7 948.791 1012.43 909.551Z"
                    fill="url(#paint3_linear_72_2)" />
            </g>
            <path
                d="M945.033 785.821C940.534 817.381 965.281 769.182 994.816 800.383C1011.14 812.506 1019.08 815.543 1027.23 817.455C1056.36 824.3 1082.99 810.933 1079.5 797.157C1069.47 757.597 1068.84 810.376 1051.21 799.669C1033.58 788.962 1039.08 793.785 1050.46 789.368C1061.84 784.95 1067.66 769.674 1075.11 762.544C1082.56 755.414 1104.98 750.945 1097.08 746.146C1083.52 737.911 1071.28 737.706 1063.85 752.088C1057.73 761.428 1045.55 774.328 1045.69 759.142C1045.83 743.955 1086.63 714.776 1060.77 713.038C1042.17 711.787 1058.57 747.117 1028.64 741.552C1018.63 739.69 1032.07 713.893 1037.89 703.16C1045.86 688.445 1039.33 685.349 1026.79 683.56C1014.25 681.772 1019.65 722.517 1016.77 730.122C1006.57 757.083 998.826 691.091 1004.23 678.702C1009.64 666.312 1013.06 662.563 980.323 663.777C947.582 664.991 959.467 680.046 970.934 691.633C982.401 703.219 1007.13 771.089 966.695 718.397C947.226 693.026 956.062 713.145 943.201 732.06C935.878 742.83 973.371 745.159 988.548 774.673C1001.2 799.286 951.145 742.947 945.033 785.821Z"
                fill="#22757F" />
        </g>
        <defs>
            <filter id="filter0_d_72_2" x="-27.2505" y="470.322" width="573.466" height="1991.84"
                filterUnits="userSpaceOnUse" color-interpolation-filters="sRGB">
                <feFlood flood-opacity="0" result="BackgroundImageFix" />
                <feColorMatrix in="SourceAlpha" type="matrix" values="0 0 0 0 0 0 0 0 0 0 0 0 0 0 0 0 0 0 127 0"
                    result="hardAlpha" />
                <feOffset dy="4" />
                <feGaussianBlur stdDeviation="2" />
                <feComposite in2="hardAlpha" operator="out" />
                <feColorMatrix type="matrix" values="0 0 0 0 0 0 0 0 0 0 0 0 0 0 0 0 0 0 0.25 0" />
                <feBlend mode="normal" in2="BackgroundImageFix" result="effect1_dropShadow_72_2" />
                <feBlend mode="normal" in="SourceGraphic" in2="effect1_dropShadow_72_2" result="shape" />
            </filter>
            <filter id="filter1_d_72_2" x="-149.497" y="41.3616" width="602.643" height="1986.66"
                filterUnits="userSpaceOnUse" color-interpolation-filters="sRGB">
                <feFlood flood-opacity="0" result="BackgroundImageFix" />
                <feColorMatrix in="SourceAlpha" type="matrix" values="0 0 0 0 0 0 0 0 0 0 0 0 0 0 0 0 0 0 127 0"
                    result="hardAlpha" />
                <feOffset dx="-20" dy="10" />
                <feGaussianBlur stdDeviation="5" />
                <feComposite in2="hardAlpha" operator="out" />
                <feColorMatrix type="matrix" values="0 0 0 0 0 0 0 0 0 0 0 0 0 0 0 0 0 0 0.25 0" />
                <feBlend mode="normal" in2="BackgroundImageFix" result="effect1_dropShadow_72_2" />
                <feBlend mode="normal" in="SourceGraphic" in2="effect1_dropShadow_72_2" result="shape" />
            </filter>
            <filter id="filter2_d_72_2" x="640.496" y="635.523" width="616.094" height="1976.74"
                filterUnits="userSpaceOnUse" color-interpolation-filters="sRGB">
                <feFlood flood-opacity="0" result="BackgroundImageFix" />
                <feColorMatrix in="SourceAlpha" type="matrix" values="0 0 0 0 0 0 0 0 0 0 0 0 0 0 0 0 0 0 127 0"
                    result="hardAlpha" />
                <feOffset dy="4" />
                <feGaussianBlur stdDeviation="2" />
                <feComposite in2="hardAlpha" operator="out" />
                <feColorMatrix type="matrix" values="0 0 0 0 0 0 0 0 0 0 0 0 0 0 0 0 0 0 0.25 0" />
                <feBlend mode="normal" in2="BackgroundImageFix" result="effect1_dropShadow_72_2" />
                <feBlend mode="normal" in="SourceGraphic" in2="effect1_dropShadow_72_2" result="shape" />
            </filter>
            <filter id="filter3_d_72_2" x="763.092" y="0.00012207" width="592.998" height="1951.22"
                filterUnits="userSpaceOnUse" color-interpolation-filters="sRGB">
                <feFlood flood-opacity="0" result="BackgroundImageFix" />
                <feColorMatrix in="SourceAlpha" type="matrix" values="0 0 0 0 0 0 0 0 0 0 0 0 0 0 0 0 0 0 127 0"
                    result="hardAlpha" />
                <feOffset dx="20" dy="-10" />
                <feGaussianBlur stdDeviation="5" />
                <feComposite in2="hardAlpha" operator="out" />
                <feColorMatrix type="matrix" values="0 0 0 0 0 0 0 0 0 0 0 0 0 0 0 0 0 0 0.25 0" />
                <feBlend mode="normal" in2="BackgroundImageFix" result="effect1_dropShadow_72_2" />
                <feBlend mode="normal" in="SourceGraphic" in2="effect1_dropShadow_72_2" result="shape" />
            </filter>
            <linearGradient id="paint0_linear_72_2" x1="411.957" y1="2470.5" x2="345.124" y2="469.818"
                gradientUnits="userSpaceOnUse">
                <stop stop-color="#15253E" />
                <stop offset="1" stop-color="#2C4876" />
            </linearGradient>
            <linearGradient id="paint1_linear_72_2" x1="157.724" y1="40.6304" x2="177.294" y2="2007.18"
                gradientUnits="userSpaceOnUse">
                <stop offset="0.298077" stop-color="#6180B0" />
                <stop offset="0.677885" stop-color="#0F203B" />
            </linearGradient>
            <linearGradient id="paint2_linear_72_2" x1="988.285" y1="2558.45" x2="924.518" y2="640.755"
                gradientUnits="userSpaceOnUse">
                <stop stop-color="#0D2C5D" />
                <stop offset="1" stop-color="#304C79" />
            </linearGradient>
            <linearGradient id="paint3_linear_72_2" x1="1025.77" y1="2.16247" x2="1045.18" y2="1952.93"
                gradientUnits="userSpaceOnUse">
                <stop offset="0.302885" stop-color="#637EA7" />
                <stop offset="0.701923" stop-color="#0C203F" />
            </linearGradient>
            <clipPath id="clip0_72_2">
                <rect width="1219" height="2454" fill="white" />
            </clipPath>
        </defs>
    </svg>