<svg width="546" height="820" viewBox="0 0 546 820" fill="none" xmlns="http://www.w3.org/2000/svg">
<g filter="url(#filter0_d_195_960)">
<path fill-rule="evenodd" clip-rule="evenodd" d="M243.32 53.2402C266.61 -40.454 154.696 5.64006 5.92554 68.3213L5.92554 787.081C179.57 788.683 230.595 810.846 279.054 807.694C305 806.007 449.406 778.657 513.572 757.69C597.813 730.164 452.67 707.25 467.446 680.938C496.461 629.271 433.007 642.312 412.786 649.925C348.145 674.261 386.25 628.925 412.786 608.086C438.928 587.556 428.986 547.296 438.928 530.116C450.357 510.366 440.583 498.823 368.107 510.366C304.439 520.507 350.046 459.354 422.767 418.95C450.45 403.57 452.992 394.537 447.963 387.598C428.303 394.243 392.89 399.21 371.806 397.473C328.519 389.424 364.971 377.161 379.106 361.109C393.241 345.058 379.706 331.296 422.994 339.345C434.099 341.41 441.419 343.785 446.323 346.45C477.436 319.863 433.65 304.172 332.935 311.154C264.989 315.865 259.307 284.634 349.117 274.15C418.058 269.127 422.065 220.725 316.774 228.286C195.12 237.022 436.394 90.5198 428.307 39.7266C421.178 -5.04574 225.124 126.442 243.32 53.2402Z" fill="url(#paint0_linear_195_960)"/>
</g>
<defs>
<filter id="filter0_d_195_960" x="1.09673e-05" y="0" width="545.96" height="819.852" filterUnits="userSpaceOnUse" color-interpolation-filters="sRGB">
<feFlood flood-opacity="0" result="BackgroundImageFix"/>
<feColorMatrix in="SourceAlpha" type="matrix" values="0 0 0 0 0 0 0 0 0 0 0 0 0 0 0 0 0 0 127 0" result="hardAlpha"/>
<feOffset dy="5.92553"/>
<feGaussianBlur stdDeviation="2.96276"/>
<feComposite in2="hardAlpha" operator="out"/>
<feColorMatrix type="matrix" values="0 0 0 0 0 0 0 0 0 0 0 0 0 0 0 0 0 0 0.25 0"/>
<feBlend mode="normal" in2="BackgroundImageFix" result="effect1_dropShadow_195_960"/>
<feBlend mode="normal" in="SourceGraphic" in2="effect1_dropShadow_195_960" result="shape"/>
</filter>
<linearGradient id="paint0_linear_195_960" x1="357.85" y1="-8.77694" x2="357.85" y2="806.956" gradientUnits="userSpaceOnUse">
<stop stop-color="#15253E"/>
<stop offset="1" stop-color="#2C4876"/>
</linearGradient>
</defs>
</svg>
