<svg width="591" height="969" viewBox="0 0 591 969" fill="none" xmlns="http://www.w3.org/2000/svg">
<g filter="url(#filter0_d_195_1720)">
<path d="M311.675 84.082C287.211 -28.7434 404.768 26.7621 561.039 102.242L561.039 967.767C378.64 969.695 184.567 964.837 133.664 961.042C106.411 959.01 95.1969 957.624 27.7959 932.376C-60.6914 899.229 91.7694 871.635 76.248 839.95C45.7705 777.734 112.423 793.437 133.664 802.604C201.564 831.91 161.537 777.317 133.664 752.223C106.205 727.501 116.647 679.02 106.204 658.332C94.1993 634.549 104.466 620.648 180.596 634.549C247.474 646.76 199.568 573.121 123.18 524.467C46.7919 475.812 152.636 479.906 106.204 443.876C59.7729 407.846 104.551 385.68 217.541 394.66C288.913 400.332 294.882 362.724 200.543 350.1C128.127 344.05 123.918 285.765 234.517 294.87C362.306 305.39 108.865 128.973 117.361 67.8086C124.851 13.8955 330.788 172.23 311.675 84.082ZM354.09 741.442C309.422 741.224 233.413 684.677 232.749 717.411C232.086 750.146 280.807 809.785 352.698 810.137C397.366 810.355 466.479 813.02 467.142 780.285C467.804 747.55 398.757 741.661 354.09 741.442ZM258.19 456.073C243.343 436.744 257.56 420.172 212.09 429.864C166.62 439.556 181.578 454.931 171.626 474.524C163.13 487.428 232.043 503.058 265.859 499.862C311.33 490.17 273.038 475.402 258.19 456.073ZM389 100.971C345.922 100.971 361.5 155.803 361.5 202.471C361.5 249.139 381.922 286.971 425 286.971C468.078 286.971 517.5 249.139 517.5 202.471C517.5 155.803 432.078 100.971 389 100.971Z" fill="url(#paint0_linear_195_1720)"/>
</g>
<defs>
<filter id="filter0_d_195_1720" x="0" y="-6.10352e-05" width="590.995" height="968.204" filterUnits="userSpaceOnUse" color-interpolation-filters="sRGB">
<feFlood flood-opacity="0" result="BackgroundImageFix"/>
<feColorMatrix in="SourceAlpha" type="matrix" values="0 0 0 0 0 0 0 0 0 0 0 0 0 0 0 0 0 0 127 0" result="hardAlpha"/>
<feOffset dx="19.9708" dy="-9.98538"/>
<feGaussianBlur stdDeviation="4.99269"/>
<feComposite in2="hardAlpha" operator="out"/>
<feColorMatrix type="matrix" values="0 0 0 0 0 0 0 0 0 0 0 0 0 0 0 0 0 0 0.25 0"/>
<feBlend mode="normal" in2="BackgroundImageFix" result="effect1_dropShadow_195_1720"/>
<feBlend mode="normal" in="SourceGraphic" in2="effect1_dropShadow_195_1720" result="shape"/>
</filter>
<linearGradient id="paint0_linear_195_1720" x1="280.52" y1="10.897" x2="280.52" y2="968.204" gradientUnits="userSpaceOnUse">
<stop offset="0.302885" stop-color="#637EA7"/>
<stop offset="0.701923" stop-color="#0C203F"/>
</linearGradient>
</defs>
</svg>
