<svg width="243" height="284" viewBox="0 0 243 284" fill="none" xmlns="http://www.w3.org/2000/svg">
<g filter="url(#filter0_d_131_1302)">
<ellipse cx="68.1203" cy="79.332" rx="35.0496" ry="54.2426" transform="rotate(34.9288 68.1203 79.332)" fill="url(#paint0_linear_131_1302)"/>
<path d="M98.605 35.6804C106.168 40.9625 109.813 50.5678 109.401 62.0396C108.989 73.4995 104.519 86.6811 96.0369 98.8273C87.5545 110.973 76.7178 119.709 66.1006 124.043C55.4725 128.38 45.1994 128.266 37.6359 122.984C30.0723 117.702 26.4267 108.096 26.8392 96.6241C27.2513 85.1641 31.7221 71.9825 40.2045 59.8362C48.6869 47.6902 59.5224 38.9543 70.1395 34.6211C80.7678 30.2834 91.0413 30.3983 98.605 35.6804Z" stroke="#535252" stroke-width="2"/>
</g>
<g filter="url(#filter1_d_131_1302)">
<path d="M102.276 39.2363L191.568 86.9351C166.448 116.633 118.224 180.045 116.308 177.024C114.392 174.002 62.4191 136.441 39.0879 119.551L102.276 39.2363Z" fill="url(#paint1_linear_131_1302)"/>
</g>
<g filter="url(#filter2_d_131_1302)">
<ellipse cx="158.864" cy="134.954" rx="36.4729" ry="60.9356" transform="rotate(44.6391 158.864 134.954)" fill="url(#paint2_radial_131_1302)"/>
<path d="M200.625 92.6632C207.268 99.223 209.018 109.848 206.032 122.06C203.055 134.239 195.414 147.714 183.748 159.527C172.083 171.341 158.704 179.152 146.565 182.282C134.39 185.421 123.745 183.805 117.102 177.245C110.459 170.686 108.709 160.061 111.695 147.848C114.672 135.67 122.313 122.194 133.979 110.381C145.644 98.5678 159.023 90.757 171.162 87.6268C183.337 84.4878 193.982 86.1035 200.625 92.6632Z" stroke="#535252" stroke-width="3"/>
</g>
<path d="M170.363 81.0532C164.425 80.3178 149.819 77.7175 138.905 73.2" stroke="#575353"/>
<path d="M106.839 167.936C104.789 162.617 101.221 148.304 103.343 133.614" stroke="#575353"/>
<path d="M99.216 162.179C98.668 161.732 97.7653 157.803 98.5392 145.662" stroke="#575353"/>
<path d="M64.1619 119.008C68.1903 127.31 76.9454 144.846 79.7383 148.582" stroke="#575353"/>
<path d="M74.2307 74.7605L84.073 97.3797" stroke="#B6B6B6"/>
<path d="M88.1171 77.8696L92.5982 107.066" stroke="#575353"/>
<path d="M46.0105 123.369C37.1309 110.201 35.7768 77.1689 52.2715 61.9997" stroke="#535252"/>
<path d="M180.067 82.5779C172.241 83.04 153.95 83.73 143.401 82.7939" stroke="#575353"/>
<g filter="url(#filter3_d_131_1302)">
<path d="M112.72 201.011L119.684 200.301C119.839 197.873 118.775 193.023 118.224 190.901C121.046 192.289 126.858 194.746 127.532 193.471C128.206 192.196 127.104 185.976 126.468 183.025C128.945 185.956 134.523 191.05 137.025 187.981C139.527 184.912 141.101 177.012 141.575 173.445C144.42 178.349 150.845 187.478 153.785 184.766C156.726 182.055 158.815 178.223 159.492 176.646C161.356 180.142 165.66 186.874 167.967 185.835C170.273 184.796 172.299 179.028 173.024 176.274C174.075 180.02 176.776 187.451 179.163 187.208C181.551 186.965 185.789 183.182 187.61 181.322C187.038 185.568 186.688 193.98 189.872 193.656C193.055 193.332 197.398 191.884 199.171 191.201C197.718 195.035 195.222 202.761 196.854 202.997C198.486 203.233 203.138 202.189 205.26 201.638C203.74 204.808 201.238 211.496 203.389 212.885C205.541 214.275 209.761 214.582 211.602 214.562C210.01 214.724 206.735 219.413 205.296 221.738L212.969 227.993C211.325 226.652 206.157 230.194 204.168 230.397C202.178 230.599 208.621 244.518 207.474 243.127C206.328 241.736 199.962 243.39 198.023 244.09C196.538 244.626 197.8 249.213 198.714 251.726C198.765 251.824 198.805 251.932 198.834 252.049C198.795 251.945 198.755 251.838 198.714 251.726C197.572 249.501 191.111 251.712 187.89 253.163C186.218 252.529 187.172 259.267 187.858 262.715C185.308 261.367 179.893 260.176 177.504 259.749C176.944 258.198 172.871 265.247 170.904 268.965C169.057 265.635 164.866 259.026 162.876 259.229C160.886 259.431 158.276 265.058 157.22 267.846C155.624 265.328 152.081 259.825 150.685 257.957C149.288 256.089 143.111 260.906 140.197 263.548C139.446 261.112 137.616 255.971 136.301 254.899C134.985 253.826 129.452 255.094 126.85 255.861C129.429 251.578 128.181 249.192 127.379 246.258C126.578 243.324 115.045 248.519 117.431 247.271C119.817 246.023 122.295 240.745 122.092 238.755C121.93 237.163 115.622 237.739 112.489 238.225C114.54 235.336 118.602 229.159 118.44 227.568C118.278 225.976 111.936 226.22 108.786 226.54C111.801 224.893 117.791 221.201 117.629 219.609C117.467 218.017 112.413 214.444 109.905 212.857C115.038 211.932 116.552 210.672 116.667 210.158C116.464 208.168 113.951 203.231 112.72 201.011Z" fill="url(#paint3_linear_131_1302)"/>
<path d="M112.72 201.011L119.684 200.301C119.839 197.873 118.775 193.023 118.224 190.901C121.046 192.289 126.858 194.746 127.532 193.471C128.206 192.196 127.104 185.976 126.468 183.025C128.945 185.956 134.523 191.05 137.025 187.981C139.527 184.912 141.101 177.012 141.575 173.445C144.42 178.349 150.845 187.478 153.785 184.766C156.726 182.055 158.815 178.223 159.492 176.646C161.356 180.142 165.66 186.874 167.967 185.835C170.273 184.796 172.299 179.028 173.024 176.274C174.075 180.02 176.776 187.451 179.163 187.208C181.551 186.965 185.789 183.182 187.61 181.322C187.038 185.568 186.688 193.98 189.872 193.656C193.055 193.332 197.398 191.884 199.171 191.201C197.718 195.035 195.222 202.761 196.854 202.997C198.486 203.233 203.138 202.189 205.26 201.638C203.74 204.808 201.238 211.496 203.389 212.885C205.541 214.275 209.761 214.582 211.602 214.562C210.01 214.724 206.735 219.413 205.296 221.738L212.969 227.993C211.325 226.652 206.157 230.194 204.168 230.397C202.178 230.599 208.621 244.518 207.474 243.127C206.328 241.736 199.962 243.39 198.023 244.09C196.538 244.626 197.8 249.213 198.714 251.726C198.765 251.824 198.805 251.932 198.834 252.049C198.795 251.945 198.755 251.838 198.714 251.726C197.572 249.501 191.111 251.712 187.89 253.163C186.218 252.529 187.172 259.267 187.858 262.715C185.308 261.367 179.893 260.176 177.504 259.749C176.944 258.198 172.871 265.247 170.904 268.965C169.057 265.635 164.866 259.026 162.876 259.229C160.886 259.431 158.276 265.058 157.22 267.846C155.624 265.328 152.081 259.825 150.685 257.957C149.288 256.089 143.111 260.906 140.197 263.548C139.446 261.112 137.616 255.971 136.301 254.899C134.985 253.826 129.452 255.094 126.85 255.861C129.429 251.578 128.181 249.192 127.379 246.258C126.578 243.324 115.045 248.519 117.431 247.271C119.817 246.023 122.295 240.745 122.092 238.755C121.93 237.163 115.622 237.739 112.489 238.225C114.54 235.336 118.602 229.159 118.44 227.568C118.278 225.976 111.936 226.22 108.786 226.54C111.801 224.893 117.791 221.201 117.629 219.609C117.467 218.017 112.413 214.444 109.905 212.857C115.038 211.932 116.552 210.672 116.667 210.158C116.464 208.168 113.951 203.231 112.72 201.011Z" stroke="#535252"/>
</g>
<path d="M156.037 192.076C175.068 190.138 191.705 201.789 193.349 217.929C194.992 234.068 181.045 248.834 162.015 250.772C142.985 252.71 126.347 241.059 124.704 224.919C123.06 208.78 137.007 194.014 156.037 192.076Z" fill="url(#paint4_linear_131_1302)" stroke="#535252"/>
<path d="M169.099 206.828C172.236 208.017 178.356 213.827 177.744 227.559" stroke="#575353" stroke-width="0.5"/>
<g opacity="0.9" filter="url(#filter4_f_131_1302)">
<ellipse cx="97.0352" cy="79.0694" rx="36.432" ry="4.5" transform="rotate(37.0869 97.0352 79.0694)" fill="white"/>
</g>
<g filter="url(#filter5_f_131_1302)">
<path d="M191.205 110.682C190.93 114.206 188.918 123.53 183.073 132.634" stroke="black"/>
</g>
<g filter="url(#filter6_f_131_1302)">
<path d="M196.138 121.713C195.304 125.041 191.911 133.687 185.018 141.646" stroke="black"/>
</g>
<g filter="url(#filter7_f_131_1302)">
<path d="M184.099 103.64C184.897 107.741 182.602 120.262 167.043 137.538" stroke="black"/>
</g>
<g filter="url(#filter8_f_131_1302)">
<ellipse cx="154.33" cy="131.752" rx="7" ry="2" transform="rotate(-50.0069 154.33 131.752)" fill="#F3F2F2"/>
</g>
<g filter="url(#filter9_f_131_1302)">
<ellipse cx="161.262" cy="135.397" rx="11.391" ry="2.54367" transform="rotate(-50.0069 161.262 135.397)" fill="#F3F2F2"/>
</g>
<g filter="url(#filter10_f_131_1302)">
<ellipse cx="177.176" cy="145.375" rx="13.931" ry="2.54367" transform="rotate(-50.0069 177.176 145.375)" fill="#F3F2F2"/>
</g>
<defs>
<filter id="filter0_d_131_1302" x="21.8082" y="30.5303" width="92.6242" height="105.604" filterUnits="userSpaceOnUse" color-interpolation-filters="sRGB">
<feFlood flood-opacity="0" result="BackgroundImageFix"/>
<feColorMatrix in="SourceAlpha" type="matrix" values="0 0 0 0 0 0 0 0 0 0 0 0 0 0 0 0 0 0 127 0" result="hardAlpha"/>
<feOffset dy="4"/>
<feGaussianBlur stdDeviation="2"/>
<feComposite in2="hardAlpha" operator="out"/>
<feColorMatrix type="matrix" values="0 0 0 0 0 0 0 0 0 0 0 0 0 0 0 0 0 0 0.25 0"/>
<feBlend mode="normal" in2="BackgroundImageFix" result="effect1_dropShadow_131_1302"/>
<feBlend mode="normal" in="SourceGraphic" in2="effect1_dropShadow_131_1302" result="shape"/>
</filter>
<filter id="filter1_d_131_1302" x="35.0879" y="39.2363" width="160.48" height="145.892" filterUnits="userSpaceOnUse" color-interpolation-filters="sRGB">
<feFlood flood-opacity="0" result="BackgroundImageFix"/>
<feColorMatrix in="SourceAlpha" type="matrix" values="0 0 0 0 0 0 0 0 0 0 0 0 0 0 0 0 0 0 127 0" result="hardAlpha"/>
<feOffset dy="4"/>
<feGaussianBlur stdDeviation="2"/>
<feComposite in2="hardAlpha" operator="out"/>
<feColorMatrix type="matrix" values="0 0 0 0 0 0 0 0 0 0 0 0 0 0 0 0 0 0 0.25 0"/>
<feBlend mode="normal" in2="BackgroundImageFix" result="effect1_dropShadow_131_1302"/>
<feBlend mode="normal" in="SourceGraphic" in2="effect1_dropShadow_131_1302" result="shape"/>
</filter>
<filter id="filter2_d_131_1302" x="104.789" y="84.5808" width="108.149" height="108.747" filterUnits="userSpaceOnUse" color-interpolation-filters="sRGB">
<feFlood flood-opacity="0" result="BackgroundImageFix"/>
<feColorMatrix in="SourceAlpha" type="matrix" values="0 0 0 0 0 0 0 0 0 0 0 0 0 0 0 0 0 0 127 0" result="hardAlpha"/>
<feOffset dy="4"/>
<feGaussianBlur stdDeviation="2"/>
<feComposite in2="hardAlpha" operator="out"/>
<feColorMatrix type="matrix" values="0 0 0 0 0 0 0 0 0 0 0 0 0 0 0 0 0 0 0.25 0"/>
<feBlend mode="normal" in2="BackgroundImageFix" result="effect1_dropShadow_131_1302"/>
<feBlend mode="normal" in="SourceGraphic" in2="effect1_dropShadow_131_1302" result="shape"/>
</filter>
<filter id="filter3_d_131_1302" x="104.546" y="171.927" width="112.739" height="106.087" filterUnits="userSpaceOnUse" color-interpolation-filters="sRGB">
<feFlood flood-opacity="0" result="BackgroundImageFix"/>
<feColorMatrix in="SourceAlpha" type="matrix" values="0 0 0 0 0 0 0 0 0 0 0 0 0 0 0 0 0 0 127 0" result="hardAlpha"/>
<feOffset dy="4"/>
<feGaussianBlur stdDeviation="2"/>
<feComposite in2="hardAlpha" operator="out"/>
<feColorMatrix type="matrix" values="0 0 0 0 0 0 0 0 0 0 0 0 0 0 0 0 0 0 0.25 0"/>
<feBlend mode="normal" in2="BackgroundImageFix" result="effect1_dropShadow_131_1302"/>
<feBlend mode="normal" in="SourceGraphic" in2="effect1_dropShadow_131_1302" result="shape"/>
</filter>
<filter id="filter4_f_131_1302" x="63.8442" y="52.8052" width="66.3819" height="52.5283" filterUnits="userSpaceOnUse" color-interpolation-filters="sRGB">
<feFlood flood-opacity="0" result="BackgroundImageFix"/>
<feBlend mode="normal" in="SourceGraphic" in2="BackgroundImageFix" result="shape"/>
<feGaussianBlur stdDeviation="2" result="effect1_foregroundBlur_131_1302"/>
</filter>
<filter id="filter5_f_131_1302" x="181.652" y="109.644" width="11.0514" height="24.2605" filterUnits="userSpaceOnUse" color-interpolation-filters="sRGB">
<feFlood flood-opacity="0" result="BackgroundImageFix"/>
<feBlend mode="normal" in="SourceGraphic" in2="BackgroundImageFix" result="shape"/>
<feGaussianBlur stdDeviation="0.5" result="effect1_foregroundBlur_131_1302"/>
</filter>
<filter id="filter6_f_131_1302" x="183.64" y="120.591" width="13.983" height="22.3823" filterUnits="userSpaceOnUse" color-interpolation-filters="sRGB">
<feFlood flood-opacity="0" result="BackgroundImageFix"/>
<feBlend mode="normal" in="SourceGraphic" in2="BackgroundImageFix" result="shape"/>
<feGaussianBlur stdDeviation="0.5" result="effect1_foregroundBlur_131_1302"/>
</filter>
<filter id="filter7_f_131_1302" x="165.671" y="102.544" width="20.0656" height="36.3281" filterUnits="userSpaceOnUse" color-interpolation-filters="sRGB">
<feFlood flood-opacity="0" result="BackgroundImageFix"/>
<feBlend mode="normal" in="SourceGraphic" in2="BackgroundImageFix" result="shape"/>
<feGaussianBlur stdDeviation="0.5" result="effect1_foregroundBlur_131_1302"/>
</filter>
<filter id="filter8_f_131_1302" x="145.576" y="122.236" width="17.5079" height="19.032" filterUnits="userSpaceOnUse" color-interpolation-filters="sRGB">
<feFlood flood-opacity="0" result="BackgroundImageFix"/>
<feBlend mode="normal" in="SourceGraphic" in2="BackgroundImageFix" result="shape"/>
<feGaussianBlur stdDeviation="2" result="effect1_foregroundBlur_131_1302"/>
</filter>
<filter id="filter9_f_131_1302" x="149.685" y="122.517" width="23.1555" height="25.7605" filterUnits="userSpaceOnUse" color-interpolation-filters="sRGB">
<feFlood flood-opacity="0" result="BackgroundImageFix"/>
<feBlend mode="normal" in="SourceGraphic" in2="BackgroundImageFix" result="shape"/>
<feGaussianBlur stdDeviation="2" result="effect1_foregroundBlur_131_1302"/>
</filter>
<filter id="filter10_f_131_1302" x="164.011" y="130.576" width="26.33" height="29.5977" filterUnits="userSpaceOnUse" color-interpolation-filters="sRGB">
<feFlood flood-opacity="0" result="BackgroundImageFix"/>
<feBlend mode="normal" in="SourceGraphic" in2="BackgroundImageFix" result="shape"/>
<feGaussianBlur stdDeviation="2" result="effect1_foregroundBlur_131_1302"/>
</filter>
<linearGradient id="paint0_linear_131_1302" x1="103.17" y1="93.5491" x2="34.1166" y2="95.8954" gradientUnits="userSpaceOnUse">
<stop stop-color="#D9D9D9"/>
<stop offset="0.538462" stop-color="#737373"/>
</linearGradient>
<linearGradient id="paint1_linear_131_1302" x1="195.028" y1="120.912" x2="36.5017" y2="94.1566" gradientUnits="userSpaceOnUse">
<stop stop-color="#D9D9D9"/>
<stop offset="1" stop-color="#737373"/>
</linearGradient>
<radialGradient id="paint2_radial_131_1302" cx="0" cy="0" r="1" gradientTransform="matrix(-30.0678 53.581 -30.5431 -47.1433 158.864 134.954)" gradientUnits="userSpaceOnUse">
<stop offset="0.620192" stop-color="#D9D9D9"/>
<stop offset="1" stop-color="#737373"/>
</radialGradient>
<linearGradient id="paint3_linear_131_1302" x1="155.34" y1="172.043" x2="165.269" y2="269.539" gradientUnits="userSpaceOnUse">
<stop stop-color="#D9D9D9"/>
<stop offset="0.490385" stop-color="#737373"/>
</linearGradient>
<linearGradient id="paint4_linear_131_1302" x1="155.987" y1="191.578" x2="162.066" y2="251.27" gradientUnits="userSpaceOnUse">
<stop stop-color="#D9D9D9"/>
<stop offset="1" stop-color="#737373"/>
</linearGradient>
</defs>
</svg>
