<svg width="270" height="140" viewBox="0 0 270 140" fill="none" xmlns="http://www.w3.org/2000/svg">
<path d="M194.749 23.9121C180.014 31.9825 168.509 64.1282 164.598 79.1923C164.953 84.6985 166.858 94.1445 171.636 87.8792C176.414 81.6139 194.633 48.6796 203.145 32.9957L217.2 37.8396C223.916 45.1065 243.166 54.0222 251.951 57.5717C257.166 73.3382 266.998 100.866 264.608 84.8443C262.218 68.8228 253.725 53.1791 249.778 47.3599C224.784 30.037 202.678 24.5102 194.749 23.9121Z" fill="#FDAF81"/>
<path d="M186 74.6387C195 57.6387 217.2 25.0387 234 30.6387C240.333 33.972 256.4 50.6387 258 82.6387C255.333 89.6387 245 106.639 228 112.639C230.523 106.648 243.421 94.6463 245.996 91.6434C245.997 91.6418 245.999 91.6402 246 91.6387C246.667 77.3053 247.6 47.4387 242 42.6387C242.333 42.972 241.2 45.0387 234 50.6387C226.8 56.2387 197.667 68.972 186 74.6387Z" fill="#FF985C"/>
<path d="M55.4284 42.0257C70.3928 39.7699 92.736 57.3456 102.037 66.4154L102.294 72.4883C73.6419 50.9886 58.1931 52.7242 54.0502 56.2794C48.546 57.3235 22.6752 85.8169 12.453 101.797C12.3531 99.4352 13.5564 92.4679 22.3654 75.8718C31.1744 59.2756 46.1821 49.8528 55.4284 42.0257Z" fill="#FFA977"/>
<path d="M62.97 56.3773C82.4335 56.6067 99.3684 64.9173 105.403 69.0439C98.2846 73.1799 83.4549 81.5434 81.083 81.91C78.7112 82.2766 63.7671 72.4441 56.5916 67.482C45.5055 87.4093 36.9438 91.5372 35.0483 98.9133C33.532 104.814 38.7864 116.549 43.9615 123.844C25.7051 110.476 26.4117 106.32 26.3068 101.276C31.4393 84.293 43.5065 56.1478 62.97 56.3773Z" fill="#FF9F67"/>
<path d="M69.937 70.7763L109.325 78.0298C112.091 79.3686 115.206 85.3527 105.538 88C95.8702 90.6473 81.3973 84.3498 75.3693 80.8701C72.6409 85.3294 65.1787 90.6188 56.1715 94.2393C46.4928 96.0621 43.8273 108.79 44.8125 116.216C42.3917 109.068 42.1755 99.837 42.3701 96.1153C50.7639 84.9464 64.2454 74.569 69.937 70.7763Z" fill="#FF9A60"/>
<rect x="92" y="35.4772" width="90.1869" height="59.3914" rx="20" transform="rotate(-2.20958 92 35.4772)" fill="url(#paint0_linear_181_1084)"/>
<path d="M68.9539 66.88C75.4924 79.5347 87.8202 84.6641 95.4557 89.4112C110.815 98.8236 116.391 96.1199 127.2 93.571L126.464 90.0411C120.403 77.251 106.512 72.6624 101.625 71.413C102.532 64.8787 97.2061 55.6188 95.544 51.7153C91.1116 41.3059 86.6625 38.0768 84.992 37.7634C93.588 46.3998 91.6236 60.5576 89.5669 66.557C87.4851 67.4434 84.8688 63.9462 83.8208 62.0868C76.3161 31.4666 71.4514 31.2323 69.9571 34.9427C66.7882 40.1348 62.1826 53.7746 68.9539 66.88Z" fill="#FF8139"/>
<path d="M200.086 35.4269C192.257 38.0183 179.042 49.0356 170.888 60.6771L170.061 89.8203C186.67 92.7213 208.868 58.6678 215.566 41.2893C219.794 44.1819 224.988 59.2244 227.173 66.0805C230.402 77.0702 235.546 84.1728 237.715 86.3504C234.383 95.4243 223.94 108.519 219.019 114.235C237.33 101.633 243.056 87.0321 243.631 81.3066C244.412 59.5877 235.732 56.159 232.044 47.0756C224.229 28.4067 208.762 30.767 200.086 35.4269Z" fill="#FF8E4C"/>
<path d="M187.953 37.8121C173.817 48.0348 167.914 67.3109 166.061 74.0612C147.832 91.4563 161.155 90.6242 170.19 91.0303C180.974 85.9479 195.624 88.8753 208.705 62.1743C225.853 27.1682 205.346 44.3148 196.358 58.7851C186.303 66.3948 179.159 63.3969 180.805 63.8488C182.122 64.2104 190.275 48.0595 195.578 39.4908C197.999 34.9705 202.089 27.5894 187.953 37.8121Z" fill="#FC792D"/>
<path d="M113 25.9998C113.8 29.9998 118.667 33.6665 121 34.9998H127C124.6 34.9998 120 28.3332 119 24.9998C116.667 23.6665 112.2 21.9998 113 25.9998Z" fill="#FFA977"/>
<path d="M156 21C155.2 25 149.885 32.1738 147.552 33.5071C145.219 33.5071 138.152 33.5069 140.552 33.5069C142.952 33.5069 148 23.3332 149 19.9998C151.333 18.6665 156.8 17 156 21Z" fill="#FFA977"/>
<ellipse cx="113.262" cy="14.8726" rx="7.17593" ry="12" transform="rotate(-10.6066 113.262 14.8726)" fill="#030303"/>
<ellipse cx="152.723" cy="12.108" rx="6.52186" ry="12" transform="rotate(0.964111 152.723 12.108)" fill="#030303"/>
<defs>
<linearGradient id="paint0_linear_181_1084" x1="137.093" y1="35.4772" x2="137.093" y2="94.8686" gradientUnits="userSpaceOnUse">
<stop stop-color="#FFA977"/>
<stop offset="1" stop-color="#FB6712"/>
</linearGradient>
</defs>
</svg>
