<svg width="296" height="190" viewBox="0 0 296 190" fill="none" xmlns="http://www.w3.org/2000/svg">
<path d="M63.1777 68.4556C96.9164 68.4556 124.356 95.1214 124.356 128.124C124.356 161.126 96.9164 187.792 63.1777 187.792C29.4392 187.791 2 161.126 2 128.124C2.00006 95.1215 29.4393 68.4557 63.1777 68.4556Z" stroke="black" stroke-width="4"/>
<line y1="-2" x2="113.107" y2="-2" transform="matrix(0.306946 -0.951727 0.956161 0.29284 60.8109 130.43)" stroke="black" stroke-width="4"/>
<line y1="-2" x2="97.2651" y2="-2" transform="matrix(-0.316379 -0.948633 0.953331 -0.301927 234.4 128.124)" stroke="black" stroke-width="4"/>
<line y1="-2" x2="197.261" y2="-2" transform="matrix(0.999992 -0.0038979 0.0041047 0.999992 84.4822 58.9221)" stroke="black" stroke-width="4"/>
<line y1="-2" x2="29.7467" y2="-2" transform="matrix(0.716185 -0.69791 0.716185 0.69791 94.7397 23.5522)" stroke="black" stroke-width="4"/>
<line y1="-2" x2="29.1868" y2="-2" transform="matrix(0.70289 0.711299 -0.729213 0.684287 94.7397 22.7834)" stroke="black" stroke-width="4"/>
<path d="M185.713 38.729L215.097 24.9857L215.501 51.6186L185.713 38.729Z" fill="#393B3D"/>
<line y1="-0.5" x2="119.147" y2="-0.5" transform="matrix(0.999979 -0.0064534 0.00679577 0.999977 3.21094 128.893)" stroke="black"/>
<path d="M232.032 68.4556C265.771 68.4556 293.211 95.1214 293.211 128.124C293.211 161.126 265.771 187.792 232.032 187.792C198.294 187.791 170.855 161.126 170.855 128.124C170.855 95.1215 198.294 68.4557 232.032 68.4556Z" stroke="black" stroke-width="4"/>
<line y1="-0.5" x2="119.147" y2="-0.5" transform="matrix(0.999979 -0.0064534 0.00679577 0.999977 172.066 128.893)" stroke="black"/>
<line y1="-0.5" x2="117.646" y2="-0.5" transform="matrix(-0.00670694 0.999978 -0.99998 -0.00636904 229.666 68.1489)" stroke="black"/>
<line y1="-0.5" x2="119.215" y2="-0.5" transform="matrix(-0.720675 0.693273 -0.711664 -0.70252 272.229 85.646)" stroke="black"/>
<line y1="-0.5" x2="119.215" y2="-0.5" transform="matrix(-0.720675 -0.693273 0.711664 -0.70252 277.707 168.483)" stroke="black"/>
<line y1="-0.5" x2="117.646" y2="-0.5" transform="matrix(-0.00670694 0.999978 -0.99998 -0.00636904 60.8109 68.1489)" stroke="black"/>
<line y1="-0.5" x2="119.215" y2="-0.5" transform="matrix(-0.720675 0.693273 -0.711664 -0.70252 103.374 85.646)" stroke="black"/>
<line y1="-0.5" x2="119.215" y2="-0.5" transform="matrix(-0.720675 -0.693273 0.711664 -0.70252 108.853 168.483)" stroke="black"/>
</svg>
