<svg width="342" height="408" viewBox="0 0 342 408" fill="none" xmlns="http://www.w3.org/2000/svg">
<g filter="url(#filter0_d_185_1738)">
<g filter="url(#filter1_f_185_1738)">
<path d="M123.959 113.382L129.459 121.382" stroke="black"/>
</g>
<g filter="url(#filter2_f_185_1738)">
<path d="M136.459 121.382C137.126 123.549 138.459 128.182 138.459 129.382" stroke="black"/>
</g>
<g filter="url(#filter3_f_185_1738)">
<path d="M109.959 107.382C112.792 112.049 118.559 121.882 118.959 123.882" stroke="black"/>
</g>
<g filter="url(#filter4_f_185_1738)">
<path d="M71.459 108.382C72.1257 113.049 77.959 123.282 95.959 126.882" stroke="black"/>
</g>
<path d="M29.459 65.382C40.2923 12.2154 94.559 -48.818 224.959 132.382" stroke="url(#paint0_linear_185_1738)"/>
<path d="M99.4601 228.382C99.4601 225.982 113.127 213.715 119.96 207.882L130.459 205.882L111.459 223.382C101.059 228.582 108.126 239.215 112.959 243.882C129.359 268.282 157.459 283.715 169.459 288.382C155.859 292.782 130.126 269.549 118.96 257.382C98.9601 238.382 99.4601 231.382 99.4601 228.382Z" fill="#ECDFC0" stroke="white"/>
<path d="M133.959 181.882C130.359 188.682 110.792 185.715 101.459 183.382L130.959 169.382L148.959 181.882L145.459 199.382C139.459 205.382 120.292 208.215 111.459 208.882C109.459 224.377 132.292 254.672 143.959 267.882C140.759 266.682 128.292 252.715 122.459 245.882C111.259 235.082 108.792 214.049 108.959 204.882L141.959 191.882C144.759 188.282 140.126 188.382 137.459 188.882C120.659 190.482 101.792 200.215 94.459 204.882C91.2589 211.579 97.7924 235.673 101.459 246.882C101.459 257.682 120.126 275.715 129.459 283.382C106.659 274.182 99.2924 259.882 98.4591 253.882C90.4591 241.882 89.7924 214.549 90.4591 202.382C95.4591 198.049 108.059 189.282 118.459 188.882C128.859 188.482 133.126 184.049 133.959 181.882Z" fill="#ECDFC0" stroke="white"/>
<path d="M67.4592 182.382C70.2592 175.582 81.2925 169.882 86.4592 167.882C89.1258 165.215 93.359 159.682 88.959 158.882C84.559 158.082 75.459 161.215 71.459 162.882C56.659 178.482 63.6258 197.715 68.9592 205.382C67.2925 200.549 64.6592 189.182 67.4592 182.382Z" fill="#ECDFC0" fill-opacity="0.988235" stroke="white"/>
<path d="M101.425 147.882C101.642 148.056 101.876 148.264 102.112 148.501L131.925 175.382C131.345 176.832 127.506 177.976 122.299 178.836C114.887 180.926 103.962 183.156 90.9253 183.882C87.7586 195.715 81.8253 222.682 83.4253 235.882C81.769 227.339 80.0681 210.716 82.698 197.088C80.4178 205.361 78.5306 215.029 77.4253 221.882C78.5669 183.829 87.9442 175.038 93.1592 175.277C89.6511 174.795 85.9827 174.264 94.9253 175.382C103.327 176.432 110.554 173.985 114.127 172.129C106.169 175.937 91.8895 170.351 85.4253 166.882C63.0253 160.482 65.4251 189.882 69.4251 205.382C55.4251 174.182 71.5917 162.049 81.4251 159.882C87.4251 159.549 100.125 158.182 102.925 155.382C105.36 152.947 103.686 150.083 102.112 148.501L101.425 147.882Z" fill="#ECDFC0"/>
<path d="M131.925 175.382C130.325 179.382 103.925 181.049 92.4253 180.882C90.8013 179.691 89.1407 181.013 87.5326 183.882M131.925 175.382C128.231 177.382 112.458 182.682 90.9253 183.882C87.7586 195.715 81.8253 222.682 83.4253 235.882C81.1635 224.215 78.8185 197.482 87.5326 183.882M131.925 175.382L101.425 147.882C103.092 149.215 105.725 152.582 102.925 155.382C100.125 158.182 87.4251 159.549 81.4251 159.882C71.5917 162.049 55.4251 174.182 69.4251 205.382C65.4251 189.882 63.0253 160.482 85.4253 166.882C92.2586 170.549 107.825 176.582 115.425 171.382C112.592 173.215 104.525 176.582 94.9253 175.382C85.3253 174.182 90.2586 174.882 93.9253 175.382C88.9253 174.215 78.6253 181.882 77.4253 221.882C79.2486 210.577 83.1997 191.613 87.5326 183.882" stroke="white"/>
<path d="M192.959 200.382C187.359 202.382 179.292 199.549 175.959 197.882L217.959 171.882L290.959 246.882L270.959 264.882C268.159 266.482 258.792 265.549 254.459 264.882C249.259 265.282 245.292 286.049 243.959 296.382C243.159 301.982 236.292 303.382 232.959 303.382C231.359 295.782 238.292 278.549 241.959 270.882C245.625 257.318 258.251 252.797 265.594 252.009C255.763 252.298 255.015 245.842 255.959 242.382C247.959 251.182 239.959 246.049 236.959 242.382C233.359 244.382 230.126 254.882 228.959 259.882C226.959 270.282 218.459 279.549 214.459 282.882C212.859 273.682 221.126 255.715 225.459 247.882C223.459 247.482 217.292 254.715 214.459 258.382C210.459 266.382 203.459 269.049 200.459 269.382C208.375 245.257 230.233 232.855 241.932 228.995C237.384 229.792 234.126 226.424 232.959 224.382C225.759 229.982 215.292 226.715 210.959 224.382C207.359 225.982 200.126 246.382 196.959 256.382C188.959 274.382 187.292 262.215 187.459 253.882C178.259 249.882 187.292 240.882 192.959 236.882C192.959 227.682 205.959 216.715 212.459 212.382C193.659 223.982 191.625 215.882 192.959 210.382C190.959 218.382 182.792 225.049 178.959 227.382C174.959 230.182 177.292 241.549 178.959 246.882C174.459 248.882 169.959 257.882 169.459 256.382C169.059 255.182 170.959 237.215 171.959 228.382C171.559 219.982 185.792 206.215 192.959 200.382Z" fill="#ECDFC0" stroke="white"/>
<path d="M191.459 131.882C206.626 133.382 237.159 138.382 237.959 146.382C247.626 148.215 267.959 154.182 271.959 163.382C279.626 168.215 294.859 179.982 294.459 188.382C299.959 194.382 310.759 209.382 309.959 221.382C314.626 227.049 323.559 241.182 321.959 252.382C331.021 274.625 345.523 317.096 331.942 311.11C333.817 313.067 333.413 328.219 318.959 377.882V334.882C317.292 329.215 313.159 329.882 309.959 377.882C308.792 381.382 304.859 389.682 298.459 394.882C297.459 394.549 295.559 391.782 295.959 383.382C294.292 387.382 290.059 395.982 286.459 398.382C285.626 389.049 284.859 368.182 288.459 359.382C282.626 367.882 266.659 383.482 249.459 377.882C255.196 365.882 273.728 337.882 301.959 321.882C302.459 317.882 301.959 309.182 295.959 306.382C292.292 303.215 284.759 292.882 283.959 276.882C276.126 279.715 263.559 277.382 275.959 245.382C266.792 247.049 250.059 244.582 256.459 221.382C247.292 225.382 230.259 226.982 235.459 201.382C224.959 206.715 206.259 211.582 215.459 188.382C207.126 191.549 187.859 197.882 177.459 197.882C167.059 197.882 159.792 211.215 157.459 217.882C157.959 222.549 157.659 232.182 152.459 233.382C151.865 233.519 151.365 233.64 150.949 233.747C150.952 233.963 150.956 234.175 150.959 234.382C149.483 234.53 147.719 234.573 150.949 233.747C150.796 223.878 150.894 204.948 152.459 203.382C154.459 201.382 156.959 192.382 172.959 190.382C165.459 191.049 149.759 193.482 146.959 197.882C144.159 202.282 144.792 193.715 145.459 188.882L191.459 131.882Z" fill="url(#paint1_linear_185_1738)" stroke="white"/>
<path d="M16.6062 61.2695L62.959 76.3821L106.459 95.3821L191.959 132.382L177.458 166.882L146.959 192.882L106.959 153.882L93.959 145.882L82.459 135.882L60.4587 113.382L37.959 88.3821L16.6062 61.2695Z" fill="url(#paint2_linear_185_1738)"/>
<path d="M192.959 131.882C151.959 112.715 59.459 71.9821 17.459 62.3821C37.6257 88.7154 83.159 143.582 103.959 152.382L145.459 191.882" stroke="white"/>
<path d="M22.9591 64.382C19.1258 8.21534 52.6591 -62.318 217.459 104.882" stroke="url(#paint3_linear_185_1738)"/>
<g style="mix-blend-mode:multiply">
<path d="M92.9594 117.536C69.3593 106.706 33.4591 75.9209 18.459 61.8821C38.4591 64.2887 141.793 109.347 190.96 131.575C228.96 136.789 237.794 143.775 237.46 146.617C259.46 149.826 269.627 159.653 271.96 164.165C288.36 172.589 293.46 184.054 293.96 188.733C303.561 196.354 308.961 213.97 310.461 221.825C320.061 233.457 322.127 248.064 321.961 253.914C343.561 307.662 337.961 315.083 332.461 312.075C332.861 321.701 323.959 359.336 319.459 375.882C319.459 298.468 313.461 341.489 310.461 373.745C309.661 379.762 302.127 390.625 298.46 395.305C294.46 396.308 299.46 373.244 298.46 377.756C297.46 382.269 288.46 395.806 286.46 397.812C284.86 399.416 287.127 373.077 288.46 359.706C275.26 379.361 258.294 379.929 251.46 377.756C258.421 354.025 299.403 322.52 304.464 321.317C301.455 316.361 286.278 268.941 278.46 243.886C272.06 239.073 238.793 203.775 222.96 186.728C209.76 185.123 130.793 139.931 92.9594 117.536Z" fill="#D73636"/>
</g>
<path d="M130.25 100.682C131.553 103.349 139.118 108.46 142.738 110.683L76.4761 82.8553C76.4821 82.8717 76.488 82.888 76.4939 82.9041C76.4365 82.8668 76.3774 82.8281 76.3166 82.7883L69.9781 80.1264C69.7971 79.0153 69.5437 77.0152 69.9781 77.9041C70.4 78.7674 74.2701 81.4471 76.3166 82.7883L76.4761 82.8553C75.9346 81.3658 75.205 78.8076 76.4939 80.1264C77.7971 81.4598 82.8287 84.0153 85.1815 85.1264C84.8195 84.0153 84.3128 82.0152 85.1815 82.9041C86.2675 84.0153 96.0414 91.2377 94.9554 90.1265C93.8694 89.0154 94.9554 83.4597 94.9554 85.1264C94.9554 86.7931 105.272 94.571 104.186 93.4598C103.1 92.3487 104.186 85.6818 104.186 87.3486C104.186 88.6819 121.562 99.7564 130.25 105.127C129.707 102.534 128.946 98.0156 130.25 100.682Z" fill="#B78D8D"/>
<ellipse cx="322.587" cy="303.627" rx="11.9977" ry="4.1931" transform="rotate(-12.7909 322.587 303.627)" fill="#EEEDED"/>
<path d="M136.459 109.882C115.959 99.8821 48.959 70.8821 16.959 61.3821L174.959 136.882C228.959 160.482 268.126 192.715 280.959 205.882C299.359 222.282 313.626 276.049 318.459 300.882L326.959 298.882C323.759 267.282 305.959 224.715 297.459 207.382C269.459 167.382 223.459 148.382 219.459 145.382C216.259 142.982 163.126 121.549 136.459 109.882Z" fill="#EEEDED"/>
<path d="M136.459 109.882C115.959 99.8821 48.959 70.8821 16.959 61.3821L174.959 136.882C228.959 160.482 268.126 192.715 280.959 205.882C299.359 222.282 313.626 276.049 318.459 300.882L326.959 298.882C323.759 267.282 305.959 224.715 297.459 207.382C269.459 167.382 223.459 148.382 219.459 145.382C216.259 142.982 163.126 121.549 136.459 109.882Z" fill="#EEEDED"/>
<ellipse cx="59.959" cy="86.3821" rx="8" ry="7.5" fill="url(#paint4_radial_185_1738)"/>
<g style="mix-blend-mode:multiply">
<ellipse cx="279.004" cy="355.51" rx="23.0934" ry="5.48345" transform="rotate(-43.5391 279.004 355.51)" fill="#EEEDED"/>
</g>
<g style="mix-blend-mode:hard-light">
<ellipse cx="279.004" cy="355.511" rx="17.32" ry="4.11259" transform="rotate(-43.5391 279.004 355.511)" fill="#EEEDED"/>
</g>
<g style="mix-blend-mode:multiply">
<ellipse cx="294.205" cy="369.073" rx="12.7589" ry="3.3627" transform="rotate(-76.5124 294.205 369.073)" fill="#EEEDED"/>
</g>
<ellipse cx="294.205" cy="369.073" rx="9.56914" ry="2.52203" transform="rotate(-76.5124 294.205 369.073)" fill="#EEEDED"/>
<g style="mix-blend-mode:multiply">
<ellipse cx="304.775" cy="350.944" rx="12.7589" ry="3.3627" transform="rotate(-83.3555 304.775 350.944)" fill="#EEEDED"/>
</g>
<ellipse cx="304.775" cy="350.944" rx="9.56914" ry="2.52203" transform="rotate(-83.3555 304.775 350.944)" fill="#EEEDED"/>
<g style="mix-blend-mode:multiply">
<path d="M325.863 321.2C327.07 321.34 327.815 327.382 326.57 335.311C325.459 342.382 323.57 348.558 322.688 348.455C321.805 348.353 320.959 341.882 321.57 334.311C322.688 326.382 324.656 321.059 325.863 321.2Z" fill="#EEEDED"/>
</g>
<path d="M325.42 324.601C326.326 324.707 326.885 329.238 325.951 335.184C325.118 340.488 323.701 345.12 323.039 345.043C322.378 344.966 321.743 340.113 322.201 334.434C323.039 328.488 324.515 324.496 325.42 324.601Z" fill="#EEEDED"/>
</g>
<defs>
<filter id="filter0_d_185_1738" x="-4" y="0" width="345.99" height="407.265" filterUnits="userSpaceOnUse" color-interpolation-filters="sRGB">
<feFlood flood-opacity="0" result="BackgroundImageFix"/>
<feColorMatrix in="SourceAlpha" type="matrix" values="0 0 0 0 0 0 0 0 0 0 0 0 0 0 0 0 0 0 127 0" result="hardAlpha"/>
<feOffset dy="4"/>
<feGaussianBlur stdDeviation="2"/>
<feComposite in2="hardAlpha" operator="out"/>
<feColorMatrix type="matrix" values="0 0 0 0 0 0 0 0 0 0 0 0 0 0 0 0 0 0 0.25 0"/>
<feBlend mode="normal" in2="BackgroundImageFix" result="effect1_dropShadow_185_1738"/>
<feBlend mode="normal" in="SourceGraphic" in2="effect1_dropShadow_185_1738" result="shape"/>
</filter>
<filter id="filter1_f_185_1738" x="119.547" y="109.099" width="14.324" height="16.5665" filterUnits="userSpaceOnUse" color-interpolation-filters="sRGB">
<feFlood flood-opacity="0" result="BackgroundImageFix"/>
<feBlend mode="normal" in="SourceGraphic" in2="BackgroundImageFix" result="shape"/>
<feGaussianBlur stdDeviation="2" result="effect1_foregroundBlur_185_1738"/>
</filter>
<filter id="filter2_f_185_1738" x="131.981" y="117.235" width="10.9779" height="16.1471" filterUnits="userSpaceOnUse" color-interpolation-filters="sRGB">
<feFlood flood-opacity="0" result="BackgroundImageFix"/>
<feBlend mode="normal" in="SourceGraphic" in2="BackgroundImageFix" result="shape"/>
<feGaussianBlur stdDeviation="2" result="effect1_foregroundBlur_185_1738"/>
</filter>
<filter id="filter3_f_185_1738" x="105.532" y="103.123" width="17.9176" height="24.8575" filterUnits="userSpaceOnUse" color-interpolation-filters="sRGB">
<feFlood flood-opacity="0" result="BackgroundImageFix"/>
<feBlend mode="normal" in="SourceGraphic" in2="BackgroundImageFix" result="shape"/>
<feGaussianBlur stdDeviation="2" result="effect1_foregroundBlur_185_1738"/>
</filter>
<filter id="filter4_f_185_1738" x="66.964" y="104.311" width="33.093" height="27.0609" filterUnits="userSpaceOnUse" color-interpolation-filters="sRGB">
<feFlood flood-opacity="0" result="BackgroundImageFix"/>
<feBlend mode="normal" in="SourceGraphic" in2="BackgroundImageFix" result="shape"/>
<feGaussianBlur stdDeviation="2" result="effect1_foregroundBlur_185_1738"/>
</filter>
<linearGradient id="paint0_linear_185_1738" x1="127.209" y1="10.9802" x2="127.209" y2="132.382" gradientUnits="userSpaceOnUse">
<stop stop-color="white"/>
<stop offset="1" stop-color="#B07373"/>
</linearGradient>
<linearGradient id="paint1_linear_185_1738" x1="144.888" y1="371.851" x2="337.49" y2="158.413" gradientUnits="userSpaceOnUse">
<stop offset="0.5" stop-color="#ECDFC0"/>
<stop offset="1" stop-color="#B77A7A"/>
</linearGradient>
<linearGradient id="paint2_linear_185_1738" x1="84.1918" y1="51.3738" x2="56.1829" y2="154.549" gradientUnits="userSpaceOnUse">
<stop stop-color="#B77A7A"/>
<stop offset="0.985577" stop-color="#ECDFC0"/>
</linearGradient>
<linearGradient id="paint3_linear_185_1738" x1="120.067" y1="0.5" x2="120.067" y2="104.882" gradientUnits="userSpaceOnUse">
<stop stop-color="white"/>
<stop offset="1" stop-color="#B76464"/>
</linearGradient>
<radialGradient id="paint4_radial_185_1738" cx="0" cy="0" r="1" gradientUnits="userSpaceOnUse" gradientTransform="translate(59.959 86.3821) rotate(90) scale(7.5 8)">
<stop offset="0.384615" stop-color="#040303"/>
<stop offset="1"/>
</radialGradient>
</defs>
</svg>
