<svg width="494" height="401" viewBox="0 0 494 401" fill="none" xmlns="http://www.w3.org/2000/svg">
<path d="M236.075 102.367C218.675 112.567 204.075 107.617 198.95 103.867L284.45 177.367C275.75 165.967 265.825 149.867 261.95 143.242C258.95 117.742 288.2 112.117 303.2 112.492C284.9 89.0922 250.825 95.9922 236.075 102.367Z" fill="url(#paint0_linear_288_3009)"/>
<path d="M161.45 202.492C155.75 183.592 145.825 174.617 141.575 172.492H219.95C236.325 195.117 264.125 236.467 244.325 220.867C224.525 205.267 205.825 200.617 198.95 200.242C199.85 228.742 213.325 254.117 219.95 263.242C222.65 266.242 219.575 266.492 217.7 266.242C186.2 259.942 167.075 221.117 161.45 202.492Z" fill="#9FB1CC"/>
<path d="M154.325 270.367C115.7 262.492 107.075 217.117 110.075 195.367L149.075 207.742C146.375 223.042 146.95 238.367 147.575 244.117C147.875 248.617 152.2 258.242 154.325 262.492C160.925 270.592 157.075 271.117 154.325 270.367Z" fill="#7D96BC"/>
<path d="M393.458 244.196C397.927 243.865 406.645 235.893 405.77 206.653C405.065 194.083 408.948 165.291 430.112 150.69C428.436 155.629 426.911 169.712 434.217 186.533C436.422 193.552 440.295 210.312 438.14 221.205C441.672 222.059 454.192 223.179 463.875 233.939C467.25 237.689 477 244.064 493.875 247.814C487.832 252.189 450.067 266.351 421.739 253.261C421.047 253.31 403.35 250.145 392.901 250.718C389.775 256.75 381.943 262.165 385.5 253.26C386.139 251.66 389.02 250.931 392.901 250.718C394.119 248.367 394.622 245.923 393.458 244.196Z" fill="#7D96BC"/>
<path d="M413.625 245.188C390.155 267.644 302.125 269.868 212.45 233.618C151.326 184.867 30.949 198.367 30.9489 168.367C23.4502 113.618 153.95 20.2422 278.075 168.367C331.325 239.617 413.625 224.188 413.625 245.188Z" fill="url(#paint1_linear_288_3009)"/>
<path d="M245.075 236.617C249.567 244.863 95.1856 188.711 68.0745 190.868C53.4495 197.243 15.3821 210.075 12.7823 206.333C10.1824 202.591 67.5196 167.049 78.575 159.367C89.6303 151.686 269.45 207.742 245.075 236.617Z" fill="#C9CFEA"/>
<path d="M35.0769 196.492C28.2231 201.271 10.6775 206.386 7.70096 202.118C4.72438 197.849 24.096 174.271 30.9498 169.492C44.45 168.367 74.4752 151.348 77.4518 155.617C80.4284 159.885 41.9307 191.713 35.0769 196.492Z" fill="#9FB1CC"/>
<path d="M12.95 203.992C26.075 203.242 35.075 198.367 74.075 162.367" stroke="#7D96BC" stroke-width="0.75"/>
<path d="M79.325 158.992C93.0538 154.039 125.622 150.191 143.699 171.05C161.776 191.908 108.118 171.421 79.325 158.992Z" fill="#C9CFEA"/>
<path d="M414.375 245.938C407.626 250.438 367.5 281.938 238.5 243.313C164.25 222.688 101.381 177.118 217.875 211.438C212.813 197.071 251.454 219.688 288 235.813C371.25 264.688 423.75 225.313 414.375 245.938Z" fill="#C9CFEA"/>
<path d="M43.325 142.868C46.325 135.668 42.075 138.368 39.575 140.618C34.475 145.718 30.7 158.492 29.45 164.242C27.05 173.842 32.45 172.867 35.45 171.367C51.95 164.617 71.825 157.492 75.575 155.617C80.075 152.917 76.95 152.992 74.825 153.367C59.225 157.567 45.825 163.867 41.075 166.492C33.575 170.992 33.95 166.867 34.325 165.367C35.525 156.067 40.825 146.492 43.325 142.868Z" fill="#7D96BC"/>
<g filter="url(#filter0_f_288_3009)">
<ellipse cx="90.95" cy="148.867" rx="7.125" ry="6.375" fill="#F4F4F4"/>
</g>
<g filter="url(#filter1_d_288_3009)">
<ellipse cx="90.95" cy="148.867" rx="6.375" ry="5.625" fill="#403E3E"/>
</g>
<ellipse cx="92.075" cy="146.242" rx="3" ry="2.25" fill="#F4F4F4"/>
<defs>
<filter id="filter0_f_288_3009" x="80.825" y="139.492" width="20.25" height="18.75" filterUnits="userSpaceOnUse" color-interpolation-filters="sRGB">
<feFlood flood-opacity="0" result="BackgroundImageFix"/>
<feBlend mode="normal" in="SourceGraphic" in2="BackgroundImageFix" result="shape"/>
<feGaussianBlur stdDeviation="1.5" result="effect1_foregroundBlur_288_3009"/>
</filter>
<filter id="filter1_d_288_3009" x="81.575" y="143.242" width="18.75" height="17.25" filterUnits="userSpaceOnUse" color-interpolation-filters="sRGB">
<feFlood flood-opacity="0" result="BackgroundImageFix"/>
<feColorMatrix in="SourceAlpha" type="matrix" values="0 0 0 0 0 0 0 0 0 0 0 0 0 0 0 0 0 0 127 0" result="hardAlpha"/>
<feOffset dy="3"/>
<feGaussianBlur stdDeviation="1.5"/>
<feComposite in2="hardAlpha" operator="out"/>
<feColorMatrix type="matrix" values="0 0 0 0 0 0 0 0 0 0 0 0 0 0 0 0 0 0 0.25 0"/>
<feBlend mode="normal" in2="BackgroundImageFix" result="effect1_dropShadow_288_3009"/>
<feBlend mode="normal" in="SourceGraphic" in2="effect1_dropShadow_288_3009" result="shape"/>
</filter>
<linearGradient id="paint0_linear_288_3009" x1="208.598" y1="96.2307" x2="293.552" y2="177.367" gradientUnits="userSpaceOnUse">
<stop stop-color="#9FB1CC"/>
<stop offset="1" stop-color="#7D96BC"/>
</linearGradient>
<linearGradient id="paint1_linear_288_3009" x1="79.8539" y1="93.8909" x2="317.689" y2="335.63" gradientUnits="userSpaceOnUse">
<stop stop-color="#9FB1CC"/>
<stop offset="1" stop-color="#7D96BC"/>
</linearGradient>
</defs>
</svg>
