<svg width="392" height="369" viewBox="0 0 392 369" fill="none" xmlns="http://www.w3.org/2000/svg">
<path d="M236.075 71.6787C218.675 81.8787 204.075 76.9287 198.95 73.1787L284.45 146.679C275.75 135.279 265.825 119.179 261.95 112.554C258.95 87.0538 288.2 81.4288 303.2 81.8037C284.9 58.4037 250.825 65.3037 236.075 71.6787Z" fill="url(#paint0_linear_288_3008)"/>
<path d="M161.45 171.804C155.75 152.904 145.825 143.929 141.575 141.804H219.95C236.325 164.429 264.125 205.779 244.325 190.179C224.525 174.579 205.825 169.929 198.95 169.554C199.85 198.054 213.325 223.429 219.95 232.554C222.65 235.554 219.575 235.804 217.7 235.554C186.2 229.254 167.075 190.429 161.45 171.804Z" fill="#9FB1CC"/>
<path d="M154.325 239.679C115.7 231.804 107.075 186.429 110.075 164.679L149.075 177.054C146.375 192.354 146.95 207.679 147.575 213.429C147.875 217.929 152.2 227.554 154.325 231.804C160.925 239.904 157.075 240.429 154.325 239.679Z" fill="#7D96BC"/>
<path d="M352.7 305.304C326.3 292.704 323.2 281.304 324.95 277.179C317.575 278.054 303.05 281.379 303.95 287.679C304.85 293.979 304.325 297.304 303.95 298.179C279.35 317.379 275.45 336.929 276.575 344.304C285.275 340.404 296.95 337.929 301.7 337.179C314.6 335.979 322.575 330.179 324.95 327.429C333.65 334.329 350.325 338.554 357.575 339.804C375.875 341.004 387.7 348.804 391.325 352.554C388.025 327.054 364.2 310.429 352.7 305.304Z" fill="#7D96BC"/>
<path d="M325.324 297.43C301.854 319.885 302.124 239.179 212.45 202.929C151.326 154.178 30.9488 167.678 30.9487 137.678C23.45 82.9288 153.95 -10.4465 278.075 137.678C331.325 208.928 325.324 276.43 325.324 297.43Z" fill="url(#paint1_linear_288_3008)"/>
<path d="M245.075 205.929C249.567 214.174 95.1856 158.022 68.0745 160.179C53.4495 166.554 15.3822 179.387 12.7823 175.645C10.1825 171.903 67.5197 136.36 78.575 128.679C89.6304 120.997 269.45 177.054 245.075 205.929Z" fill="#C9CFEA"/>
<path d="M35.077 165.803C28.2232 170.582 10.6776 175.698 7.70102 171.429C4.72444 167.16 24.0961 143.583 30.9499 138.804C44.45 137.679 74.4753 120.659 77.4518 124.928C80.4284 129.197 41.9308 161.024 35.077 165.803Z" fill="#9FB1CC"/>
<path d="M12.95 173.304C26.075 172.554 35.075 167.679 74.075 131.679" stroke="#7D96BC" stroke-width="0.75"/>
<path d="M79.325 128.304C93.0539 123.351 125.623 119.503 143.699 140.361C161.776 161.22 108.118 140.733 79.325 128.304Z" fill="#C9CFEA"/>
<path d="M324.204 326.68C311.829 326.68 301.329 230.68 243.579 221.305C194.343 193.164 106.084 148.359 222.578 182.68C217.516 168.312 261.955 196.179 276.594 212.01C292.758 225.931 333.579 306.055 324.204 326.68Z" fill="#C9CFEA"/>
<path d="M314.076 303.428C312.255 305.12 302.24 283.447 293.642 274.189C285.045 264.932 228.95 209.304 234.95 211.93C236.771 210.239 297.575 239.304 300.237 268.065C308.834 277.322 315.897 301.737 314.076 303.428Z" fill="#C9CFEA"/>
<path d="M43.3251 112.179C46.3251 104.979 42.0751 107.679 39.5751 109.929C34.4751 115.029 30.7001 127.804 29.4501 133.554C27.0501 143.154 32.45 142.179 35.4501 140.679C51.95 133.929 71.825 126.804 75.5751 124.929C80.0751 122.229 76.9501 122.304 74.8251 122.679C59.2251 126.879 45.8251 133.179 41.0751 135.804C33.575 140.304 33.95 136.179 34.3251 134.679C35.5251 125.379 40.8251 115.804 43.3251 112.179Z" fill="#7D96BC"/>
<g filter="url(#filter0_f_288_3008)">
<ellipse cx="90.95" cy="118.179" rx="7.125" ry="6.375" fill="#F4F4F4"/>
</g>
<g filter="url(#filter1_d_288_3008)">
<ellipse cx="90.95" cy="118.179" rx="6.375" ry="5.625" fill="#403E3E"/>
</g>
<ellipse cx="92.075" cy="115.554" rx="3" ry="2.25" fill="#F4F4F4"/>
<defs>
<filter id="filter0_f_288_3008" x="80.825" y="108.804" width="20.25" height="18.75" filterUnits="userSpaceOnUse" color-interpolation-filters="sRGB">
<feFlood flood-opacity="0" result="BackgroundImageFix"/>
<feBlend mode="normal" in="SourceGraphic" in2="BackgroundImageFix" result="shape"/>
<feGaussianBlur stdDeviation="1.5" result="effect1_foregroundBlur_288_3008"/>
</filter>
<filter id="filter1_d_288_3008" x="81.575" y="112.554" width="18.75" height="17.25" filterUnits="userSpaceOnUse" color-interpolation-filters="sRGB">
<feFlood flood-opacity="0" result="BackgroundImageFix"/>
<feColorMatrix in="SourceAlpha" type="matrix" values="0 0 0 0 0 0 0 0 0 0 0 0 0 0 0 0 0 0 127 0" result="hardAlpha"/>
<feOffset dy="3"/>
<feGaussianBlur stdDeviation="1.5"/>
<feComposite in2="hardAlpha" operator="out"/>
<feColorMatrix type="matrix" values="0 0 0 0 0 0 0 0 0 0 0 0 0 0 0 0 0 0 0.25 0"/>
<feBlend mode="normal" in2="BackgroundImageFix" result="effect1_dropShadow_288_3008"/>
<feBlend mode="normal" in="SourceGraphic" in2="effect1_dropShadow_288_3008" result="shape"/>
</filter>
<linearGradient id="paint0_linear_288_3008" x1="208.598" y1="65.5422" x2="293.552" y2="146.679" gradientUnits="userSpaceOnUse">
<stop stop-color="#9FB1CC"/>
<stop offset="1" stop-color="#7D96BC"/>
</linearGradient>
<linearGradient id="paint1_linear_288_3008" x1="79.8539" y1="63.2024" x2="317.689" y2="304.942" gradientUnits="userSpaceOnUse">
<stop stop-color="#9FB1CC"/>
<stop offset="1" stop-color="#7D96BC"/>
</linearGradient>
</defs>
</svg>
