<svg width="135" height="53" viewBox="0 0 135 53" fill="none" xmlns="http://www.w3.org/2000/svg">
<path d="M7.79126 9.75818C9.44915 6.29276 13.352 4.70719 18.6672 7.24939C22.058 8.87123 26.06 13.0115 28.0852 16.6957C34.5597 17.8149 43.1648 19.3873 52.2356 19.9681C60.435 18.4402 73.1131 18.4838 85.2854 18.4838C96.679 18.4838 102.372 18.4831 105.903 19.7435C106.937 19.6677 108.063 19.6303 109.285 19.6302C124.97 22.5482 120.432 25.4659 126.729 32.5248C127.368 32.5819 128.04 32.8656 128.843 33.3295C129.764 34.0755 129.369 35.129 127.57 35.6556C127.394 37.1915 127.614 37.6746 126.297 37.9818C125.817 37.8016 125.271 37.4936 124.799 37.0804C121.668 38.6207 115.893 38.3802 109.285 38.3802C106.039 38.3802 103.474 37.8793 101.49 37.0023C97.3115 38.2113 91.6592 38.7749 84.1604 38.3802C77.9093 37.2158 71.0706 36.1925 64.8059 35.0511C63.2067 35.1445 61.2993 35.1957 59.0334 35.1957C45.1416 35.1956 31.3731 28.7357 23.4583 23.2582C19.2292 22.8592 14.0221 20.7855 10.6125 19.1547C5.29683 16.6121 6.13347 13.224 7.79126 9.75818Z" fill="url(#paint0_linear_83_399)"/>
<g filter="url(#filter0_g_83_399)">
<path d="M57.5335 33.6547C66.9546 34.6825 64.056 30.0996 64.056 26.6879C64.056 23.2763 63.9543 22.1473 54.5335 21.4828C43.7181 21.4828 33.806 18.8909 26.8265 16.9213C24.9004 13.8762 21.4604 10.5317 18.5696 9.1449C13.8413 6.87683 11.793 6.59513 8.78351 10.6078C6.5335 13.6078 7.0649 16.6805 11.7933 18.9486C15.1153 20.5421 20.3436 22.6353 24.2073 22.7992C31.9852 27.9387 44.7053 33.6546 57.5335 33.6547Z" fill="#8FF9FD" fill-opacity="0.71"/>
</g>
<path d="M91.6609 48.5591C99.655 44.3774 96.7913 44.9795 97.8814 37.6614C97.8814 31.0499 96.9109 32.8091 94.6609 32.8092C93.2037 34.2512 90.5359 36.1841 88.4339 38.1842C87.1609 39.5591 92.4109 43.6841 91.6609 48.5591Z" fill="black" fill-opacity="0.5"/>
<path d="M102.159 18.6735C102.159 20.1489 85.2837 17.7331 74.7837 18.6735C49.0119 20.9818 45.9087 20.7085 45.9087 19.2331C45.9087 17.7578 51.9087 14.0591 61.2837 14.8091C73.3801 15.7768 102.159 17.1982 102.159 18.6735Z" fill="#222325" fill-opacity="0.8"/>
<path d="M35.4402 29.7331C46.6702 32.9417 42.5652 32.6285 50.8152 34.2331C60.1587 36.0504 65.3348 33.7633 64.6902 35.0904C57.6509 38.9446 55.8631 44.4129 46.9834 37.6082C36.439 29.5277 32.8152 28.9831 35.4402 29.7331Z" fill="#222325" fill-opacity="0.5"/>
<g filter="url(#filter1_g_83_399)">
<path d="M73.2859 20.5601C73.6223 18.5893 94.4926 20.5591 103.224 20.5591C110.571 20.5591 116.984 22.1875 118.835 25.6382L118.836 25.6392C122.628 32.4983 124.301 33.1108 125.786 33.5591C127.271 34.0073 126.795 35.0591 125.786 35.0591C117.505 34.079 113.329 30.3322 107.134 27.2642C104.94 26.5299 102.502 25.6069 99.8601 24.5015C88.7598 23.1877 73.287 23.0994 73.2859 20.5601Z" fill="#C8A242"/>
</g>
<path d="M17.8158 15.6191C9.65015 14.9749 12.3894 19.3915 11.2644 19.4321C10.1394 19.4727 6.21307 16.8701 6.76441 13.8071C7.54401 9.47596 7.88942 7.1594 15.3894 11.9321C19.5144 14.5571 19.6907 16.3691 17.8158 15.6191Z" fill="#393B3D"/>
<path d="M124.659 34.6092C124.659 36.6802 119.409 28.9831 87.9087 28.2342C49.2837 30.4831 21.5337 22.2331 14.0337 12.4831C18.9087 11.7331 39.5337 28.2342 78.1587 21.8582C96.9087 19.9831 124.659 32.5381 124.659 34.6092Z" fill="#393B3D"/>
<g filter="url(#filter2_i_83_399)">
<ellipse cx="111.536" cy="28.6841" rx="3.75" ry="3" fill="#DCD9C4"/>
</g>
<ellipse cx="113.034" cy="28.2332" rx="1.875" ry="1.5" fill="#222325"/>
<defs>
<filter id="filter0_g_83_399" x="0" y="0" width="71.9766" height="41.3016" filterUnits="userSpaceOnUse" color-interpolation-filters="sRGB">
<feFlood flood-opacity="0" result="BackgroundImageFix"/>
<feBlend mode="normal" in="SourceGraphic" in2="BackgroundImageFix" result="shape"/>
<feTurbulence type="fractalNoise" baseFrequency="6.6666665077209473 6.6666665077209473" numOctaves="3" seed="8242" />
<feDisplacementMap in="shape" scale="15" xChannelSelector="R" yChannelSelector="G" result="displacedImage" width="100%" height="100%" />
<feMerge result="effect1_texture_83_399">
<feMergeNode in="displacedImage"/>
</feMerge>
</filter>
<filter id="filter1_g_83_399" x="71.7859" y="18.184" width="56.4437" height="18.3751" filterUnits="userSpaceOnUse" color-interpolation-filters="sRGB">
<feFlood flood-opacity="0" result="BackgroundImageFix"/>
<feBlend mode="normal" in="SourceGraphic" in2="BackgroundImageFix" result="shape"/>
<feTurbulence type="fractalNoise" baseFrequency="6.6666665077209473 6.6666665077209473" numOctaves="3" seed="6977" />
<feDisplacementMap in="shape" scale="3" xChannelSelector="R" yChannelSelector="G" result="displacedImage" width="100%" height="100%" />
<feMerge result="effect1_texture_83_399">
<feMergeNode in="displacedImage"/>
</feMerge>
</filter>
<filter id="filter2_i_83_399" x="107.786" y="25.6841" width="8.25" height="6.75" filterUnits="userSpaceOnUse" color-interpolation-filters="sRGB">
<feFlood flood-opacity="0" result="BackgroundImageFix"/>
<feBlend mode="normal" in="SourceGraphic" in2="BackgroundImageFix" result="shape"/>
<feColorMatrix in="SourceAlpha" type="matrix" values="0 0 0 0 0 0 0 0 0 0 0 0 0 0 0 0 0 0 127 0" result="hardAlpha"/>
<feOffset dx="0.75" dy="0.75"/>
<feGaussianBlur stdDeviation="0.375"/>
<feComposite in2="hardAlpha" operator="arithmetic" k2="-1" k3="1"/>
<feColorMatrix type="matrix" values="0 0 0 0 0.343356 0 0 0 0 0.307633 0 0 0 0 0.0371612 0 0 0 0.45 0"/>
<feBlend mode="normal" in2="shape" result="effect1_innerShadow_83_399"/>
</filter>
<linearGradient id="paint0_linear_83_399" x1="68.4904" y1="18.3842" x2="68.4904" y2="46.2266" gradientUnits="userSpaceOnUse">
<stop stop-color="#DDE7F5"/>
<stop offset="1" stop-color="#8B9DB7"/>
</linearGradient>
</defs>
</svg>
