<svg width="370" height="153" viewBox="0 0 370 153" fill="none" xmlns="http://www.w3.org/2000/svg">
<path d="M317.587 129.295C325.964 131.791 329.588 131.32 329.591 137.195C329.594 142.57 322.032 142.426 318.283 143.544C314.533 144.662 323.341 137.323 323.341 136.073C323.34 134.527 318.089 131.826 317.587 129.295Z" fill="#B6B03F" fill-opacity="0.71"/>
<path d="M350.461 124.68C357.086 124.677 369.464 130.79 369.466 135.921C369.468 141.052 355.721 146.111 350.471 145.811C345.22 145.51 330.969 143.152 330.967 136.939C330.465 132.57 339.968 124.685 350.461 124.68Z" fill="#DDD301"/>
<path d="M350.46 124.68C357.085 124.677 369.463 130.79 369.465 135.921C369.468 141.052 355.72 146.111 350.47 145.811C346.878 145.605 339.075 144.436 334.502 141.729C332.686 140.83 331.376 140.194 330.467 140.195C329.718 141.695 329.718 141.912 328.344 143.196C326.969 144.48 322.969 143.948 315.844 143.951C324.343 141.573 327.343 140.946 327.341 136.571C327.339 131.746 326.214 132.072 315.837 128.826C327.087 128.821 327.671 128.696 330.464 133.32C330.875 133.32 332.885 131.724 335.438 130.029C339.111 127.118 344.632 124.683 350.46 124.68Z" fill="url(#paint0_linear_133_1110)"/>
<path d="M351.845 145.741C351.172 147.255 340.553 146.84 337.22 146.054C332.052 144.632 329.719 144.139 332.469 143.431C335.219 142.723 333.711 140.997 335.282 141.756C339.921 144 345.947 144.87 351.845 145.741Z" fill="#B6B03F" fill-opacity="0.71"/>
<path d="M353.085 138.069C353.584 138.898 351.991 140.243 348.671 142.242C344.549 144.724 340.678 144.233 342.669 142.208C344.66 140.184 342.447 138.692 344.191 138.678C348.837 138.64 352.292 136.753 353.085 138.069Z" fill="url(#paint1_linear_133_1110)"/>
<path d="M349.085 124.686C348.053 123.39 337.289 125.181 334.261 126.78C329.615 129.455 327.481 130.518 330.321 130.512C333.16 130.507 332.048 132.445 333.464 131.427C337.962 128.191 341.586 125.69 349.085 124.686Z" fill="#B6B03F" fill-opacity="0.71"/>
<circle cx="361.214" cy="131.806" r="1.875" transform="rotate(-0.0260272 361.214 131.806)" fill="#FEFEFE"/>
<circle cx="361.714" cy="131.806" r="1.375" transform="rotate(-0.0260272 361.714 131.806)" fill="black"/>
<path d="M222.173 109.955C230.203 113.406 233.859 113.359 233.18 119.194C232.559 124.533 225.066 123.513 221.212 124.189C217.358 124.865 226.958 118.597 227.102 117.355C227.28 115.819 222.378 112.527 222.173 109.955Z" fill="url(#paint2_linear_133_1110)" fill-opacity="0.45"/>
<path d="M255.36 109.182C261.941 109.947 273.526 117.454 272.934 122.551C272.341 127.647 258.1 131.079 252.92 130.172C247.74 129.265 233.858 125.27 234.576 119.099C234.584 114.701 244.937 107.97 255.36 109.182Z" fill="#DDD301"/>
<path d="M255.36 109.182C261.94 109.947 273.526 117.454 272.933 122.551C272.341 127.648 258.1 131.079 252.92 130.172C249.376 129.551 241.761 127.485 237.533 124.267C235.833 123.163 234.605 122.38 233.703 122.275C232.785 123.678 232.76 123.894 231.246 125.009C229.732 126.125 225.82 125.134 218.743 124.311C227.46 122.934 230.512 122.659 231.017 118.313C231.574 113.521 230.419 113.713 220.489 109.287C231.664 110.586 232.258 110.53 234.497 115.446C234.905 115.493 237.086 114.142 239.819 112.754C243.804 110.288 249.571 108.509 255.36 109.182Z" fill="url(#paint3_linear_133_1110)"/>
<path d="M254.293 130.262C253.449 131.687 242.95 130.045 239.731 128.877C234.762 126.866 232.502 126.106 235.316 125.721C238.129 125.337 236.832 123.447 238.304 124.384C242.652 127.151 248.536 128.713 254.293 130.262Z" fill="url(#paint4_linear_133_1110)" fill-opacity="0.71"/>
<path d="M256.415 122.786C256.814 123.667 255.076 124.818 251.547 126.419C247.165 128.406 243.376 127.469 245.589 125.689C247.801 123.91 245.775 122.171 247.51 122.359C252.129 122.86 255.78 121.386 256.415 122.786Z" fill="url(#paint5_linear_133_1110)"/>
<path d="M253.993 109.029C253.118 107.622 242.219 108.154 239.026 109.39C234.101 111.508 231.859 112.317 234.68 112.641C237.501 112.965 236.171 114.761 237.696 113.913C242.538 111.221 246.428 109.157 253.993 109.029Z" fill="url(#paint6_linear_133_1110)" fill-opacity="0.71"/>
<circle cx="265.214" cy="117.507" r="1.875" transform="rotate(6.63074 265.214 117.507)" fill="#FEFEFE"/>
<circle cx="265.711" cy="117.565" r="1.375" transform="rotate(6.63074 265.711 117.565)" fill="black"/>
<path d="M296.905 75.6359C305.119 78.621 308.765 78.3648 308.422 84.2298C308.108 89.5956 300.569 89.0064 296.76 89.9013C292.951 90.7963 302.175 83.9894 302.249 82.7414C302.339 81.198 297.256 78.1919 296.905 75.6359Z" fill="url(#paint7_linear_133_1110)" fill-opacity="0.45"/>
<path d="M329.993 72.9648C336.606 73.352 348.602 80.1836 348.303 85.3057C348.003 90.4279 333.981 94.6685 328.758 94.0595C323.535 93.4504 309.447 90.257 309.81 84.0545C309.566 79.6637 319.517 72.3516 329.993 72.9648Z" fill="#DDD301"/>
<path d="M329.992 72.9648C336.606 73.3519 348.602 80.1835 348.302 85.3057C348.003 90.4279 333.981 94.6686 328.758 94.0595C325.184 93.6428 317.464 92.0161 313.058 89.0448C311.298 88.0399 310.027 87.3286 309.12 87.2755C308.284 88.729 308.271 88.9455 306.824 90.1462C305.376 91.347 301.414 90.5809 294.301 90.1646C302.925 88.2903 305.957 87.8416 306.213 83.4741C306.494 78.6574 305.352 78.916 295.185 75.0654C306.416 75.7227 307.006 75.6322 309.522 80.4123C309.932 80.4363 312.033 78.9619 314.681 77.4205C318.519 74.73 324.174 72.6242 329.992 72.9648Z" fill="url(#paint8_linear_133_1110)"/>
<path d="M330.134 94.0707C329.373 95.5422 318.797 94.5034 315.516 93.5218C310.44 91.7984 308.141 91.1688 310.928 90.6239C313.714 90.0789 312.311 88.2669 313.834 89.1178C318.334 91.6313 324.298 92.8543 330.134 94.0707Z" fill="url(#paint9_linear_133_1110)" fill-opacity="0.71"/>
<path d="M331.824 86.4857C332.274 87.3427 330.604 88.5914 327.172 90.3913C322.911 92.6262 319.075 91.9076 321.182 90.0042C323.289 88.1008 321.167 86.4812 322.909 86.5697C327.55 86.8055 331.11 85.1247 331.824 86.4857Z" fill="url(#paint10_linear_133_1110)"/>
<path d="M328.619 72.8904C327.665 71.5358 316.814 72.69 313.697 74.1075C308.902 76.5038 306.709 77.4395 309.544 77.6013C312.379 77.7631 311.154 79.6327 312.628 78.6991C317.309 75.7344 321.074 73.4505 328.619 72.8904Z" fill="url(#paint11_linear_133_1110)" fill-opacity="0.71"/>
<circle cx="340.307" cy="80.7117" r="1.875" transform="rotate(3.34973 340.307 80.7117)" fill="#FEFEFE"/>
<circle cx="340.806" cy="80.7409" r="1.375" transform="rotate(3.34973 340.806 80.7409)" fill="black"/>
<path d="M194.529 67.7969C202.657 71.011 206.309 70.8571 205.801 76.7101C205.337 82.065 197.817 81.2648 193.984 82.0527C190.152 82.8406 199.564 76.2948 199.672 75.0493C199.805 73.5091 194.809 70.3618 194.529 67.7969Z" fill="#C79C40" fill-opacity="0.69"/>
<path d="M227.679 66.0539C234.279 66.6263 246.079 73.7913 245.636 78.903C245.193 84.0147 231.058 87.8608 225.854 87.1058C220.649 86.3505 206.657 82.7637 207.194 76.5737C207.073 72.1778 217.225 65.1475 227.679 66.0539Z" fill="#DDD301"/>
<path d="M227.678 66.0539C234.279 66.6261 246.079 73.7912 245.636 78.903C245.192 84.0148 231.057 87.861 225.853 87.1058C222.293 86.5891 214.621 84.7468 210.3 81.6531C208.569 80.5994 207.319 79.8527 206.414 79.7742C205.537 81.2038 205.518 81.4198 204.038 82.5795C202.557 83.7393 198.618 82.8624 191.52 82.247C200.193 80.6151 203.236 80.2515 203.614 75.8929C204.03 71.086 202.881 71.3125 192.826 67.1785C204.034 68.1502 204.626 68.0762 207.008 72.9249C207.417 72.9605 209.558 71.5455 212.249 70.0789C216.16 67.4969 221.872 65.5505 227.678 66.0539Z" fill="url(#paint12_linear_133_1110)"/>
<path d="M227.229 87.1555C226.427 88.6051 215.884 87.2704 212.632 86.1973C207.607 84.3323 205.326 83.6386 208.127 83.1719C210.928 82.7052 209.576 80.8547 211.074 81.7478C215.502 84.3864 221.429 85.7761 227.229 87.1555Z" fill="url(#paint13_linear_133_1110)" fill-opacity="0.71"/>
<path d="M229.131 79.6209C229.556 80.4901 227.852 81.6915 224.371 83.3945C220.049 85.5092 216.235 84.6834 218.395 82.8398C220.554 80.9962 218.478 79.3177 220.217 79.455C224.849 79.8207 228.455 78.2403 229.131 79.6209Z" fill="url(#paint14_linear_133_1110)"/>
<path d="M226.308 65.9411C225.393 64.5603 214.513 65.41 211.358 66.7397C206.497 69.0006 204.279 69.8745 207.109 70.1157C209.938 70.3569 208.661 72.1914 210.161 71.2995C214.922 68.4671 218.75 66.2896 226.308 65.9411Z" fill="url(#paint15_linear_133_1110)" fill-opacity="0.71"/>
<circle cx="237.772" cy="74.0868" r="1.875" transform="rotate(4.95524 237.772 74.0868)" fill="#FEFEFE"/>
<circle cx="238.271" cy="74.13" r="1.375" transform="rotate(4.95524 238.271 74.13)" fill="black"/>
<path d="M117.529 30.7969C125.656 34.011 129.309 33.8571 128.801 39.7101C128.337 45.065 120.817 44.2648 116.984 45.0527C113.152 45.8406 122.564 39.2948 122.672 38.0493C122.805 36.5091 117.808 33.3618 117.529 30.7969Z" fill="url(#paint16_linear_133_1110)" fill-opacity="0.45"/>
<path d="M150.679 29.0539C157.279 29.6263 169.079 36.7913 168.636 41.903C168.193 47.0147 154.058 50.8608 148.853 50.1058C143.649 49.3505 129.657 45.7637 130.193 39.5737C130.073 35.1778 140.224 28.1475 150.679 29.0539Z" fill="#DDD301"/>
<path d="M150.678 29.0539C157.279 29.6261 169.079 36.7912 168.636 41.903C168.192 47.0148 154.057 50.861 148.853 50.1058C145.293 49.5891 137.621 47.7468 133.3 44.6531C131.569 43.5994 130.319 42.8527 129.414 42.7742C128.537 44.2038 128.518 44.4198 127.038 45.5795C125.557 46.7393 121.618 45.8624 114.519 45.247C123.193 43.6151 126.236 43.2515 126.614 38.8929C127.03 34.086 125.881 34.3125 115.826 30.1785C127.034 31.1502 127.626 31.0762 130.008 35.9249C130.417 35.9605 132.558 34.5455 135.249 33.0789C139.16 30.4969 144.872 28.5505 150.678 29.0539Z" fill="url(#paint17_linear_133_1110)"/>
<path d="M150.229 50.1555C149.427 51.6051 138.884 50.2704 135.632 49.1973C130.607 47.3323 128.326 46.6386 131.127 46.1719C133.928 45.7052 132.576 43.8547 134.074 44.7478C138.501 47.3864 144.429 48.7761 150.229 50.1555Z" fill="url(#paint18_linear_133_1110)" fill-opacity="0.71"/>
<path d="M152.131 42.6209C152.556 43.4901 150.852 44.6915 147.371 46.3945C143.049 48.5092 139.235 47.6834 141.394 45.8398C143.554 43.9962 141.478 42.3177 143.217 42.455C147.849 42.8207 151.455 41.2403 152.131 42.6209Z" fill="url(#paint19_linear_133_1110)"/>
<path d="M149.308 28.9411C148.392 27.5603 137.513 28.41 134.358 29.7397C129.497 32.0006 127.279 32.8745 130.109 33.1157C132.938 33.3569 131.661 35.1914 133.16 34.2995C137.922 31.4671 141.75 29.2896 149.308 28.9411Z" fill="url(#paint20_linear_133_1110)" fill-opacity="0.71"/>
<circle cx="160.772" cy="37.0868" r="1.875" transform="rotate(4.95524 160.772 37.0868)" fill="#FEFEFE"/>
<circle cx="161.27" cy="37.13" r="1.375" transform="rotate(4.95524 161.27 37.13)" fill="black"/>
<path d="M15.5711 13.0033C22.1176 18.794 25.6036 19.8935 23.1325 25.2235C20.8717 30.0999 14.0741 26.7857 10.2026 26.2208C6.33099 25.6559 17.4097 22.7081 17.9355 21.5739C18.5858 20.1713 14.9602 15.51 15.5711 13.0033Z" fill="#B6B03F" fill-opacity="0.71"/>
<path d="M47.3318 22.6581C53.3422 25.4449 61.9954 36.2013 59.8374 40.8563C57.6792 45.5112 43.0798 44.3117 38.4438 41.8288C33.8082 39.3458 21.8747 31.2066 24.4881 25.5697C25.8722 21.3957 37.8118 18.2444 47.3318 22.6581Z" fill="#DDD301"/>
<path d="M47.3315 22.658C53.3419 25.4445 61.9952 36.2011 59.837 40.8561C57.6788 45.5111 43.079 44.3117 38.4434 41.8287C35.2723 40.1301 28.6869 35.7842 25.6785 31.4036C24.4095 29.823 23.489 28.6953 22.6647 28.3131C21.3534 29.3584 21.2621 29.5551 19.4749 30.141C17.6877 30.727 14.2831 28.5606 7.81898 25.5637C16.5294 26.9843 19.5141 27.6791 21.3543 23.7099C23.3837 19.3326 22.2263 19.1541 14.1808 11.8417C24.3871 16.5736 24.9691 16.7058 25.5564 22.0759C25.9294 22.2488 28.424 21.6477 31.4535 21.1856C36.0107 20.0907 42.044 20.2066 47.3315 22.658Z" fill="url(#paint21_linear_133_1110)"/>
<path d="M39.72 42.3441C38.4719 43.4337 29.0144 38.5871 26.3229 36.4705C22.2333 33.0049 20.3253 31.5757 23.1176 32.0911C25.9099 32.6065 25.2692 30.4061 26.3739 31.7564C29.6374 35.7454 34.737 39.0714 39.72 42.3441Z" fill="#B6B03F" fill-opacity="0.71"/>
<path d="M44.0749 35.9081C44.1786 36.8702 42.1672 37.4192 38.3145 37.8346C33.5307 38.3503 30.2257 36.2744 32.8842 35.2768C35.5426 34.2793 34.1627 31.994 35.7511 32.7156C39.9815 34.6375 43.9102 34.3801 44.0749 35.9081Z" fill="url(#paint22_linear_133_1110)"/>
<path d="M46.0814 22.085C45.691 20.4749 35.1729 17.5674 31.7533 17.7425C26.4135 18.2124 24.0305 18.2784 26.6083 19.469C29.1861 20.6596 27.3607 21.9494 29.0743 21.6217C34.5162 20.581 38.8565 19.8377 46.0814 22.085Z" fill="#B6B03F" fill-opacity="0.71"/>
<circle cx="54.0848" cy="33.6491" r="1.875" transform="rotate(24.8736 54.0848 33.6491)" fill="#FEFEFE"/>
<circle cx="54.5384" cy="33.8595" r="1.375" transform="rotate(24.8736 54.5384 33.8595)" fill="black"/>
<path d="M96.5985 83.1022C105.171 84.8032 108.736 83.9955 109.289 89.8444C109.795 95.1955 102.253 95.7599 98.625 97.2237C94.9966 98.6876 103.079 90.5569 102.961 89.3123C102.816 87.7731 97.3345 85.5751 96.5985 83.1022Z" fill="#B6B03F" fill-opacity="0.71"/>
<path d="M128.895 75.4298C135.491 74.8067 148.387 79.7342 148.869 84.8423C149.352 89.9504 136.139 96.2742 130.883 96.4669C125.628 96.6593 111.219 95.6457 110.634 89.46C109.726 85.1574 118.449 76.417 128.895 75.4298Z" fill="#DDD301"/>
<path d="M128.895 75.4298C135.491 74.8066 148.386 79.7342 148.869 84.8424C149.352 89.9506 136.138 96.2746 130.883 96.467C127.288 96.5986 119.41 96.1651 114.603 93.8983C112.71 93.1729 111.347 92.6631 110.442 92.7485C109.837 94.3124 109.857 94.5282 108.609 95.9352C107.361 97.3422 103.328 97.1875 96.2351 97.8578C104.474 94.6937 107.402 93.7892 106.99 89.4336C106.536 84.6301 105.447 85.0594 94.8121 82.7999C106.012 81.7415 106.581 81.5623 109.796 85.904C110.205 85.8654 112.056 84.0888 114.44 82.1624C117.824 78.9195 123.093 75.9782 128.895 75.4298Z" fill="url(#paint23_linear_133_1110)"/>
<path d="M132.245 96.2686C131.717 97.8388 121.106 98.4206 117.714 97.9494C112.435 97.018 110.067 96.7455 112.738 95.783C115.41 94.8206 113.747 93.2431 115.382 93.8524C120.211 95.6524 126.292 95.9541 132.245 96.2686Z" fill="#B6B03F" fill-opacity="0.71"/>
<path d="M132.762 88.5149C133.337 89.2935 131.876 90.7816 128.758 93.0825C124.887 95.9395 120.986 95.8127 122.779 93.611C124.572 91.4093 122.228 90.1312 123.964 89.9537C128.586 89.481 131.849 87.2782 132.762 88.5149Z" fill="url(#paint24_linear_133_1110)"/>
<path d="M127.527 75.5652C126.378 74.3714 115.828 77.1626 112.963 79.0377C108.588 82.1353 106.564 83.3936 109.39 83.1224C112.217 82.8512 111.29 84.8853 112.605 83.7384C116.78 80.0963 120.154 77.2664 127.527 75.5652Z" fill="#B6B03F" fill-opacity="0.71"/>
<circle cx="140.268" cy="81.5179" r="1.875" transform="rotate(-5.39843 140.268 81.5179)" fill="#FEFEFE"/>
<circle cx="140.766" cy="81.4708" r="1.375" transform="rotate(-5.39843 140.766 81.4708)" fill="black"/>
<path d="M241.599 37.1022C250.171 38.8032 253.736 37.9955 254.289 43.8444C254.795 49.1955 247.253 49.7599 243.625 51.2237C239.997 52.6876 248.079 44.5569 247.961 43.3123C247.816 41.7731 242.334 39.5751 241.599 37.1022Z" fill="#C79C40" fill-opacity="0.69"/>
<path d="M273.895 29.4298C280.491 28.8067 293.387 33.7342 293.869 38.8423C294.352 43.9505 281.139 50.2743 275.883 50.4669C270.628 50.6593 256.219 49.6457 255.634 43.46C254.726 39.1574 263.449 30.417 273.895 29.4298Z" fill="#DDD301"/>
<path d="M273.895 29.4298C280.491 28.8066 293.386 33.7342 293.869 38.8424C294.352 43.9506 281.138 50.2746 275.883 50.467C272.288 50.5986 264.41 50.1651 259.603 47.8983C257.71 47.1729 256.347 46.6631 255.442 46.7485C254.837 48.3124 254.857 48.5282 253.609 49.9352C252.361 51.3422 248.328 51.1875 241.235 51.8578C249.474 48.6937 252.402 47.7892 251.99 43.4336C251.536 38.6301 250.447 39.0594 239.812 36.7999C251.012 35.7415 251.581 35.5623 254.796 39.904C255.205 39.8654 257.056 38.0888 259.44 36.1624C262.824 32.9195 268.093 29.9782 273.895 29.4298Z" fill="url(#paint25_linear_133_1110)"/>
<path d="M277.245 50.2686C276.717 51.8388 266.106 52.4206 262.714 51.9494C257.435 51.018 255.067 50.7455 257.738 49.783C260.41 48.8206 258.747 47.2431 260.382 47.8524C265.211 49.6524 271.292 49.9541 277.245 50.2686Z" fill="url(#paint26_linear_133_1110)" fill-opacity="0.71"/>
<path d="M277.762 42.5149C278.337 43.2935 276.876 44.7816 273.758 47.0825C269.887 49.9395 265.986 49.8127 267.779 47.611C269.572 45.4093 267.228 44.1312 268.964 43.9537C273.586 43.481 276.849 41.2782 277.762 42.5149Z" fill="url(#paint27_linear_133_1110)"/>
<path d="M272.527 29.5652C271.378 28.3714 260.828 31.1626 257.963 33.0377C253.588 36.1353 251.564 37.3936 254.39 37.1224C257.217 36.8512 256.29 38.8853 257.605 37.7384C261.78 34.0963 265.154 31.2664 272.527 29.5652Z" fill="url(#paint28_linear_133_1110)" fill-opacity="0.71"/>
<circle cx="285.268" cy="35.5179" r="1.875" transform="rotate(-5.39843 285.268 35.5179)" fill="#FEFEFE"/>
<circle cx="285.766" cy="35.4708" r="1.375" transform="rotate(-5.39843 285.766 35.4708)" fill="black"/>
<defs>
<linearGradient id="paint0_linear_133_1110" x1="369.465" y1="135.243" x2="315.84" y2="135.267" gradientUnits="userSpaceOnUse">
<stop stop-color="#DDD301"/>
<stop offset="1" stop-color="#8C6D16"/>
</linearGradient>
<linearGradient id="paint1_linear_133_1110" x1="347.327" y1="138.144" x2="347.979" y2="143.419" gradientUnits="userSpaceOnUse">
<stop stop-color="#E6DD23"/>
<stop offset="1" stop-color="#A29C16"/>
</linearGradient>
<linearGradient id="paint2_linear_133_1110" x1="234.053" y1="118.668" x2="222.049" y2="116.965" gradientUnits="userSpaceOnUse">
<stop offset="0.302885" stop-color="#7E0FB1"/>
<stop offset="0.8125" stop-color="#D021A1"/>
</linearGradient>
<linearGradient id="paint3_linear_133_1110" x1="273.012" y1="121.877" x2="219.745" y2="115.685" gradientUnits="userSpaceOnUse">
<stop stop-color="#4C1B88"/>
<stop offset="1" stop-color="#B501DD"/>
</linearGradient>
<linearGradient id="paint4_linear_133_1110" x1="245.912" y1="125.298" x2="242.366" y2="131.286" gradientUnits="userSpaceOnUse">
<stop offset="0.216346" stop-color="#800EB2"/>
<stop offset="0.682692" stop-color="#C9348A"/>
</linearGradient>
<linearGradient id="paint5_linear_133_1110" x1="251.715" y1="122.185" x2="252.892" y2="126.677" gradientUnits="userSpaceOnUse">
<stop stop-color="#7910AC"/>
<stop offset="1" stop-color="#96346E"/>
</linearGradient>
<linearGradient id="paint6_linear_133_1110" x1="241.466" y1="107.014" x2="245.863" y2="114.085" gradientUnits="userSpaceOnUse">
<stop offset="0.274038" stop-color="#CC2C93"/>
<stop offset="0.644231" stop-color="#820EB4"/>
</linearGradient>
<linearGradient id="paint7_linear_133_1110" x1="309.264" y1="83.6547" x2="297.182" y2="82.6408" gradientUnits="userSpaceOnUse">
<stop offset="0.302885" stop-color="#7E0FB1"/>
<stop offset="0.8125" stop-color="#D021A1"/>
</linearGradient>
<linearGradient id="paint8_linear_133_1110" x1="348.342" y1="84.6288" x2="294.809" y2="81.4955" gradientUnits="userSpaceOnUse">
<stop stop-color="#4C1B88"/>
<stop offset="1" stop-color="#B501DD"/>
</linearGradient>
<linearGradient id="paint9_linear_133_1110" x1="321.483" y1="89.5946" x2="318.285" y2="95.7756" gradientUnits="userSpaceOnUse">
<stop offset="0.216346" stop-color="#800EB2"/>
<stop offset="0.682692" stop-color="#C9348A"/>
</linearGradient>
<linearGradient id="paint10_linear_133_1110" x1="327.098" y1="86.1548" x2="328.53" y2="90.5719" gradientUnits="userSpaceOnUse">
<stop stop-color="#7910AC"/>
<stop offset="1" stop-color="#96346E"/>
</linearGradient>
<linearGradient id="paint11_linear_133_1110" x1="315.998" y1="71.5952" x2="320.791" y2="78.4027" gradientUnits="userSpaceOnUse">
<stop offset="0.274038" stop-color="#CC2C93"/>
<stop offset="0.644231" stop-color="#820EB4"/>
</linearGradient>
<linearGradient id="paint12_linear_133_1110" x1="245.694" y1="78.2275" x2="192.27" y2="73.5955" gradientUnits="userSpaceOnUse">
<stop stop-color="#DD01CB"/>
<stop offset="1" stop-color="#A98522"/>
</linearGradient>
<linearGradient id="paint13_linear_133_1110" x1="218.706" y1="82.4388" x2="215.337" y2="88.5277" gradientUnits="userSpaceOnUse">
<stop stop-color="#CF239F"/>
<stop offset="1" stop-color="#B6B03F"/>
</linearGradient>
<linearGradient id="paint14_linear_133_1110" x1="224.416" y1="79.1576" x2="225.723" y2="83.6131" gradientUnits="userSpaceOnUse">
<stop stop-color="#96346E"/>
<stop offset="1" stop-color="#E6DD23"/>
</linearGradient>
<linearGradient id="paint15_linear_133_1110" x1="213.728" y1="64.2927" x2="218.329" y2="71.2319" gradientUnits="userSpaceOnUse">
<stop stop-color="#B6B03F"/>
<stop offset="1" stop-color="#CC2C93"/>
</linearGradient>
<linearGradient id="paint16_linear_133_1110" x1="129.658" y1="39.1588" x2="117.61" y2="37.8068" gradientUnits="userSpaceOnUse">
<stop offset="0.302885" stop-color="#7E0FB1"/>
<stop offset="0.8125" stop-color="#D021A1"/>
</linearGradient>
<linearGradient id="paint17_linear_133_1110" x1="168.694" y1="41.2275" x2="115.27" y2="36.5955" gradientUnits="userSpaceOnUse">
<stop stop-color="#4C1B88"/>
<stop offset="1" stop-color="#B501DD"/>
</linearGradient>
<linearGradient id="paint18_linear_133_1110" x1="141.706" y1="45.4388" x2="138.336" y2="51.5277" gradientUnits="userSpaceOnUse">
<stop offset="0.216346" stop-color="#800EB2"/>
<stop offset="0.682692" stop-color="#C9348A"/>
</linearGradient>
<linearGradient id="paint19_linear_133_1110" x1="147.415" y1="42.1576" x2="148.723" y2="46.6131" gradientUnits="userSpaceOnUse">
<stop stop-color="#7910AC"/>
<stop offset="1" stop-color="#96346E"/>
</linearGradient>
<linearGradient id="paint20_linear_133_1110" x1="136.728" y1="27.2927" x2="141.329" y2="34.2319" gradientUnits="userSpaceOnUse">
<stop offset="0.274038" stop-color="#CC2C93"/>
<stop offset="0.644231" stop-color="#820EB4"/>
</linearGradient>
<linearGradient id="paint21_linear_133_1110" x1="60.1222" y1="40.2409" x2="11.4716" y2="17.6853" gradientUnits="userSpaceOnUse">
<stop stop-color="#DDD301"/>
<stop offset="1" stop-color="#8C6D16"/>
</linearGradient>
<linearGradient id="paint22_linear_133_1110" x1="38.8205" y1="33.5509" x2="37.1907" y2="38.6109" gradientUnits="userSpaceOnUse">
<stop stop-color="#E6DD23"/>
<stop offset="1" stop-color="#A29C16"/>
</linearGradient>
<linearGradient id="paint23_linear_133_1110" x1="148.805" y1="84.1673" x2="95.4181" y2="89.2124" gradientUnits="userSpaceOnUse">
<stop stop-color="#DDD301"/>
<stop offset="1" stop-color="#8C6D16"/>
</linearGradient>
<linearGradient id="paint24_linear_133_1110" x1="127.036" y1="89.1278" x2="128.179" y2="94.3194" gradientUnits="userSpaceOnUse">
<stop stop-color="#E6DD23"/>
<stop offset="1" stop-color="#A29C16"/>
</linearGradient>
<linearGradient id="paint25_linear_133_1110" x1="293.805" y1="38.1673" x2="240.418" y2="43.2124" gradientUnits="userSpaceOnUse">
<stop stop-color="#DD01CB"/>
<stop offset="1" stop-color="#A98522"/>
</linearGradient>
<linearGradient id="paint26_linear_133_1110" x1="268.014" y1="47.1605" x2="265.793" y2="53.7559" gradientUnits="userSpaceOnUse">
<stop stop-color="#CF239F"/>
<stop offset="1" stop-color="#B6B03F"/>
</linearGradient>
<linearGradient id="paint27_linear_133_1110" x1="273.04" y1="42.9067" x2="275.128" y2="47.0545" gradientUnits="userSpaceOnUse">
<stop stop-color="#96346E"/>
<stop offset="1" stop-color="#E6DD23"/>
</linearGradient>
<linearGradient id="paint28_linear_133_1110" x1="259.855" y1="30.2046" x2="265.628" y2="36.2039" gradientUnits="userSpaceOnUse">
<stop stop-color="#B6B03F"/>
<stop offset="1" stop-color="#CC2C93"/>
</linearGradient>
</defs>
</svg>
