<svg width="103" height="391" viewBox="0 0 103 391" fill="none" xmlns="http://www.w3.org/2000/svg">
<path d="M35.5 74C32.7 98 6 132 2 142.5C37.6667 148.667 109.5 153 100 137.5C90.5 122 77 106 71 74C70.3333 54.1667 69 12.3 69 3.50001C61.4 -2.09999 43.5 1.16665 35.5 3.49999C36.6667 17 38.3 50 35.5 74Z" fill="#808A64" stroke="black" stroke-width="0.5"/>
<rect y="123" width="103" height="268" rx="26" fill="url(#paint0_linear_131_734)"/>
<rect x="35.25" y="3.25" width="34.5" height="12.5" rx="3.75" fill="#808A64" stroke="black" stroke-width="0.5"/>
<path d="M52.5 0.25C57.3244 0.25 61.687 0.529232 64.8389 0.979492C66.4167 1.2049 67.6808 1.47183 68.5449 1.76367C68.9784 1.91008 69.2962 2.05826 69.501 2.20117C69.7149 2.3505 69.75 2.45378 69.75 2.5C69.75 2.54622 69.7149 2.6495 69.501 2.79883C69.2962 2.94174 68.9784 3.08992 68.5449 3.23633C67.6808 3.52817 66.4167 3.7951 64.8389 4.02051C61.687 4.47077 57.3244 4.75 52.5 4.75C47.6756 4.75 43.313 4.47077 40.1611 4.02051C38.5833 3.7951 37.3192 3.52817 36.4551 3.23633C36.0216 3.08992 35.7038 2.94174 35.499 2.79883C35.2851 2.6495 35.25 2.54622 35.25 2.5C35.25 2.45378 35.2851 2.3505 35.499 2.20117C35.7038 2.05826 36.0216 1.91008 36.4551 1.76367C37.3192 1.47183 38.5833 1.2049 40.1611 0.979492C43.313 0.529232 47.6756 0.25 52.5 0.25Z" fill="#808A64" stroke="black" stroke-width="0.5"/>
<path d="M5.41971 185.505C5.69955 183.462 7.48882 182 9.55088 182C12.3317 182 14.3777 184.603 13.8245 187.329C9.83925 206.963 11.4149 218.97 14.0284 231.487C14.5131 233.808 12.7553 236 10.3838 236C8.089 236 6.35094 233.934 6.58029 231.651C8.27528 214.776 3.11811 202.308 5.41971 185.505Z" fill="#363725"/>
<g opacity="0.75" filter="url(#filter0_f_131_734)">
<path d="M40.3952 8.29464C40.3394 5.30716 42.8123 2.90115 45.7985 3.00482C49.1477 3.12109 51.538 6.30052 50.9248 9.59517C46.7397 32.0836 48.2411 61.0147 49.168 73.2751C49.4045 76.4035 46.879 79.0881 43.7435 78.9793C40.5655 78.8689 38.2478 75.9356 38.7702 72.7989C42.7934 48.6419 40.8515 32.7306 40.3952 8.29464Z" fill="#F5F5F5"/>
</g>
<path d="M18.6152 340.868C15.0152 329.668 9.44852 334.868 7.11519 338.868L5.61519 359.368C3.11519 369.535 6.91519 390.068 42.1152 390.868C77.3152 391.668 90.1152 381.535 92.1152 376.368C95.3152 366.368 95.7819 344.202 95.6152 334.368V252.368C98.15 189.958 91.4707 195.362 87.5 208.5C81.3235 250.199 93.8826 307.304 94.6152 325.868C95.3647 344.86 94.1152 367.368 88.1152 374.368C83.3152 379.968 68.4485 381.035 61.6152 380.868C37.2152 382.868 26.6667 372.5 22.5 369.5C17.7 367.1 16.6152 351.035 18.6152 340.868Z" fill="#363725"/>
<path d="M62.6942 108C63.8726 108.992 65.2003 110.27 66.6167 111.828C88.8655 135.03 94.9619 168.141 94.2834 182.477C92.3836 199.611 88.0287 195.398 88.5 184.35C90.9098 147.608 76.5737 122.784 66.6167 111.828C65.3612 110.519 64.0543 109.241 62.6942 108Z" fill="#363725"/>
<path d="M41.9115 97C40.8698 97.7701 39.7121 98.7356 38.4799 99.893C15.3085 120.418 5.25647 150.046 5.94447 162.817C7.85553 177.959 16.4274 174.235 15.9533 164.472C13.4875 131.442 28.4523 109.312 38.4799 99.893C39.5934 98.9067 40.7371 97.9414 41.9115 97Z" fill="#363725"/>
<path opacity="0.77" d="M96.0722 159.117C96.1588 159.801 96.1867 160.364 96.1678 160.805C96.1453 160.241 96.1133 159.678 96.0722 159.117C95.397 153.781 91.151 141.092 77.7041 121.457C70.7829 113.24 56.3786 94.6511 55.525 75.793C54.6862 57.2611 57.2253 38.7271 58 37.3635C58.7747 36 61.7997 20.0279 61.7662 39.5001C61.6107 54.4064 60.7658 67.4746 60.4999 75.7929C60.234 84.1112 67.9235 98.6898 77.7041 114.5C81.6986 121.521 94.6121 139.161 96.0722 159.117Z" fill="#363725"/>
<path opacity="0.5" d="M22.2518 153.609C22.104 148.349 26.3342 144 31.5958 144C37.1565 144 41.4855 148.838 40.969 154.375C33.7697 231.549 40.0034 278.993 41.8027 356.355C41.9258 361.645 37.6606 366 32.3695 366C26.8024 366 22.4444 361.196 22.8989 355.648C29.2216 278.448 24.4265 231 22.2518 153.609Z" fill="url(#paint1_linear_131_734)"/>
<defs>
<filter id="filter0_f_131_734" x="36.6965" y="1.00171" width="16.3245" height="79.9807" filterUnits="userSpaceOnUse" color-interpolation-filters="sRGB">
<feFlood flood-opacity="0" result="BackgroundImageFix"/>
<feBlend mode="normal" in="SourceGraphic" in2="BackgroundImageFix" result="shape"/>
<feGaussianBlur stdDeviation="1" result="effect1_foregroundBlur_131_734"/>
</filter>
<linearGradient id="paint0_linear_131_734" x1="51.5" y1="123" x2="51.5" y2="391" gradientUnits="userSpaceOnUse">
<stop offset="0.100962" stop-color="#808A64"/>
<stop offset="1" stop-color="#363725"/>
</linearGradient>
<linearGradient id="paint1_linear_131_734" x1="32" y1="144" x2="32" y2="366" gradientUnits="userSpaceOnUse">
<stop offset="0.139423" stop-color="#A5AD8E"/>
<stop offset="1" stop-color="#363725"/>
</linearGradient>
</defs>
</svg>
