<svg width="626" height="393" viewBox="0 0 626 393" fill="none" xmlns="http://www.w3.org/2000/svg">
<g filter="url(#filter0_d_195_1777)">
<path d="M360.912 199.132C273.612 154.132 249.537 183.382 248.412 203.632L180.912 228.381C179.037 226.506 167.187 221.856 134.787 218.256C94.2873 213.756 103.287 203.632 105.537 199.132C107.337 195.532 101.037 194.631 97.6623 194.631C54.7745 209.256 68.4123 189.006 71.7873 180.006C74.4873 172.806 70.6623 171.006 68.4123 171.006C32.4123 180.006 44.7873 172.131 51.5373 158.631C56.9373 147.831 53.7873 142.131 51.5373 140.631C0.912276 137.256 27.9123 121.507 34.6623 121.507C40.0623 121.507 39.9123 118.506 39.1623 117.006C-19.3377 68.6316 39.1623 87.7563 44.7873 95.6311C49.2873 101.931 51.1623 98.256 51.5373 95.6311C67.2873 47.2557 80.7873 67.5061 67.2873 104.631C56.4873 134.331 69.5373 128.256 77.4123 121.507C83.0373 108.006 93.3873 88.2062 89.7873 117.006C86.1873 145.807 91.2873 161.256 94.2873 165.381C159.537 213.756 138.939 172.552 134.787 168.757C129.474 163.9 113.628 148.5 113.412 144.006C113.197 139.513 119.412 126.757 124.662 121.507C95.4123 110.257 97.6623 95.6311 108.912 99.0062C120.162 102.381 148.287 92.2562 130.287 85.5062C112.287 78.7562 96.5373 67.5061 117.912 67.5061C139.287 67.5061 160.662 54.0062 117.912 46.131C75.1623 38.2559 111.162 12.381 117.912 23.631C123.312 32.631 135.162 37.1311 140.412 38.2562C157.512 -20.2438 164.037 1.13117 165.162 19.1312C163.662 32.2562 162.012 57.6063 167.412 54.0062C174.162 49.506 238.287 31.5062 196.662 58.5063C163.362 80.1064 163.287 90.0063 167.412 92.2562C227.712 95.8561 208.287 102.756 191.037 105.756C171.912 104.631 135.012 109.356 140.412 137.256C145.812 165.156 160.662 169.881 167.412 168.757C163.389 113.697 182.756 142.898 188.787 165.381C194.504 186.692 203.412 174.381 207.912 165.381C207.912 150.081 219.162 135.006 224.787 129.382C221.412 108.007 234.912 102.381 243.912 104.631C251.112 106.431 252.162 103.881 251.787 102.381C231.537 78.7562 255.162 81.0062 267.537 85.5062C277.437 89.1062 279.162 84.0062 278.787 81.0062C245.487 52.206 277.662 60.006 297.912 67.5061C306.012 6.30582 314.037 36.0061 317.037 58.5063C364.287 34.8813 390.162 67.5063 345.162 72.0063C309.162 75.6063 311.412 84.0063 317.037 87.7563C336.537 95.6313 363.162 108.906 313.662 99.0062C264.162 89.1062 287.787 103.131 305.787 111.381C319.287 127.581 311.412 130.131 305.787 129.382C274.287 112.282 254.412 120.006 248.412 126.006C210.612 177.306 228.162 183.381 241.662 180.006C243.912 172.506 252.012 157.731 266.412 158.631C280.812 159.531 298.662 156.006 305.787 154.131C302.787 147.381 300.837 135.906 317.037 144.006C333.237 152.107 342.537 147.381 345.162 144.006C359.562 89.1064 364.662 103.131 365.412 117.006C363.912 122.256 361.812 135.006 365.412 144.006C369.012 153.006 378.912 132.756 383.412 121.507C387.162 113.257 395.337 103.282 398.037 129.382C400.737 155.482 377.412 166.507 365.412 168.757C315.912 164.257 344.787 177.382 365.412 184.507C397.812 209.707 375.912 204.757 360.912 199.132Z" fill="url(#paint0_linear_195_1777)"/>
</g>
<g filter="url(#filter1_d_195_1777)">
<path d="M265.503 193.501C252.323 189.522 244.933 188.818 231.753 193.501C200.547 189.001 187.251 214.126 184.503 225.001C208.503 230.251 258.978 237.601 268.878 225.001C278.778 212.401 270.753 197.251 265.503 193.501Z" fill="#7D6964"/>
</g>
<g filter="url(#filter2_d_195_1777)">
<path d="M137.253 214.875C153.453 204.075 177.003 210.375 186.753 214.875L204.753 226.125C182.253 235.125 137.253 252.675 137.253 250.875C137.253 249.075 126.753 244.125 121.503 241.875C58.5029 227.475 105.753 217.875 137.253 214.875Z" fill="#6B5954"/>
</g>
<g filter="url(#filter3_d_195_1777)">
<path d="M285.679 238.45C275.944 219.439 239.441 219.213 222.406 221.476C158.159 229.624 178.601 245.239 196.853 252.029C230.518 255.423 295.413 257.46 285.679 238.45Z" fill="#654D47"/>
</g>
<g filter="url(#filter4_d_195_1777)">
<path d="M186.753 234C203.253 246.75 222.303 270.45 166.503 263.25C96.7528 254.25 139.503 226.125 186.753 234Z" fill="#46332E"/>
</g>
<ellipse cx="9" cy="7.875" rx="9" ry="7.875" transform="matrix(-1 0 0 1 119.253 200.25)" fill="#B86F4F"/>
<ellipse cx="9.05463" cy="6.41719" rx="9.05463" ry="6.41719" transform="matrix(-0.934625 0.355635 0.355635 0.934625 168.753 87.75)" fill="#B86F4F"/>
<ellipse cx="9.05463" cy="6.41719" rx="9.05463" ry="6.41719" transform="matrix(-0.937909 -0.346883 -0.346883 0.937909 272.253 85.0322)" fill="#B86F4F"/>
<ellipse cx="9.05463" cy="6.41719" rx="9.05463" ry="6.41719" transform="matrix(-0.937909 -0.346883 -0.346883 0.937909 330.753 145.782)" fill="#B86F4F"/>
<ellipse cx="6.67563" cy="5.32505" rx="6.67563" ry="5.32505" transform="matrix(-0.915989 -0.401203 -0.401203 0.915989 27.5024 87.4658)" fill="#B86F4F"/>
<ellipse cx="6.67563" cy="5.32505" rx="6.67563" ry="5.32505" transform="matrix(-0.915989 -0.401203 -0.401203 0.915989 123.753 70.6064)" fill="#B86F4F"/>
<ellipse cx="6.67563" cy="5.32505" rx="6.67563" ry="5.32505" transform="matrix(-0.55313 0.833095 0.833095 0.55313 157.508 12.5488)" fill="#B86F4F"/>
<ellipse cx="8.83439" cy="5.83638" rx="8.83439" ry="5.83638" transform="matrix(0.725247 0.688489 0.688489 -0.725247 103.606 25.0015)" fill="#B86F4F"/>
<path d="M63.6195 69.9388C64.3081 68.9215 65.7505 68.6527 66.3583 69.7203V69.7203C66.7335 70.3795 66.9697 71.1331 67.0533 71.9383C67.1369 72.7435 67.0664 73.5844 66.8457 74.4131C66.625 75.2417 66.2584 76.0418 65.767 76.7678C65.2756 77.4938 64.6689 78.1313 63.9815 78.6441C63.2942 79.1568 62.5396 79.5347 61.761 79.7562C60.9824 79.9777 60.1949 80.0384 59.4436 79.9349V79.9349C58.2266 79.7673 57.9403 78.3283 58.6289 77.3109L61.1242 73.6249L63.6195 69.9388Z" fill="#B86F4F"/>
<path d="M88.859 132.817C88.8696 131.574 87.8462 130.526 86.6644 130.91C86.3593 131.009 86.059 131.129 85.7653 131.27C84.7796 131.744 83.8881 132.441 83.1449 133.32C82.4017 134.199 81.8224 135.241 81.4422 136.382C81.062 137.524 80.8888 138.742 80.9333 139.962C80.9777 141.181 81.2389 142.377 81.7008 143.477C82.1627 144.576 82.8158 145.557 83.6202 146.358C84.4246 147.159 85.3637 147.764 86.3801 148.137C86.7003 148.254 87.0261 148.348 87.3553 148.417C88.5478 148.669 89.4539 147.558 89.3547 146.344L88.8015 139.567L88.859 132.817Z" fill="#B86F4F"/>
<path d="M386.707 160.464C387.774 159.826 388.137 158.417 387.25 157.547C386.009 156.328 384.402 155.462 382.575 155.054C379.963 154.47 377.094 154.863 374.54 156.156C371.986 157.449 369.934 159.546 368.794 162.031C368.008 163.742 367.694 165.551 367.862 167.281C367.986 168.555 369.369 169.148 370.548 168.652L378.857 165.154L386.707 160.464Z" fill="#B86F4F"/>
<path d="M176.417 138.001C175.408 136.309 173.118 135.755 172.104 137.443V137.443C171.473 138.494 171.07 139.72 170.92 141.049C170.77 142.377 170.875 143.78 171.23 145.17C171.585 146.561 172.182 147.912 172.984 149.14C173.787 150.367 174.778 151.447 175.898 152.312C177.018 153.178 178.243 153.811 179.499 154.174C180.754 154.537 182.014 154.621 183.202 154.422V154.422C185.154 154.096 185.502 151.749 184.352 150.139L180.132 144.23L176.417 138.001Z" fill="#B86F4F"/>
<path d="M317.519 45.3158C317.3 43.1982 315.333 41.5973 313.465 42.6175V42.6175C312.336 43.2338 311.346 44.0671 310.556 45.0666C309.766 46.0661 309.191 47.211 308.868 48.4316C308.544 49.6521 308.478 50.9229 308.674 52.1665C308.869 53.4101 309.322 54.6006 310.005 55.6655C310.688 56.7304 311.587 57.6475 312.647 58.361C313.706 59.0745 314.905 59.5694 316.169 59.8157V59.8157C318.257 60.2224 319.643 58.1009 319.203 56.0198L318.079 50.7123L317.519 45.3158Z" fill="#B86F4F"/>
<path d="M115.927 134.589C115.319 135.673 115.711 137.084 116.931 137.317C117.246 137.378 117.567 137.417 117.893 137.435C118.984 137.495 120.102 137.314 121.176 136.902C122.251 136.49 123.261 135.857 124.144 135.039C125.028 134.222 125.766 133.239 126.315 132.149C126.864 131.059 127.212 129.885 127.337 128.699C127.462 127.513 127.362 126.339 127.044 125.25C126.725 124.16 126.194 123.177 125.483 122.36C125.259 122.103 125.019 121.864 124.764 121.645C123.84 120.85 122.511 121.386 122.012 122.498L119.231 128.703L115.927 134.589Z" fill="#B86F4F"/>
<path d="M203.677 172.839C203.069 173.923 203.461 175.334 204.681 175.567C205.091 175.646 205.51 175.689 205.936 175.695C207.133 175.714 208.349 175.446 209.497 174.91C210.645 174.374 211.696 173.584 212.574 172.596C213.453 171.608 214.137 170.447 214.577 169.197C215.017 167.948 215.203 166.64 215.12 165.368C215.038 164.096 214.689 162.892 214.1 161.843C213.51 160.793 212.695 159.924 211.712 159.299C211.3 159.038 210.864 158.821 210.409 158.652C209.321 158.248 208.271 159.101 208.083 160.246L207.045 166.562C207.003 166.82 206.915 167.07 206.787 167.298L203.677 172.839Z" fill="#B86F4F"/>
<path d="M267.115 119.06C268.312 118.728 269.032 117.442 268.245 116.481C267.964 116.138 267.638 115.818 267.268 115.522C266.252 114.711 264.934 114.112 263.408 113.769C261.883 113.425 260.188 113.345 258.446 113.534C256.704 113.724 254.958 114.178 253.334 114.865C251.71 115.551 250.249 116.452 249.055 117.504C247.862 118.555 246.965 119.73 246.431 120.945C245.897 122.159 245.738 123.383 245.966 124.527C246.091 125.155 246.331 125.751 246.679 126.302C247.205 127.136 248.326 127.218 249.174 126.716L257.41 121.831C257.582 121.729 257.765 121.651 257.957 121.597L267.115 119.06Z" fill="#B86F4F"/>
<path d="M323.618 183.831C324.781 184.27 326.121 183.657 326.052 182.416C326.028 181.974 325.953 181.522 325.829 181.065C325.487 179.811 324.776 178.55 323.747 177.372C322.718 176.195 321.397 175.13 319.879 174.256C318.361 173.381 316.683 172.718 314.967 172.314C313.251 171.91 311.539 171.775 309.955 171.92C308.371 172.065 306.953 172.485 305.806 173.15C304.658 173.815 303.808 174.709 303.317 175.768C303.047 176.349 302.889 176.972 302.845 177.622C302.778 178.605 303.634 179.334 304.615 179.428L314.148 180.343C314.346 180.362 314.541 180.407 314.727 180.477L323.618 183.831Z" fill="#B86F4F"/>
<path d="M164.312 49.8027C163.895 48.6322 162.586 47.9999 161.545 48.6778C160.871 49.116 160.264 49.6347 159.747 50.2184C158.751 51.3405 158.131 52.6523 157.965 53.9877C157.799 55.323 158.094 56.6221 158.812 57.7206C159.531 58.8191 160.642 59.6677 162.004 60.1591C163.366 60.6504 164.917 60.7625 166.463 60.4811C168.009 60.1997 169.479 59.5375 170.687 58.5781C171.896 57.6188 172.788 56.4055 173.253 55.0916C173.449 54.5343 173.565 53.9695 173.6 53.4102C173.678 52.17 172.345 51.5349 171.175 51.9521L167.885 53.1246C166.715 53.5418 165.427 52.9311 165.01 51.7606L164.312 49.8027Z" fill="#B86F4F"/>
<path d="M315.104 81.133C315.345 79.914 314.544 78.7006 313.302 78.7499C312.667 78.7752 312.041 78.8649 311.438 79.0188C310.131 79.3524 308.979 79.9756 308.098 80.8255C307.217 81.6753 306.638 82.7217 306.419 83.8589C306.201 84.9961 306.351 86.1838 306.854 87.302C307.357 88.4202 308.196 89.4293 309.286 90.2272C310.375 91.0252 311.677 91.5837 313.059 91.8465C314.441 92.1093 315.855 92.0669 317.157 91.7237C317.543 91.6221 317.914 91.4952 318.269 91.3447C319.55 90.8016 319.451 89.1472 318.326 88.3296L315.429 86.2249C314.72 85.7095 314.374 84.8289 314.544 83.9687L315.104 81.133Z" fill="#B86F4F"/>
<path d="M49.2595 141.197C51.0009 141.556 52.7697 140.379 52.325 138.657V138.657C52.0515 137.599 51.54 136.589 50.8217 135.69C50.1033 134.79 49.1932 134.02 48.1465 133.426C47.0999 132.832 45.9387 132.427 44.7335 132.234C43.5284 132.042 42.3045 132.066 41.1363 132.307C39.9681 132.547 38.8801 132.998 37.9384 133.632C36.9967 134.266 36.2211 135.07 35.6586 135.995V135.995C34.7318 137.52 36.0785 139.174 37.8511 139.376L43.5979 140.03L49.2595 141.197Z" fill="#B86F4F"/>
<ellipse cx="5.625" cy="7.875" rx="5.625" ry="7.875" transform="matrix(-0.874576 -0.484889 -0.484889 0.874576 90.0029 176.455)" fill="#B86F4F"/>
<g filter="url(#filter5_dn_195_1777)">
<mask id="path-27-inside-1_195_1777" fill="white">
<path d="M31.0244 149.647C167.564 76.1116 180.986 132.166 273.165 201.487C514.037 230.347 511.222 262.274 556.507 327.632C675.993 390.196 499.424 383.501 360.175 376.355L37.9941 374.979L37.9951 374.736L0 374.598L0.673828 189.162L1.55273 189.165C3.68796 174.378 12.849 160.849 31.0244 149.647Z"/>
</mask>
<path d="M31.0244 149.647C167.564 76.1116 180.986 132.166 273.165 201.487C514.037 230.347 511.222 262.274 556.507 327.632C675.993 390.196 499.424 383.501 360.175 376.355L37.9941 374.979L37.9951 374.736L0 374.598L0.673828 189.162L1.55273 189.165C3.68796 174.378 12.849 160.849 31.0244 149.647Z" fill="url(#paint1_linear_195_1777)"/>
<path d="M31.0244 149.647L29.1305 146.131L29.028 146.186L28.9288 146.247L31.0244 149.647ZM273.165 201.487L270.764 204.679L271.623 205.325L272.69 205.453L273.165 201.487ZM556.507 327.632L553.224 329.907L553.784 330.715L554.654 331.171L556.507 327.632ZM360.175 376.355L360.38 372.366L360.286 372.361L360.192 372.361L360.175 376.355ZM37.9941 374.979L34 374.963L33.984 378.956L37.9771 378.973L37.9941 374.979ZM37.9951 374.736L41.9892 374.752L42.0053 370.756L38.0096 370.742L37.9951 374.736ZM0 374.598L-3.99413 374.584L-4.00864 378.578L-0.0144748 378.592L0 374.598ZM0.673828 189.162L0.687142 185.168L-3.30579 185.154L-3.3203 189.147L0.673828 189.162ZM1.55273 189.165L1.53942 193.159L5.00988 193.17L5.50588 189.736L1.55273 189.165ZM31.0244 149.647L32.9183 153.164C100.912 116.545 136.969 112.922 167.177 125.676C182.54 132.162 196.726 143.01 213.062 156.849C229.292 170.598 247.596 187.256 270.764 204.679L273.165 201.487L275.566 198.295C252.644 181.057 234.704 164.714 218.225 150.754C201.852 136.884 186.866 125.317 170.284 118.316C136.601 104.096 97.6769 109.214 29.1305 146.131L31.0244 149.647ZM273.165 201.487L272.69 205.453C393.16 219.887 451.929 235.03 486.22 254.352C520.255 273.53 530.21 296.692 553.224 329.907L556.507 327.632L559.79 325.358C537.519 293.214 526.239 267.733 490.142 247.393C454.301 227.197 394.042 211.947 273.64 197.521L273.165 201.487ZM556.507 327.632L554.654 331.171C569.489 338.938 579.439 345.488 585.393 350.93C591.596 356.6 592.343 360.009 591.935 361.715C591.489 363.582 589.097 366.175 582.243 368.674C575.727 371.049 566.463 372.864 554.919 374.166C508.707 379.374 430.131 375.946 360.38 372.366L360.175 376.355L359.97 380.344C429.468 383.91 508.801 387.402 555.814 382.104C567.576 380.778 577.576 378.877 584.979 376.179C592.044 373.603 598.225 369.765 599.705 363.573C601.223 357.221 597.25 350.944 590.782 345.033C584.066 338.895 573.397 331.967 558.36 324.094L556.507 327.632ZM360.175 376.355L360.192 372.361L38.0112 370.985L37.9941 374.979L37.9771 378.973L360.158 380.349L360.175 376.355ZM37.9941 374.979L41.9883 374.995L41.9892 374.752L37.9951 374.736L34.001 374.72L34 374.963L37.9941 374.979ZM37.9951 374.736L38.0096 370.742L0.0144748 370.604L0 374.598L-0.0144748 378.592L37.9806 378.73L37.9951 374.736ZM0 374.598L3.99413 374.613L4.66796 189.176L0.673828 189.162L-3.3203 189.147L-3.99413 374.584L0 374.598ZM0.673828 189.162L0.660514 193.156L1.53942 193.159L1.55273 189.165L1.56605 185.171L0.687142 185.168L0.673828 189.162ZM1.55273 189.165L5.50588 189.736C7.43326 176.388 15.6973 163.785 33.12 153.047L31.0244 149.647L28.9288 146.247C10.0008 157.913 -0.0573364 172.368 -2.40042 188.594L1.55273 189.165Z" fill="#ACA689" mask="url(#path-27-inside-1_195_1777)"/>
</g>
<defs>
<filter id="filter0_d_195_1777" x="10.3657" y="0" width="390.887" height="234.381" filterUnits="userSpaceOnUse" color-interpolation-filters="sRGB">
<feFlood flood-opacity="0" result="BackgroundImageFix"/>
<feColorMatrix in="SourceAlpha" type="matrix" values="0 0 0 0 0 0 0 0 0 0 0 0 0 0 0 0 0 0 127 0" result="hardAlpha"/>
<feOffset dy="3"/>
<feGaussianBlur stdDeviation="1.5"/>
<feComposite in2="hardAlpha" operator="out"/>
<feColorMatrix type="matrix" values="0 0 0 0 0 0 0 0 0 0 0 0 0 0 0 0 0 0 0.25 0"/>
<feBlend mode="normal" in2="BackgroundImageFix" result="effect1_dropShadow_195_1777"/>
<feBlend mode="normal" in="SourceGraphic" in2="effect1_dropShadow_195_1777" result="shape"/>
</filter>
<filter id="filter1_d_195_1777" x="181.503" y="190.248" width="95.0709" height="47.7104" filterUnits="userSpaceOnUse" color-interpolation-filters="sRGB">
<feFlood flood-opacity="0" result="BackgroundImageFix"/>
<feColorMatrix in="SourceAlpha" type="matrix" values="0 0 0 0 0 0 0 0 0 0 0 0 0 0 0 0 0 0 127 0" result="hardAlpha"/>
<feOffset dy="3"/>
<feGaussianBlur stdDeviation="1.5"/>
<feComposite in2="hardAlpha" operator="out"/>
<feColorMatrix type="matrix" values="0 0 0 0 0 0 0 0 0 0 0 0 0 0 0 0 0 0 0.25 0"/>
<feBlend mode="normal" in2="BackgroundImageFix" result="effect1_dropShadow_195_1777"/>
<feBlend mode="normal" in="SourceGraphic" in2="effect1_dropShadow_195_1777" result="shape"/>
</filter>
<filter id="filter2_d_195_1777" x="87.4495" y="208.912" width="120.303" height="48.0918" filterUnits="userSpaceOnUse" color-interpolation-filters="sRGB">
<feFlood flood-opacity="0" result="BackgroundImageFix"/>
<feColorMatrix in="SourceAlpha" type="matrix" values="0 0 0 0 0 0 0 0 0 0 0 0 0 0 0 0 0 0 127 0" result="hardAlpha"/>
<feOffset dy="3"/>
<feGaussianBlur stdDeviation="1.5"/>
<feComposite in2="hardAlpha" operator="out"/>
<feColorMatrix type="matrix" values="0 0 0 0 0 0 0 0 0 0 0 0 0 0 0 0 0 0 0.25 0"/>
<feBlend mode="normal" in2="BackgroundImageFix" result="effect1_dropShadow_195_1777"/>
<feBlend mode="normal" in="SourceGraphic" in2="effect1_dropShadow_195_1777" result="shape"/>
</filter>
<filter id="filter3_d_195_1777" x="175.663" y="220.5" width="114" height="39.75" filterUnits="userSpaceOnUse" color-interpolation-filters="sRGB">
<feFlood flood-opacity="0" result="BackgroundImageFix"/>
<feColorMatrix in="SourceAlpha" type="matrix" values="0 0 0 0 0 0 0 0 0 0 0 0 0 0 0 0 0 0 127 0" result="hardAlpha"/>
<feOffset dy="3"/>
<feGaussianBlur stdDeviation="1.5"/>
<feComposite in2="hardAlpha" operator="out"/>
<feColorMatrix type="matrix" values="0 0 0 0 0 0 0 0 0 0 0 0 0 0 0 0 0 0 0.25 0"/>
<feBlend mode="normal" in2="BackgroundImageFix" result="effect1_dropShadow_195_1777"/>
<feBlend mode="normal" in="SourceGraphic" in2="effect1_dropShadow_195_1777" result="shape"/>
</filter>
<filter id="filter4_d_195_1777" x="126.796" y="232.625" width="79.9458" height="37.959" filterUnits="userSpaceOnUse" color-interpolation-filters="sRGB">
<feFlood flood-opacity="0" result="BackgroundImageFix"/>
<feColorMatrix in="SourceAlpha" type="matrix" values="0 0 0 0 0 0 0 0 0 0 0 0 0 0 0 0 0 0 127 0" result="hardAlpha"/>
<feOffset dy="3"/>
<feGaussianBlur stdDeviation="1.5"/>
<feComposite in2="hardAlpha" operator="out"/>
<feColorMatrix type="matrix" values="0 0 0 0 0 0 0 0 0 0 0 0 0 0 0 0 0 0 0.25 0"/>
<feBlend mode="normal" in2="BackgroundImageFix" result="effect1_dropShadow_195_1777"/>
<feBlend mode="normal" in="SourceGraphic" in2="effect1_dropShadow_195_1777" result="shape"/>
</filter>
<filter id="filter5_dn_195_1777" x="0" y="107.012" width="625.984" height="285.794" filterUnits="userSpaceOnUse" color-interpolation-filters="sRGB">
<feFlood flood-opacity="0" result="BackgroundImageFix"/>
<feColorMatrix in="SourceAlpha" type="matrix" values="0 0 0 0 0 0 0 0 0 0 0 0 0 0 0 0 0 0 127 0" result="hardAlpha"/>
<feOffset dx="19.9708" dy="1.99708"/>
<feGaussianBlur stdDeviation="4.99269"/>
<feComposite in2="hardAlpha" operator="out"/>
<feColorMatrix type="matrix" values="0 0 0 0 0 0 0 0 0 0 0 0 0 0 0 0 0 0 0.25 0"/>
<feBlend mode="normal" in2="BackgroundImageFix" result="effect1_dropShadow_195_1777"/>
<feBlend mode="normal" in="SourceGraphic" in2="BackgroundImageFix" result="shape"/>
<feTurbulence type="fractalNoise" baseFrequency="1.0014638900756836 1.0014638900756836" stitchTiles="stitch" numOctaves="3" result="noise" seed="310" />
<feColorMatrix in="noise" type="luminanceToAlpha" result="alphaNoise" />
<feComponentTransfer in="alphaNoise" result="coloredNoise1">
<feFuncA type="discrete" tableValues="0 0 0 0 0 0 0 0 0 0 0 0 1 1 1 1 1 1 1 1 1 1 1 1 1 1 1 1 1 1 1 1 1 1 1 1 1 1 0 0 0 0 0 0 0 0 0 0 0 0 0 0 0 0 0 0 0 0 0 0 0 0 0 0 0 0 0 0 0 0 0 0 0 0 0 0 0 0 0 0 0 0 0 0 0 0 0 0 0 0 0 0 0 0 0 0 0 0 0 0 "/>
</feComponentTransfer>
<feComposite operator="in" in2="shape" in="coloredNoise1" result="noise1Clipped" />
<feFlood flood-color="#ACA689" result="color1Flood" />
<feComposite operator="in" in2="noise1Clipped" in="color1Flood" result="color1" />
<feMerge result="effect2_noise_195_1777">
<feMergeNode in="shape" />
<feMergeNode in="color1" />
</feMerge>
<feBlend mode="normal" in="effect2_noise_195_1777" in2="effect1_dropShadow_195_1777" result="effect2_noise_195_1777"/>
</filter>
<linearGradient id="paint0_linear_195_1777" x1="205.809" y1="0" x2="205.809" y2="228.381" gradientUnits="userSpaceOnUse">
<stop offset="0.480769" stop-color="#FFA977"/>
<stop offset="1" stop-color="#C17041"/>
</linearGradient>
<linearGradient id="paint1_linear_195_1777" x1="356.808" y1="68.8889" x2="110.041" y2="381.487" gradientUnits="userSpaceOnUse">
<stop offset="0.442308" stop-color="#D2CDB4"/>
<stop offset="1" stop-color="#A09A78"/>
</linearGradient>
</defs>
</svg>
