<svg width="64" height="64" viewBox="0 0 64 64" fill="none" xmlns="http://www.w3.org/2000/svg">
<path fill-rule="evenodd" clip-rule="evenodd" d="M49.3332 14.6667H42.6665C41.6056 14.6667 40.5882 14.2453 39.8381 13.4952C39.0879 12.745 38.6665 11.7276 38.6665 10.6667C38.6665 9.60588 39.0879 8.58847 39.8381 7.83832C40.5882 7.08818 41.6056 6.66675 42.6665 6.66675H50.6665C52.4346 6.66675 54.1303 7.36913 55.3806 8.61937C56.6308 9.86961 57.3332 11.5653 57.3332 13.3334V21.3334C57.3332 22.3943 56.9117 23.4117 56.1616 24.1618C55.4115 24.912 54.394 25.3334 53.3332 25.3334C52.2723 25.3334 51.2549 24.912 50.5047 24.1618C49.7546 23.4117 49.3332 22.3943 49.3332 21.3334V14.6667ZM21.3332 14.6667H14.6665V21.3334C14.6665 22.3943 14.2451 23.4117 13.4949 24.1618C12.7448 24.912 11.7274 25.3334 10.6665 25.3334C9.60564 25.3334 8.58822 24.912 7.83808 24.1618C7.08793 23.4117 6.6665 22.3943 6.6665 21.3334V13.3334C6.6665 11.5653 7.36888 9.86961 8.61913 8.61937C9.86937 7.36913 11.5651 6.66675 13.3332 6.66675H21.3332C22.394 6.66675 23.4115 7.08818 24.1616 7.83832C24.9117 8.58847 25.3332 9.60588 25.3332 10.6667C25.3332 11.7276 24.9117 12.745 24.1616 13.4952C23.4115 14.2453 22.394 14.6667 21.3332 14.6667ZM21.3332 49.3334H14.6665V42.6667C14.6665 41.6059 14.2451 40.5885 13.4949 39.8383C12.7448 39.0882 11.7274 38.6667 10.6665 38.6667C9.60564 38.6667 8.58822 39.0882 7.83808 39.8383C7.08793 40.5885 6.6665 41.6059 6.6665 42.6667V50.6667C6.6665 52.4349 7.36888 54.1306 8.61913 55.3808C9.86937 56.631 11.5651 57.3334 13.3332 57.3334H21.3332C22.394 57.3334 23.4115 56.912 24.1616 56.1618C24.9117 55.4117 25.3332 54.3943 25.3332 53.3334C25.3332 52.2726 24.9117 51.2551 24.1616 50.505C23.4115 49.7548 22.394 49.3334 21.3332 49.3334ZM42.6665 49.3334H49.3332V42.6667C49.3332 41.6059 49.7546 40.5885 50.5047 39.8383C51.2549 39.0882 52.2723 38.6667 53.3332 38.6667C54.394 38.6667 55.4115 39.0882 56.1616 39.8383C56.9117 40.5885 57.3332 41.6059 57.3332 42.6667V50.6667C57.3332 52.4349 56.6308 54.1306 55.3806 55.3808C54.1303 56.631 52.4346 57.3334 50.6665 57.3334H42.6665C41.6056 57.3334 40.5882 56.912 39.8381 56.1618C39.0879 55.4117 38.6665 54.3943 38.6665 53.3334C38.6665 52.2726 39.0879 51.2551 39.8381 50.505C40.5882 49.7548 41.6056 49.3334 42.6665 49.3334Z" fill="white"/>
</svg>
