<svg width="60" height="56" viewBox="0 0 60 56" fill="none" xmlns="http://www.w3.org/2000/svg">
<path d="M32.8305 1.17115C32.0804 0.421262 31.0632 0 30.0025 0C28.9419 0 27.9246 0.421262 27.1745 1.17115L0.586527 27.7551C0.400575 27.9411 0.25307 28.1619 0.152433 28.4048C0.0517969 28.6478 0 28.9082 0 29.1711C0 29.4341 0.0517969 29.6945 0.152433 29.9375C0.25307 30.1804 0.400575 30.4012 0.586527 30.5871C0.962073 30.9627 1.47142 31.1737 2.00253 31.1737C2.2655 31.1737 2.5259 31.1219 2.76886 31.0212C3.01182 30.9206 3.23257 30.7731 3.41853 30.5871L30.0025 3.99915L56.5865 30.5871C56.9621 30.9627 57.4714 31.1737 58.0025 31.1737C58.5336 31.1737 59.043 30.9627 59.4185 30.5871C59.7941 30.2116 60.0051 29.7022 60.0051 29.1711C60.0051 28.64 59.7941 28.1307 59.4185 27.7551L50.0025 18.3431L50.0025 5.17115C50.0025 4.64071 49.7918 4.13201 49.4167 3.75693C49.0417 3.38186 48.533 3.17115 48.0025 3.17115L44.0025 3.17115C43.4721 3.17115 42.9634 3.38186 42.5883 3.75693C42.2132 4.13201 42.0025 4.64071 42.0025 5.17115V10.3431L32.8305 1.17115Z" fill="white"/>
<path d="M30.0024 8.34326L54.0024 32.3433V49.1713C54.0024 50.7626 53.3703 52.2887 52.2451 53.4139C51.1199 54.5391 49.5937 55.1713 48.0024 55.1713L12.0024 55.1713C10.4111 55.1713 8.88502 54.5391 7.7598 53.4139C6.63458 52.2887 6.00244 50.7626 6.00244 49.1713L6.00244 32.3433L30.0024 8.34326Z" fill="white"/>
</svg>
