<svg width="294" height="154" viewBox="0 0 294 154" fill="none" xmlns="http://www.w3.org/2000/svg">
<path d="M167.145 5.59576C231.644 2.97079 262.395 10.8459 292.395 77.2208C292.382 77.3356 292.366 77.45 292.353 77.5645C291.089 76.7145 289.022 77.0588 286.095 77.3819C280.869 77.9586 278.303 77.2853 277.079 82.1544C277.113 85.1788 281.572 85.6201 289.167 88.5089C289.653 88.5149 290.09 88.5183 290.482 88.5167C277.684 144.563 221.422 157.305 167.145 148.846C87.6449 131.596 70.0194 120.346 62.8947 77.2208C71.1447 43.0958 101.895 13.0958 167.145 5.59576Z" fill="url(#paint0_linear_88_808)"/>
<path d="M280.286 75.4618C283.205 73.6422 291.554 70.9275 292.224 73.7527C293.168 77.7392 293.902 78.6641 288.689 78.6006C283.324 78.5353 279.414 81.1289 277.073 82.5071C279.147 83.7742 282.801 86.1409 288.588 84.4172C293.612 82.9213 293.123 84.0175 293.162 88.1304C293.189 91.0455 284.47 90.7197 281.214 89.7642C278.787 89.0517 275.287 85.7183 274.927 83.2994C274.632 83.1782 274.486 82.7889 274.496 82.0167C276.291 77.2677 277.784 77.0212 280.286 75.4618Z" fill="#7D8ADD"/>
<path d="M105.991 39.2298C158.901 12.0811 197.461 16.4316 211.812 17.8997C226.463 19.3983 235.06 16.8273 241.483 28.0657C246.326 36.5392 243.817 42.9564 248.587 43.4446C258.605 44.4693 257.775 52.5834 255.647 54.5364C254.183 56.286 254.341 62.5934 246.774 61.1683C237.316 59.3868 245.505 45.3591 232.28 44.0062C225.94 43.3577 224.428 48.7067 218.026 37.2571C209.655 22.2852 195.388 29.0931 190.387 37.4925C184.567 47.2664 195.829 50.259 193.681 61.8421C191.532 73.4254 184.194 79.1874 163.223 82.9349C157.623 83.9355 144.195 83.3457 107.961 89.2982C71.7269 95.2506 96.3988 109.554 76.3945 103.845C32.4105 91.2922 15.644 133.095 4.28809 99.0443C-1.51105 81.6555 -1.2205 71.4242 3.90918 60.3401C8.31198 50.829 38.3932 81.3682 57.8633 74.8128C77.3335 68.2571 53.0817 66.3786 105.991 39.2298ZM165.644 42.346C156.117 42.3461 131.519 51.3461 131.519 65.596C131.519 73.4659 141.644 77.2209 165.644 72.346C175.17 72.346 182.893 65.966 182.894 58.096C186.269 42.346 175.17 42.346 165.644 42.346Z" fill="#33353A"/>
<circle cx="251.145" cy="54.3455" r="13.5" fill="#F6F0F0"/>
<circle cx="257.145" cy="55.0955" r="6.75" fill="black"/>
<path d="M216.993 83.5041C214.633 70.8838 194.036 65.7734 170.752 65.8075C135.548 65.8591 136.488 70.7846 139.733 74.3162C154.082 89.9283 156.25 90.9734 162.993 95.1292C174.892 102.463 217.609 89.7653 216.993 83.5041Z" fill="url(#paint1_linear_88_808)"/>
<path d="M181.02 85.0953C181.612 88.8453 177.282 96.3455 165.27 96.3455C157.02 94.4705 139.603 76.6433 138.27 72.3455C136.408 66.3453 145.008 66.3453 157.02 66.3453C164.895 67.4703 179.895 77.9703 181.02 85.0953Z" fill="#E5CF5A" fill-opacity="0.61"/>
<path d="M211.395 75.7203C211.395 75.7203 188.907 68.2203 176.895 68.2203C168.645 66.3453 178.323 80.6372 175.395 77.2206C164.145 64.0956 149.145 66.5583 157.77 65.9702C190.77 63.7204 211.395 71.9703 211.395 75.7203Z" fill="black" fill-opacity="0.61"/>
<path d="M275.895 117.721C269.145 131.596 241.718 150.722 190.77 150.722C139.821 150.722 92.1447 129.923 92.1447 121.846C92.1447 113.769 128.946 141.721 179.895 141.721C230.843 141.721 275.895 109.643 275.895 117.721Z" fill="#CDC180"/>
<path d="M76.0194 86.0718C77.2121 98.5955 32.1447 98.0161 18.6447 103.846C5.14475 109.675 3.68182 78.2474 6.2695 68.2205C9.26963 56.5955 31.919 80.0718 50.1444 80.0718C68.3698 80.0718 74.8266 73.5481 76.0194 86.0718Z" fill="#E5CF5A"/>
<path d="M227.793 93.7599C230.793 96.7599 240.168 100.885 257.4 103.135C258.525 105.76 232.275 105.01 225.15 96.7598C214.818 84.7962 217.952 61.5098 221.702 62.6349C221.702 66.7598 219.524 85.4907 227.793 93.7599Z" fill="#7D8ADD"/>
<path d="M230.52 147.721C191.52 150.346 186.645 154.002 133.395 140.596C80.1449 127.19 72.6447 99.3456 68.1447 101.221C68.1447 113.026 71.1448 140.596 82.0199 145.471C97.2654 152.305 230.52 159.526 230.52 147.721Z" fill="url(#paint2_linear_88_808)" fill-opacity="0.8"/>
<path d="M157.77 153.72C138.645 153.72 92.8947 151.471 80.5197 146.221C72.5639 142.845 67.7697 129.47 67.7697 108.345C67.7697 87.2205 68.1445 134.971 100.77 142.845C133.395 150.72 160.02 149.97 157.77 153.72Z" fill="#33353A" fill-opacity="0.88"/>
<path d="M232.77 11.5955C198.645 5.97052 197.52 7.37925 150.645 11.5955C79.7695 17.9705 64.0197 79.8455 64.0197 70.8455C64.0197 59.0404 74.1446 20.5955 86.8947 11.5955C109.395 -4.28652 232.77 -0.209564 232.77 11.5955Z" fill="url(#paint3_linear_88_808)" fill-opacity="0.8"/>
<path d="M182.145 1.47046C137.145 -2.65454 109.539 2.5974 92.4045 8.59643C75.2697 14.5955 64.3947 44.4711 64.3947 65.596C64.3947 86.7209 64.3947 34.4705 94.3947 19.4705C110.145 8.59643 184.395 5.22046 182.145 1.47046Z" fill="#33353A" fill-opacity="0.88"/>
<defs>
<linearGradient id="paint0_linear_88_808" x1="-224.587" y1="12.6928" x2="-224.587" y2="158.746" gradientUnits="userSpaceOnUse">
<stop offset="0.557692" stop-color="#9FABF6"/>
<stop offset="1" stop-color="#BDD3EF"/>
</linearGradient>
<linearGradient id="paint1_linear_88_808" x1="232.107" y1="60.7827" x2="149.079" y2="68.9559" gradientUnits="userSpaceOnUse">
<stop stop-color="#8C9CFF" stop-opacity="0.8"/>
<stop offset="1" stop-color="#545E99" stop-opacity="0.8"/>
</linearGradient>
<linearGradient id="paint2_linear_88_808" x1="230.52" y1="129.248" x2="69.2697" y2="129.248" gradientUnits="userSpaceOnUse">
<stop stop-color="#8C9CFF"/>
<stop offset="1" stop-color="#545E99"/>
</linearGradient>
<linearGradient id="paint3_linear_88_808" x1="232.77" y1="36.4476" x2="64.0197" y2="36.4476" gradientUnits="userSpaceOnUse">
<stop stop-color="#8C9CFF"/>
<stop offset="1" stop-color="#545E99"/>
</linearGradient>
</defs>
</svg>
