<svg width="144" height="82" viewBox="0 0 144 82" fill="none" xmlns="http://www.w3.org/2000/svg">
<path d="M34.9717 5.91644C47.3338 3.09558 61.9655 6.67953 55.8604 13.6508C54.8257 14.8322 53.7914 15.6732 52.7324 16.2641C54.9155 16.3558 57.0304 16.4392 59.0791 16.5161C58.9702 13.4141 81.0659 9.86555 88.875 9.17426C100.585 9.08793 98.2634 15.9248 99.0225 17.6186C99.159 17.9233 99.242 18.1991 99.2803 18.4477C103.816 18.9916 107.294 19.7662 109.872 20.9584C113.111 14.5975 121.103 9.10527 128.831 7.02094C138.855 5.80822 143.25 16.3161 143.25 23.4516C143.25 30.5872 142.961 43.6743 132.95 43.6743C124.62 42.6865 117.14 39.0934 111.161 32.5141C108.209 35.3414 104.617 37.5421 99.8594 39.937C99.9098 40.079 99.9375 40.2603 99.9375 40.4868C97.3827 43.9935 108.364 55.6606 96.75 57.1606C90.2616 57.4691 77.942 54.9334 73.7793 52.2729C66.9515 55.6435 58.9891 59.7861 49.6416 65.0903C49.657 65.7327 50.1269 66.7514 52.1211 68.1967C59.6247 73.6351 59.18 81.7026 46.5 81.7026C40.1892 80.9444 32.1138 74.3216 32.8008 66.9067C14.3285 65.968 0 55.678 0 43.3393C7.67268e-05 31.0501 8.623 21.2443 25.4912 17.4623C29.0524 9.76105 31.5894 7.16257 34.9717 5.91644Z" fill="#F47D20"/>
<path d="M17.7482 22.2757C18.5833 21.9249 19.729 21.9051 21.1329 22.3049C22.7167 22.7559 24.5051 23.7108 26.2635 25.0893C29.7846 27.8498 33.0327 32.1886 34.2254 37.1506C35.4241 42.1383 34.72 48.2372 33.2287 53.0211C32.4843 55.4091 31.5622 57.4079 30.6334 58.7421C30.1675 59.4112 29.7291 59.8702 29.3485 60.1366C29.0096 60.3737 28.7822 60.4119 28.6402 60.3992C28.6115 60.2314 28.5857 59.9739 28.581 59.6009C28.5664 58.4563 28.7241 56.7678 28.8833 54.628C29.1957 50.4268 29.4901 44.7287 28.2021 39.3696C26.8998 33.9512 23.6353 29.4613 21.0599 26.3178C19.7319 24.697 18.6659 23.5242 18.0075 22.6442C17.9036 22.5053 17.8181 22.3822 17.7482 22.2757Z" fill="#D9D9D9" stroke="#5F4646" stroke-width="1.875"/>
<path d="M57.5129 17.3151C57.6614 17.2993 57.6931 17.3322 57.7238 17.3609C57.7982 17.4305 57.9244 17.611 58.0536 18.0269C58.1789 18.4305 58.2806 18.9654 58.3714 19.6459C58.7262 22.3068 58.8529 26.9148 60.1168 32.1737C61.4221 37.6045 65.3773 42.95 68.4098 46.7457C69.9662 48.6938 71.2397 50.1864 71.9239 51.1831C71.9439 51.2122 71.9613 51.2417 71.9797 51.2691L71.8913 51.3607C71.5127 51.7466 70.706 52.1404 69.4126 52.4224C68.1547 52.6967 66.5679 52.8377 64.7799 52.8258C61.2039 52.8018 56.934 52.1678 53.0861 50.8785C49.2145 49.5813 45.9037 47.6663 44.0867 45.1732C43.1898 43.9425 42.6571 42.573 42.5856 41.0464C42.514 39.5149 42.9045 37.7611 43.9538 35.765C45.3684 33.074 46.3608 31.5632 47.1635 30.5693C47.9614 29.5815 48.5798 29.0896 49.3625 28.3856C50.9722 26.9379 52.7904 24.9811 56.662 17.6402C57.0711 17.4191 57.3431 17.3333 57.5129 17.3151Z" fill="#D9D9D9" stroke="#5F4646" stroke-width="1.875"/>
<path d="M99.7775 19.0673C100.334 19.0146 101.128 19.06 102.073 19.204C103.141 19.3668 104.323 19.6411 105.424 19.9665C106.53 20.2933 107.523 20.6628 108.223 21.0045C108.55 21.1644 108.78 21.3035 108.922 21.4103C108.78 24.0218 109.623 27.0254 110.243 29.1621C110.519 30.1115 110.738 30.8562 110.853 31.3843L110.639 31.6559C110.03 32.4279 108.616 33.5933 106.841 34.853C105.199 36.0192 103.333 37.2055 101.721 38.144C102.237 37.0346 102.195 35.7459 101.938 34.4986C101.566 32.7002 100.676 30.6399 99.9114 28.699C99.121 26.692 98.4452 24.7723 98.3294 23.0547C98.2233 21.4795 98.5903 20.146 99.7775 19.0673Z" fill="#D9D9D9" stroke="#5F4646" stroke-width="1.875"/>
<path d="M51 67.2996C56.0625 71.0497 59.25 74.9872 55.6875 79.1121C48.9375 84.5496 41.4375 80.6122 38.25 77.9872C38.25 75.9161 45.9375 79.1121 49.5 75.5496C52.875 72.5497 49.7947 66.4068 51 67.2996Z" fill="#5F4646"/>
<path d="M99.75 42.7372C101.25 44.4246 103.312 50.7996 101.812 54.5496C99.1949 61.0936 76.875 54.7372 73.6875 52.1122C76.875 50.9871 94.6875 57.5496 98.25 53.9871C101.625 50.9871 98.6784 41.5316 99.75 42.7372Z" fill="#5F4646"/>
<path d="M98.625 18.5496C99.5625 16.6746 99.9559 13.8889 98.625 11.0496C95.8125 5.04959 71.4375 11.2371 67.125 13.1121C70.3125 14.2371 91.5 8.04962 95.0625 11.6121C98.4375 14.6121 97.9037 19.9923 98.625 18.5496Z" fill="#5F4646"/>
<path d="M129.375 6.92461C133.5 5.23715 149.063 11.6123 141.375 38.6123C138.665 48.1293 125.063 43.2998 121.875 40.6748C125.063 39.5497 130.67 44.1206 137.25 29.7998C140.438 22.8623 129.375 6.92461 129.375 6.92461Z" fill="#5F4646"/>
<path d="M34.8753 5.94134C40.8753 3.50385 49.1125 4.88291 50.25 5.19139C61.3128 8.19131 57 14.0039 53.0625 16.0664C49.6942 17.0908 56.4502 8.11406 49.6878 6.69131C43.8912 5.15796 33.4748 6.5103 34.8753 5.94134Z" fill="#5F4646"/>
<path d="M77.0625 33.3621C77.0625 37.6078 73.1452 47.4246 66 47.4246C58.8548 47.4246 47.625 40.9828 47.625 36.7371C47.625 32.4914 62.4173 26.0496 69.5625 26.0496C76.7077 26.0496 77.0625 29.1164 77.0625 33.3621Z" fill="#C26327"/>
<path d="M77.25 33.7371C77.25 41.9871 69.9375 48.1746 66 47.2371C60.1875 47.9871 71.625 41.9344 71.625 36.5496C71.625 31.1648 66.1312 26.2371 70.6875 26.2371C75.2439 26.2371 77.25 26.2371 77.25 33.7371Z" fill="#5F4646"/>
<ellipse cx="16.8048" cy="37.6246" rx="7.05482" ry="6.32501" fill="#D9D9D9"/>
<circle cx="14.5" cy="35.4496" r="4.5" fill="#484242"/>
</svg>
