<svg width="1556" height="657" viewBox="0 0 1556 657" fill="none" xmlns="http://www.w3.org/2000/svg">
<path d="M1222.88 553.645C1234.61 569.311 1304.67 570.922 1342.43 572.883C1348.49 573.13 1365.52 569.937 1385.22 555.188C1409.84 536.751 1476.7 376.555 1489.78 342.699C1502.86 308.843 1502.92 286.119 1491.44 221.6C1479.96 157.081 1423.76 154.149 1385.27 155.163C1371.77 155.519 1247.7 201.873 1240.21 213.962C1234.21 223.634 1179.24 246.347 1152.5 256.495L1074.87 314.622C1047.35 350.342 996.108 430.977 1011.26 467.756C1030.21 513.73 1155.85 555.245 1173.04 544.692C1183.53 538.248 1211.11 537.93 1222.88 553.645Z" fill="url(#paint0_linear_195_1750)"/>
<g filter="url(#filter0_dn_195_1750)">
<mask id="path-2-inside-1_195_1750" fill="white">
<path d="M116.23 316.426C142.552 315.999 184.006 318.985 264.084 318.444L268.077 318.478C435.415 320.459 386.848 391.877 598.865 421.905C660.071 424.741 708.474 429.189 745.321 434.705L886.986 435.425C907.37 430.552 935.594 426.186 972.973 422.501C1291.27 391.122 1193.7 366.131 1387.19 335.876C1410.36 332.254 1429.27 332.13 1444.69 334.681L1525.44 335.092L1519.42 644.391L1519.42 644.392L4.73535 636.684L4.74707 636.032L0 636.008L6.23047 315.867L116.23 316.426Z"/>
</mask>
<path d="M116.23 316.426C142.552 315.999 184.006 318.985 264.084 318.444L268.077 318.478C435.415 320.459 386.848 391.877 598.865 421.905C660.071 424.741 708.474 429.189 745.321 434.705L886.986 435.425C907.37 430.552 935.594 426.186 972.973 422.501C1291.27 391.122 1193.7 366.131 1387.19 335.876C1410.36 332.254 1429.27 332.13 1444.69 334.681L1525.44 335.092L1519.42 644.391L1519.42 644.392L4.73535 636.684L4.74707 636.032L0 636.008L6.23047 315.867L116.23 316.426Z" fill="url(#paint1_linear_195_1750)"/>
<path d="M116.23 316.426L116.209 320.427L116.252 320.427L116.294 320.426L116.23 316.426ZM264.084 318.444L264.118 314.443L264.088 314.443L264.057 314.443L264.084 318.444ZM268.077 318.478L268.125 314.478L268.111 314.478L268.077 318.478ZM598.865 421.905L598.304 425.866L598.491 425.892L598.68 425.901L598.865 421.905ZM745.321 434.705L744.729 438.661L745.013 438.704L745.301 438.705L745.321 434.705ZM886.986 435.425L886.966 439.426L887.448 439.428L887.917 439.316L886.986 435.425ZM972.973 422.501L973.365 426.483L973.365 426.483L972.973 422.501ZM1387.19 335.876L1386.58 331.924L1386.58 331.924L1387.19 335.876ZM1444.69 334.681L1444.03 338.628L1444.35 338.68L1444.67 338.682L1444.69 334.681ZM1525.44 335.092L1529.44 335.17L1529.51 331.112L1525.46 331.092L1525.44 335.092ZM1519.42 644.391L1522.25 647.22L1523.38 646.08L1523.42 644.469L1519.42 644.391ZM1519.42 644.392L1519.39 648.393L1521.06 648.401L1522.24 647.221L1519.42 644.392ZM4.73535 636.684L0.735457 636.612L0.662672 640.664L4.71499 640.685L4.73535 636.684ZM4.74707 636.032L8.74697 636.104L8.81976 632.051L4.76682 632.031L4.74707 636.032ZM0 636.008L-3.99978 635.93L-4.07876 639.989L-0.0197514 640.009L0 636.008ZM6.23047 315.867L6.25082 311.866L2.30742 311.846L2.23069 315.789L6.23047 315.867ZM116.23 316.426L116.294 320.426C129.343 320.214 146.142 320.849 169.893 321.477C193.584 322.103 224.014 322.715 264.111 322.444L264.084 318.444L264.057 314.443C224.076 314.714 193.74 314.103 170.104 313.479C146.528 312.855 129.439 312.211 116.165 312.426L116.23 316.426ZM264.084 318.444L264.05 322.444L268.043 322.478L268.077 318.478L268.111 314.478L264.118 314.443L264.084 318.444ZM268.077 318.478L268.03 322.478C309.579 322.97 337.484 327.77 359.276 335.046C381.074 342.324 396.958 352.139 414.609 363.075C432.27 374.016 451.566 385.988 479.804 397.079C508.028 408.164 545.059 418.325 598.304 425.866L598.865 421.905L599.426 417.944C546.663 410.471 510.258 400.444 482.729 389.631C455.214 378.824 436.441 367.188 418.823 356.273C401.197 345.353 384.596 335.065 361.81 327.457C339.019 319.847 310.245 314.976 268.125 314.478L268.077 318.478ZM598.865 421.905L598.68 425.901C659.803 428.734 708.061 433.172 744.729 438.661L745.321 434.705L745.914 430.748C708.888 425.205 660.339 420.749 599.051 417.909L598.865 421.905ZM745.321 434.705L745.301 438.705L886.966 439.426L886.986 435.425L887.007 431.425L745.342 430.704L745.321 434.705ZM886.986 435.425L887.917 439.316C908.049 434.503 936.071 430.159 973.365 426.483L972.973 422.501L972.58 418.52C935.117 422.214 906.691 426.601 886.056 431.534L886.986 435.425ZM972.973 422.501L973.365 426.483C1132.63 410.782 1188.19 396.651 1228.22 382.54C1267.9 368.552 1291.5 354.888 1387.81 339.829L1387.19 335.876L1386.58 331.924C1289.39 347.12 1265.04 361.078 1225.56 374.994C1186.42 388.788 1131.62 402.842 972.58 418.52L972.973 422.501ZM1387.19 335.876L1387.81 339.829C1410.68 336.254 1429.14 336.164 1444.03 338.628L1444.69 334.681L1445.34 330.734C1429.39 328.096 1410.04 328.255 1386.58 331.924L1387.19 335.876ZM1444.69 334.681L1444.67 338.682L1525.42 339.093L1525.44 335.092L1525.46 331.092L1444.71 330.681L1444.69 334.681ZM1525.44 335.092L1521.44 335.014L1515.42 644.313L1519.42 644.391L1523.42 644.469L1529.44 335.17L1525.44 335.092ZM1519.42 644.391L1516.59 641.562L1516.59 641.563L1519.42 644.392L1522.24 647.221L1522.25 647.22L1519.42 644.391ZM1519.42 644.392L1519.44 640.392L4.75571 632.684L4.73535 636.684L4.71499 640.685L1519.39 648.393L1519.42 644.392ZM4.73535 636.684L8.73525 636.756L8.74697 636.104L4.74707 636.032L0.747176 635.96L0.735457 636.612L4.73535 636.684ZM4.74707 636.032L4.76682 632.031L0.0197514 632.008L0 636.008L-0.0197514 640.009L4.72732 640.032L4.74707 636.032ZM0 636.008L3.99978 636.086L10.2303 315.945L6.23047 315.867L2.23069 315.789L-3.99978 635.93L0 636.008ZM6.23047 315.867L6.21012 319.867L116.209 320.427L116.23 316.426L116.25 312.426L6.25082 311.866L6.23047 315.867Z" fill="#A39F86" mask="url(#path-2-inside-1_195_1750)"/>
</g>
<g filter="url(#filter1_d_195_1750)">
<path d="M956.405 401.821C1009.39 374.507 1024.01 392.261 1024.69 404.552L1065.66 419.574C1066.8 418.436 1073.99 415.613 1093.65 413.428C1118.24 410.697 1112.77 404.552 1111.41 401.821C1110.32 399.636 1114.14 399.089 1116.19 399.089C1142.22 407.966 1133.94 395.675 1131.89 390.212C1130.25 385.842 1132.58 384.75 1133.94 384.75C1155.79 390.212 1148.28 385.432 1144.18 377.238C1140.91 370.683 1142.82 367.224 1144.18 366.313C1174.91 364.265 1158.52 354.705 1154.43 354.705C1151.15 354.705 1151.24 352.884 1151.69 351.974C1187.2 322.612 1151.69 334.22 1148.28 339C1145.55 342.824 1144.41 340.593 1144.18 339C1134.62 309.638 1126.43 321.929 1134.62 344.463C1141.18 362.489 1133.26 358.802 1128.48 354.705C1125.06 346.511 1118.78 334.493 1120.97 351.974C1123.15 369.454 1120.06 378.832 1118.24 381.335C1078.63 410.697 1091.13 385.688 1093.65 383.384C1096.88 380.436 1106.5 371.089 1106.63 368.362C1106.76 365.634 1102.99 357.892 1099.8 354.705C1117.55 347.877 1116.19 339 1109.36 341.048C1102.53 343.097 1085.46 336.951 1096.39 332.854C1107.31 328.757 1116.87 321.929 1103.9 321.929C1090.92 321.929 1077.95 313.735 1103.9 308.955C1129.84 304.175 1107.99 288.47 1103.9 295.299C1100.62 300.761 1093.43 303.493 1090.24 304.176C1079.86 268.668 1075.9 281.642 1075.22 292.567C1076.13 300.534 1077.13 315.92 1073.85 313.735C1069.75 311.004 1030.83 300.079 1056.1 316.467C1076.31 329.577 1076.36 335.586 1073.85 336.951C1037.25 339.136 1049.04 343.324 1059.51 345.145C1071.12 344.463 1093.52 347.33 1090.24 364.265C1086.96 381.199 1077.95 384.067 1073.85 383.384C1076.29 349.965 1064.54 367.689 1060.88 381.335C1057.41 394.27 1052 386.798 1049.27 381.335C1049.27 372.049 1042.44 362.899 1039.03 359.485C1041.08 346.511 1032.88 343.097 1027.42 344.463C1023.05 345.555 1022.41 344.007 1022.64 343.097C1034.93 328.757 1020.59 330.123 1013.08 332.854C1007.07 335.04 1006.02 331.944 1006.25 330.123C1026.46 312.643 1006.93 317.377 994.644 321.929C989.727 284.783 984.856 302.81 983.035 316.467C954.357 302.127 938.651 321.929 965.965 324.661C987.815 326.846 986.45 331.944 983.035 334.22C971.2 339 955.039 347.057 985.084 341.048C1015.13 335.039 1000.79 343.552 989.864 348.56C981.67 358.392 986.45 359.94 989.864 359.485C1008.98 349.106 1021.05 353.795 1024.69 357.436C1047.63 388.573 1036.98 392.261 1028.79 390.212C1027.42 385.66 1022.5 376.692 1013.76 377.238C1005.02 377.785 994.188 375.645 989.864 374.507C991.685 370.41 992.868 363.445 983.035 368.362C973.203 373.278 967.558 370.41 965.965 368.362C957.224 335.04 954.129 343.552 953.674 351.974C954.584 355.16 955.859 362.899 953.674 368.362C951.489 373.824 945.48 361.534 942.748 354.705C940.472 349.698 935.51 343.643 933.872 359.485C932.233 375.327 946.39 382.019 953.674 383.384C983.718 380.653 966.192 388.619 953.674 392.944C934.008 408.239 947.301 405.235 956.405 401.821Z" fill="url(#paint2_linear_195_1750)"/>
</g>
<g filter="url(#filter2_d_195_1750)">
<path d="M1014.31 398.403C1022.31 395.988 1026.8 395.56 1034.8 398.403C1053.74 395.672 1061.81 410.921 1063.48 417.522C1048.91 420.709 1018.28 425.17 1012.27 417.522C1006.26 409.874 1011.13 400.679 1014.31 398.403Z" fill="#7D6964"/>
</g>
<g filter="url(#filter3_d_195_1750)">
<path d="M1092.16 411.376C1082.32 404.821 1068.03 408.645 1062.11 411.376L1051.19 418.205C1064.84 423.667 1092.16 434.319 1092.16 433.227C1092.16 432.134 1098.53 429.13 1101.72 427.764C1139.96 419.024 1111.28 413.197 1092.16 411.376Z" fill="#6B5954"/>
</g>
<g filter="url(#filter4_d_195_1750)">
<path d="M1002.07 425.685C1007.98 414.147 1030.13 414.009 1040.47 415.383C1079.47 420.328 1067.06 429.806 1055.98 433.927C1035.55 435.988 996.161 437.224 1002.07 425.685Z" fill="#654D47"/>
</g>
<g filter="url(#filter5_d_195_1750)">
<path d="M1062.11 422.985C1052.1 430.723 1040.54 445.108 1074.4 440.738C1116.74 435.275 1090.79 418.205 1062.11 422.985Z" fill="#46332E"/>
</g>
<ellipse cx="1108.55" cy="407.279" rx="5.46265" ry="4.77982" fill="#B86F4F"/>
<ellipse cx="1076.79" cy="339.811" rx="5.4958" ry="3.89498" transform="rotate(20.8324 1076.79 339.811)" fill="#B86F4F"/>
<ellipse cx="1016.72" cy="334.313" rx="5.4958" ry="3.89498" transform="rotate(-20.2968 1016.72 334.313)" fill="#B86F4F"/>
<ellipse cx="981.216" cy="371.186" rx="5.4958" ry="3.89498" transform="rotate(-20.2968 981.216 371.186)" fill="#B86F4F"/>
<ellipse cx="1163.78" cy="335.379" rx="4.05185" ry="3.2321" transform="rotate(-23.6534 1163.78 335.379)" fill="#B86F4F"/>
<ellipse cx="1105.36" cy="325.146" rx="4.05185" ry="3.2321" transform="rotate(-23.6534 1105.36 325.146)" fill="#B86F4F"/>
<ellipse cx="1079.41" cy="293.736" rx="4.05185" ry="3.2321" transform="rotate(56.418 1079.41 293.736)" fill="#B86F4F"/>
<ellipse cx="1106.25" cy="297.253" rx="5.36213" ry="3.54245" transform="rotate(136.489 1106.25 297.253)" fill="#B86F4F"/>
<path d="M1136.85 323.405C1136.43 322.788 1135.56 322.625 1135.19 323.273V323.273C1134.96 323.673 1134.82 324.13 1134.77 324.619C1134.71 325.108 1134.76 325.618 1134.89 326.121C1135.03 326.624 1135.25 327.11 1135.55 327.55C1135.84 327.991 1136.21 328.378 1136.63 328.689C1137.05 329 1137.51 329.23 1137.98 329.364C1138.45 329.499 1138.93 329.536 1139.38 329.473V329.473C1140.12 329.371 1140.3 328.498 1139.88 327.88L1138.36 325.643L1136.85 323.405Z" fill="#B86F4F"/>
<path d="M1121.53 361.57C1121.52 360.816 1122.15 360.18 1122.86 360.413C1123.05 360.473 1123.23 360.546 1123.41 360.632C1124.01 360.919 1124.55 361.342 1125 361.876C1125.45 362.409 1125.8 363.042 1126.03 363.735C1126.26 364.428 1126.37 365.167 1126.34 365.907C1126.31 366.647 1126.16 367.373 1125.88 368.041C1125.59 368.708 1125.2 369.303 1124.71 369.789C1124.22 370.275 1123.65 370.643 1123.04 370.869C1122.84 370.94 1122.64 370.997 1122.44 371.039C1121.72 371.192 1121.17 370.518 1121.23 369.781L1121.57 365.667L1121.53 361.57Z" fill="#B86F4F"/>
<path d="M940.749 378.35C940.101 377.964 939.881 377.108 940.419 376.58C941.172 375.84 942.148 375.315 943.256 375.067C944.842 374.712 946.584 374.951 948.134 375.736C949.684 376.521 950.929 377.794 951.621 379.302C952.098 380.34 952.289 381.438 952.187 382.489C952.112 383.262 951.272 383.622 950.557 383.32L945.514 381.198L940.749 378.35Z" fill="#B86F4F"/>
<path d="M1068.39 364.716C1069 363.69 1070.39 363.353 1071 364.378V364.378C1071.39 365.015 1071.63 365.76 1071.72 366.566C1071.81 367.373 1071.75 368.224 1071.53 369.068C1071.32 369.912 1070.96 370.732 1070.47 371.477C1069.98 372.222 1069.38 372.878 1068.7 373.403C1068.02 373.928 1067.28 374.313 1066.52 374.533C1065.75 374.753 1064.99 374.804 1064.27 374.684V374.684C1063.08 374.485 1062.87 373.061 1063.57 372.084L1066.13 368.497L1068.39 364.716Z" fill="#B86F4F"/>
<path d="M982.743 308.46C982.876 307.175 984.07 306.203 985.204 306.823V306.823C985.889 307.197 986.49 307.702 986.969 308.309C987.449 308.916 987.798 309.611 987.994 310.351C988.19 311.092 988.231 311.864 988.112 312.618C987.993 313.373 987.718 314.096 987.303 314.742C986.889 315.389 986.343 315.945 985.7 316.378C985.057 316.811 984.33 317.112 983.562 317.261V317.261C982.295 317.508 981.454 316.22 981.721 314.957L982.403 311.736L982.743 308.46Z" fill="#B86F4F"/>
<path d="M1105.1 362.646C1105.47 363.303 1105.23 364.16 1104.49 364.302C1104.3 364.338 1104.11 364.362 1103.91 364.373C1103.25 364.41 1102.57 364.3 1101.92 364.05C1101.26 363.8 1100.65 363.415 1100.11 362.919C1099.58 362.423 1099.13 361.826 1098.8 361.164C1098.46 360.503 1098.25 359.79 1098.18 359.07C1098.1 358.351 1098.16 357.638 1098.35 356.977C1098.55 356.316 1098.87 355.719 1099.3 355.223C1099.44 355.067 1099.58 354.922 1099.74 354.789C1100.3 354.306 1101.11 354.632 1101.41 355.307L1103.1 359.073L1105.1 362.646Z" fill="#B86F4F"/>
<path d="M1051.84 385.862C1052.21 386.52 1051.97 387.376 1051.23 387.518C1050.98 387.565 1050.73 387.592 1050.47 387.596C1049.74 387.607 1049 387.444 1048.31 387.119C1047.61 386.794 1046.97 386.314 1046.44 385.714C1045.91 385.115 1045.49 384.41 1045.22 383.652C1044.96 382.893 1044.84 382.099 1044.89 381.327C1044.95 380.555 1045.16 379.824 1045.51 379.187C1045.87 378.551 1046.37 378.023 1046.96 377.644C1047.21 377.485 1047.48 377.354 1047.75 377.251C1048.41 377.006 1049.05 377.523 1049.17 378.218L1049.8 382.052C1049.82 382.209 1049.88 382.36 1049.95 382.499L1051.84 385.862Z" fill="#B86F4F"/>
<path d="M1013.34 353.22C1012.61 353.018 1012.17 352.238 1012.65 351.655C1012.82 351.447 1013.02 351.252 1013.24 351.073C1013.86 350.581 1014.66 350.217 1015.59 350.008C1016.51 349.8 1017.54 349.751 1018.6 349.866C1019.66 349.981 1020.71 350.257 1021.7 350.674C1022.69 351.09 1023.57 351.637 1024.3 352.275C1025.02 352.914 1025.57 353.627 1025.89 354.364C1026.21 355.101 1026.31 355.844 1026.17 356.538C1026.1 356.919 1025.95 357.281 1025.74 357.616C1025.42 358.122 1024.74 358.172 1024.23 357.867L1019.23 354.902C1019.12 354.84 1019.01 354.792 1018.89 354.76L1013.34 353.22Z" fill="#B86F4F"/>
<path d="M979.041 392.534C978.335 392.8 977.522 392.428 977.564 391.675C977.579 391.407 977.624 391.132 977.699 390.855C977.907 390.094 978.338 389.329 978.963 388.614C979.587 387.899 980.389 387.253 981.311 386.722C982.232 386.191 983.25 385.789 984.292 385.543C985.334 385.298 986.373 385.217 987.334 385.304C988.296 385.392 989.156 385.647 989.852 386.051C990.549 386.455 991.065 386.997 991.363 387.64C991.527 387.993 991.623 388.371 991.649 388.765C991.69 389.362 991.17 389.804 990.575 389.861L984.789 390.417C984.669 390.428 984.551 390.456 984.438 390.498L979.041 392.534Z" fill="#B86F4F"/>
<path d="M1075.73 311.184C1075.99 310.473 1076.78 310.089 1077.41 310.501C1077.82 310.767 1078.19 311.082 1078.5 311.436C1079.11 312.117 1079.49 312.913 1079.59 313.724C1079.69 314.534 1079.51 315.323 1079.07 315.989C1078.64 316.656 1077.96 317.171 1077.13 317.47C1076.31 317.768 1075.37 317.836 1074.43 317.665C1073.49 317.494 1072.6 317.092 1071.86 316.51C1071.13 315.928 1070.59 315.191 1070.31 314.394C1070.19 314.055 1070.12 313.713 1070.1 313.373C1070.05 312.62 1070.86 312.235 1071.57 312.488L1073.57 313.2C1074.28 313.453 1075.06 313.082 1075.31 312.372L1075.73 311.184Z" fill="#B86F4F"/>
<path d="M984.209 330.2C984.063 329.46 984.549 328.724 985.302 328.754C985.688 328.769 986.068 328.824 986.434 328.917C987.227 329.119 987.926 329.498 988.461 330.014C988.996 330.529 989.348 331.164 989.48 331.855C989.613 332.545 989.522 333.266 989.216 333.945C988.911 334.623 988.402 335.236 987.74 335.72C987.079 336.204 986.289 336.543 985.45 336.703C984.611 336.862 983.753 336.837 982.963 336.628C982.729 336.567 982.503 336.49 982.288 336.398C981.51 336.069 981.57 335.064 982.253 334.568L984.011 333.291C984.442 332.978 984.652 332.443 984.549 331.921L984.209 330.2Z" fill="#B86F4F"/>
<path d="M1145.57 366.657C1144.51 366.875 1143.44 366.16 1143.71 365.115V365.115C1143.87 364.472 1144.18 363.86 1144.62 363.314C1145.05 362.768 1145.61 362.3 1146.24 361.94C1146.88 361.579 1147.58 361.333 1148.31 361.216C1149.04 361.099 1149.79 361.114 1150.5 361.26C1151.21 361.406 1151.87 361.68 1152.44 362.065C1153.01 362.45 1153.48 362.938 1153.82 363.499V363.499C1154.38 364.424 1153.57 365.428 1152.49 365.551L1149 365.948L1145.57 366.657Z" fill="#B86F4F"/>
<ellipse cx="1126.14" cy="390.582" rx="3.41415" ry="4.77982" transform="rotate(-29.0052 1126.14 390.582)" fill="#B86F4F"/>
<defs>
<filter id="filter0_dn_195_1750" x="0" y="307.866" width="1555.44" height="348.528" filterUnits="userSpaceOnUse" color-interpolation-filters="sRGB">
<feFlood flood-opacity="0" result="BackgroundImageFix"/>
<feColorMatrix in="SourceAlpha" type="matrix" values="0 0 0 0 0 0 0 0 0 0 0 0 0 0 0 0 0 0 127 0" result="hardAlpha"/>
<feOffset dx="20.0027" dy="2.00027"/>
<feGaussianBlur stdDeviation="5.00067"/>
<feComposite in2="hardAlpha" operator="out"/>
<feColorMatrix type="matrix" values="0 0 0 0 0 0 0 0 0 0 0 0 0 0 0 0 0 0 0.25 0"/>
<feBlend mode="normal" in2="BackgroundImageFix" result="effect1_dropShadow_195_1750"/>
<feBlend mode="normal" in="SourceGraphic" in2="BackgroundImageFix" result="shape"/>
<feTurbulence type="fractalNoise" baseFrequency="0.99986505508422852 0.99986505508422852" stitchTiles="stitch" numOctaves="3" result="noise" seed="9529" />
<feColorMatrix in="noise" type="luminanceToAlpha" result="alphaNoise" />
<feComponentTransfer in="alphaNoise" result="coloredNoise1">
<feFuncA type="discrete" tableValues="0 0 0 0 0 0 0 0 0 0 0 0 1 1 1 1 1 1 1 1 1 1 1 1 1 1 1 1 1 1 1 1 1 1 1 1 1 1 0 0 0 0 0 0 0 0 0 0 0 0 0 0 0 0 0 0 0 0 0 0 0 0 0 0 0 0 0 0 0 0 0 0 0 0 0 0 0 0 0 0 0 0 0 0 0 0 0 0 0 0 0 0 0 0 0 0 0 0 0 0 "/>
</feComponentTransfer>
<feComposite operator="in" in2="shape" in="coloredNoise1" result="noise1Clipped" />
<feFlood flood-color="#ACA689" result="color1Flood" />
<feComposite operator="in" in2="noise1Clipped" in="color1Flood" result="color1" />
<feMerge result="effect2_noise_195_1750">
<feMergeNode in="shape" />
<feMergeNode in="color1" />
</feMerge>
<feBlend mode="normal" in="effect2_noise_195_1750" in2="effect1_dropShadow_195_1750" result="effect2_noise_195_1750"/>
</filter>
<filter id="filter1_d_195_1750" x="931.92" y="280.956" width="237.253" height="142.26" filterUnits="userSpaceOnUse" color-interpolation-filters="sRGB">
<feFlood flood-opacity="0" result="BackgroundImageFix"/>
<feColorMatrix in="SourceAlpha" type="matrix" values="0 0 0 0 0 0 0 0 0 0 0 0 0 0 0 0 0 0 127 0" result="hardAlpha"/>
<feOffset dy="1.82088"/>
<feGaussianBlur stdDeviation="0.910441"/>
<feComposite in2="hardAlpha" operator="out"/>
<feColorMatrix type="matrix" values="0 0 0 0 0 0 0 0 0 0 0 0 0 0 0 0 0 0 0.25 0"/>
<feBlend mode="normal" in2="BackgroundImageFix" result="effect1_dropShadow_195_1750"/>
<feBlend mode="normal" in="SourceGraphic" in2="effect1_dropShadow_195_1750" result="shape"/>
</filter>
<filter id="filter2_d_195_1750" x="1007.6" y="396.428" width="57.7043" height="28.9582" filterUnits="userSpaceOnUse" color-interpolation-filters="sRGB">
<feFlood flood-opacity="0" result="BackgroundImageFix"/>
<feColorMatrix in="SourceAlpha" type="matrix" values="0 0 0 0 0 0 0 0 0 0 0 0 0 0 0 0 0 0 127 0" result="hardAlpha"/>
<feOffset dy="1.82088"/>
<feGaussianBlur stdDeviation="0.910441"/>
<feComposite in2="hardAlpha" operator="out"/>
<feColorMatrix type="matrix" values="0 0 0 0 0 0 0 0 0 0 0 0 0 0 0 0 0 0 0.25 0"/>
<feBlend mode="normal" in2="BackgroundImageFix" result="effect1_dropShadow_195_1750"/>
<feBlend mode="normal" in="SourceGraphic" in2="effect1_dropShadow_195_1750" result="shape"/>
</filter>
<filter id="filter3_d_195_1750" x="1049.37" y="407.757" width="73.0194" height="29.1901" filterUnits="userSpaceOnUse" color-interpolation-filters="sRGB">
<feFlood flood-opacity="0" result="BackgroundImageFix"/>
<feColorMatrix in="SourceAlpha" type="matrix" values="0 0 0 0 0 0 0 0 0 0 0 0 0 0 0 0 0 0 127 0" result="hardAlpha"/>
<feOffset dy="1.82088"/>
<feGaussianBlur stdDeviation="0.910441"/>
<feComposite in2="hardAlpha" operator="out"/>
<feColorMatrix type="matrix" values="0 0 0 0 0 0 0 0 0 0 0 0 0 0 0 0 0 0 0.25 0"/>
<feBlend mode="normal" in2="BackgroundImageFix" result="effect1_dropShadow_195_1750"/>
<feBlend mode="normal" in="SourceGraphic" in2="effect1_dropShadow_195_1750" result="shape"/>
</filter>
<filter id="filter4_d_195_1750" x="999.651" y="414.791" width="69.1935" height="24.1266" filterUnits="userSpaceOnUse" color-interpolation-filters="sRGB">
<feFlood flood-opacity="0" result="BackgroundImageFix"/>
<feColorMatrix in="SourceAlpha" type="matrix" values="0 0 0 0 0 0 0 0 0 0 0 0 0 0 0 0 0 0 127 0" result="hardAlpha"/>
<feOffset dy="1.82088"/>
<feGaussianBlur stdDeviation="0.910441"/>
<feComposite in2="hardAlpha" operator="out"/>
<feColorMatrix type="matrix" values="0 0 0 0 0 0 0 0 0 0 0 0 0 0 0 0 0 0 0.25 0"/>
<feBlend mode="normal" in2="BackgroundImageFix" result="effect1_dropShadow_195_1750"/>
<feBlend mode="normal" in="SourceGraphic" in2="effect1_dropShadow_195_1750" result="shape"/>
</filter>
<filter id="filter5_d_195_1750" x="1049.98" y="422.15" width="48.5238" height="23.0397" filterUnits="userSpaceOnUse" color-interpolation-filters="sRGB">
<feFlood flood-opacity="0" result="BackgroundImageFix"/>
<feColorMatrix in="SourceAlpha" type="matrix" values="0 0 0 0 0 0 0 0 0 0 0 0 0 0 0 0 0 0 127 0" result="hardAlpha"/>
<feOffset dy="1.82088"/>
<feGaussianBlur stdDeviation="0.910441"/>
<feComposite in2="hardAlpha" operator="out"/>
<feColorMatrix type="matrix" values="0 0 0 0 0 0 0 0 0 0 0 0 0 0 0 0 0 0 0.25 0"/>
<feBlend mode="normal" in2="BackgroundImageFix" result="effect1_dropShadow_195_1750"/>
<feBlend mode="normal" in="SourceGraphic" in2="effect1_dropShadow_195_1750" result="shape"/>
</filter>
<linearGradient id="paint0_linear_195_1750" x1="1295.93" y1="202.097" x2="1053" y2="447.487" gradientUnits="userSpaceOnUse">
<stop stop-color="#969DA7"/>
<stop offset="1" stop-color="#222325"/>
</linearGradient>
<linearGradient id="paint1_linear_195_1750" x1="754.44" y1="315.867" x2="754.44" y2="644.392" gradientUnits="userSpaceOnUse">
<stop offset="0.293269" stop-color="#D2CDB4"/>
<stop offset="0.730769" stop-color="#999372"/>
</linearGradient>
<linearGradient id="paint2_linear_195_1750" x1="1050.55" y1="280.956" x2="1050.55" y2="419.574" gradientUnits="userSpaceOnUse">
<stop offset="0.480769" stop-color="#FFA977"/>
<stop offset="1" stop-color="#C17041"/>
</linearGradient>
</defs>
</svg>
