<svg width="148" height="87" viewBox="0 0 148 87" fill="none" xmlns="http://www.w3.org/2000/svg">
<g clip-path="url(#clip0_106_351)">
<path d="M101.993 14C102.507 14.1264 103.019 14.2559 103.532 14.3871C103.817 14.4589 104.103 14.5308 104.397 14.6048C105.45 14.9039 106.44 15.3316 107.445 15.7631C108.105 16.0458 108.769 16.3158 109.436 16.5815C113.057 18.0418 116.707 19.6468 119.859 21.9943C120.345 22.3379 120.865 22.6126 121.383 22.9029C122.361 23.5022 123.257 24.2239 124.164 24.9246C124.377 25.0881 124.589 25.2516 124.808 25.42C126.32 26.5932 127.737 27.8188 129.123 29.1395C129.431 29.4037 129.739 29.6666 130.049 29.9281C133.295 32.7944 137.061 37.4982 137.5 42C137.5 42.4174 137.5 43 137.5 43.5C137.5 43.5 137.233 44.7667 137 45C136.767 45.2333 136.199 45.2936 136 45.5C135.801 45.7064 134.705 46.2873 134.5 46.5C133.758 47.2969 133.594 47.2204 132.887 48.0486C130.837 50.4126 128.622 51.6522 125.475 52.3076C125.03 52.3261 124.585 52.3323 124.139 52.33C123.885 52.3293 123.631 52.3286 123.369 52.3278C123.105 52.3259 122.841 52.3239 122.568 52.322C122.301 52.3209 122.033 52.3199 121.757 52.3188C121.097 52.3161 120.015 52.1589 119.776 52.3076C119.387 52.5486 119.465 53.2452 119.776 53.684C120.387 54.5486 127.185 54.5123 130.757 52.899C131.987 52.2643 133.887 50.5486 133.887 50.5486C134.057 50.3821 135.227 50.0486 135.387 50.0486C135.547 50.0486 135.815 49.9763 135.887 50.0486C135.96 50.1208 135.915 50.3553 135.887 50.5486C135.826 50.9808 135.387 51.5486 135.387 51.5486C134.887 52.0486 131.69 56.5487 129.693 58.1857C125.886 61.1466 121.315 63.5581 116.8 65.1981C115.885 65.5309 114.975 65.8773 114.066 66.2268C113.923 66.2819 113.779 66.3371 113.631 66.3939C112.91 66.6713 112.188 66.9491 111.467 67.2274C110.165 67.7265 108.86 68.2186 107.546 68.6855C107.332 68.7622 107.118 68.8389 106.898 68.9179C106.283 69.0626 105.987 69.0797 105.413 68.8235C105.028 68.2729 104.697 67.7451 104.373 67.1604C104.285 67.007 104.196 66.8535 104.106 66.6954C103.933 66.3935 103.761 66.0907 103.592 65.787C103.409 65.4665 103.211 65.1545 103.009 64.846C98.643 56.8255 98.0182 45.2856 98.0033 36.3509C98.0022 36.1202 98.0012 35.8895 98.0001 35.6518C97.9883 29.1303 99.1238 22.9271 101.161 16.7489C101.457 15.8385 101.723 14.9189 101.993 14ZM113.406 32.8241C112.482 34.1493 112.32 35.1004 112.48 36.7093C112.849 38.117 113.628 39.2503 114.874 39.9924C116.202 40.607 117.719 40.6127 119.126 40.255C120.419 39.7407 121.466 38.9202 122.115 37.6681C122.542 36.4 122.547 35.0598 122.039 33.8196C121.163 32.3758 119.993 31.5063 118.408 30.9746C116.38 30.7169 114.764 31.2541 113.406 32.8241Z" fill="#F47D20"/>
<path d="M82.9111 11.6689C87.2866 11.5662 91.4886 12.0756 95.7781 12.9305C96.1875 13.0109 96.5977 13.087 97.0084 13.1599C97.2154 13.1977 97.4224 13.2356 97.6356 13.2746C97.917 13.3243 97.917 13.3243 98.2041 13.3749C98.3486 13.4175 98.4931 13.4601 98.6419 13.504C98.7548 13.7311 98.7548 13.7311 98.8699 13.9627C98.5992 14.4385 98.5992 14.4385 98.186 15.038C96.7889 17.1788 95.7717 19.5064 94.9541 21.9295C94.7662 22.4501 94.7662 22.4501 94.5427 22.8631C94.1974 23.6126 94.036 24.401 93.8543 25.2027C93.8096 25.395 93.7649 25.5873 93.7189 25.7854C91.8712 33.8696 91.7019 42.2379 92.9424 50.4353C93.0092 50.909 93.076 51.3827 93.1427 51.8564C93.9587 57.4558 94.8697 63.4094 97.5553 68.445C98.0549 69.3865 98.3834 70.273 98.6419 71.3095C97.7681 71.4583 96.8941 71.6062 96.0201 71.7539C95.7744 71.7958 95.5288 71.8376 95.2756 71.8807C92.922 72.2778 90.6995 72.5007 88.3115 72.4994C88.031 72.4996 87.7506 72.4997 87.4616 72.4999C85.1608 72.4866 83.2778 72.316 80.9999 71.9999L81.4999 71.4999C81.4999 71.4999 81.9999 70.9999 81.9999 70.4999C81.9999 68.9999 81.9761 68.7331 81.2001 67.1452C81.0876 66.925 80.9752 66.7049 80.8593 66.478C80.745 66.245 80.6308 66.012 80.5131 65.7719C80.0166 64.7635 79.508 63.7631 78.9748 62.7738C76.7712 58.6417 75.4999 53.4999 74.9999 50.4999C74.9863 49.9858 75.0155 48.4842 75 47.9702C74.9945 47.7458 75.0057 47.2015 75.0001 46.9702C75.0001 46.4702 74.9999 45.9998 74.9999 45.4998C74.9711 44.8471 75 44.0295 75 43.4999C75 42.9141 75.0017 42.1761 75 41.9702C75.5 33.4999 77.0808 23.2708 81.8139 13.8624C81.8949 13.7005 81.9759 13.5386 82.0593 13.3718C82.2669 12.9569 82.475 12.5422 82.6831 12.1276C82.7584 11.9762 82.8336 11.8249 82.9111 11.6689Z" fill="#F47D20"/>
<path d="M78.187 11.7379C77.8631 12.8763 77.4034 13.8545 76.856 14.8865C76.2662 16.004 75.7415 17.1177 75.2728 18.2987C75.1363 18.6275 74.9994 18.9561 74.8621 19.2845C73.8195 21.8067 72.9036 24.3411 72.1344 26.9685C72.0832 27.1421 72.0321 27.3158 71.9794 27.4947C71.2747 29.9197 70.7661 32.3347 70.4208 34.8426C70.338 35.4247 70.245 36.0044 70.151 36.5847C68.2671 48.7332 70.9944 61.162 76.842 71.7231C75.156 71.6056 73.7202 71.1406 72.1344 70.5515C71.8233 70.444 71.5122 70.337 71.2009 70.2303C69.9787 69.8044 68.7698 69.3493 67.5669 68.8674C67.3464 68.7857 67.1259 68.704 66.8987 68.6198C65.3469 67.9885 65.0366 67.9053 64.0533 67.3945C63.07 66.373 63.07 65.8623 62.5784 65.3515C61.5951 64.3301 61.5951 63.3086 61.1034 62.2871C58.6452 59.7333 56.9121 51.7556 56.2638 46.2124C56.1882 45.3865 56.1862 44.5641 56.1884 43.735C56.1882 43.5538 56.188 43.3725 56.1877 43.1858C56.1876 42.8057 56.188 42.4257 56.1889 42.0457C56.1901 41.4668 56.1889 40.8879 56.1875 40.309C56.1877 39.9377 56.1879 39.5664 56.1884 39.1951C56.1879 39.0237 56.1875 38.8523 56.187 38.6758C56.1912 37.717 56.2645 36.8132 56.4423 35.8726C56.6787 35.2175 56.6787 35.3994 56.6787 35.2175C56.6787 34.7067 57.0761 32.8566 57.1703 32.6637C57.6619 31.657 57.6619 30.8216 57.6619 29.614C57.6619 29.1033 57.9756 27.9131 58.1536 27.571C58.1871 27.5066 58.1536 27.571 58.1536 27.0603C58.1536 26.6556 58.1679 26.3176 58.1536 26.0388C58.1393 25.7599 58.6083 25.5543 58.9406 24.7388C59.294 23.666 59.4358 22.5301 59.6158 21.4135C59.799 20.6661 59.8869 20.3765 60.4774 19.939C61.1034 19.3991 60.8363 19.5777 61.1034 19.3991C61.2062 19.3304 61.1034 19.3991 61.3741 19.236C61.8014 18.9239 61.8014 18.9239 62.3829 18.577C62.5886 18.4523 62.7944 18.3275 63.0064 18.199C63.3081 18.0164 63.3081 18.0164 63.6158 17.8301C63.9157 17.6365 64.2147 17.4414 64.5125 17.2443C65.5505 16.5649 66.593 15.8977 67.6509 15.2526C67.8902 15.1019 68.1295 14.9512 68.376 14.7959C70.6978 13.3833 73.1261 12.6521 75.7211 11.9722C75.8723 11.9284 76.0236 11.8845 76.1794 11.8394C76.8474 11.6847 77.5059 11.7242 78.187 11.7379Z" fill="#F47D20"/>
<path d="M83.1406 13.0078L83.1426 13.0078C83.1979 13.0081 83.2532 13.0085 83.3086 13.0088C83.0517 13.4551 82.7888 13.9031 82.5205 14.3545L82.5186 14.3574C82.3243 14.6871 82.1298 15.017 81.9355 15.3467C81.5948 15.9236 81.2481 16.498 80.8945 17.0713L80.8896 17.0781C79.3876 19.5574 78.3074 22.1047 77.2988 24.6396C76.5665 26.1261 76.0191 28.1951 75.5986 30.3975C75.1712 32.6361 74.8605 35.0915 74.6338 37.3682C74.4068 39.6472 74.2626 41.761 74.168 43.3184C74.1208 44.0948 74.0856 44.7397 74.0596 45.1875C74.0464 45.4141 74.0352 45.5872 74.0264 45.7061C74.0251 45.7227 74.0235 45.7377 74.0225 45.751L74 45.8076L74 46C74 48.545 74.1278 50.7745 74.9316 53.5742C75.7289 56.3509 77.1787 59.6471 79.7627 64.3652L79.793 64.4199L79.8301 64.4707C80.529 65.4358 81.1872 66.4196 81.8525 67.4199L81.8584 67.4287L81.8652 67.4375C82.0669 67.7272 82.0715 67.7335 82.2686 68.0166V68.0176C82.9894 69.1055 83.2964 69.873 83.1504 70.75C83.0864 70.8202 83.0384 70.8759 82.9951 70.9199C82.9725 70.9429 82.9539 70.9581 82.9414 70.9697C82.9083 70.9764 82.8593 70.9856 82.7715 70.999C80.2737 70.981 79.148 70.9676 78.4043 70.8369C77.7836 70.7278 77.4756 70.5491 76.6064 69.998C68.437 62.326 66.1256 49.5613 67.2764 39.8711L67.3984 38.9414C67.9024 35.8808 68.5287 32.8821 69.585 29.9629L69.5869 29.957C69.6473 29.7868 69.7083 29.6167 69.7705 29.4414C71.1003 25.7613 72.7182 21.9861 75.2842 18.8242L75.3516 18.7412L75.4004 18.6455C75.6194 18.2125 75.8406 17.7736 76.0566 17.332C76.5029 16.4799 77.0708 15.6634 77.6943 14.7891L77.7158 14.7578C77.8962 14.4835 77.8994 14.4784 78.0771 14.208C78.5701 13.5231 78.7148 13.3367 78.8262 13.2422C78.865 13.2093 78.8777 13.1901 79.2861 13.0664C80.1976 12.9813 81.0567 13.0205 82.1113 13C82.451 13.0026 82.7907 13.0051 83.1406 13.0078Z" fill="#FDFBF6" stroke="#5F4646" stroke-width="2"/>
<path d="M99.6795 13.0069C100.046 12.9085 103.413 13.8899 103.413 13.8899C103.413 13.8899 102.689 16.3493 102.26 17.447C99.8898 23.6766 98.6979 29.826 98.7002 36.371C98.7 36.6141 98.6998 36.8572 98.6996 37.1077C98.719 46.2262 103.856 64.6965 106.057 66.6352C106.52 67.4613 106.899 67.992 108 68.6813C106.392 69.4754 105.04 69.6775 104.448 69.6775C102.672 70.1756 102.159 70.1683 102.079 70.1756C102 70.1829 101.067 70.4604 100.303 70.6737C98.5 71.1774 98.3745 71.0846 98 70.1829C97.7901 69.6775 97.8363 69.5966 97.5 69C97.3612 68.7629 97 68.5 96.5 67.5C94.5 64.5 94.058 57.4844 92.9765 52.355C92.8913 51.9525 92.8039 51.5502 92.7163 51.1481C91.8376 46.9935 92.0146 43.7761 92.0146 40.7875C92.025 39.6713 92.017 38.1804 92.0182 37.9827C92.0393 36.4658 92.0145 35.3882 92.0146 33.8141C92.0147 32.0843 92.0146 31.8216 92.6066 29.3311C92.955 27.8658 93.2888 25.7445 94.3008 23.358C94.5093 22.8493 94.6714 22.3373 94.8365 21.8173C95.8165 19.0247 99.3126 13.1053 99.6795 13.0069Z" fill="#FDFCFA"/>
<path d="M100.209 14.0811C100.553 14.1543 100.991 14.2637 101.43 14.3789C101.683 14.4453 101.932 14.5147 102.159 14.5771C102.122 14.6982 102.084 14.8268 102.043 14.959C101.808 15.7136 101.529 16.5711 101.329 17.083L101.325 17.0918C98.9145 23.4272 97.698 29.6966 97.7002 36.3701C97.7 36.6131 97.6994 36.8561 97.6992 37.1064L97.6992 37.1094C97.7092 41.7984 99.0248 48.7951 100.592 54.8154C101.378 57.837 102.237 60.6461 103.043 62.832C103.445 63.9234 103.84 64.8758 104.213 65.6279C104.528 66.2631 104.877 66.8588 105.259 67.2529C105.48 67.6388 105.717 68.0137 106.046 68.3789C106.047 68.3802 106.049 68.3815 106.05 68.3828C105.29 68.6127 104.715 68.6777 104.447 68.6777L104.311 68.6777L104.178 68.7148C103.313 68.9572 102.776 69.071 102.459 69.125C102.15 69.1776 102.075 69.1718 101.988 69.1797C101.884 69.1893 101.775 69.2189 101.768 69.2207C101.723 69.232 101.669 69.2469 101.611 69.2627C101.495 69.2946 101.342 69.3373 101.173 69.3857C100.83 69.4838 100.412 69.6055 100.034 69.7109C99.5843 69.8366 99.2793 69.9124 99.0605 69.9512C99.0361 69.9555 99.0133 69.9559 98.9932 69.959C98.9735 69.9147 98.9501 69.863 98.9238 69.7998C98.83 69.5739 98.8177 69.5092 98.7383 69.2881C98.6597 69.0694 98.5624 68.8482 98.3711 68.5088L98.3672 68.502L98.3633 68.4941L98.2344 68.3047C98.1921 68.2487 98.1526 68.2014 98.124 68.167C98.0542 68.0831 97.9975 68.0164 97.9268 67.9248C97.7952 67.7544 97.6149 67.4934 97.3945 67.0527L97.3662 66.9971L97.332 66.9453L97.1729 66.6895C96.392 65.3547 95.847 63.1711 95.3779 60.5498C94.9587 58.2073 94.5976 55.497 94.1514 53.1367L93.9551 52.1484L93.6934 50.9346C92.844 46.9144 93.0143 43.8267 93.0146 40.7969C93.0247 39.7179 93.0179 38.1911 93.0186 37.9971C93.0397 36.4739 93.0146 35.3616 93.0146 33.8145C93.0147 32.9373 93.0161 32.5022 93.0811 31.9814C93.1473 31.4504 93.2819 30.8129 93.5791 29.5625C93.9462 28.0185 94.2529 26.0325 95.2217 23.748L95.2266 23.7373C95.4504 23.191 95.6219 22.6457 95.7832 22.1377C96.2433 20.8317 97.3208 18.7273 98.3584 16.8945C98.8731 15.9855 99.3646 15.1662 99.7461 14.5742C99.8792 14.3677 99.9961 14.1957 100.092 14.0596C100.128 14.0669 100.168 14.0723 100.209 14.0811Z" fill="#FDFCFA" stroke="#5F4646" stroke-width="2"/>
<path d="M48.7126 22.0081C49.0424 22.0041 49.0424 22.0041 49.3788 22C51.6621 22.0092 55.6946 23.6998 55.6946 23.6998C55.6946 23.6998 56.6799 24.0549 56.1506 24.388C55.6212 24.721 55.3443 25.0012 54.9394 25.3055C54.6022 25.561 54.6022 25.561 54.2581 25.8216C53.6428 26.2231 53.5 26.293 53.5 26.293C53.5 26.293 53.0778 26.6177 52.9588 26.6818C52.8398 26.746 52.7208 26.8102 52.5981 26.8763C51.6338 27.4047 50.7074 27.9583 49.7955 28.5743C48.1402 29.6486 46.3526 30.4471 44.565 31.2699C44.1355 31.4676 43.7073 31.6681 43.2793 31.869C40.4629 33.1832 41 32.7928 40 33.2928C39 33.5856 38.6456 33.7747 38.5 33.793C38.0377 33.8511 37 34.293 37 33.7928C37 33.293 37.2082 32.6362 37.3135 32.0581C37.3423 31.8965 37.3711 31.7349 37.4008 31.5684C38.0224 28.1753 39.5641 25.7894 42.3692 23.7321C44.4328 22.4275 46.287 21.9789 48.7126 22.0081Z" fill="#C26327"/>
<path d="M18.3919 26.3794C18.6476 26.4906 18.9032 26.6018 19.1667 26.7164C20.9591 27.5583 22.5477 28.6165 24.1756 29.7382C26.5733 31.3711 28.79 32.3137 31.6861 32.4725C31.855 32.4824 32.0238 32.4923 32.1978 32.5026C32.6114 32.5267 33.0251 32.5499 33.4388 32.5729C33.3766 32.7784 33.3766 32.7784 33.3132 32.988C31.1843 39.9812 31.1843 39.9812 30.4287 47.2178C30.4274 47.4305 30.4261 47.6433 30.4247 47.8624C30.4226 48.3112 30.4211 48.76 30.4202 49.2088C30.418 49.8833 30.4109 50.5576 30.4037 51.2321C30.3897 53.8155 30.5608 56.2049 31.1589 58.723C31.0343 58.818 30.9096 58.9129 30.7811 59.0108C29.6676 59.8623 28.5984 60.7576 27.5397 61.6764C27.2625 61.9159 26.9852 62.1555 26.7079 62.395C26.2251 62.8123 25.7445 63.2316 25.2652 63.653C21.5737 66.8195 17.9007 68.2279 13.0321 67.9507C9.44806 67.6212 6.49194 65.1402 4.22845 62.4936C0.122167 57.1075 -0.522957 49.9914 0.326021 43.4491C0.716629 40.8584 1.28544 38.3093 1.97712 35.7843C2.045 35.4894 2.045 35.4894 2.11426 35.1884C3.03763 31.4784 5.36642 27.9475 8.56012 25.8633C11.6435 24.3565 15.3784 25.038 18.3919 26.3794Z" fill="#F47D1F"/>
<path d="M54.9285 25C55.043 25 55.15 25.1084 55.376 25.2189C55.322 25.3385 55.268 25.458 55.2124 25.5812C54.1848 27.8817 53.2537 30.175 52.607 32.608C52.5565 32.7961 52.506 32.9842 52.4539 33.178C52.2947 33.8068 52.1539 34.4367 52.0196 35.071C51.9756 35.2773 51.9756 35.2773 51.9306 35.4877C51.4021 38.0288 51.2425 40.5005 51.2609 43.0908C51.2645 43.6897 51.2609 44.2883 51.2566 44.8872C51.2501 50.3249 52.1235 56.117 54.9774 60.8771C55.376 61.5621 55.376 61.5621 55.376 62C54.4566 61.7531 53.569 61.4888 52.6909 61.1243C52.4725 61.0155 52.5533 61.0456 52.5533 61.0456C52.2946 60.9911 53.0441 61.1937 52.5533 61.0456C51.7276 60.7962 50.0392 59.864 49.1248 59.3865C48.0576 58.8479 47.0283 58.3391 45.8707 58.0121C45.3828 57.8634 44.9175 57.6943 44.4425 57.511C42.4152 56.7419 39.7944 56.7506 38.5943 56.5266C38.0507 56.5266 37.4816 56.5266 37.4816 56.5266C37.4816 56.5266 36.4039 56.5266 36.133 56.3077C35.59 54.0489 35.3526 51.9455 35.3778 49.6165C35.3788 49.4651 35.3797 49.3138 35.3807 49.1578C35.4121 44.9321 35.2766 39.5709 37.3407 35.753C37.4711 35.3051 37.3407 35.2758 37.8314 34.7986C37.8314 34.7986 38.3222 34.3214 38.3222 33.8442L38.3222 33.367C38.3222 32.8897 38.8129 32.4125 39.0418 32.2249C39.2445 32.0587 40.335 31.7789 40.335 31.7789C40.335 31.7789 40.7396 31.568 41.0556 31.568C41.3973 31.568 41.2438 31.5455 41.5014 31.4859C42.2979 31.3017 49.7816 28.2929 53.4277 25.9997C53.8167 25.7551 54.1901 25.7668 54.5 25.5C54.6949 25.3322 54.7266 25 54.9285 25Z" fill="#F37D20"/>
<path d="M63.0307 67.571C63.0307 67.571 62.9616 67.2314 63.0307 67.0712C63.0997 66.911 63.5307 67.0712 63.5307 67.0712C63.5307 67.0712 63.9392 67.1977 64.2304 67.3071C64.4593 67.393 64.6882 67.479 64.924 67.5676C65.1742 67.6646 65.4245 67.7616 65.6823 67.8615C65.9461 67.9573 66.2098 68.0531 66.4816 68.1518C66.8706 68.3008 66.8706 68.3008 67.2675 68.4529C68.4274 68.8943 69.593 69.309 70.7705 69.7002C71.1404 69.8266 71.1404 69.8266 71.5177 69.9556C79.3851 72.5491 87.2642 73.0916 95.4328 71.736C96.4263 71.5733 97 71.5 97.5 71.5C98 71.5 98 71 98.5 71C98.9327 71 100.183 70.696 100.183 70.696L101 70.5C101 70.5 102.712 70 103 70C103.226 70.0757 100.617 73.6264 100.408 73.8291C95.1593 78.917 88.8418 82.6342 81.377 82.6164C79.6209 82.576 77.948 82.2606 76.2421 81.8577C76.034 81.8107 75.826 81.7637 75.6116 81.7152C72.9953 81.0317 70.7206 79.5149 68.7187 77.7287C68.5013 77.5384 68.5013 77.5384 68.2796 77.3443C67.1172 76.2578 66.32 74.9733 65.5269 73.5998C65.4235 73.4259 65.32 73.252 65.2134 73.0729C64.5358 71.837 64.1288 70.5496 63.7458 69.1984C63.6958 69.0239 63.5822 68.751 63.5307 68.5712C63.4792 68.3915 63.0307 67.571 63.0307 67.571Z" fill="#C26327"/>
<path d="M39.3711 56C41.5606 56.0132 43.5596 56.9262 45.5694 57.7204C45.9679 57.8756 45.9679 57.8756 46.3744 58.034C47.7573 58.5942 49.0839 59.2441 50.4051 59.9381C51.0607 60.2531 51.5998 60.6235 51.9841 60.791C52.1834 60.8779 51.9841 60.791 52.4999 61C52.6495 61.0606 52.9841 61.291 52.8506 61.2186C54.9374 61.7328 56.8841 62.9431 58.7938 63.9127C59.4764 64.2589 60.1603 64.6025 60.8442 64.9461C61.2242 65.1373 61.6042 65.3284 61.9841 65.5196C61.6695 66.4692 61.0411 66.6763 60.203 67.1109C60.0482 67.192 59.8933 67.273 59.7337 67.3566C55.0838 69.734 49.0926 70.2864 44.0706 68.791C41.6961 67.9111 40.0076 66.8443 38.9009 64.516C38.0844 62.6497 37.9779 60.7653 38.0032 58.7526C38.0033 58.5232 38.0035 58.2937 38.0036 58.0573C38.0157 56.0763 38.0157 56.0763 39.3711 56Z" fill="#C26427"/>
<path d="M95.7144 7.47789C98.4288 9.47368 100.94 11.6911 103.333 14.0638C103.451 14.1794 103.569 14.2949 103.69 14.414C104.27 14.9958 104.737 15.5155 105.043 16.286C103.592 16.0787 102.217 15.7437 100.825 15.2824C97.8329 14.3007 94.7115 13.7034 91.592 13.304C91.4406 13.2833 91.2893 13.2626 91.1334 13.2412C86.0367 12.56 80.6726 12.4014 75.6332 13.5333C75.4386 13.5765 75.244 13.6196 75.0435 13.6641C72.1503 14.3339 69.708 15.3953 67.1762 16.9425C66.5873 17.2964 65.9818 17.6152 65.374 17.9347C64.3382 18.4967 63.3963 19.1526 62.4538 19.8603C61.9703 20.1751 61.7272 20.2728 61.5 20.5C61.2728 20.7272 60.949 20.8064 60.5 21C59.9734 21.2271 59.989 21.3279 59.4464 21.5619C58.9149 20.7597 58.9506 20.3469 59.0848 19.4132C60.4221 13.3674 66.3303 6.67151 71.395 3.38208C79.7168 -1.76862 88.523 2.28563 95.7144 7.47789Z" fill="#C26327"/>
<path d="M63.5 67C63.8073 67.475 59 65 54 61.5C49.0001 58.0001 51.5002 27.9999 55.0001 25C58.5 22 59.5769 20.9999 59.5 21.5C58.5002 28 58 58.5 63.5 67Z" fill="#E5E5E7" stroke="#5F4646" stroke-width="2"/>
<path d="M37.0001 55.9993C34.9999 56.9989 34 56.4993 31.5 58.4993C29 60.4993 31 33.0001 33 32.4992C35 31.9983 37.9497 32.3091 39.5 31.9991C42 31.4991 41.0004 53.9999 37.0001 55.9993Z" fill="#E5E5E7" stroke="#5F4646" stroke-width="2"/>
<circle cx="117.5" cy="35.5" r="5.5" fill="#D9D9D9"/>
<circle cx="119" cy="34" r="4" fill="#171313"/>
</g>
<defs>
<clipPath id="clip0_106_351">
<rect width="148" height="87" fill="white"/>
</clipPath>
</defs>
</svg>
