<svg width="293" height="291" viewBox="0 0 293 291" fill="none" xmlns="http://www.w3.org/2000/svg">
<path d="M172.615 47.167C176.943 48.2895 181.162 49.6809 185.255 51.3213L207.216 10.9736L193.319 54.957C194.111 55.3549 194.897 55.7626 195.677 56.1797L230.1 16.8008L204.204 61.2695C207.496 63.4518 210.658 65.8143 213.677 68.3428L254.4 35.0996L221.51 75.6055C225.537 79.7366 229.226 84.1982 232.535 88.9443L285.6 72.2998L238.187 97.9941C239.275 99.9514 240.303 101.947 241.268 103.979L285.9 88.5L244.938 112.698C246.089 115.823 247.095 119.018 247.95 122.274H292.5L249.83 130.898C250.134 132.642 250.394 134.399 250.611 136.171L286.5 142.8L251.299 144.497C251.364 146.023 251.4 147.557 251.4 149.1C251.4 152.06 251.276 154.993 251.036 157.892L281.7 169.8L250.138 165.438C249.249 171.144 247.902 176.698 246.136 182.062L280.095 200.796L243.046 190.27C241.567 193.748 239.907 197.131 238.076 200.405L280.441 236.159L232.187 209.751C230.065 212.757 227.79 215.647 225.372 218.41L250.039 254.915L219.333 224.761C215.858 228.125 212.152 231.252 208.241 234.115L223.2 261.6L202.555 238C195.952 242.202 188.851 245.689 181.358 248.351L190.581 281.478L173.911 250.687C167.98 252.306 161.841 253.423 155.542 253.982L155.622 289.643L147.481 254.391C147.022 254.397 146.561 254.4 146.1 254.4C142.434 254.4 138.812 254.211 135.242 253.846L128.808 290.1L125.847 252.452C121.162 251.539 116.588 250.316 112.147 248.805L95.7002 280.8L105.208 246.165C103.047 245.253 100.923 244.27 98.8379 243.221L84.2998 267.3L93.5449 240.366C90.8661 238.82 88.2625 237.159 85.7393 235.391L65.7559 263.816L79.3555 230.547C77.2454 228.816 75.2038 227.004 73.2354 225.117L48.5996 247.5L68.1875 219.937C64.6861 216.088 61.4668 211.978 58.5605 207.641L34.2002 221.399L55.3174 202.485C52.7782 198.177 50.537 193.672 48.6221 188.998L11.0996 198.3L45.9805 181.813C44.4321 177.072 43.2124 172.181 42.3457 167.17L9.2998 165.28L41.2725 159.12C40.9611 155.822 40.7998 152.479 40.7998 149.1C40.7998 147.926 40.8203 146.756 40.8584 145.592L0.18457 143.759L41.4482 137.358C42.4339 128.474 44.5244 119.923 47.5801 111.847L14.7002 98.0996L51.0234 103.785C53.7314 98.1137 56.9317 92.7226 60.5693 87.667L29.7002 60L66.665 79.9746C71.8122 74.0648 77.6078 68.7349 83.9414 64.0957L61.8418 25.8799L92.3564 58.5293C94.8093 57.0706 97.3271 55.71 99.9033 54.4502L85.1992 17.7002L108.033 50.8926C109.149 50.4597 110.274 50.045 111.408 49.6494L104.916 14.9336L119.069 47.3027C124.989 45.7349 131.113 44.6703 137.394 44.1562L141.654 0.866211L147.765 43.8135C152.702 43.89 157.556 44.3064 162.306 45.04L178.5 0L172.615 47.167Z" fill="#DDA682"/>
<path d="M204.6 170.4C204.6 203.04 178.14 201.6 145.5 201.6C112.86 201.6 86.3999 203.04 86.3999 170.4C86.3999 137.76 112.86 118.8 145.5 118.8C178.14 118.8 204.6 137.76 204.6 170.4Z" fill="#EEE3EE"/>
<circle cx="110.4" cy="127.8" r="32.4" fill="white"/>
<circle cx="181.2" cy="127.8" r="32.4" fill="#FFFEFE"/>
<circle cx="110.1" cy="127.5" r="6.3" fill="#1B1A1A"/>
<circle cx="180.9" cy="127.5" r="6.3" fill="#1B1A1A"/>
<ellipse cx="142.727" cy="97.6215" rx="5.4" ry="4.2" transform="rotate(8.22192 142.727 97.6215)" fill="#4D322E"/>
<path d="M164.1 100.439C161.4 101.939 160.5 102.839 157.5 105.539C156.6 105.539 155.723 103.832 156.055 101.536C156.387 99.2404 159.049 97.7251 162 98.1516C164.1 98.455 164.1 99.8395 164.1 100.439Z" fill="#4D322E"/>
<ellipse cx="87.776" cy="97.1185" rx="4.8" ry="3.9" transform="rotate(2.65966 87.776 97.1185)" fill="#4D322E"/>
<path d="M122.528 95.6606C122.182 97.9543 121.3 96.8417 117.971 96.0395C113.432 94.6727 111.677 96.2252 111.848 94.0521C112.194 91.7584 114.864 90.259 117.813 90.7032C120.762 91.1474 122.873 93.3669 122.528 95.6606Z" fill="#4D322E"/>
<ellipse cx="179.927" cy="61.6215" rx="5.4" ry="4.2" transform="rotate(20.4425 179.927 61.6215)" fill="#4D322E"/>
<path d="M168.148 161.4C171.52 161.4 165.706 163.781 165.706 171.298C165.706 178.816 171.52 185.999 168.148 186C164.871 186 159.89 181.471 159.612 174.315C156.061 173.936 151.051 173.1 145.5 173.1C139.297 173.1 133.77 174.143 130.198 174.427C130.134 181.864 125.003 186.6 121.652 186.6C118.28 186.6 124.094 179.416 124.094 171.898C124.094 164.38 118.28 162 121.652 162C124.297 162 128.049 164.933 129.546 169.824C133.075 168.359 138.905 167.4 145.5 167.4C151.373 167.4 156.639 168.16 160.214 169.361C161.682 164.388 165.479 161.4 168.148 161.4Z" fill="#AD7350"/>
<path d="M0 118.8L45.9 140.7V166.5L0 186.9L7.2 173.7L0 164.1L7.2 152.7L0 143.7L7.2 134.7L0 118.8Z" fill="url(#paint0_linear_133_1207)"/>
<path d="M291.9 118.2L246 140.1V165.9L291.9 186.3L284.7 173.1L291.9 163.5L284.7 152.1L291.9 143.1L284.7 134.1L291.9 118.2Z" fill="url(#paint1_linear_133_1207)"/>
<ellipse cx="157.058" cy="76.7637" rx="6" ry="4.2" transform="rotate(19.5246 157.058 76.7637)" fill="#4D322E"/>
<ellipse cx="203.259" cy="85.1638" rx="6" ry="4.2" transform="rotate(19.5246 203.259 85.1638)" fill="#4D322E"/>
<ellipse cx="147.099" cy="60.1426" rx="6" ry="4.2" transform="rotate(-1.37421 147.099 60.1426)" fill="#4D322E"/>
<path d="M161.1 45.7587C160.3 48.1587 158.313 49.4205 155 49.5C151.687 49.5795 148.956 47.764 148.901 45.4451C148.845 43.1262 152.1 43.9587 156.3 44.2586C159.6 44.5586 161.4 44.8587 161.1 45.7587Z" fill="#4D322E"/>
<ellipse cx="128.364" cy="72.4197" rx="4.8" ry="3.9" transform="rotate(-9.23306 128.364 72.4197)" fill="#4D322E"/>
<ellipse cx="122.963" cy="54.4198" rx="4.8" ry="3.9" transform="rotate(2.65966 122.963 54.4198)" fill="#4D322E"/>
<path d="M84.7384 70.7927C85.061 72.7768 83.0046 74.7621 80.1453 75.2269C77.286 75.6917 74.1226 74.5841 73.8001 72.6C75.0541 70.9605 77.309 69.3924 78.9773 68.0416C81.8365 67.5768 84.4159 68.8085 84.7384 70.7927Z" fill="#4D322E"/>
<ellipse cx="98.3636" cy="82.0197" rx="4.8" ry="3.9" transform="rotate(-9.23306 98.3636 82.0197)" fill="#4D322E"/>
<ellipse cx="218.964" cy="100.62" rx="4.8" ry="3.9" transform="rotate(-9.23306 218.964 100.62)" fill="#4D322E"/>
<ellipse cx="103.8" cy="64.2" rx="4.8" ry="3" fill="#4D322E"/>
<ellipse cx="176.342" cy="86.7826" rx="4.8" ry="3" transform="rotate(-12.7109 176.342 86.7826)" fill="#4D322E"/>
<ellipse cx="198.843" cy="70.879" rx="4.8" ry="3" transform="rotate(27.5305 198.843 70.879)" fill="#4D322E"/>
<ellipse cx="70.8683" cy="89.5102" rx="4.8" ry="3" transform="rotate(1.32499 70.8683 89.5102)" fill="#4D322E"/>
<path d="M229.8 85.2C229.762 86.8564 228.001 86.2905 225.3 85.8C222.599 85.3095 220.831 83.8558 220.869 82.1993C220.908 80.5429 222.05 78.8388 224.7 78.9001C226.8 80.7001 228.3 83.2906 229.8 85.2Z" fill="#4D322E"/>
<defs>
<linearGradient id="paint0_linear_133_1207" x1="45.9" y1="152.85" x2="0" y2="152.85" gradientUnits="userSpaceOnUse">
<stop stop-color="#DDA682"/>
<stop offset="1" stop-color="#B5BA29"/>
</linearGradient>
<linearGradient id="paint1_linear_133_1207" x1="246" y1="152.25" x2="291.9" y2="152.25" gradientUnits="userSpaceOnUse">
<stop stop-color="#DDA682"/>
<stop offset="1" stop-color="#B5BA29"/>
</linearGradient>
</defs>
</svg>
