<svg width="293" height="281" viewBox="0 0 293 281" fill="none" xmlns="http://www.w3.org/2000/svg">
<path d="M147 52.5002C171 52.5 189 93.5004 205 153.5C216.5 218 209.755 273.5 151.6 273.5C93.4442 273.5 65 233 79.5 171C97.9999 114.5 106.756 52.5006 147 52.5002Z" fill="#DDA682"/>
<path d="M201.335 245.204C201.335 275.948 176.412 274.592 145.668 274.592C114.923 274.592 90 275.948 90 245.204C90 214.46 114.923 196.601 145.668 196.601C176.412 196.601 201.335 214.46 201.335 245.204Z" fill="#EEE3EE"/>
<circle cx="108.4" cy="222.001" r="32.4" fill="white"/>
<circle cx="179.2" cy="222.001" r="32.4" fill="#FFFEFE"/>
<circle cx="113.5" cy="237.101" r="15.5" fill="#1B1A1A"/>
<circle cx="172.5" cy="237.101" r="15.5" fill="#1B1A1A"/>
<path fill-rule="evenodd" clip-rule="evenodd" d="M145.526 268.344C156.292 268.099 164.949 264.752 165.021 267.899C165.093 271.046 156.422 273.797 145.656 274.042C134.89 274.288 126.104 271.936 126.032 268.789C125.96 265.641 134.759 268.59 145.526 268.344Z" fill="#AD7350"/>
<path d="M227.214 115.501C227.214 115.501 210.67 138.66 202.387 159.886C198.723 169.272 196.457 189.616 217.285 180.949C238.113 172.282 266.539 171.099 266.539 171.099L253.038 164.48L253.373 152.485L240.912 147.335L241.593 135.83L230.517 132.639L227.214 115.501Z" fill="url(#paint0_linear_133_1291)"/>
<path d="M121.5 0.00050054C121.5 0.00050054 122.565 29.4435 134.981 48.5481C140.471 56.9964 155.679 70.6987 160.78 48.7236C165.881 26.7485 174 8.09465e-05 174 8.09465e-05L163 5.50017L154 2.56355e-05L147.244 9.93062L137 8.10693e-05L129.244 9.80819L121.5 0.00050054Z" fill="url(#paint1_linear_133_1291)"/>
<path d="M121.5 0.000309492C121.5 0.000309492 135.592 24.1599 143.876 45.385C147.539 54.771 149.805 75.1159 128.977 66.4487C108.149 57.7815 79.7234 56.5984 79.7234 56.5984L94.4999 45.385L92.4999 32.5003L104.5 27.5002L105.351 15.5002L116 15.5001L121.5 0.000309492Z" fill="url(#paint2_linear_133_1291)"/>
<path d="M174 0.000183103C174 0.000183103 159.959 23.4945 151.675 44.7196C148.012 54.1056 145.746 74.4505 166.574 65.7832C187.402 57.116 215.828 55.933 215.828 55.933L201.051 44.7196L203.051 31.8348L191.051 26.8347L190.2 14.8347L179.551 14.8347L174 0.000183103Z" fill="url(#paint3_linear_133_1291)"/>
<ellipse cx="146.059" cy="182.565" rx="6" ry="4.2" transform="rotate(19.5246 146.059 182.565)" fill="#4D322E"/>
<ellipse cx="131.364" cy="191.22" rx="4.8" ry="3.9" transform="rotate(-9.23306 131.364 191.22)" fill="#4D322E"/>
<ellipse cx="96.3636" cy="185.12" rx="4.8" ry="3.9" transform="rotate(-9.23306 96.3636 185.12)" fill="#4D322E"/>
<ellipse cx="104.976" cy="166.619" rx="4.8" ry="3.9" transform="rotate(2.65966 104.976 166.619)" fill="#4D322E"/>
<path d="M85.3357 172.645C86.8259 173.994 86.458 176.829 84.5139 178.977C82.5697 181.124 79.4067 182.233 77.9165 180.884C77.8733 178.82 78.6566 176.188 79.1172 174.091C81.0613 171.943 83.8454 171.296 85.3357 172.645Z" fill="#4D322E"/>
<ellipse cx="84.3636" cy="194.22" rx="4.8" ry="3.9" transform="rotate(-9.23306 84.3636 194.22)" fill="#4D322E"/>
<ellipse cx="191.364" cy="184.22" rx="4.8" ry="3.9" transform="rotate(-9.23306 191.364 184.22)" fill="#4D322E"/>
<ellipse cx="123.8" cy="174.501" rx="4.8" ry="3" fill="#4D322E"/>
<ellipse cx="173.342" cy="174.583" rx="4.8" ry="3" transform="rotate(-12.7109 173.342 174.583)" fill="#4D322E"/>
<ellipse cx="163.643" cy="184.48" rx="4.8" ry="3" transform="rotate(27.5305 163.643 184.48)" fill="#4D322E"/>
<path d="M209.85 191.866C208.848 193.185 207.754 191.694 205.854 189.712C203.954 187.731 203.375 185.516 204.377 184.197C205.38 182.878 207.304 182.168 209.415 183.772C210.06 186.461 209.755 189.439 209.85 191.866Z" fill="#4D322E"/>
<path d="M110.11 189.079C110.921 186.683 112.783 185.798 116.096 185.733C119.41 185.669 122.97 188.89 123.015 191.209C123.06 193.528 119.976 190.933 115.525 190.141C111.073 189.35 109.806 189.978 110.11 189.079Z" fill="#4D322E"/>
<path d="M156.857 196.288C156.752 198.605 155.759 197.59 152.364 197.138C147.709 196.249 146.124 197.975 146.069 195.796C146.174 193.479 148.675 191.711 151.654 191.847C154.633 191.982 156.963 193.971 156.857 196.288Z" fill="#4D322E"/>
<ellipse cx="163.643" cy="157.38" rx="4.8" ry="3" transform="rotate(27.5305 163.643 157.38)" fill="#4D322E"/>
<ellipse cx="186.527" cy="169.322" rx="5.4" ry="4.2" transform="rotate(20.4425 186.527 169.322)" fill="#4D322E"/>
<ellipse cx="129.868" cy="151.611" rx="4.8" ry="3" transform="rotate(1.32499 129.868 151.611)" fill="#4D322E"/>
<ellipse cx="145.059" cy="163.464" rx="6" ry="4.2" transform="rotate(19.5246 145.059 163.464)" fill="#4D322E"/>
<path d="M57.3247 118.501C57.3247 118.501 73.8683 141.66 82.1521 162.886C85.8154 172.272 88.0817 192.616 67.2538 183.949C46.4258 175.282 17.9999 174.099 17.9999 174.099L31.5006 167.48L31.1659 155.485L43.6272 150.335L42.946 138.83L54.0214 135.639L57.3247 118.501Z" fill="url(#paint4_linear_133_1291)"/>
<defs>
<linearGradient id="paint0_linear_133_1291" x1="209.403" y1="169.805" x2="246.876" y2="143.3" gradientUnits="userSpaceOnUse">
<stop stop-color="#DDA682"/>
<stop offset="1" stop-color="#B5BA29"/>
</linearGradient>
<linearGradient id="paint1_linear_133_1291" x1="147.13" y1="48.6309" x2="147.443" y2="2.73202" gradientUnits="userSpaceOnUse">
<stop stop-color="#DDA682"/>
<stop offset="1" stop-color="#B5BA29"/>
</linearGradient>
<linearGradient id="paint2_linear_133_1291" x1="136.86" y1="55.3045" x2="99.3858" y2="28.7993" gradientUnits="userSpaceOnUse">
<stop stop-color="#DDA682"/>
<stop offset="1" stop-color="#B5BA29"/>
</linearGradient>
<linearGradient id="paint3_linear_133_1291" x1="158.691" y1="54.639" x2="196.165" y2="28.1338" gradientUnits="userSpaceOnUse">
<stop stop-color="#DDA682"/>
<stop offset="1" stop-color="#B5BA29"/>
</linearGradient>
<linearGradient id="paint4_linear_133_1291" x1="75.136" y1="172.805" x2="37.6623" y2="146.3" gradientUnits="userSpaceOnUse">
<stop stop-color="#DDA682"/>
<stop offset="1" stop-color="#B5BA29"/>
</linearGradient>
</defs>
</svg>
