<svg width="555" height="548" viewBox="0 0 555 548" fill="none" xmlns="http://www.w3.org/2000/svg">
<path d="M127.828 110.417C171.892 83.3498 259.261 175.864 263.326 185.536C267.391 195.209 267.821 197.189 271.326 206.917C274.094 214.602 275.674 220.337 277.326 215.917C278.821 211.917 292.559 174.814 296.328 157.417C300.828 136.646 309.985 109.417 306.826 95.917C303.666 82.417 286.326 75.417 268.326 75.417C254.719 75.417 240.826 85.1789 239.826 98.917C239.074 109.239 241.722 117.976 244.326 122.417C252.826 136.917 261.826 113.417 274.826 107.417C289.182 100.791 271.826 158.917 239.826 139.917C211.929 123.353 211.768 60.0212 260.828 53.417C286.828 49.917 318.826 49.917 330.326 85.417C337.36 107.133 324.826 168.536 320.326 185.536C315.826 202.536 307.973 223.011 311.326 230.417C314.826 238.147 325.288 218.645 328.83 185.536C332.83 148.147 347.407 78.942 364.831 63.645C385.33 45.6475 442.355 71.2354 459.198 97.6551C490.751 147.146 398.959 234.148 397.198 214.645C395.302 193.651 437.831 148.146 437.831 133.646C437.831 120.646 439.333 103.65 426.331 94.1455C412.144 83.7748 393.672 80.7102 381.831 104.645C360.803 147.147 353.548 222.647 349.83 238.147C346.113 253.647 340.83 256.147 356.83 256.147C383.33 256.147 410.33 267.147 430.33 280.647C450.33 294.147 498.33 323.147 518.33 308.647C527.382 302.085 524.83 286.647 517.33 273.647C502.284 247.567 470.216 243.546 445.83 234.147C421.444 224.748 447.33 218.645 480.83 226.645C528.691 238.074 537.83 254.964 546.33 272.147C554.83 289.331 552.826 314.147 543.826 325.917C534.826 337.687 514.021 345.209 499.33 342.147C476.83 337.458 456.084 328.437 445.83 321.147C436.83 314.748 423.83 309.147 393.33 298.647C374.484 292.159 343.897 286.408 336.828 292.147C329.76 297.886 344.341 295.342 360.803 319.147C370.83 333.647 382.935 370.071 399.828 396.138C408.585 409.649 416.413 418.36 431.828 414.638C454.828 409.085 488.838 351.726 422.828 351.726C356.818 351.726 447.255 326.654 470.328 347.037C508.328 380.605 473.828 438.695 454.828 445.537C435.828 452.378 426.328 452.378 396.828 442.638C376.317 435.865 352.973 383.817 345.242 363.647C337.51 343.478 327.105 316.403 310.828 319.147C300.328 320.918 296.328 322.918 296.328 340.418C296.328 357.918 293.828 373.929 305.328 385.418C319.994 400.07 345.782 413.781 366.328 424.918C394.587 440.235 402.521 470.318 332.328 472.918C302.16 474.035 351.828 501.918 340.328 503.918C328.828 505.918 285.537 475.094 297.828 463.418C307.828 453.918 366.873 450.001 351.328 442.638C333.828 434.348 312.328 425.177 301.828 420.918C286.347 414.638 270.632 394.49 264.328 376.418C256.828 354.918 259.826 338.917 259.826 334.917C259.826 330.917 252.323 331.916 249.826 334.917C247.328 337.918 245.488 339.226 244.326 351.726C242.326 373.226 242.326 385.697 245.326 396.917C248.326 408.137 251.328 414.638 260.828 432.918C270.328 451.198 273.72 467.418 276.328 481.418C278.937 495.418 262.328 513.918 241.328 523.418C220.328 532.918 136.828 514.138 136.828 506.638C136.828 499.138 195.419 508.418 207.828 508.418C221.83 508.418 235.998 506.015 243.828 492.638C250.431 481.358 236.828 455.418 229.828 443.918C222.828 432.418 217.328 421.638 212.328 409.918C207.328 398.198 205.328 382.501 205.328 376.418C205.328 365.918 210.096 346.15 208.328 347.918C203.828 352.418 188.828 357.918 180.328 357.918C162.279 357.918 137.328 367.418 127.828 377.418C118.328 387.418 117.493 392.418 121.328 405.418C128.328 429.149 155.965 465.918 187.219 432.918C197.741 421.809 182.443 377.458 170.828 387.418C162.703 394.384 177.828 415.918 170.828 420.918C163.828 425.918 145.684 407.737 146.328 396.138C147.329 378.104 155.477 358.637 183.328 370.918C211.179 383.198 223.691 438.341 194.328 459.418C154.177 488.238 112.828 454.918 93.8279 410.418C83.3874 385.965 96.3279 361.535 108.828 351.726C121.328 341.918 148.328 335.037 170.828 331.418C180.811 329.812 177.83 324.536 171.719 324.536C142.623 324.536 127.983 334.109 106.219 335.037C73.8258 336.418 66.1116 338.578 37.2187 321.035C8.3257 303.492 -15.673 209.037 23.7201 173.437C37.8279 156.918 50.6723 156.079 67.3257 173.437C78.9333 185.536 79.9333 214.798 72.3257 208.917C62.0656 200.986 56.8727 171.218 41.8257 185.536C20.933 205.417 27.8289 274.494 52.8268 289.331C80.1967 305.575 133.237 299.175 154.715 289.331C171.719 281.537 179.962 278.39 187.219 258.037C177.219 235.084 154.126 248.573 121.328 241.417C93.8279 235.417 57.8257 153.417 127.828 110.417Z" fill="#AA7F82"/>
<g filter="url(#filter0_n_30_14522)">
<path d="M193.826 242.918C193.826 255.068 150.326 244.418 128.983 242.918C108.824 242.918 96.8258 221.418 91.8257 208.918C88.6748 197.418 73.8257 166.435 128.983 187.418C151.326 195.918 193.826 230.768 193.826 242.918Z" fill="#93BFFA" fill-opacity="0.58"/>
</g>
<g filter="url(#filter1_n_30_14522)">
<path d="M191.326 308.917C212.326 299.917 214.326 297.417 205.326 312.917C191.326 327.917 197.326 333.917 161.591 332.981C185.826 330.419 179.826 322.419 159.591 324.981C166.826 318.917 167.326 317.417 191.326 308.917Z" fill="#93BFFA" fill-opacity="0.58"/>
</g>
<g filter="url(#filter2_n_30_14522)">
<path d="M217.769 327.384C229.326 308.917 229.351 303.876 230.826 325.417C230.826 336.917 225.326 343.917 207.826 355.209C210.326 340.917 209.326 350.917 193.826 355.209C201.326 347.917 204.92 347.917 217.769 327.384Z" fill="#93BFFA" fill-opacity="0.58"/>
</g>
<g filter="url(#filter3_n_30_14522)">
<path d="M259.326 316.916C257.826 304.917 248.326 312.417 244.826 322.417C242.132 330.115 242.733 333.168 243.674 337.954C244.071 339.973 244.529 342.301 244.826 345.417C247.826 331.417 261.326 324.917 259.326 344.917C261.634 332.224 260.982 328.112 260.104 322.564C259.84 320.901 259.556 319.108 259.326 316.916Z" fill="#93BFFA" fill-opacity="0.58"/>
</g>
<g filter="url(#filter4_n_30_14522)">
<path d="M303.826 298.417C295.826 286.416 294.826 293.917 297.826 310.417C297.826 314.417 297.826 315.917 297.826 319.918C297.326 323.418 297.03 325.802 297.326 328.918C299.245 319.418 313.326 316.418 321.826 321.918C321.326 314.417 319.992 313.417 313.326 308.417C309.326 305.417 306.825 302.916 303.826 298.417Z" fill="#93BFFA" fill-opacity="0.58"/>
</g>
<g filter="url(#filter5_n_30_14522)">
<path d="M320.326 278.917C311.826 277.809 312.826 278.917 318.826 283.917C326.326 289.418 325.826 289.417 333.326 295.417C340.45 301.117 351.712 306.916 342.826 300.916C333.94 294.916 330.826 293.916 342.712 289.998C337.091 285.006 335.826 282.917 330.826 281.417C325.826 279.917 325.688 279.616 320.326 278.917Z" fill="#93BFFA" fill-opacity="0.58"/>
</g>
<path d="M221.826 234.359C221.826 247.338 214.438 257.859 205.326 257.859C196.213 257.859 188.826 247.338 188.826 234.359C188.826 221.381 196.213 216.417 205.326 216.417C214.438 216.417 221.826 221.381 221.826 234.359Z" fill="#9A5B5D"/>
<path d="M266.826 206.917C266.826 219.896 259.438 230.417 250.326 230.417C241.213 230.417 233.826 219.896 233.826 206.917C233.826 193.938 241.213 191.417 250.326 191.417C259.438 191.417 266.826 193.938 266.826 206.917Z" fill="#9A5B5D"/>
<circle cx="206.826" cy="237.417" r="15" fill="#FFFEFE"/>
<circle cx="208.826" cy="237.417" r="11" fill="#242222"/>
<circle cx="251.826" cy="211.417" r="15" fill="#FFFEFE"/>
<circle cx="250.826" cy="213.417" r="11" fill="#242222"/>
<g filter="url(#filter6_i_30_14522)">
<circle cx="206.826" cy="237.417" r="29" fill="#4C7DB1" fill-opacity="0.25"/>
</g>
<circle cx="206.826" cy="237.417" r="27.5" stroke="black" stroke-width="3"/>
<path d="M163.789 252.117L164.205 253.558L164.217 253.555L164.229 253.551L163.789 252.117ZM161.702 262.415C162.53 262.455 163.233 261.817 163.272 260.989C163.312 260.162 162.674 259.459 161.846 259.419L161.774 260.917L161.702 262.415ZM181.826 248.917V247.417C175.154 247.417 168.931 248.969 163.349 250.683L163.789 252.117L164.229 253.551C169.72 251.865 175.603 250.417 181.826 250.417V248.917ZM163.789 252.117L163.373 250.676C161.286 251.278 159.228 252.117 157.519 253.059C155.866 253.97 154.338 255.087 153.543 256.332C153.131 256.978 152.819 257.815 152.994 258.738C153.173 259.682 153.798 260.378 154.551 260.859C155.967 261.764 158.355 262.254 161.702 262.415L161.774 260.917L161.846 259.419C158.545 259.26 156.864 258.777 156.167 258.331C155.863 258.138 155.919 258.063 155.941 258.178C155.959 258.271 155.899 258.217 156.072 257.947C156.447 257.359 157.419 256.54 158.968 255.686C160.461 254.862 162.309 254.106 164.205 253.558L163.789 252.117Z" fill="black"/>
<g filter="url(#filter7_i_30_14522)">
<circle cx="253.826" cy="208.417" r="29" fill="#4C7DB1" fill-opacity="0.25"/>
</g>
<circle cx="253.826" cy="208.417" r="27.5" stroke="black" stroke-width="3"/>
<path d="M270.836 241.335C272.547 248.875 265.188 260.031 258.342 263.093C249.033 267.257 232.499 268.959 231.393 264.083C230.286 259.207 236.745 258.462 252.065 249.159C262.43 242.177 269.95 237.434 270.836 241.335Z" fill="#5E1835"/>
<path d="M271.022 246.785C268.689 255.289 264.286 260.305 259.832 262.643C252.407 266.54 239.93 267.809 235.905 266.615C231.88 265.422 247.304 261.389 254.724 257.243C259.67 254.478 272.523 241.318 271.022 246.785Z" fill="#AA225A"/>
<path d="M72.4378 321.07C75.1713 321.676 77.5221 322.173 79.0783 323.084C79.8394 323.529 80.369 324.053 80.6612 324.701C80.9529 325.349 81.0357 326.184 80.7871 327.305C79.7978 331.766 74.8779 334.572 69.6986 333.424C64.5191 332.275 61.2458 327.652 62.2348 323.191C62.4834 322.07 62.9113 321.348 63.4494 320.885C63.9884 320.42 64.6897 320.17 65.5676 320.088C67.3629 319.921 69.7042 320.464 72.4378 321.07Z" fill="#95A3BF" stroke="#795764"/>
<path d="M73.8257 327.917C73.8257 328.745 71.1541 328.917 70.3257 328.917C69.4973 328.917 67.3257 327.745 67.3257 326.917C67.8257 325.917 69.9973 326.417 70.8257 326.417C71.6541 326.417 73.8257 327.088 73.8257 327.917Z" fill="#795764"/>
<path d="M96.6409 323.988C99.428 323.721 101.817 323.468 103.579 323.853C104.44 324.042 105.105 324.376 105.584 324.903C106.061 325.429 106.397 326.198 106.507 327.341C106.943 331.889 103.13 336.077 97.8487 336.583C92.5677 337.09 88.0272 333.703 87.5908 329.155C87.4812 328.011 87.6655 327.193 88.0342 326.586C88.4036 325.978 88.9933 325.523 89.803 325.174C91.459 324.461 93.8537 324.255 96.6409 323.988Z" fill="#95A3BF" stroke="#795764"/>
<path d="M100.074 330.072C100.33 330.86 97.8421 331.848 97.0541 332.104C96.2661 332.359 93.8389 331.915 93.5832 331.127C93.7501 330.022 95.97 329.827 96.758 329.571C97.5459 329.316 99.8187 329.284 100.074 330.072Z" fill="#795764"/>
<path d="M48.5987 310.153C50.8198 311.858 52.7402 313.302 53.7657 314.785C54.2671 315.51 54.5259 316.208 54.5166 316.92C54.5072 317.63 54.2293 318.421 53.5301 319.332C50.7481 322.957 45.1031 323.42 40.8946 320.191C36.686 316.96 35.6738 311.387 38.4555 307.762C39.1547 306.851 39.8476 306.378 40.5312 306.185C41.216 305.992 41.9574 306.062 42.7876 306.359C44.4855 306.966 46.3775 308.448 48.5987 310.153Z" fill="#95A3BF" stroke="#795764"/>
<path d="M46.9626 316.944C46.6124 317.695 44.1186 316.721 43.3678 316.371C42.6171 316.021 41.1443 314.041 41.4945 313.29C42.3703 312.596 44.1269 313.967 44.8777 314.317C45.6285 314.667 47.3127 316.193 46.9626 316.944Z" fill="#795764"/>
<path d="M30.3863 295.226C31.6054 296.936 32.6658 298.393 33.0759 299.682C33.2765 300.312 33.3095 300.869 33.1467 301.377C32.9842 301.885 32.6113 302.391 31.91 302.891C29.1196 304.88 24.9687 303.975 22.6588 300.735C20.3491 297.495 20.8464 293.276 23.6367 291.286C24.3379 290.786 24.9384 290.599 25.4709 290.611C26.0044 290.622 26.5206 290.835 27.0509 291.23C28.1354 292.038 29.1673 293.516 30.3863 295.226Z" fill="#95A3BF" stroke="#795764" stroke-width="0.75"/>
<path d="M27.7232 299.739C27.3074 300.201 25.7324 298.955 25.2707 298.54C24.8091 298.124 24.1872 296.381 24.603 295.919C25.3835 295.613 26.3426 296.981 26.8043 297.397C27.2659 297.813 28.139 299.277 27.7232 299.739Z" fill="#795764"/>
<path d="M19.144 282.874C19.5394 283.847 19.887 284.678 19.9376 285.352C19.9623 285.682 19.9135 285.957 19.7756 286.186C19.6379 286.413 19.3979 286.616 18.9993 286.778C17.4122 287.424 15.4977 286.504 14.7483 284.661C13.999 282.818 14.7283 280.822 16.3156 280.177C16.7145 280.015 17.0281 279.994 17.2857 280.061C17.5439 280.129 17.7708 280.291 17.9832 280.545C18.4173 281.063 18.7486 281.901 19.144 282.874Z" fill="#95A3BF" stroke="#795764" stroke-width="0.375"/>
<path d="M17.3269 284.761C17.0713 284.938 16.449 284.15 16.2725 283.894C16.0959 283.639 15.9948 282.719 16.2504 282.542C16.6655 282.484 16.9739 283.26 17.1505 283.516C17.327 283.771 17.5825 284.585 17.3269 284.761Z" fill="#795764"/>
<path d="M14.714 271.206C14.8437 272.248 14.9638 273.141 14.8379 273.805C14.7763 274.13 14.6577 274.383 14.4654 274.568C14.2733 274.753 13.989 274.886 13.562 274.94C11.8618 275.151 10.2512 273.767 10.0052 271.792C9.75937 269.818 10.9811 268.08 12.6814 267.868C13.1087 267.815 13.417 267.876 13.6485 268.008C13.8803 268.14 14.0572 268.356 14.1966 268.656C14.4815 269.269 14.5842 270.164 14.714 271.206Z" fill="#95A3BF" stroke="#795764" stroke-width="0.375"/>
<path d="M12.4697 272.558C12.1771 272.662 11.7803 271.74 11.6761 271.447C11.5719 271.154 11.7126 270.24 12.0053 270.135C12.4214 270.186 12.5179 271.016 12.6222 271.309C12.7264 271.602 12.7624 272.453 12.4697 272.558Z" fill="#795764"/>
<path d="M343.269 210.017C342.709 212.76 342.206 215.11 342.404 216.902C342.501 217.778 342.763 218.475 343.237 219.006C343.71 219.536 344.438 219.952 345.564 220.181C350.041 221.094 354.607 217.743 355.667 212.545C356.727 207.346 353.837 202.474 349.36 201.561C348.234 201.332 347.401 201.429 346.759 201.732C346.115 202.035 345.601 202.574 345.168 203.342C344.285 204.914 343.828 207.273 343.269 210.017Z" fill="#95A3BF" stroke="#795764"/>
<path d="M348.957 214.072C349.713 214.409 350.958 212.039 351.295 211.282C351.633 210.526 351.446 208.065 350.69 207.728C349.573 207.778 349.146 209.965 348.808 210.721C348.471 211.478 348.2 213.735 348.957 214.072Z" fill="#795764"/>
<path d="M336.379 233.593C335.011 236.036 333.816 238.121 333.459 239.888C333.285 240.752 333.323 241.496 333.612 242.146C333.901 242.795 334.468 243.412 335.47 243.974C339.457 246.206 344.827 244.404 347.419 239.776C350.011 235.147 348.742 229.626 344.756 227.394C343.754 226.832 342.931 226.671 342.226 226.764C341.521 226.857 340.867 227.213 340.221 227.814C338.901 229.041 337.747 231.15 336.379 233.593Z" fill="#95A3BF" stroke="#795764"/>
<path d="M340.563 239.187C341.181 239.739 343.088 237.861 343.64 237.242C344.191 236.624 344.763 234.224 344.145 233.672C343.066 233.38 341.993 235.333 341.442 235.951C340.89 236.569 339.945 238.636 340.563 239.187Z" fill="#795764"/>
<path d="M348.496 185.216C348.196 187.999 347.916 190.386 348.281 192.151C348.46 193.015 348.786 193.684 349.307 194.168C349.828 194.652 350.592 194.997 351.734 195.12C356.277 195.608 360.509 191.844 361.076 186.569C361.644 181.294 358.31 176.715 353.767 176.226C352.625 176.103 351.805 176.278 351.193 176.639C350.581 177.002 350.12 177.586 349.761 178.392C349.029 180.039 348.795 182.432 348.496 185.216Z" fill="#95A3BF" stroke="#795764"/>
<path d="M354.539 188.719C355.324 188.984 356.341 186.508 356.606 185.723C356.871 184.938 356.455 182.506 355.67 182.241C354.562 182.395 354.342 184.612 354.077 185.397C353.812 186.182 353.754 188.455 354.539 188.719Z" fill="#795764"/>
<path d="M355.111 166.009C354.875 168.096 354.656 169.885 354.923 171.211C355.054 171.859 355.296 172.362 355.685 172.727C356.073 173.092 356.645 173.354 357.501 173.45C360.906 173.834 364.095 171.027 364.541 167.073C364.987 163.119 362.503 159.672 359.098 159.288C358.242 159.191 357.626 159.319 357.167 159.588C356.706 159.857 356.358 160.294 356.086 160.897C355.531 162.13 355.346 163.923 355.111 166.009Z" fill="#95A3BF" stroke="#795764" stroke-width="0.75"/>
<path d="M359.63 168.661C360.218 168.863 360.99 167.01 361.192 166.422C361.393 165.834 361.091 164.008 360.503 163.807C359.672 163.918 359.498 165.58 359.296 166.168C359.095 166.756 359.043 168.46 359.63 168.661Z" fill="#795764"/>
<path d="M358.111 148.009C357.875 150.096 357.656 151.885 357.923 153.211C358.054 153.859 358.296 154.362 358.685 154.727C359.073 155.092 359.645 155.354 360.501 155.45C363.906 155.834 367.095 153.027 367.541 149.073C367.987 145.119 365.503 141.672 362.098 141.288C361.242 141.191 360.626 141.319 360.167 141.588C359.706 141.857 359.358 142.294 359.086 142.897C358.531 144.13 358.346 145.923 358.111 148.009Z" fill="#95A3BF" stroke="#795764" stroke-width="0.75"/>
<path d="M362.63 150.661C363.218 150.863 363.99 149.01 364.192 148.422C364.393 147.834 364.091 146.008 363.503 145.807C362.672 145.918 362.498 147.58 362.296 148.168C362.095 148.756 362.043 150.46 362.63 150.661Z" fill="#795764"/>
<g filter="url(#filter8_n_30_14522)">
<path d="M323.947 257.318C315.493 258.734 316.326 259.917 323.826 260.417C334.326 259.917 337.424 261.382 346.826 259.416C355.757 257.549 366.326 256.917 357.826 256.417C349.326 255.917 342.826 257.916 347.326 246.416C349.478 240.916 339.665 249.515 335.326 252.416C330.986 255.318 329.326 256.417 323.947 257.318Z" fill="#93BFFA" fill-opacity="0.58"/>
</g>
<g filter="url(#filter9_n_30_14522)">
<path d="M304.326 239.917C299.661 243.415 303.826 242.417 309.826 240.417C313.326 238.917 313.826 239.417 316.826 235.417C320.326 230.75 324.536 215.417 320.325 223.417C316.115 231.418 310.825 237.418 310.325 223.918C311.825 218.918 308.86 229.781 308.326 231.917C307.791 234.053 308.326 236.917 304.326 239.917Z" fill="#93BFFA" fill-opacity="0.58"/>
</g>
<path d="M405.7 197.156C405.133 198.193 404.655 199.087 404.103 199.61C403.833 199.866 403.559 200.019 403.262 200.061C402.965 200.103 402.617 200.038 402.192 199.805C400.501 198.88 399.943 196.557 401.017 194.594C402.092 192.631 404.349 191.848 406.04 192.773C406.465 193.006 406.708 193.265 406.832 193.537C406.957 193.81 406.976 194.124 406.906 194.489C406.762 195.236 406.267 196.12 405.7 197.156Z" fill="#95A3BF" stroke="#795764" stroke-width="0.421875"/>
<path d="M402.763 196.914C402.427 196.817 402.672 195.714 402.769 195.378C402.866 195.043 403.597 194.301 403.932 194.398C404.278 194.718 403.82 195.539 403.723 195.875C403.626 196.211 403.098 197.011 402.763 196.914Z" fill="#795764"/>
<path d="M414.268 185.133C413.283 186.362 412.448 187.425 411.602 187.984C411.188 188.257 410.793 188.394 410.393 188.381C409.993 188.367 409.551 188.201 409.047 187.797C407.042 186.189 406.849 183.009 408.716 180.681C410.583 178.353 413.729 177.85 415.734 179.458C416.238 179.862 416.497 180.257 416.597 180.644C416.697 181.031 416.648 181.448 416.471 181.912C416.11 182.859 415.254 183.905 414.268 185.133Z" fill="#95A3BF" stroke="#795764" stroke-width="0.5625"/>
<path d="M410.468 184.132C410.05 183.926 410.628 182.536 410.833 182.118C411.039 181.7 412.17 180.895 412.588 181.101C412.969 181.602 412.177 182.573 411.971 182.991C411.765 183.409 410.886 184.338 410.468 184.132Z" fill="#795764"/>
<path d="M438.194 153.876C436.88 155.514 435.767 156.931 434.638 157.676C434.086 158.04 433.559 158.224 433.026 158.205C432.493 158.187 431.905 157.966 431.233 157.427C428.559 155.283 428.301 151.043 430.79 147.938C433.28 144.834 437.475 144.165 440.149 146.309C440.821 146.847 441.164 147.374 441.298 147.89C441.432 148.406 441.367 148.961 441.131 149.579C440.649 150.842 439.508 152.237 438.194 153.876Z" fill="#95A3BF" stroke="#795764" stroke-width="0.75"/>
<path d="M433.127 152.541C432.57 152.266 433.339 150.412 433.614 149.854C433.888 149.297 435.397 148.224 435.954 148.499C436.461 149.166 435.405 150.462 435.13 151.019C434.856 151.577 433.684 152.815 433.127 152.541Z" fill="#795764"/>
<path d="M426.194 169.876C424.88 171.514 423.767 172.931 422.638 173.676C422.086 174.04 421.559 174.224 421.026 174.205C420.493 174.187 419.905 173.966 419.233 173.427C416.559 171.283 416.301 167.043 418.79 163.938C421.28 160.834 425.475 160.165 428.149 162.309C428.821 162.847 429.164 163.374 429.298 163.89C429.432 164.406 429.367 164.961 429.131 165.579C428.649 166.842 427.508 168.237 426.194 169.876Z" fill="#95A3BF" stroke="#795764" stroke-width="0.75"/>
<path d="M421.127 168.541C420.57 168.266 421.339 166.412 421.614 165.854C421.888 165.297 423.397 164.224 423.954 164.499C424.461 165.166 423.405 166.462 423.13 167.019C422.856 167.577 421.684 168.815 421.127 168.541Z" fill="#795764"/>
<path d="M302.181 211.864C301.181 213.711 300.307 215.287 300.058 216.616C299.936 217.266 299.972 217.823 300.195 218.308C300.419 218.791 300.851 219.248 301.608 219.659C304.621 221.291 308.63 219.884 310.526 216.385C312.421 212.887 311.411 208.76 308.398 207.128C307.64 206.717 307.021 206.605 306.494 206.682C305.966 206.759 305.48 207.034 305.002 207.49C304.025 208.425 303.182 210.018 302.181 211.864Z" fill="#95A3BF" stroke="#795764" stroke-width="0.75"/>
<path d="M305.377 216.017C305.847 216.424 307.257 214.995 307.664 214.526C308.072 214.057 308.475 212.251 308.006 211.844C307.194 211.635 306.41 213.111 306.002 213.58C305.595 214.05 304.908 215.61 305.377 216.017Z" fill="#795764"/>
<path d="M308.19 194.636C307.581 196.646 307.042 198.365 307.065 199.717C307.076 200.379 307.223 200.917 307.54 201.347C307.856 201.776 308.371 202.136 309.195 202.386C312.475 203.38 316.119 201.196 317.273 197.388C318.426 193.58 316.607 189.74 313.327 188.746C312.503 188.497 311.874 188.511 311.374 188.692C310.872 188.874 310.451 189.241 310.074 189.784C309.305 190.896 308.799 192.626 308.19 194.636Z" fill="#95A3BF" stroke="#795764" stroke-width="0.75"/>
<path d="M312.155 198.062C312.697 198.366 313.792 196.683 314.096 196.142C314.401 195.6 314.433 193.75 313.892 193.445C313.054 193.404 312.583 195.008 312.278 195.549C311.973 196.091 311.614 197.757 312.155 198.062Z" fill="#795764"/>
<path d="M315.748 180.874C315.352 181.846 315.005 182.678 314.954 183.352C314.929 183.681 314.978 183.957 315.116 184.185C315.254 184.413 315.494 184.616 315.892 184.778C317.479 185.423 319.394 184.503 320.143 182.661C320.893 180.818 320.163 178.822 318.576 178.177C318.177 178.015 317.864 177.993 317.606 178.061C317.348 178.128 317.121 178.291 316.908 178.545C316.474 179.063 316.143 179.901 315.748 180.874Z" fill="#95A3BF" stroke="#795764" stroke-width="0.375"/>
<path d="M317.565 182.761C317.82 182.937 318.443 182.149 318.619 181.894C318.796 181.638 318.897 180.718 318.641 180.542C318.226 180.483 317.918 181.26 317.741 181.515C317.565 181.771 317.309 182.584 317.565 182.761Z" fill="#795764"/>
<path d="M319.005 171.206C318.875 172.247 318.755 173.141 318.881 173.805C318.942 174.13 319.061 174.383 319.253 174.568C319.445 174.752 319.73 174.886 320.157 174.939C321.857 175.151 323.467 173.766 323.713 171.792C323.959 169.818 322.737 168.079 321.037 167.868C320.61 167.815 320.302 167.875 320.07 168.007C319.838 168.139 319.661 168.355 319.522 168.655C319.237 169.268 319.134 170.164 319.005 171.206Z" fill="#95A3BF" stroke="#795764" stroke-width="0.375"/>
<path d="M321.249 172.557C321.541 172.661 321.938 171.739 322.042 171.446C322.147 171.154 322.006 170.239 321.713 170.135C321.297 170.186 321.201 171.016 321.096 171.309C320.992 171.601 320.956 172.453 321.249 172.557Z" fill="#795764"/>
<path d="M377.767 285.551C375.085 284.746 372.791 284.032 370.988 284.067C370.107 284.085 369.389 284.283 368.817 284.706C368.247 285.129 367.767 285.817 367.437 286.917C366.123 291.293 369.047 296.144 374.128 297.67C379.209 299.196 384.322 296.759 385.637 292.383C385.967 291.283 385.946 290.444 385.702 289.777C385.459 289.109 384.969 288.548 384.242 288.048C382.757 287.025 380.449 286.357 377.767 285.551Z" fill="#95A3BF" stroke="#795764"/>
<path d="M373.214 290.849C372.809 291.572 375.057 293.026 375.78 293.431C376.503 293.835 378.97 293.872 379.375 293.149C379.426 292.033 377.287 291.409 376.564 291.005C375.841 290.6 373.618 290.126 373.214 290.849Z" fill="#795764"/>
<path d="M352.442 281.682C349.647 281.513 347.25 281.345 345.504 281.793C344.65 282.012 343.997 282.369 343.537 282.913C343.079 283.455 342.77 284.235 342.701 285.381C342.426 289.942 346.385 293.993 351.681 294.312C356.976 294.631 361.394 291.085 361.669 286.525C361.738 285.378 361.525 284.567 361.135 283.973C360.745 283.379 360.139 282.945 359.318 282.625C357.637 281.971 355.237 281.85 352.442 281.682Z" fill="#95A3BF" stroke="#795764"/>
<path d="M349.226 287.883C348.998 288.679 351.52 289.579 352.316 289.806C353.113 290.034 355.523 289.504 355.75 288.708C355.544 287.609 353.319 287.493 352.523 287.265C351.726 287.038 349.454 287.086 349.226 287.883Z" fill="#795764"/>
<path d="M352.442 281.682C349.647 281.513 347.25 281.345 345.504 281.793C344.649 282.012 343.996 282.369 343.537 282.913C343.079 283.455 342.77 284.235 342.701 285.382C342.426 289.942 346.385 293.993 351.681 294.312C356.976 294.631 361.394 291.086 361.669 286.525C361.738 285.379 361.525 284.567 361.135 283.974C360.744 283.379 360.139 282.946 359.317 282.625C357.637 281.971 355.237 281.85 352.442 281.682Z" fill="#95A3BF" stroke="#795764"/>
<path d="M349.226 287.883C348.998 288.68 351.52 289.579 352.316 289.807C353.113 290.035 355.523 289.505 355.75 288.708C355.544 287.609 353.319 287.493 352.522 287.266C351.726 287.038 349.453 287.087 349.226 287.883Z" fill="#795764"/>
<path d="M401.982 293.737C399.486 292.469 397.355 291.359 395.574 291.074C394.704 290.935 393.962 291.002 393.324 291.318C392.688 291.633 392.094 292.225 391.574 293.249C389.504 297.322 391.522 302.615 396.252 305.018C400.982 307.421 406.446 305.929 408.516 301.855C409.036 300.832 409.164 300.002 409.043 299.302C408.921 298.601 408.539 297.963 407.913 297.342C406.632 296.072 404.479 295.005 401.982 293.737Z" fill="#95A3BF" stroke="#795764"/>
<path d="M396.562 298.143C396.035 298.783 397.99 300.612 398.63 301.139C399.27 301.665 401.691 302.139 402.217 301.499C402.466 300.409 400.471 299.416 399.831 298.89C399.192 298.364 397.088 297.503 396.562 298.143Z" fill="#795764"/>
<path d="M421.969 303.99C420.178 302.894 418.65 301.938 417.336 301.619C416.693 301.463 416.135 301.47 415.639 301.668C415.144 301.865 414.665 302.273 414.216 303.007C412.427 305.93 413.621 310.008 417.015 312.085C420.409 314.162 424.583 313.37 426.372 310.447C426.821 309.712 426.966 309.1 426.917 308.57C426.868 308.038 426.619 307.538 426.188 307.037C425.306 306.012 423.76 305.086 421.969 303.99Z" fill="#95A3BF" stroke="#795764" stroke-width="0.75"/>
<path d="M417.654 306.963C417.222 307.41 418.575 308.894 419.022 309.325C419.47 309.756 421.252 310.255 421.683 309.807C421.934 309.007 420.501 308.147 420.054 307.715C419.607 307.284 418.085 306.516 417.654 306.963Z" fill="#795764"/>
<path d="M437.539 311.49C435.633 310.608 434.005 309.835 432.663 309.67C432.007 309.589 431.453 309.66 430.984 309.914C430.515 310.167 430.086 310.627 429.724 311.409C428.285 314.519 429.942 318.431 433.553 320.102C437.164 321.773 441.219 320.505 442.658 317.395C443.02 316.613 443.093 315.989 442.983 315.467C442.873 314.945 442.568 314.477 442.082 314.029C441.088 313.113 439.445 312.372 437.539 311.49Z" fill="#95A3BF" stroke="#795764" stroke-width="0.75"/>
<path d="M433.596 314.941C433.219 315.435 434.734 316.753 435.228 317.129C435.722 317.506 437.55 317.795 437.927 317.301C438.084 316.478 436.561 315.788 436.067 315.411C435.573 315.034 433.973 314.447 433.596 314.941Z" fill="#795764"/>
<path d="M342.063 338.816C341.218 336.893 340.509 335.236 339.613 334.224C339.174 333.729 338.712 333.415 338.192 333.295C337.673 333.175 337.047 333.236 336.259 333.582C333.121 334.96 331.773 338.989 333.374 342.633C334.974 346.276 338.853 348.009 341.99 346.631C342.779 346.284 343.247 345.865 343.51 345.401C343.773 344.937 343.854 344.384 343.787 343.727C343.648 342.381 342.907 340.739 342.063 338.816Z" fill="#95A3BF" stroke="#795764" stroke-width="0.75"/>
<path d="M336.823 338.793C336.214 338.914 336.477 340.904 336.598 341.514C336.719 342.123 337.897 343.55 338.507 343.429C339.17 342.915 338.485 341.391 338.364 340.781C338.243 340.172 337.433 338.672 336.823 338.793Z" fill="#795764"/>
<path d="M331.955 322.475C330.692 320.797 329.622 319.347 328.517 318.568C327.976 318.187 327.455 317.988 326.921 317.99C326.389 317.992 325.793 318.195 325.105 318.713C322.368 320.774 321.98 325.005 324.374 328.184C326.767 331.362 330.941 332.159 333.678 330.098C334.366 329.58 334.726 329.064 334.875 328.553C335.025 328.04 334.977 327.484 334.76 326.859C334.317 325.582 333.218 324.153 331.955 322.475Z" fill="#95A3BF" stroke="#795764" stroke-width="0.75"/>
<path d="M326.85 323.655C326.285 323.912 326.998 325.789 327.255 326.355C327.512 326.92 328.987 328.039 329.553 327.781C330.08 327.129 329.064 325.802 328.806 325.237C328.549 324.671 327.416 323.398 326.85 323.655Z" fill="#795764"/>
<path d="M331.955 322.475C330.692 320.797 329.622 319.347 328.517 318.568C327.976 318.187 327.455 317.988 326.921 317.99C326.389 317.992 325.793 318.195 325.105 318.713C322.368 320.774 321.98 325.005 324.374 328.184C326.767 331.362 330.941 332.159 333.678 330.098C334.366 329.58 334.726 329.064 334.875 328.553C335.025 328.04 334.977 327.484 334.76 326.859C334.317 325.582 333.218 324.153 331.955 322.475Z" fill="#95A3BF" stroke="#795764" stroke-width="0.75"/>
<path d="M326.85 323.655C326.285 323.912 326.998 325.789 327.255 326.355C327.512 326.92 328.987 328.039 329.553 327.781C330.08 327.129 329.064 325.802 328.806 325.237C328.549 324.671 327.416 323.398 326.85 323.655Z" fill="#795764"/>
<path d="M349.168 356.622C348.677 354.58 348.274 352.823 347.571 351.668C347.227 351.103 346.828 350.713 346.338 350.502C345.848 350.292 345.221 350.241 344.384 350.442C341.052 351.242 339.011 354.968 339.939 358.837C340.868 362.706 344.378 365.1 347.711 364.3C348.548 364.099 349.083 363.769 349.424 363.359C349.765 362.949 349.943 362.42 349.993 361.761C350.096 360.412 349.658 358.664 349.168 356.622Z" fill="#95A3BF" stroke="#795764" stroke-width="0.75"/>
<path d="M344.016 355.669C343.394 355.68 343.3 357.686 343.311 358.307C343.322 358.928 344.229 360.541 344.85 360.531C345.594 360.143 345.19 358.521 345.179 357.899C345.169 357.278 344.637 355.659 344.016 355.669Z" fill="#795764"/>
<path d="M353.035 373.018C352.79 371.462 352.593 370.125 352.136 369.22C351.912 368.777 351.637 368.462 351.283 368.275C350.929 368.089 350.463 368.013 349.825 368.113C347.286 368.514 345.54 371.179 346.005 374.127C346.47 377.074 348.951 379.073 351.49 378.672C352.128 378.572 352.549 378.357 352.828 378.071C353.107 377.784 353.272 377.398 353.348 376.908C353.505 375.906 353.281 374.573 353.035 373.018Z" fill="#95A3BF" stroke="#795764" stroke-width="0.5625"/>
<path d="M349.239 372.001C348.774 371.972 348.585 373.466 348.556 373.931C348.528 374.396 349.11 375.656 349.575 375.685C350.154 375.439 349.948 374.202 349.977 373.737C350.006 373.272 349.705 372.03 349.239 372.001Z" fill="#795764"/>
<path d="M358.554 385.042C358.131 383.525 357.781 382.22 357.222 381.373C356.949 380.959 356.639 380.678 356.266 380.533C355.893 380.389 355.421 380.367 354.799 380.541C352.324 381.232 350.897 384.081 351.699 386.955C352.501 389.829 355.197 391.528 357.672 390.837C358.295 390.663 358.688 390.401 358.932 390.085C359.176 389.768 359.295 389.366 359.314 388.87C359.354 387.857 358.978 386.559 358.554 385.042Z" fill="#95A3BF" stroke="#795764" stroke-width="0.5625"/>
<path d="M354.666 384.47C354.201 384.495 354.186 386.001 354.211 386.466C354.236 386.932 354.96 388.116 355.425 388.091C355.972 387.78 355.625 386.575 355.6 386.11C355.575 385.644 355.132 384.445 354.666 384.47Z" fill="#795764"/>
<path d="M287.741 355.191C287.931 353.1 288.077 351.304 288.606 350.059C288.865 349.451 289.203 349.007 289.658 348.727C290.112 348.449 290.725 348.308 291.583 348.386C294.995 348.697 297.553 352.089 297.192 356.052C296.831 360.015 293.703 362.89 290.29 362.579C289.432 362.501 288.855 362.252 288.459 361.895C288.062 361.539 287.809 361.041 287.665 360.395C287.369 359.076 287.55 357.283 287.741 355.191Z" fill="#95A3BF" stroke="#795764" stroke-width="0.75"/>
<path d="M292.701 353.506C293.317 353.427 293.7 355.398 293.779 356.015C293.858 356.631 293.193 358.358 292.577 358.437C291.785 358.16 291.95 356.497 291.871 355.881C291.792 355.265 292.085 353.585 292.701 353.506Z" fill="#795764"/>
<path d="M291.391 336.056C291.954 334.033 292.421 332.292 293.165 331.163C293.529 330.611 293.942 330.235 294.439 330.042C294.936 329.849 295.564 329.821 296.394 330.052C299.695 330.971 301.601 334.769 300.533 338.602C299.466 342.435 295.872 344.701 292.57 343.781C291.741 343.55 291.217 343.201 290.892 342.78C290.566 342.357 290.407 341.822 290.38 341.161C290.327 339.81 290.827 338.079 291.391 336.056Z" fill="#95A3BF" stroke="#795764" stroke-width="0.75"/>
<path d="M296.574 335.29C297.195 335.323 297.216 337.331 297.183 337.952C297.15 338.572 296.186 340.151 295.565 340.118C294.836 339.704 295.298 338.097 295.331 337.477C295.364 336.857 295.954 335.257 296.574 335.29Z" fill="#795764"/>
<path d="M290.816 375.953C290.341 373.907 289.917 372.156 290.03 370.808C290.085 370.149 290.267 369.621 290.611 369.214C290.955 368.807 291.493 368.481 292.332 368.286C295.67 367.512 299.162 369.933 300.061 373.809C300.96 377.685 298.89 381.395 295.552 382.17C294.713 382.364 294.086 382.308 293.599 382.094C293.11 381.88 292.714 381.486 292.375 380.919C291.68 379.758 291.29 377.999 290.816 375.953Z" fill="#95A3BF" stroke="#795764" stroke-width="0.75"/>
<path d="M294.998 372.798C295.559 372.53 296.54 374.282 296.808 374.842C297.076 375.403 296.986 377.251 296.425 377.519C295.587 377.505 295.223 375.874 294.955 375.313C294.686 374.753 294.438 373.066 294.998 372.798Z" fill="#795764"/>
<path d="M299.105 390.482C298.111 389.26 297.249 388.219 296.881 387.274C296.701 386.812 296.65 386.396 296.748 386.008C296.846 385.621 297.101 385.223 297.602 384.816C299.597 383.195 302.746 383.678 304.628 385.993C306.51 388.309 306.338 391.491 304.343 393.112C303.842 393.519 303.401 393.688 303.002 393.705C302.602 393.721 302.205 393.586 301.789 393.315C300.939 392.761 300.098 391.704 299.105 390.482Z" fill="#95A3BF" stroke="#795764" stroke-width="0.5625"/>
<path d="M300.885 386.978C301.174 386.613 302.412 387.471 302.777 387.76C303.142 388.05 303.69 389.325 303.401 389.69C302.831 389.956 302.049 388.977 301.683 388.688C301.318 388.398 300.595 387.344 300.885 386.978Z" fill="#795764"/>
<path d="M309.275 398.521C308.184 397.385 307.238 396.42 306.793 395.509C306.576 395.063 306.491 394.652 306.556 394.258C306.621 393.864 306.843 393.446 307.309 392.999C309.163 391.219 312.341 391.439 314.408 393.592C316.475 395.744 316.566 398.929 314.713 400.709C314.247 401.156 313.821 401.362 313.425 401.411C313.028 401.46 312.621 401.358 312.184 401.123C311.291 400.641 310.365 399.657 309.275 398.521Z" fill="#95A3BF" stroke="#795764" stroke-width="0.5625"/>
<path d="M310.759 394.883C311.017 394.495 312.322 395.247 312.71 395.506C313.098 395.764 313.749 396.99 313.491 397.377C312.945 397.69 312.084 396.778 311.696 396.52C311.308 396.262 310.501 395.271 310.759 394.883Z" fill="#795764"/>
<path d="M263.915 474.774C264.105 472.683 264.251 470.886 264.78 469.642C265.039 469.033 265.377 468.589 265.832 468.31C266.286 468.031 266.899 467.89 267.757 467.968C271.17 468.279 273.727 471.672 273.366 475.635C273.005 479.597 269.877 482.472 266.464 482.162C265.607 482.083 265.029 481.834 264.633 481.478C264.236 481.121 263.984 480.623 263.839 479.978C263.543 478.658 263.724 476.865 263.915 474.774Z" fill="#95A3BF" stroke="#795764" stroke-width="0.75"/>
<path d="M268.875 473.089C269.492 473.01 269.874 474.981 269.953 475.597C270.032 476.213 269.367 477.941 268.751 478.02C267.959 477.743 268.125 476.08 268.046 475.463C267.967 474.847 268.259 473.168 268.875 473.089Z" fill="#795764"/>
<path d="M260.446 457.062C259.807 455.062 259.242 453.351 259.244 451.998C259.246 451.337 259.385 450.796 259.695 450.362C260.004 449.928 260.514 449.56 261.334 449.298C264.599 448.255 268.275 450.385 269.486 454.175C270.697 457.965 268.935 461.832 265.671 462.874C264.85 463.136 264.221 463.131 263.718 462.958C263.213 462.784 262.787 462.423 262.402 461.885C261.616 460.785 261.085 459.063 260.446 457.062Z" fill="#95A3BF" stroke="#795764" stroke-width="0.75"/>
<path d="M264.359 453.578C264.896 453.266 266.016 454.932 266.328 455.469C266.641 456.006 266.701 457.856 266.164 458.168C265.328 458.222 264.832 456.626 264.519 456.089C264.207 455.552 263.822 453.891 264.359 453.578Z" fill="#795764"/>
<path d="M263.266 491.666C264.213 489.792 265.01 488.176 265.961 487.214C266.425 486.743 266.904 486.455 267.429 486.363C267.954 486.271 268.576 486.366 269.344 486.754C272.403 488.3 273.531 492.396 271.736 495.947C269.941 499.498 265.974 501.02 262.916 499.474C262.147 499.085 261.702 498.641 261.465 498.164C261.227 497.686 261.176 497.13 261.279 496.477C261.49 495.141 262.319 493.541 263.266 491.666Z" fill="#95A3BF" stroke="#795764" stroke-width="0.75"/>
<path d="M268.499 491.926C269.101 492.08 268.731 494.053 268.577 494.655C268.423 495.257 267.169 496.618 266.567 496.464C265.933 495.916 266.699 494.43 266.853 493.828C267.006 493.226 267.897 491.772 268.499 491.926Z" fill="#795764"/>
<path d="M247.415 513.976C248.378 513.559 249.202 513.193 249.875 513.127C250.204 513.095 250.48 513.138 250.711 513.271C250.942 513.403 251.15 513.639 251.321 514.034C252.002 515.606 251.125 517.541 249.299 518.331C247.473 519.121 245.462 518.437 244.782 516.864C244.611 516.469 244.582 516.156 244.644 515.897C244.705 515.637 244.863 515.407 245.112 515.189C245.621 514.743 246.451 514.393 247.415 513.976Z" fill="#95A3BF" stroke="#795764" stroke-width="0.375"/>
<path d="M249.342 515.75C249.524 516.002 248.75 516.641 248.498 516.824C248.247 517.006 247.329 517.127 247.147 516.876C247.079 516.462 247.849 516.136 248.1 515.954C248.352 515.772 249.159 515.498 249.342 515.75Z" fill="#795764"/>
<path d="M254.889 504.541C255.963 503.39 256.875 502.393 257.761 501.899C258.194 501.657 258.599 501.55 258.997 501.594C259.394 501.637 259.823 501.836 260.295 502.276C262.174 504.03 262.128 507.216 260.092 509.397C258.056 511.579 254.881 511.844 253.002 510.091C252.529 509.65 252.301 509.236 252.23 508.843C252.159 508.449 252.239 508.037 252.45 507.588C252.882 506.671 253.814 505.692 254.889 504.541Z" fill="#95A3BF" stroke="#795764" stroke-width="0.5625"/>
<path d="M258.603 505.824C259.005 506.061 258.325 507.405 258.088 507.806C257.851 508.207 256.663 508.925 256.262 508.688C255.92 508.16 256.783 507.251 257.019 506.85C257.256 506.448 258.202 505.588 258.603 505.824Z" fill="#795764"/>
<path d="M157.901 355.705C159.983 355.432 161.767 355.18 163.098 355.423C163.748 355.542 164.256 355.774 164.628 356.157C165 356.538 165.272 357.105 165.384 357.959C165.83 361.357 163.081 364.597 159.136 365.115C155.191 365.633 151.699 363.212 151.253 359.815C151.141 358.961 151.257 358.343 151.518 357.878C151.779 357.413 152.209 357.057 152.807 356.774C154.029 356.196 155.819 355.979 157.901 355.705Z" fill="#95A3BF" stroke="#795764" stroke-width="0.75"/>
<path d="M160.634 360.175C160.847 360.759 159.008 361.565 158.424 361.777C157.84 361.989 156.009 361.72 155.796 361.136C155.893 360.303 157.551 360.099 158.135 359.887C158.719 359.675 160.422 359.591 160.634 360.175Z" fill="#795764"/>
<path d="M177.371 355.065C179.469 355.171 181.269 355.244 182.534 355.722C183.153 355.956 183.61 356.276 183.908 356.719C184.205 357.161 184.37 357.768 184.327 358.628C184.155 362.051 180.869 364.743 176.895 364.543C172.921 364.344 169.921 361.335 170.093 357.912C170.136 357.052 170.362 356.465 170.702 356.055C171.042 355.644 171.529 355.371 172.168 355.201C173.475 354.852 175.274 354.96 177.371 355.065Z" fill="#95A3BF" stroke="#795764" stroke-width="0.75"/>
<path d="M179.256 359.954C179.36 360.566 177.406 361.028 176.794 361.132C176.181 361.236 174.428 360.642 174.325 360.029C174.569 359.227 176.237 359.325 176.85 359.221C177.463 359.117 179.152 359.341 179.256 359.954Z" fill="#795764"/>
<path d="M138.321 363.264C140.213 362.352 141.829 361.553 143.168 361.367C143.823 361.276 144.378 361.338 144.851 361.585C145.324 361.831 145.76 362.284 146.134 363.06C147.622 366.146 146.027 370.084 142.443 371.813C138.859 373.541 134.785 372.336 133.296 369.25C132.922 368.474 132.839 367.85 132.941 367.327C133.043 366.804 133.34 366.331 133.819 365.875C134.799 364.943 136.43 364.176 138.321 363.264Z" fill="#95A3BF" stroke="#795764" stroke-width="0.75"/>
<path d="M142.318 366.652C142.703 367.14 141.209 368.481 140.721 368.866C140.233 369.25 138.41 369.568 138.025 369.08C137.855 368.259 139.367 367.546 139.855 367.161C140.342 366.777 141.933 366.164 142.318 366.652Z" fill="#795764"/>
<path d="M125.967 374.541C126.942 373.303 127.767 372.233 128.608 371.667C129.02 371.39 129.414 371.249 129.814 371.259C130.214 371.269 130.658 371.431 131.165 371.831C133.184 373.421 133.405 376.599 131.559 378.944C129.713 381.288 126.571 381.819 124.552 380.229C124.044 379.829 123.782 379.436 123.679 379.05C123.575 378.664 123.62 378.247 123.793 377.782C124.146 376.831 124.993 375.778 125.967 374.541Z" fill="#95A3BF" stroke="#795764" stroke-width="0.5625"/>
<path d="M129.776 375.508C130.196 375.71 129.631 377.106 129.429 377.526C129.227 377.946 128.103 378.76 127.683 378.558C127.298 378.061 128.082 377.082 128.284 376.663C128.486 376.243 129.356 375.306 129.776 375.508Z" fill="#795764"/>
<path d="M120.357 386.228C121.226 384.915 121.96 383.78 122.751 383.146C123.138 382.836 123.52 382.663 123.919 382.64C124.318 382.617 124.774 382.742 125.313 383.098C127.456 384.516 127.939 387.665 126.293 390.154C124.647 392.643 121.56 393.432 119.416 392.014C118.878 391.658 118.584 391.288 118.449 390.912C118.314 390.535 118.324 390.116 118.458 389.638C118.731 388.661 119.488 387.542 120.357 386.228Z" fill="#95A3BF" stroke="#795764" stroke-width="0.5625"/>
<path d="M124.233 386.878C124.668 387.044 124.22 388.482 124.053 388.917C123.886 389.352 122.834 390.257 122.399 390.09C121.974 389.626 122.674 388.586 122.841 388.151C123.008 387.716 123.797 386.711 124.233 386.878Z" fill="#795764"/>
<defs>
<filter id="filter0_n_30_14522" x="87.647" y="180.302" width="106.179" height="68.3652" filterUnits="userSpaceOnUse" color-interpolation-filters="sRGB">
<feFlood flood-opacity="0" result="BackgroundImageFix"/>
<feBlend mode="normal" in="SourceGraphic" in2="BackgroundImageFix" result="shape"/>
<feTurbulence type="fractalNoise" baseFrequency="0.25 0.25" stitchTiles="stitch" numOctaves="3" result="noise" seed="8137" />
<feColorMatrix in="noise" type="luminanceToAlpha" result="alphaNoise" />
<feComponentTransfer in="alphaNoise" result="coloredNoise1">
<feFuncA type="discrete" tableValues="1 1 1 1 1 1 1 1 1 1 1 1 1 1 1 1 1 1 1 1 1 1 1 1 1 1 1 1 1 1 1 1 1 1 1 1 1 1 1 1 1 1 1 1 1 1 1 1 1 1 1 0 0 0 0 0 0 0 0 0 0 0 0 0 0 0 0 0 0 0 0 0 0 0 0 0 0 0 0 0 0 0 0 0 0 0 0 0 0 0 0 0 0 0 0 0 0 0 0 0 "/>
</feComponentTransfer>
<feComposite operator="in" in2="shape" in="coloredNoise1" result="noise1Clipped" />
<feComponentTransfer in="alphaNoise" result="coloredNoise2">
<feFuncA type="discrete" tableValues="0 0 0 0 0 0 0 0 0 0 0 0 0 0 0 0 0 0 0 0 0 0 0 0 0 0 0 0 0 0 0 0 0 0 0 0 0 0 0 0 0 0 0 0 0 0 0 0 0 1 1 1 1 1 1 1 1 1 1 1 1 1 1 1 1 1 1 1 1 1 1 1 1 1 1 1 1 1 1 1 1 1 1 1 1 1 1 1 1 1 1 1 1 1 1 1 1 1 1 1 "/>
</feComponentTransfer>
<feComposite operator="in" in2="shape" in="coloredNoise2" result="noise2Clipped" />
<feFlood flood-color="#AA7F82" result="color1Flood" />
<feComposite operator="in" in2="noise1Clipped" in="color1Flood" result="color1" />
<feFlood flood-color="rgba(255, 255, 255, 0.25)" result="color2Flood" />
<feComposite operator="in" in2="noise2Clipped" in="color2Flood" result="color2" />
<feMerge result="effect1_noise_30_14522">
<feMergeNode in="shape" />
<feMergeNode in="color1" />
<feMergeNode in="color2" />
</feMerge>
</filter>
<filter id="filter1_n_30_14522" x="159.591" y="301.721" width="50.8047" height="31.354" filterUnits="userSpaceOnUse" color-interpolation-filters="sRGB">
<feFlood flood-opacity="0" result="BackgroundImageFix"/>
<feBlend mode="normal" in="SourceGraphic" in2="BackgroundImageFix" result="shape"/>
<feTurbulence type="fractalNoise" baseFrequency="0.25 0.25" stitchTiles="stitch" numOctaves="3" result="noise" seed="8137" />
<feColorMatrix in="noise" type="luminanceToAlpha" result="alphaNoise" />
<feComponentTransfer in="alphaNoise" result="coloredNoise1">
<feFuncA type="discrete" tableValues="1 1 1 1 1 1 1 1 1 1 1 1 1 1 1 1 1 1 1 1 1 1 1 1 1 1 1 1 1 1 1 1 1 1 1 1 1 1 1 1 1 1 1 1 1 1 1 1 1 1 1 0 0 0 0 0 0 0 0 0 0 0 0 0 0 0 0 0 0 0 0 0 0 0 0 0 0 0 0 0 0 0 0 0 0 0 0 0 0 0 0 0 0 0 0 0 0 0 0 0 "/>
</feComponentTransfer>
<feComposite operator="in" in2="shape" in="coloredNoise1" result="noise1Clipped" />
<feComponentTransfer in="alphaNoise" result="coloredNoise2">
<feFuncA type="discrete" tableValues="0 0 0 0 0 0 0 0 0 0 0 0 0 0 0 0 0 0 0 0 0 0 0 0 0 0 0 0 0 0 0 0 0 0 0 0 0 0 0 0 0 0 0 0 0 0 0 0 0 1 1 1 1 1 1 1 1 1 1 1 1 1 1 1 1 1 1 1 1 1 1 1 1 1 1 1 1 1 1 1 1 1 1 1 1 1 1 1 1 1 1 1 1 1 1 1 1 1 1 1 "/>
</feComponentTransfer>
<feComposite operator="in" in2="shape" in="coloredNoise2" result="noise2Clipped" />
<feFlood flood-color="#AA7F82" result="color1Flood" />
<feComposite operator="in" in2="noise1Clipped" in="color1Flood" result="color1" />
<feFlood flood-color="rgba(255, 255, 255, 0.25)" result="color2Flood" />
<feComposite operator="in" in2="noise2Clipped" in="color2Flood" result="color2" />
<feMerge result="effect1_noise_30_14522">
<feMergeNode in="shape" />
<feMergeNode in="color1" />
<feMergeNode in="color2" />
</feMerge>
</filter>
<filter id="filter2_n_30_14522" x="193.826" y="311.283" width="37" height="43.9263" filterUnits="userSpaceOnUse" color-interpolation-filters="sRGB">
<feFlood flood-opacity="0" result="BackgroundImageFix"/>
<feBlend mode="normal" in="SourceGraphic" in2="BackgroundImageFix" result="shape"/>
<feTurbulence type="fractalNoise" baseFrequency="0.25 0.25" stitchTiles="stitch" numOctaves="3" result="noise" seed="8137" />
<feColorMatrix in="noise" type="luminanceToAlpha" result="alphaNoise" />
<feComponentTransfer in="alphaNoise" result="coloredNoise1">
<feFuncA type="discrete" tableValues="1 1 1 1 1 1 1 1 1 1 1 1 1 1 1 1 1 1 1 1 1 1 1 1 1 1 1 1 1 1 1 1 1 1 1 1 1 1 1 1 1 1 1 1 1 1 1 1 1 1 1 0 0 0 0 0 0 0 0 0 0 0 0 0 0 0 0 0 0 0 0 0 0 0 0 0 0 0 0 0 0 0 0 0 0 0 0 0 0 0 0 0 0 0 0 0 0 0 0 0 "/>
</feComponentTransfer>
<feComposite operator="in" in2="shape" in="coloredNoise1" result="noise1Clipped" />
<feComponentTransfer in="alphaNoise" result="coloredNoise2">
<feFuncA type="discrete" tableValues="0 0 0 0 0 0 0 0 0 0 0 0 0 0 0 0 0 0 0 0 0 0 0 0 0 0 0 0 0 0 0 0 0 0 0 0 0 0 0 0 0 0 0 0 0 0 0 0 0 1 1 1 1 1 1 1 1 1 1 1 1 1 1 1 1 1 1 1 1 1 1 1 1 1 1 1 1 1 1 1 1 1 1 1 1 1 1 1 1 1 1 1 1 1 1 1 1 1 1 1 "/>
</feComponentTransfer>
<feComposite operator="in" in2="shape" in="coloredNoise2" result="noise2Clipped" />
<feFlood flood-color="#AA7F82" result="color1Flood" />
<feComposite operator="in" in2="noise1Clipped" in="color1Flood" result="color1" />
<feFlood flood-color="rgba(255, 255, 255, 0.25)" result="color2Flood" />
<feComposite operator="in" in2="noise2Clipped" in="color2Flood" result="color2" />
<feMerge result="effect1_noise_30_14522">
<feMergeNode in="shape" />
<feMergeNode in="color1" />
<feMergeNode in="color2" />
</feMerge>
</filter>
<filter id="filter3_n_30_14522" x="242.879" y="310.744" width="18.0314" height="34.6729" filterUnits="userSpaceOnUse" color-interpolation-filters="sRGB">
<feFlood flood-opacity="0" result="BackgroundImageFix"/>
<feBlend mode="normal" in="SourceGraphic" in2="BackgroundImageFix" result="shape"/>
<feTurbulence type="fractalNoise" baseFrequency="0.25 0.25" stitchTiles="stitch" numOctaves="3" result="noise" seed="8137" />
<feColorMatrix in="noise" type="luminanceToAlpha" result="alphaNoise" />
<feComponentTransfer in="alphaNoise" result="coloredNoise1">
<feFuncA type="discrete" tableValues="1 1 1 1 1 1 1 1 1 1 1 1 1 1 1 1 1 1 1 1 1 1 1 1 1 1 1 1 1 1 1 1 1 1 1 1 1 1 1 1 1 1 1 1 1 1 1 1 1 1 1 0 0 0 0 0 0 0 0 0 0 0 0 0 0 0 0 0 0 0 0 0 0 0 0 0 0 0 0 0 0 0 0 0 0 0 0 0 0 0 0 0 0 0 0 0 0 0 0 0 "/>
</feComponentTransfer>
<feComposite operator="in" in2="shape" in="coloredNoise1" result="noise1Clipped" />
<feComponentTransfer in="alphaNoise" result="coloredNoise2">
<feFuncA type="discrete" tableValues="0 0 0 0 0 0 0 0 0 0 0 0 0 0 0 0 0 0 0 0 0 0 0 0 0 0 0 0 0 0 0 0 0 0 0 0 0 0 0 0 0 0 0 0 0 0 0 0 0 1 1 1 1 1 1 1 1 1 1 1 1 1 1 1 1 1 1 1 1 1 1 1 1 1 1 1 1 1 1 1 1 1 1 1 1 1 1 1 1 1 1 1 1 1 1 1 1 1 1 1 "/>
</feComponentTransfer>
<feComposite operator="in" in2="shape" in="coloredNoise2" result="noise2Clipped" />
<feFlood flood-color="#AA7F82" result="color1Flood" />
<feComposite operator="in" in2="noise1Clipped" in="color1Flood" result="color1" />
<feFlood flood-color="rgba(255, 255, 255, 0.25)" result="color2Flood" />
<feComposite operator="in" in2="noise2Clipped" in="color2Flood" result="color2" />
<feMerge result="effect1_noise_30_14522">
<feMergeNode in="shape" />
<feMergeNode in="color1" />
<feMergeNode in="color2" />
</feMerge>
</filter>
<filter id="filter4_n_30_14522" x="296.27" y="292.526" width="25.5558" height="36.3911" filterUnits="userSpaceOnUse" color-interpolation-filters="sRGB">
<feFlood flood-opacity="0" result="BackgroundImageFix"/>
<feBlend mode="normal" in="SourceGraphic" in2="BackgroundImageFix" result="shape"/>
<feTurbulence type="fractalNoise" baseFrequency="0.25 0.25" stitchTiles="stitch" numOctaves="3" result="noise" seed="8137" />
<feColorMatrix in="noise" type="luminanceToAlpha" result="alphaNoise" />
<feComponentTransfer in="alphaNoise" result="coloredNoise1">
<feFuncA type="discrete" tableValues="1 1 1 1 1 1 1 1 1 1 1 1 1 1 1 1 1 1 1 1 1 1 1 1 1 1 1 1 1 1 1 1 1 1 1 1 1 1 1 1 1 1 1 1 1 1 1 1 1 1 1 0 0 0 0 0 0 0 0 0 0 0 0 0 0 0 0 0 0 0 0 0 0 0 0 0 0 0 0 0 0 0 0 0 0 0 0 0 0 0 0 0 0 0 0 0 0 0 0 0 "/>
</feComponentTransfer>
<feComposite operator="in" in2="shape" in="coloredNoise1" result="noise1Clipped" />
<feComponentTransfer in="alphaNoise" result="coloredNoise2">
<feFuncA type="discrete" tableValues="0 0 0 0 0 0 0 0 0 0 0 0 0 0 0 0 0 0 0 0 0 0 0 0 0 0 0 0 0 0 0 0 0 0 0 0 0 0 0 0 0 0 0 0 0 0 0 0 0 1 1 1 1 1 1 1 1 1 1 1 1 1 1 1 1 1 1 1 1 1 1 1 1 1 1 1 1 1 1 1 1 1 1 1 1 1 1 1 1 1 1 1 1 1 1 1 1 1 1 1 "/>
</feComponentTransfer>
<feComposite operator="in" in2="shape" in="coloredNoise2" result="noise2Clipped" />
<feFlood flood-color="#AA7F82" result="color1Flood" />
<feComposite operator="in" in2="noise1Clipped" in="color1Flood" result="color1" />
<feFlood flood-color="rgba(255, 255, 255, 0.25)" result="color2Flood" />
<feComposite operator="in" in2="noise2Clipped" in="color2Flood" result="color2" />
<feMerge result="effect1_noise_30_14522">
<feMergeNode in="shape" />
<feMergeNode in="color1" />
<feMergeNode in="color2" />
</feMerge>
</filter>
<filter id="filter5_n_30_14522" x="314.137" y="278.524" width="31.9612" height="24.9275" filterUnits="userSpaceOnUse" color-interpolation-filters="sRGB">
<feFlood flood-opacity="0" result="BackgroundImageFix"/>
<feBlend mode="normal" in="SourceGraphic" in2="BackgroundImageFix" result="shape"/>
<feTurbulence type="fractalNoise" baseFrequency="0.25 0.25" stitchTiles="stitch" numOctaves="3" result="noise" seed="8137" />
<feColorMatrix in="noise" type="luminanceToAlpha" result="alphaNoise" />
<feComponentTransfer in="alphaNoise" result="coloredNoise1">
<feFuncA type="discrete" tableValues="1 1 1 1 1 1 1 1 1 1 1 1 1 1 1 1 1 1 1 1 1 1 1 1 1 1 1 1 1 1 1 1 1 1 1 1 1 1 1 1 1 1 1 1 1 1 1 1 1 1 1 0 0 0 0 0 0 0 0 0 0 0 0 0 0 0 0 0 0 0 0 0 0 0 0 0 0 0 0 0 0 0 0 0 0 0 0 0 0 0 0 0 0 0 0 0 0 0 0 0 "/>
</feComponentTransfer>
<feComposite operator="in" in2="shape" in="coloredNoise1" result="noise1Clipped" />
<feComponentTransfer in="alphaNoise" result="coloredNoise2">
<feFuncA type="discrete" tableValues="0 0 0 0 0 0 0 0 0 0 0 0 0 0 0 0 0 0 0 0 0 0 0 0 0 0 0 0 0 0 0 0 0 0 0 0 0 0 0 0 0 0 0 0 0 0 0 0 0 1 1 1 1 1 1 1 1 1 1 1 1 1 1 1 1 1 1 1 1 1 1 1 1 1 1 1 1 1 1 1 1 1 1 1 1 1 1 1 1 1 1 1 1 1 1 1 1 1 1 1 "/>
</feComponentTransfer>
<feComposite operator="in" in2="shape" in="coloredNoise2" result="noise2Clipped" />
<feFlood flood-color="#AA7F82" result="color1Flood" />
<feComposite operator="in" in2="noise1Clipped" in="color1Flood" result="color1" />
<feFlood flood-color="rgba(255, 255, 255, 0.25)" result="color2Flood" />
<feComposite operator="in" in2="noise2Clipped" in="color2Flood" result="color2" />
<feMerge result="effect1_noise_30_14522">
<feMergeNode in="shape" />
<feMergeNode in="color1" />
<feMergeNode in="color2" />
</feMerge>
</filter>
<filter id="filter6_i_30_14522" x="177.826" y="208.417" width="58" height="62" filterUnits="userSpaceOnUse" color-interpolation-filters="sRGB">
<feFlood flood-opacity="0" result="BackgroundImageFix"/>
<feBlend mode="normal" in="SourceGraphic" in2="BackgroundImageFix" result="shape"/>
<feColorMatrix in="SourceAlpha" type="matrix" values="0 0 0 0 0 0 0 0 0 0 0 0 0 0 0 0 0 0 127 0" result="hardAlpha"/>
<feMorphology radius="10" operator="erode" in="SourceAlpha" result="effect1_innerShadow_30_14522"/>
<feOffset dy="4"/>
<feGaussianBlur stdDeviation="5"/>
<feComposite in2="hardAlpha" operator="arithmetic" k2="-1" k3="1"/>
<feColorMatrix type="matrix" values="0 0 0 0 0.951097 0 0 0 0 0.886706 0 0 0 0 0.886706 0 0 0 0.25 0"/>
<feBlend mode="normal" in2="shape" result="effect1_innerShadow_30_14522"/>
</filter>
<filter id="filter7_i_30_14522" x="224.826" y="179.417" width="58" height="62" filterUnits="userSpaceOnUse" color-interpolation-filters="sRGB">
<feFlood flood-opacity="0" result="BackgroundImageFix"/>
<feBlend mode="normal" in="SourceGraphic" in2="BackgroundImageFix" result="shape"/>
<feColorMatrix in="SourceAlpha" type="matrix" values="0 0 0 0 0 0 0 0 0 0 0 0 0 0 0 0 0 0 127 0" result="hardAlpha"/>
<feMorphology radius="10" operator="erode" in="SourceAlpha" result="effect1_innerShadow_30_14522"/>
<feOffset dy="4"/>
<feGaussianBlur stdDeviation="5"/>
<feComposite in2="hardAlpha" operator="arithmetic" k2="-1" k3="1"/>
<feColorMatrix type="matrix" values="0 0 0 0 0.951097 0 0 0 0 0.886706 0 0 0 0 0.886706 0 0 0 0.25 0"/>
<feBlend mode="normal" in2="shape" result="effect1_innerShadow_30_14522"/>
</filter>
<filter id="filter8_n_30_14522" x="317.901" y="244.618" width="43.052" height="15.8604" filterUnits="userSpaceOnUse" color-interpolation-filters="sRGB">
<feFlood flood-opacity="0" result="BackgroundImageFix"/>
<feBlend mode="normal" in="SourceGraphic" in2="BackgroundImageFix" result="shape"/>
<feTurbulence type="fractalNoise" baseFrequency="0.25 0.25" stitchTiles="stitch" numOctaves="3" result="noise" seed="8137" />
<feColorMatrix in="noise" type="luminanceToAlpha" result="alphaNoise" />
<feComponentTransfer in="alphaNoise" result="coloredNoise1">
<feFuncA type="discrete" tableValues="1 1 1 1 1 1 1 1 1 1 1 1 1 1 1 1 1 1 1 1 1 1 1 1 1 1 1 1 1 1 1 1 1 1 1 1 1 1 1 1 1 1 1 1 1 1 1 1 1 1 1 0 0 0 0 0 0 0 0 0 0 0 0 0 0 0 0 0 0 0 0 0 0 0 0 0 0 0 0 0 0 0 0 0 0 0 0 0 0 0 0 0 0 0 0 0 0 0 0 0 "/>
</feComponentTransfer>
<feComposite operator="in" in2="shape" in="coloredNoise1" result="noise1Clipped" />
<feComponentTransfer in="alphaNoise" result="coloredNoise2">
<feFuncA type="discrete" tableValues="0 0 0 0 0 0 0 0 0 0 0 0 0 0 0 0 0 0 0 0 0 0 0 0 0 0 0 0 0 0 0 0 0 0 0 0 0 0 0 0 0 0 0 0 0 0 0 0 0 1 1 1 1 1 1 1 1 1 1 1 1 1 1 1 1 1 1 1 1 1 1 1 1 1 1 1 1 1 1 1 1 1 1 1 1 1 1 1 1 1 1 1 1 1 1 1 1 1 1 1 "/>
</feComponentTransfer>
<feComposite operator="in" in2="shape" in="coloredNoise2" result="noise2Clipped" />
<feFlood flood-color="#AA7F82" result="color1Flood" />
<feComposite operator="in" in2="noise1Clipped" in="color1Flood" result="color1" />
<feFlood flood-color="rgba(255, 255, 255, 0.25)" result="color2Flood" />
<feComposite operator="in" in2="noise2Clipped" in="color2Flood" result="color2" />
<feMerge result="effect1_noise_30_14522">
<feMergeNode in="shape" />
<feMergeNode in="color1" />
<feMergeNode in="color2" />
</feMerge>
</filter>
<filter id="filter9_n_30_14522" x="302.323" y="221.145" width="19.765" height="21.0881" filterUnits="userSpaceOnUse" color-interpolation-filters="sRGB">
<feFlood flood-opacity="0" result="BackgroundImageFix"/>
<feBlend mode="normal" in="SourceGraphic" in2="BackgroundImageFix" result="shape"/>
<feTurbulence type="fractalNoise" baseFrequency="0.25 0.25" stitchTiles="stitch" numOctaves="3" result="noise" seed="8137" />
<feColorMatrix in="noise" type="luminanceToAlpha" result="alphaNoise" />
<feComponentTransfer in="alphaNoise" result="coloredNoise1">
<feFuncA type="discrete" tableValues="1 1 1 1 1 1 1 1 1 1 1 1 1 1 1 1 1 1 1 1 1 1 1 1 1 1 1 1 1 1 1 1 1 1 1 1 1 1 1 1 1 1 1 1 1 1 1 1 1 1 1 0 0 0 0 0 0 0 0 0 0 0 0 0 0 0 0 0 0 0 0 0 0 0 0 0 0 0 0 0 0 0 0 0 0 0 0 0 0 0 0 0 0 0 0 0 0 0 0 0 "/>
</feComponentTransfer>
<feComposite operator="in" in2="shape" in="coloredNoise1" result="noise1Clipped" />
<feComponentTransfer in="alphaNoise" result="coloredNoise2">
<feFuncA type="discrete" tableValues="0 0 0 0 0 0 0 0 0 0 0 0 0 0 0 0 0 0 0 0 0 0 0 0 0 0 0 0 0 0 0 0 0 0 0 0 0 0 0 0 0 0 0 0 0 0 0 0 0 1 1 1 1 1 1 1 1 1 1 1 1 1 1 1 1 1 1 1 1 1 1 1 1 1 1 1 1 1 1 1 1 1 1 1 1 1 1 1 1 1 1 1 1 1 1 1 1 1 1 1 "/>
</feComponentTransfer>
<feComposite operator="in" in2="shape" in="coloredNoise2" result="noise2Clipped" />
<feFlood flood-color="#AA7F82" result="color1Flood" />
<feComposite operator="in" in2="noise1Clipped" in="color1Flood" result="color1" />
<feFlood flood-color="rgba(255, 255, 255, 0.25)" result="color2Flood" />
<feComposite operator="in" in2="noise2Clipped" in="color2Flood" result="color2" />
<feMerge result="effect1_noise_30_14522">
<feMergeNode in="shape" />
<feMergeNode in="color1" />
<feMergeNode in="color2" />
</feMerge>
</filter>
</defs>
</svg>
