<svg width="579" height="494" viewBox="0 0 579 494" fill="none" xmlns="http://www.w3.org/2000/svg">
<path d="M135.828 64.6333C179.892 37.5661 267.261 130.081 271.326 139.753C275.391 149.425 275.821 151.405 279.326 161.133C282.094 168.818 283.674 174.553 285.326 170.133C286.821 166.133 300.559 129.03 304.328 111.633C308.828 90.8618 317.985 63.6333 314.826 50.1333C311.666 36.6333 294.326 29.6333 276.326 29.6333C262.719 29.6333 248.826 39.3952 247.826 53.1333C247.074 63.4549 249.722 72.1923 252.326 76.6333C260.826 91.1333 269.826 67.6333 282.826 61.6333C297.182 55.0074 279.826 113.133 247.826 94.1333C219.929 77.5698 219.768 14.2375 268.828 7.6333C294.828 4.13331 326.826 4.13331 338.326 39.6333C345.36 61.3489 332.826 122.753 328.326 139.753C323.826 156.753 315.973 177.228 319.326 184.633C322.826 192.364 333.288 172.861 336.83 139.753C340.83 102.363 355.407 33.1583 372.831 17.8613C393.33 -0.136173 450.355 25.4518 467.198 51.8714C498.751 101.362 406.959 188.364 405.198 168.862C403.302 147.868 445.831 102.362 445.831 87.8618C445.831 74.8618 447.333 57.8668 434.331 48.3618C420.144 37.9911 401.672 34.9265 389.831 58.8613C368.803 101.363 361.548 176.864 357.83 192.364C354.113 207.864 348.83 210.364 364.83 210.364C391.33 210.364 418.33 221.364 438.33 234.864C458.33 248.364 506.33 277.364 526.33 262.864C535.382 256.301 532.83 240.864 525.33 227.864C510.284 201.784 478.216 197.762 453.83 188.364C429.444 178.965 455.33 172.861 488.83 180.861C536.691 192.291 545.83 209.18 554.33 226.364C562.83 243.547 560.826 268.364 551.826 280.133C542.826 291.903 522.021 299.425 507.33 296.364C484.83 291.674 464.084 282.653 453.83 275.364C444.83 268.965 431.83 263.364 401.33 252.864C382.484 246.376 351.897 240.625 344.828 246.364C337.76 252.102 352.341 249.559 368.803 273.364C378.83 287.864 390.935 324.288 407.828 350.354C416.585 363.866 424.413 372.576 439.828 368.854C462.828 363.301 496.838 305.943 430.828 305.943C364.818 305.943 455.255 280.871 478.328 301.253C516.328 334.822 481.828 392.911 462.828 399.753C443.828 406.595 434.328 406.595 404.828 396.854C384.317 390.081 360.973 338.033 353.242 317.864C345.51 297.694 335.105 270.619 318.828 273.364C308.328 275.134 304.328 277.134 304.328 294.634C304.328 312.134 301.828 328.145 313.328 339.634C327.994 354.286 353.782 367.998 374.328 379.134C402.587 394.452 410.521 424.534 340.328 427.134C310.16 428.252 359.828 456.134 348.328 458.134C336.828 460.134 293.537 429.31 305.828 417.634C315.828 408.134 374.873 404.218 359.328 396.854C341.828 388.565 320.328 379.393 309.828 375.134C294.347 368.854 278.632 348.706 272.328 330.634C264.828 309.134 267.826 293.133 267.826 289.133C267.826 285.133 260.323 286.132 257.826 289.133C255.328 292.134 253.488 293.443 252.326 305.943C250.326 327.443 250.326 339.913 253.326 351.133C256.326 362.353 259.328 368.854 268.828 387.134C278.328 405.414 281.72 421.634 284.328 435.634C286.937 449.634 270.328 468.134 249.328 477.634C228.328 487.134 144.828 468.354 144.828 460.854C144.828 453.354 203.419 462.634 215.828 462.634C229.83 462.634 243.998 460.231 251.828 446.854C258.431 435.574 244.828 409.634 237.828 398.134C230.828 386.634 225.328 375.854 220.328 364.134C215.328 352.414 213.328 336.717 213.328 330.634C213.328 320.134 218.096 300.366 216.328 302.134C211.828 306.634 196.828 312.134 188.328 312.134C170.279 312.134 145.328 321.634 135.828 331.634C126.328 341.634 125.493 346.634 129.328 359.634C136.328 383.365 163.965 420.134 195.219 387.134C205.741 376.025 190.443 331.675 178.828 341.634C170.703 348.6 185.828 370.134 178.828 375.134C171.828 380.134 153.684 361.953 154.328 350.354C155.329 332.32 163.477 312.853 191.328 325.134C219.179 337.415 231.691 392.557 202.328 413.634C162.177 442.455 120.828 409.134 101.828 364.634C91.3874 340.181 104.328 315.751 116.828 305.943C129.328 296.134 156.328 289.253 178.828 285.634C188.811 284.028 185.83 278.753 179.719 278.753C150.623 278.753 135.983 288.325 114.219 289.253C81.8258 290.634 74.1116 292.794 45.2187 275.251C16.3257 257.708 -7.67304 163.253 31.7201 127.653C45.8279 111.134 58.6723 110.295 75.3257 127.653C86.9333 139.752 87.9333 169.014 80.3257 163.133C70.0656 155.202 64.8727 125.434 49.8257 139.753C28.933 159.633 35.8289 228.71 60.8268 243.547C88.1967 259.792 141.237 253.391 162.715 243.547C179.719 235.753 187.962 232.607 195.219 212.253C185.219 189.301 162.126 202.789 129.328 195.633C101.828 189.633 65.8257 107.633 135.828 64.6333Z" fill="#ABC3EB"/>
<g filter="url(#filter0_n_30_14696)">
<path d="M201.826 197.134C201.826 209.285 158.326 198.634 136.983 197.134C116.824 197.134 104.826 175.634 99.8256 163.135C85.5 135.933 114.843 42.4499 170 63.4329C286 118.433 324.5 197.134 201.826 197.134Z" fill="#93BFFA" fill-opacity="0.58"/>
</g>
<g filter="url(#filter1_n_30_14696)">
<path d="M199.326 263.133C220.326 254.133 222.326 251.633 213.326 267.133C199.326 282.133 205.326 288.133 169.591 287.197C193.826 284.636 187.826 276.636 167.591 279.197C174.826 273.133 175.326 271.633 199.326 263.133Z" fill="#93BFFA" fill-opacity="0.58"/>
</g>
<g filter="url(#filter2_n_30_14696)">
<path d="M225.769 281.6C237.326 263.133 237.351 258.092 238.826 279.633C238.826 291.133 233.326 298.133 215.826 309.426C218.326 295.133 217.326 305.133 201.826 309.425C209.326 302.133 212.92 302.133 225.769 281.6Z" fill="#93BFFA" fill-opacity="0.58"/>
</g>
<g filter="url(#filter3_n_30_14696)">
<path d="M267.326 271.133C265.826 259.133 256.326 266.633 252.826 276.634C250.132 284.332 250.733 287.384 251.674 292.17C252.071 294.189 252.529 296.517 252.826 299.633C255.826 285.633 269.326 279.133 267.326 299.133C269.634 286.44 268.982 282.328 268.104 276.781C267.84 275.117 267.556 273.325 267.326 271.133Z" fill="#93BFFA" fill-opacity="0.58"/>
</g>
<g filter="url(#filter4_n_30_14696)">
<path d="M311.826 252.633C303.826 240.633 302.826 248.133 305.826 264.634C305.826 268.634 305.826 270.134 305.826 274.134C305.326 277.634 305.03 280.018 305.326 283.134C307.245 273.634 321.326 270.634 329.826 276.134C329.326 268.634 327.992 267.633 321.326 262.633C317.326 259.633 314.825 257.132 311.826 252.633Z" fill="#93BFFA" fill-opacity="0.58"/>
</g>
<g filter="url(#filter5_n_30_14696)">
<path d="M328.326 233.133C319.826 232.025 320.826 233.133 326.826 238.134C334.326 243.634 333.826 243.633 341.326 249.634C348.45 255.334 359.712 261.133 350.826 255.133C341.94 249.133 338.826 248.133 350.712 244.214C345.091 239.223 343.826 237.133 338.826 235.633C333.826 234.133 333.688 233.832 328.326 233.133Z" fill="#93BFFA" fill-opacity="0.58"/>
</g>
<path d="M229.826 188.576C229.826 201.554 222.438 212.076 213.326 212.076C204.213 212.076 196.826 201.554 196.826 188.576C196.826 175.597 204.213 170.633 213.326 170.633C222.438 170.633 229.826 175.597 229.826 188.576Z" fill="#9A5B5D"/>
<path d="M274.826 161.133C274.826 174.112 267.438 184.633 258.326 184.633C249.213 184.633 241.826 174.112 241.826 161.133C241.826 148.155 249.213 145.633 258.326 145.633C267.438 145.633 274.826 148.155 274.826 161.133Z" fill="#9A5B5D"/>
<circle cx="214.826" cy="191.633" r="15" fill="#FFFEFE"/>
<circle cx="216.826" cy="191.633" r="11" fill="#242222"/>
<circle cx="259.826" cy="165.633" r="15" fill="#FFFEFE"/>
<circle cx="258.826" cy="167.633" r="11" fill="#242222"/>
<g filter="url(#filter6_i_30_14696)">
<circle cx="214.826" cy="191.633" r="29" fill="#4C7DB1" fill-opacity="0.25"/>
</g>
<circle cx="214.826" cy="191.633" r="27.5" stroke="black" stroke-width="3"/>
<path d="M171.789 206.333L172.205 207.774L172.217 207.771L172.229 207.767L171.789 206.333ZM169.702 216.632C170.53 216.671 171.233 216.033 171.272 215.205C171.312 214.378 170.674 213.675 169.846 213.635L169.774 215.133L169.702 216.632ZM189.826 203.133V201.633C183.154 201.633 176.931 203.185 171.349 204.899L171.789 206.333L172.229 207.767C177.72 206.081 183.603 204.633 189.826 204.633V203.133ZM171.789 206.333L171.373 204.892C169.286 205.495 167.228 206.333 165.519 207.275C163.866 208.187 162.338 209.304 161.543 210.549C161.131 211.195 160.819 212.031 160.994 212.954C161.173 213.899 161.798 214.594 162.551 215.076C163.967 215.981 166.355 216.47 169.702 216.632L169.774 215.133L169.846 213.635C166.545 213.476 164.864 212.993 164.167 212.548C163.863 212.354 163.919 212.28 163.941 212.394C163.959 212.487 163.899 212.433 164.072 212.163C164.447 211.575 165.419 210.756 166.968 209.902C168.461 209.079 170.309 208.322 172.205 207.774L171.789 206.333Z" fill="black"/>
<g filter="url(#filter7_i_30_14696)">
<circle cx="261.826" cy="162.633" r="29" fill="#4C7DB1" fill-opacity="0.25"/>
</g>
<circle cx="261.826" cy="162.633" r="27.5" stroke="black" stroke-width="3"/>
<path d="M275.5 202.933C277.211 210.473 274.5 212.583 266.342 217.31C257.5 222.433 249.5 225.933 246 221.433C242.5 216.933 241.68 212.235 257 202.933C267.365 195.95 274.615 199.032 275.5 202.933Z" fill="#5E1835"/>
<path d="M276 204.433C276.5 210.932 272.955 214.095 268.5 216.433C261.075 220.329 251.5 225.932 247 222.432C242.5 218.932 253.08 213.579 260.5 209.433C265.446 206.668 275.654 199.933 276 204.433Z" fill="#AA225A"/>
<path d="M80.4378 275.287C83.1712 275.893 85.5221 276.39 87.0783 277.3C87.8393 277.746 88.3689 278.269 88.6612 278.918C88.9529 279.565 89.0357 280.4 88.787 281.521C87.7978 285.982 82.8779 288.788 77.6985 287.64C72.5191 286.491 69.2458 281.868 70.2347 277.408C70.4833 276.286 70.9113 275.565 71.4494 275.101C71.9884 274.637 72.6896 274.386 73.5676 274.304C75.3629 274.137 77.7041 274.681 80.4378 275.287Z" fill="#95A3BF" stroke="#795764"/>
<path d="M81.8257 282.133C81.8257 282.962 79.1541 283.133 78.3257 283.133C77.4972 283.133 75.3257 281.962 75.3257 281.133C75.8257 280.133 77.9972 280.633 78.8257 280.633C79.6541 280.633 81.8257 281.305 81.8257 282.133Z" fill="#795764"/>
<path d="M104.641 278.204C107.428 277.937 109.817 277.684 111.579 278.07C112.44 278.258 113.105 278.593 113.584 279.119C114.061 279.645 114.397 280.414 114.507 281.557C114.943 286.105 111.13 290.293 105.849 290.8C100.568 291.306 96.0271 287.919 95.5908 283.371C95.4812 282.228 95.6655 281.409 96.0342 280.802C96.4035 280.194 96.9933 279.74 97.803 279.391C99.459 278.677 101.854 278.471 104.641 278.204Z" fill="#95A3BF" stroke="#795764"/>
<path d="M108.074 284.288C108.33 285.076 105.842 286.064 105.054 286.32C104.266 286.576 101.839 286.131 101.583 285.343C101.75 284.238 103.97 284.043 104.758 283.788C105.546 283.532 107.819 283.5 108.074 284.288Z" fill="#795764"/>
<path d="M56.5987 264.369C58.8197 266.074 60.7402 267.518 61.7656 269.001C62.2671 269.726 62.5259 270.424 62.5165 271.136C62.5071 271.846 62.2293 272.638 61.5301 273.549C58.7481 277.173 53.103 277.637 48.8945 274.407C44.686 271.177 43.6737 265.603 46.4555 261.979C47.1547 261.068 47.8476 260.594 48.5312 260.402C49.216 260.209 49.9573 260.278 50.7876 260.575C52.4854 261.182 54.3775 262.664 56.5987 264.369Z" fill="#95A3BF" stroke="#795764"/>
<path d="M54.9625 271.16C54.6124 271.911 52.1186 270.938 51.3678 270.588C50.617 270.237 49.1443 268.257 49.4945 267.507C50.3702 266.812 52.1269 268.183 52.8777 268.533C53.6285 268.883 55.3127 270.41 54.9625 271.16Z" fill="#795764"/>
<path d="M38.3863 249.442C39.6053 251.152 40.6658 252.609 41.0759 253.898C41.2765 254.528 41.3095 255.085 41.1467 255.594C40.9842 256.101 40.6112 256.607 39.91 257.107C37.1196 259.097 32.9686 258.191 30.6588 254.951C28.349 251.711 28.8463 247.492 31.6367 245.503C32.3379 245.003 32.9384 244.815 33.4709 244.827C34.0043 244.839 34.5206 245.052 35.0509 245.447C36.1354 246.255 37.1672 247.732 38.3863 249.442Z" fill="#95A3BF" stroke="#795764" stroke-width="0.75"/>
<path d="M35.7232 253.955C35.3073 254.417 33.7324 253.172 33.2707 252.756C32.8091 252.34 32.1871 250.597 32.603 250.135C33.3835 249.829 34.3426 251.198 34.8042 251.614C35.2659 252.029 36.139 253.494 35.7232 253.955Z" fill="#795764"/>
<path d="M27.144 237.09C27.5394 238.063 27.887 238.894 27.9376 239.569C27.9622 239.898 27.9134 240.174 27.7756 240.402C27.6379 240.63 27.3979 240.833 26.9993 240.995C25.4121 241.64 23.4976 240.72 22.7483 238.877C21.999 237.034 22.7283 235.039 24.3156 234.393C24.7144 234.231 25.028 234.21 25.2857 234.277C25.5439 234.345 25.7708 234.508 25.9832 234.761C26.4173 235.28 26.7486 236.118 27.144 237.09Z" fill="#95A3BF" stroke="#795764" stroke-width="0.375"/>
<path d="M25.3269 238.977C25.0712 239.154 24.449 238.366 24.2724 238.111C24.0959 237.855 23.9948 236.935 24.2504 236.759C24.6655 236.7 24.9739 237.477 25.1504 237.732C25.327 237.988 25.5825 238.801 25.3269 238.977Z" fill="#795764"/>
<path d="M22.7139 225.423C22.8437 226.464 22.9638 227.358 22.8378 228.022C22.7762 228.347 22.6577 228.6 22.4654 228.785C22.2733 228.969 21.9889 229.103 21.562 229.156C19.8618 229.368 18.2512 227.983 18.0052 226.009C17.7593 224.035 18.9811 222.296 20.6814 222.085C21.1086 222.032 21.417 222.092 21.6484 222.224C21.8803 222.356 22.0572 222.572 22.1966 222.872C22.4815 223.485 22.5842 224.381 22.7139 225.423Z" fill="#95A3BF" stroke="#795764" stroke-width="0.375"/>
<path d="M20.4697 226.774C20.177 226.878 19.7803 225.956 19.6761 225.663C19.5718 225.371 19.7126 224.456 20.0053 224.352C20.4214 224.403 20.5179 225.233 20.6221 225.526C20.7264 225.818 20.7624 226.67 20.4697 226.774Z" fill="#795764"/>
<path d="M351.268 164.233C350.709 166.977 350.206 169.326 350.404 171.118C350.501 171.995 350.763 172.692 351.237 173.223C351.71 173.753 352.438 174.168 353.564 174.398C358.041 175.31 362.607 171.959 363.667 166.761C364.727 161.562 361.837 156.69 357.36 155.778C356.234 155.548 355.401 155.645 354.758 155.948C354.115 156.251 353.601 156.79 353.168 157.558C352.285 159.13 351.828 161.49 351.268 164.233Z" fill="#95A3BF" stroke="#795764"/>
<path d="M356.957 168.288C357.713 168.626 358.958 166.255 359.295 165.499C359.633 164.742 359.446 162.282 358.69 161.944C357.573 161.994 357.146 164.181 356.808 164.938C356.471 165.694 356.2 167.951 356.957 168.288Z" fill="#795764"/>
<path d="M344.379 187.809C343.011 190.252 341.816 192.337 341.459 194.104C341.285 194.969 341.323 195.712 341.612 196.362C341.901 197.011 342.468 197.629 343.47 198.19C347.457 200.422 352.827 198.621 355.419 193.992C358.011 189.363 356.742 183.843 352.756 181.61C351.754 181.049 350.931 180.888 350.226 180.98C349.521 181.073 348.867 181.43 348.221 182.03C346.901 183.258 345.747 185.366 344.379 187.809Z" fill="#95A3BF" stroke="#795764"/>
<path d="M348.563 193.404C349.181 193.955 351.088 192.077 351.64 191.459C352.191 190.841 352.763 188.44 352.145 187.889C351.066 187.596 349.993 189.549 349.441 190.167C348.89 190.785 347.945 192.852 348.563 193.404Z" fill="#795764"/>
<path d="M356.496 139.432C356.196 142.216 355.915 144.602 356.281 146.368C356.46 147.231 356.786 147.9 357.307 148.385C357.828 148.868 358.592 149.214 359.734 149.336C364.277 149.825 368.509 146.06 369.076 140.786C369.644 135.511 366.31 130.931 361.767 130.442C360.625 130.32 359.805 130.494 359.193 130.856C358.581 131.218 358.12 131.803 357.761 132.608C357.029 134.256 356.795 136.648 356.496 139.432Z" fill="#95A3BF" stroke="#795764"/>
<path d="M362.539 142.936C363.324 143.2 364.341 140.724 364.606 139.939C364.871 139.154 364.455 136.722 363.67 136.457C362.562 136.611 362.342 138.829 362.077 139.614C361.812 140.399 361.754 142.671 362.539 142.936Z" fill="#795764"/>
<path d="M363.111 120.226C362.875 122.313 362.656 124.101 362.923 125.427C363.054 126.075 363.296 126.578 363.685 126.944C364.073 127.308 364.645 127.57 365.501 127.666C368.906 128.05 372.095 125.243 372.541 121.289C372.987 117.335 370.503 113.888 367.098 113.504C366.242 113.408 365.626 113.535 365.167 113.804C364.706 114.074 364.358 114.511 364.086 115.113C363.531 116.346 363.346 118.139 363.111 120.226Z" fill="#95A3BF" stroke="#795764" stroke-width="0.75"/>
<path d="M367.63 122.878C368.218 123.079 368.99 121.226 369.192 120.638C369.393 120.051 369.091 118.225 368.503 118.023C367.672 118.135 367.498 119.797 367.296 120.384C367.095 120.972 367.042 122.676 367.63 122.878Z" fill="#795764"/>
<path d="M366.111 102.226C365.875 104.313 365.656 106.101 365.923 107.427C366.054 108.075 366.296 108.578 366.685 108.944C367.073 109.308 367.645 109.57 368.501 109.666C371.906 110.05 375.095 107.243 375.541 103.289C375.987 99.3353 373.503 95.8883 370.098 95.5043C369.242 95.4078 368.626 95.5355 368.167 95.8043C367.706 96.0737 367.358 96.5106 367.086 97.1134C366.531 98.3462 366.346 100.139 366.111 102.226Z" fill="#95A3BF" stroke="#795764" stroke-width="0.75"/>
<path d="M370.63 104.878C371.218 105.079 371.99 103.226 372.192 102.638C372.393 102.051 372.091 100.225 371.503 100.023C370.672 100.135 370.498 101.797 370.296 102.384C370.095 102.972 370.042 104.676 370.63 104.878Z" fill="#795764"/>
<g filter="url(#filter8_n_30_14696)">
<path d="M331.947 211.534C323.493 212.95 324.326 214.133 331.826 214.633C342.326 214.133 345.424 215.598 354.826 213.633C363.757 211.766 374.326 211.133 365.826 210.633C357.326 210.134 350.826 212.133 355.326 200.633C357.478 195.133 347.665 203.731 343.326 206.633C338.986 209.534 337.326 210.633 331.947 211.534Z" fill="#93BFFA" fill-opacity="0.58"/>
</g>
<g filter="url(#filter9_n_30_14696)">
<path d="M312.326 194.133C307.661 197.632 311.826 196.633 317.826 194.634C321.326 193.134 321.826 193.633 324.826 189.633C328.326 184.967 332.536 169.633 328.325 177.634C324.115 185.634 318.825 191.634 318.325 178.134C319.825 173.134 316.86 183.997 316.326 186.133C315.791 188.269 316.326 191.133 312.326 194.133Z" fill="#93BFFA" fill-opacity="0.58"/>
</g>
<path d="M413.7 151.373C413.133 152.409 412.655 153.303 412.103 153.826C411.833 154.082 411.559 154.236 411.262 154.278C410.965 154.32 410.617 154.254 410.192 154.022C408.501 153.096 407.943 150.773 409.017 148.81C410.092 146.847 412.349 146.064 414.04 146.989C414.465 147.222 414.708 147.481 414.832 147.753C414.957 148.026 414.976 148.34 414.906 148.705C414.762 149.452 414.267 150.337 413.7 151.373Z" fill="#95A3BF" stroke="#795764" stroke-width="0.421875"/>
<path d="M410.763 151.13C410.427 151.033 410.672 149.93 410.769 149.595C410.866 149.259 411.597 148.517 411.932 148.614C412.278 148.935 411.82 149.756 411.723 150.091C411.626 150.427 411.098 151.228 410.763 151.13Z" fill="#795764"/>
<path d="M422.268 139.349C421.283 140.578 420.448 141.641 419.602 142.2C419.188 142.473 418.793 142.61 418.393 142.597C417.993 142.583 417.551 142.417 417.047 142.013C415.042 140.405 414.849 137.225 416.716 134.897C418.583 132.569 421.729 132.066 423.734 133.674C424.238 134.078 424.497 134.473 424.597 134.86C424.697 135.247 424.648 135.664 424.471 136.128C424.11 137.075 423.254 138.121 422.268 139.349Z" fill="#95A3BF" stroke="#795764" stroke-width="0.5625"/>
<path d="M418.468 138.349C418.05 138.143 418.628 136.752 418.833 136.334C419.039 135.916 420.17 135.111 420.588 135.317C420.969 135.818 420.177 136.79 419.971 137.208C419.765 137.626 418.886 138.555 418.468 138.349Z" fill="#795764"/>
<path d="M446.194 108.092C444.88 109.73 443.767 111.147 442.638 111.892C442.086 112.257 441.559 112.44 441.026 112.422C440.493 112.403 439.905 112.182 439.233 111.644C436.559 109.5 436.301 105.259 438.79 102.155C441.28 99.0506 445.475 98.3812 448.149 100.525C448.821 101.064 449.164 101.591 449.298 102.106C449.432 102.623 449.367 103.177 449.131 103.795C448.649 105.059 447.508 106.454 446.194 108.092Z" fill="#95A3BF" stroke="#795764" stroke-width="0.75"/>
<path d="M441.127 106.757C440.57 106.483 441.339 104.628 441.614 104.071C441.888 103.513 443.397 102.441 443.954 102.715C444.461 103.383 443.405 104.678 443.13 105.236C442.856 105.793 441.684 107.032 441.127 106.757Z" fill="#795764"/>
<path d="M434.194 124.092C432.88 125.73 431.767 127.147 430.638 127.892C430.086 128.257 429.559 128.44 429.026 128.422C428.493 128.403 427.905 128.182 427.233 127.644C424.559 125.5 424.301 121.259 426.79 118.155C429.28 115.051 433.475 114.381 436.149 116.525C436.821 117.064 437.164 117.591 437.298 118.106C437.432 118.623 437.367 119.177 437.131 119.795C436.649 121.059 435.508 122.454 434.194 124.092Z" fill="#95A3BF" stroke="#795764" stroke-width="0.75"/>
<path d="M429.127 122.757C428.57 122.483 429.339 120.628 429.614 120.071C429.888 119.513 431.397 118.441 431.954 118.715C432.461 119.383 431.405 120.678 431.13 121.236C430.856 121.793 429.684 123.032 429.127 122.757Z" fill="#795764"/>
<path d="M310.181 166.081C309.181 167.927 308.307 169.503 308.058 170.833C307.936 171.483 307.972 172.04 308.195 172.524C308.419 173.008 308.851 173.465 309.608 173.875C312.621 175.508 316.63 174.1 318.526 170.602C320.421 167.103 319.411 162.977 316.398 161.344C315.64 160.934 315.021 160.821 314.494 160.898C313.966 160.975 313.48 161.25 313.002 161.707C312.025 162.642 311.182 164.235 310.181 166.081Z" fill="#95A3BF" stroke="#795764" stroke-width="0.75"/>
<path d="M313.377 170.234C313.847 170.641 315.257 169.212 315.664 168.743C316.072 168.273 316.475 166.467 316.006 166.06C315.194 165.852 314.41 167.328 314.002 167.797C313.595 168.266 312.908 169.826 313.377 170.234Z" fill="#795764"/>
<path d="M316.19 148.852C315.581 150.862 315.042 152.582 315.065 153.934C315.076 154.595 315.223 155.134 315.539 155.563C315.856 155.992 316.371 156.353 317.195 156.603C320.475 157.596 324.119 155.412 325.273 151.604C326.426 147.796 324.607 143.957 321.327 142.963C320.503 142.713 319.874 142.728 319.373 142.909C318.872 143.09 318.451 143.457 318.074 144.001C317.305 145.113 316.799 146.843 316.19 148.852Z" fill="#95A3BF" stroke="#795764" stroke-width="0.75"/>
<path d="M320.155 152.278C320.697 152.583 321.791 150.899 322.096 150.358C322.401 149.816 322.433 147.966 321.892 147.661C321.054 147.621 320.583 149.224 320.278 149.765C319.973 150.307 319.614 151.973 320.155 152.278Z" fill="#795764"/>
<path d="M323.748 135.09C323.352 136.062 323.005 136.894 322.954 137.568C322.929 137.898 322.978 138.173 323.116 138.401C323.254 138.629 323.494 138.832 323.892 138.994C325.479 139.64 327.394 138.72 328.143 136.877C328.893 135.034 328.163 133.038 326.576 132.393C326.177 132.231 325.864 132.21 325.606 132.277C325.348 132.344 325.121 132.507 324.908 132.761C324.474 133.279 324.143 134.117 323.748 135.09Z" fill="#95A3BF" stroke="#795764" stroke-width="0.375"/>
<path d="M325.565 136.977C325.82 137.154 326.443 136.366 326.619 136.11C326.796 135.854 326.897 134.935 326.641 134.758C326.226 134.699 325.918 135.476 325.741 135.732C325.565 135.987 325.309 136.8 325.565 136.977Z" fill="#795764"/>
<path d="M327.005 125.422C326.875 126.464 326.755 127.357 326.881 128.021C326.942 128.346 327.061 128.6 327.253 128.784C327.445 128.969 327.73 129.102 328.157 129.156C329.857 129.367 331.467 127.983 331.713 126.009C331.959 124.034 330.737 122.296 329.037 122.084C328.61 122.031 328.301 122.092 328.07 122.224C327.838 122.356 327.661 122.572 327.522 122.872C327.237 123.485 327.134 124.38 327.005 125.422Z" fill="#95A3BF" stroke="#795764" stroke-width="0.375"/>
<path d="M329.249 126.774C329.541 126.878 329.938 125.956 330.042 125.663C330.147 125.37 330.006 124.456 329.713 124.352C329.297 124.402 329.201 125.232 329.096 125.525C328.992 125.818 328.956 126.669 329.249 126.774Z" fill="#795764"/>
<path d="M385.767 239.768C383.085 238.962 380.791 238.249 378.988 238.284C378.107 238.301 377.389 238.499 376.817 238.923C376.247 239.346 375.767 240.034 375.437 241.134C374.123 245.51 377.047 250.36 382.128 251.886C387.209 253.412 392.322 250.975 393.637 246.599C393.967 245.499 393.946 244.661 393.702 243.993C393.459 243.325 392.969 242.764 392.243 242.264C390.757 241.241 388.449 240.573 385.767 239.768Z" fill="#95A3BF" stroke="#795764"/>
<path d="M381.214 245.066C380.809 245.789 383.057 247.243 383.78 247.647C384.503 248.051 386.97 248.089 387.375 247.366C387.426 246.249 385.287 245.625 384.564 245.221C383.841 244.817 381.618 244.343 381.214 245.066Z" fill="#795764"/>
<path d="M360.442 235.897C357.647 235.729 355.25 235.561 353.504 236.008C352.65 236.227 351.997 236.585 351.537 237.128C351.079 237.671 350.77 238.451 350.701 239.597C350.426 244.158 354.385 248.208 359.681 248.528C364.976 248.847 369.394 245.301 369.669 240.741C369.738 239.594 369.525 238.783 369.135 238.189C368.745 237.595 368.139 237.161 367.318 236.841C365.637 236.187 363.237 236.066 360.442 235.897Z" fill="#95A3BF" stroke="#795764"/>
<path d="M357.226 242.099C356.998 242.896 359.52 243.795 360.316 244.023C361.113 244.25 363.523 243.721 363.75 242.924C363.544 241.825 361.319 241.709 360.523 241.482C359.726 241.254 357.454 241.303 357.226 242.099Z" fill="#795764"/>
<path d="M360.442 235.898C357.647 235.729 355.25 235.561 353.504 236.009C352.649 236.228 351.996 236.586 351.537 237.129C351.079 237.671 350.77 238.451 350.701 239.598C350.426 244.158 354.385 248.209 359.681 248.528C364.976 248.847 369.394 245.302 369.669 240.741C369.738 239.595 369.525 238.783 369.135 238.19C368.744 237.595 368.139 237.162 367.317 236.842C365.637 236.187 363.237 236.066 360.442 235.898Z" fill="#95A3BF" stroke="#795764"/>
<path d="M357.226 242.1C356.998 242.896 359.52 243.796 360.316 244.023C361.113 244.251 363.523 243.721 363.75 242.924C363.544 241.826 361.319 241.71 360.522 241.482C359.726 241.254 357.453 241.303 357.226 242.1Z" fill="#795764"/>
<path d="M409.982 247.953C407.486 246.685 405.355 245.576 403.574 245.29C402.704 245.151 401.962 245.219 401.324 245.534C400.688 245.849 400.094 246.441 399.574 247.465C397.504 251.539 399.522 256.831 404.252 259.234C408.982 261.637 414.446 260.145 416.516 256.072C417.036 255.048 417.164 254.219 417.043 253.519C416.921 252.818 416.539 252.179 415.913 251.558C414.632 250.288 412.479 249.221 409.982 247.953Z" fill="#95A3BF" stroke="#795764"/>
<path d="M404.562 252.359C404.035 252.999 405.99 254.829 406.63 255.355C407.27 255.881 409.691 256.355 410.217 255.716C410.466 254.626 408.471 253.633 407.831 253.106C407.192 252.58 405.088 251.719 404.562 252.359Z" fill="#795764"/>
<path d="M429.969 258.206C428.178 257.11 426.65 256.154 425.336 255.836C424.693 255.68 424.135 255.686 423.639 255.884C423.144 256.082 422.665 256.489 422.216 257.224C420.427 260.147 421.621 264.224 425.015 266.301C428.409 268.378 432.583 267.586 434.372 264.663C434.821 263.928 434.966 263.316 434.917 262.786C434.868 262.255 434.619 261.755 434.188 261.253C433.306 260.228 431.76 259.302 429.969 258.206Z" fill="#95A3BF" stroke="#795764" stroke-width="0.75"/>
<path d="M425.654 261.179C425.222 261.626 426.575 263.11 427.022 263.541C427.47 263.973 429.252 264.471 429.683 264.024C429.934 263.224 428.501 262.363 428.054 261.932C427.607 261.5 426.085 260.732 425.654 261.179Z" fill="#795764"/>
<path d="M445.539 265.706C443.633 264.824 442.005 264.051 440.663 263.886C440.007 263.806 439.453 263.876 438.984 264.13C438.515 264.383 438.086 264.844 437.724 265.625C436.285 268.735 437.942 272.647 441.553 274.319C445.164 275.99 449.219 274.721 450.658 271.611C451.02 270.83 451.093 270.205 450.983 269.684C450.873 269.162 450.568 268.694 450.082 268.245C449.088 267.329 447.445 266.588 445.539 265.706Z" fill="#95A3BF" stroke="#795764" stroke-width="0.75"/>
<path d="M441.596 269.157C441.219 269.651 442.734 270.969 443.228 271.346C443.722 271.723 445.55 272.012 445.927 271.518C446.084 270.694 444.561 270.004 444.067 269.627C443.573 269.251 441.973 268.663 441.596 269.157Z" fill="#795764"/>
<path d="M350.063 293.032C349.218 291.109 348.509 289.452 347.612 288.44C347.174 287.945 346.712 287.632 346.192 287.511C345.673 287.391 345.047 287.452 344.259 287.798C341.121 289.177 339.773 293.206 341.374 296.849C342.974 300.492 346.853 302.225 349.99 300.847C350.779 300.501 351.247 300.081 351.51 299.617C351.773 299.153 351.854 298.601 351.787 297.943C351.648 296.598 350.907 294.955 350.063 293.032Z" fill="#95A3BF" stroke="#795764" stroke-width="0.75"/>
<path d="M344.823 293.009C344.214 293.13 344.477 295.12 344.598 295.73C344.719 296.339 345.897 297.766 346.507 297.645C347.17 297.132 346.485 295.607 346.364 294.998C346.243 294.388 345.433 292.888 344.823 293.009Z" fill="#795764"/>
<path d="M339.955 276.691C338.692 275.014 337.622 273.564 336.517 272.784C335.976 272.403 335.455 272.204 334.921 272.206C334.389 272.208 333.793 272.411 333.105 272.929C330.368 274.99 329.98 279.221 332.374 282.4C334.767 285.579 338.941 286.376 341.678 284.314C342.366 283.796 342.726 283.28 342.875 282.769C343.025 282.257 342.977 281.7 342.76 281.076C342.317 279.798 341.218 278.369 339.955 276.691Z" fill="#95A3BF" stroke="#795764" stroke-width="0.75"/>
<path d="M334.85 277.871C334.285 278.129 334.997 280.006 335.255 280.571C335.512 281.137 336.987 282.255 337.553 281.997C338.08 281.345 337.063 280.018 336.806 279.453C336.549 278.888 335.416 277.614 334.85 277.871Z" fill="#795764"/>
<path d="M339.955 276.691C338.692 275.014 337.622 273.564 336.517 272.784C335.976 272.403 335.455 272.204 334.921 272.206C334.389 272.208 333.793 272.411 333.105 272.929C330.368 274.99 329.98 279.221 332.374 282.4C334.767 285.579 338.941 286.376 341.678 284.314C342.366 283.796 342.726 283.28 342.875 282.769C343.025 282.257 342.977 281.7 342.76 281.076C342.317 279.798 341.218 278.369 339.955 276.691Z" fill="#95A3BF" stroke="#795764" stroke-width="0.75"/>
<path d="M334.85 277.871C334.285 278.129 334.997 280.006 335.255 280.571C335.512 281.137 336.987 282.255 337.553 281.997C338.08 281.345 337.063 280.018 336.806 279.453C336.549 278.888 335.416 277.614 334.85 277.871Z" fill="#795764"/>
<path d="M357.168 310.838C356.677 308.796 356.274 307.04 355.571 305.885C355.227 305.32 354.828 304.929 354.338 304.718C353.848 304.508 353.221 304.457 352.384 304.658C349.052 305.458 347.011 309.184 347.939 313.053C348.868 316.922 352.378 319.316 355.711 318.516C356.548 318.315 357.083 317.985 357.424 317.576C357.765 317.166 357.943 316.636 357.993 315.977C358.095 314.628 357.658 312.88 357.168 310.838Z" fill="#95A3BF" stroke="#795764" stroke-width="0.75"/>
<path d="M352.016 309.886C351.394 309.896 351.3 311.902 351.311 312.523C351.322 313.145 352.229 314.758 352.85 314.747C353.594 314.359 353.19 312.737 353.179 312.116C353.169 311.495 352.637 309.875 352.016 309.886Z" fill="#795764"/>
<path d="M361.035 327.234C360.79 325.679 360.593 324.342 360.136 323.436C359.912 322.994 359.637 322.678 359.283 322.491C358.929 322.305 358.463 322.229 357.825 322.33C355.286 322.73 353.54 325.395 354.005 328.343C354.47 331.291 356.951 333.289 359.49 332.889C360.128 332.788 360.549 332.573 360.828 332.287C361.107 332.001 361.272 331.615 361.348 331.124C361.505 330.122 361.281 328.79 361.035 327.234Z" fill="#95A3BF" stroke="#795764" stroke-width="0.5625"/>
<path d="M357.239 326.217C356.774 326.188 356.585 327.682 356.556 328.147C356.528 328.613 357.11 329.872 357.575 329.901C358.154 329.655 357.948 328.419 357.977 327.954C358.006 327.488 357.704 326.246 357.239 326.217Z" fill="#795764"/>
<path d="M366.554 339.258C366.131 337.741 365.781 336.436 365.222 335.59C364.949 335.176 364.639 334.894 364.266 334.749C363.893 334.605 363.421 334.584 362.799 334.757C360.324 335.448 358.897 338.297 359.699 341.171C360.501 344.046 363.197 345.744 365.672 345.053C366.295 344.88 366.688 344.618 366.932 344.301C367.176 343.985 367.295 343.582 367.314 343.086C367.354 342.073 366.978 340.775 366.554 339.258Z" fill="#95A3BF" stroke="#795764" stroke-width="0.5625"/>
<path d="M362.666 338.686C362.201 338.712 362.186 340.217 362.211 340.683C362.236 341.148 362.96 342.332 363.425 342.307C363.972 341.996 363.625 340.791 363.6 340.326C363.575 339.861 363.132 338.661 362.666 338.686Z" fill="#795764"/>
<path d="M295.74 309.408C295.931 307.316 296.077 305.52 296.606 304.276C296.865 303.667 297.203 303.223 297.658 302.944C298.112 302.665 298.725 302.524 299.583 302.602C302.995 302.913 305.552 306.306 305.192 310.268C304.831 314.231 301.703 317.106 298.29 316.795C297.432 316.717 296.855 316.468 296.459 316.112C296.062 315.755 295.809 315.257 295.665 314.612C295.369 313.292 295.55 311.499 295.74 309.408Z" fill="#95A3BF" stroke="#795764" stroke-width="0.75"/>
<path d="M300.701 307.723C301.317 307.644 301.7 309.615 301.779 310.231C301.858 310.847 301.193 312.574 300.577 312.653C299.785 312.377 299.95 310.714 299.871 310.097C299.792 309.481 300.085 307.802 300.701 307.723Z" fill="#795764"/>
<path d="M299.391 290.272C299.954 288.249 300.421 286.508 301.165 285.379C301.529 284.827 301.942 284.451 302.439 284.258C302.936 284.066 303.564 284.037 304.394 284.268C307.695 285.188 309.601 288.985 308.533 292.818C307.465 296.651 303.871 298.917 300.57 297.998C299.741 297.767 299.217 297.418 298.892 296.996C298.566 296.574 298.407 296.038 298.38 295.378C298.327 294.026 298.827 292.295 299.391 290.272Z" fill="#95A3BF" stroke="#795764" stroke-width="0.75"/>
<path d="M304.574 289.507C305.195 289.54 305.216 291.547 305.183 292.168C305.15 292.788 304.186 294.368 303.565 294.335C302.836 293.92 303.298 292.314 303.331 291.693C303.364 291.073 303.954 289.473 304.574 289.507Z" fill="#795764"/>
<path d="M298.816 330.169C298.341 328.124 297.917 326.372 298.03 325.024C298.085 324.365 298.267 323.838 298.611 323.43C298.955 323.023 299.493 322.697 300.332 322.503C303.67 321.728 307.162 324.149 308.061 328.025C308.96 331.901 306.89 335.612 303.552 336.386C302.713 336.581 302.086 336.525 301.599 336.311C301.11 336.096 300.714 335.702 300.375 335.135C299.68 333.974 299.29 332.215 298.816 330.169Z" fill="#95A3BF" stroke="#795764" stroke-width="0.75"/>
<path d="M302.998 327.014C303.559 326.746 304.54 328.498 304.808 329.059C305.076 329.619 304.986 331.468 304.425 331.736C303.587 331.721 303.223 330.09 302.954 329.529C302.686 328.969 302.438 327.282 302.998 327.014Z" fill="#795764"/>
<path d="M307.105 344.698C306.111 343.476 305.249 342.436 304.881 341.491C304.701 341.029 304.65 340.613 304.748 340.225C304.846 339.837 305.101 339.44 305.602 339.032C307.597 337.412 310.746 337.894 312.628 340.21C314.51 342.526 314.338 345.707 312.343 347.328C311.842 347.735 311.401 347.905 311.002 347.921C310.602 347.937 310.205 347.802 309.789 347.531C308.939 346.978 308.098 345.92 307.105 344.698Z" fill="#95A3BF" stroke="#795764" stroke-width="0.5625"/>
<path d="M308.885 341.195C309.174 340.83 310.412 341.687 310.777 341.977C311.142 342.266 311.69 343.542 311.401 343.907C310.831 344.173 310.048 343.194 309.683 342.904C309.318 342.615 308.595 341.56 308.885 341.195Z" fill="#795764"/>
<path d="M317.275 352.737C316.184 351.602 315.238 350.636 314.793 349.725C314.576 349.279 314.491 348.869 314.556 348.474C314.621 348.08 314.843 347.662 315.309 347.215C317.163 345.435 320.341 345.655 322.408 347.808C324.475 349.96 324.566 353.145 322.713 354.925C322.247 355.373 321.821 355.578 321.425 355.627C321.028 355.676 320.621 355.574 320.184 355.339C319.291 354.857 318.365 353.873 317.275 352.737Z" fill="#95A3BF" stroke="#795764" stroke-width="0.5625"/>
<path d="M318.759 349.099C319.017 348.711 320.322 349.464 320.71 349.722C321.098 349.98 321.749 351.206 321.491 351.594C320.945 351.906 320.084 350.995 319.696 350.737C319.308 350.478 318.501 349.487 318.759 349.099Z" fill="#795764"/>
<path d="M271.915 428.99C272.105 426.899 272.251 425.103 272.78 423.858C273.039 423.249 273.377 422.805 273.832 422.526C274.286 422.247 274.899 422.107 275.757 422.185C279.17 422.495 281.727 425.888 281.366 429.851C281.005 433.813 277.877 436.689 274.464 436.378C273.607 436.3 273.029 436.05 272.633 435.694C272.236 435.338 271.984 434.84 271.839 434.194C271.543 432.875 271.724 431.082 271.915 428.99Z" fill="#95A3BF" stroke="#795764" stroke-width="0.75"/>
<path d="M276.875 427.305C277.492 427.226 277.874 429.197 277.953 429.814C278.032 430.43 277.367 432.157 276.751 432.236C275.959 431.959 276.125 430.296 276.046 429.68C275.967 429.063 276.259 427.384 276.875 427.305Z" fill="#795764"/>
<path d="M268.446 411.279C267.807 409.278 267.242 407.567 267.244 406.215C267.246 405.553 267.385 405.012 267.695 404.578C268.004 404.145 268.514 403.776 269.334 403.514C272.599 402.472 276.275 404.601 277.486 408.391C278.697 412.182 276.935 416.048 273.671 417.09C272.85 417.352 272.221 417.348 271.718 417.174C271.213 417 270.787 416.639 270.402 416.101C269.616 415.001 269.085 413.279 268.446 411.279Z" fill="#95A3BF" stroke="#795764" stroke-width="0.75"/>
<path d="M272.359 407.795C272.896 407.482 274.016 409.149 274.328 409.685C274.641 410.222 274.701 412.072 274.164 412.385C273.328 412.438 272.832 410.842 272.519 410.305C272.207 409.768 271.822 408.107 272.359 407.795Z" fill="#795764"/>
<path d="M271.266 445.883C272.213 444.009 273.01 442.392 273.961 441.43C274.425 440.959 274.904 440.671 275.429 440.579C275.954 440.487 276.576 440.582 277.344 440.97C280.403 442.516 281.531 446.612 279.736 450.163C277.941 453.715 273.974 455.236 270.916 453.69C270.147 453.302 269.702 452.857 269.465 452.38C269.227 451.902 269.176 451.346 269.279 450.693C269.49 449.357 270.319 447.757 271.266 445.883Z" fill="#95A3BF" stroke="#795764" stroke-width="0.75"/>
<path d="M276.499 446.142C277.101 446.296 276.731 448.269 276.577 448.871C276.423 449.473 275.169 450.834 274.567 450.681C273.933 450.132 274.699 448.647 274.853 448.045C275.006 447.443 275.897 445.989 276.499 446.142Z" fill="#795764"/>
<path d="M255.415 468.192C256.378 467.775 257.202 467.409 257.875 467.344C258.204 467.312 258.48 467.354 258.711 467.487C258.942 467.62 259.15 467.855 259.321 468.25C260.002 469.822 259.125 471.757 257.299 472.547C255.473 473.337 253.462 472.653 252.782 471.08C252.611 470.685 252.582 470.372 252.644 470.113C252.705 469.853 252.863 469.623 253.112 469.405C253.621 468.959 254.451 468.609 255.415 468.192Z" fill="#95A3BF" stroke="#795764" stroke-width="0.375"/>
<path d="M257.342 469.966C257.524 470.218 256.75 470.858 256.498 471.04C256.247 471.222 255.329 471.344 255.147 471.092C255.079 470.678 255.849 470.353 256.1 470.171C256.352 469.988 257.159 469.715 257.342 469.966Z" fill="#795764"/>
<path d="M262.889 458.757C263.963 457.606 264.875 456.609 265.761 456.115C266.194 455.873 266.599 455.766 266.997 455.81C267.394 455.853 267.823 456.052 268.295 456.493C270.174 458.246 270.128 461.432 268.092 463.614C266.056 465.795 262.881 466.061 261.002 464.307C260.529 463.866 260.301 463.453 260.23 463.06C260.159 462.666 260.239 462.254 260.45 461.805C260.882 460.887 261.814 459.909 262.889 458.757Z" fill="#95A3BF" stroke="#795764" stroke-width="0.5625"/>
<path d="M266.603 460.041C267.005 460.277 266.325 461.621 266.088 462.022C265.851 462.424 264.663 463.141 264.262 462.905C263.92 462.377 264.783 461.467 265.019 461.066C265.256 460.664 266.202 459.804 266.603 460.041Z" fill="#795764"/>
<path d="M165.901 309.922C167.983 309.648 169.767 309.396 171.098 309.639C171.748 309.758 172.256 309.991 172.628 310.373C173 310.755 173.272 311.322 173.384 312.176C173.83 315.573 171.081 318.813 167.136 319.331C163.191 319.849 159.699 317.429 159.253 314.031C159.141 313.177 159.257 312.559 159.518 312.094C159.779 311.629 160.209 311.273 160.807 310.99C162.029 310.412 163.819 310.195 165.901 309.922Z" fill="#95A3BF" stroke="#795764" stroke-width="0.75"/>
<path d="M168.634 314.391C168.847 314.975 167.008 315.781 166.424 315.993C165.84 316.206 164.009 315.936 163.796 315.353C163.893 314.52 165.551 314.316 166.135 314.103C166.719 313.891 168.422 313.807 168.634 314.391Z" fill="#795764"/>
<path d="M185.371 309.282C187.469 309.387 189.269 309.46 190.534 309.938C191.153 310.172 191.61 310.492 191.908 310.935C192.205 311.377 192.37 311.984 192.327 312.844C192.155 316.267 188.869 318.96 184.895 318.76C180.921 318.56 177.921 315.551 178.093 312.129C178.136 311.268 178.362 310.681 178.702 310.271C179.042 309.86 179.529 309.588 180.168 309.417C181.475 309.068 183.274 309.176 185.371 309.282Z" fill="#95A3BF" stroke="#795764" stroke-width="0.75"/>
<path d="M187.256 314.17C187.36 314.783 185.406 315.245 184.794 315.349C184.181 315.452 182.428 314.858 182.325 314.246C182.569 313.444 184.237 313.541 184.85 313.437C185.462 313.333 187.152 313.558 187.256 314.17Z" fill="#795764"/>
<path d="M146.321 317.48C148.213 316.568 149.829 315.77 151.168 315.584C151.823 315.493 152.378 315.554 152.851 315.801C153.324 316.047 153.76 316.5 154.134 317.276C155.622 320.363 154.027 324.301 150.443 326.029C146.859 327.757 142.785 326.553 141.296 323.466C140.922 322.69 140.839 322.067 140.941 321.544C141.043 321.02 141.34 320.547 141.819 320.091C142.799 319.159 144.43 318.392 146.321 317.48Z" fill="#95A3BF" stroke="#795764" stroke-width="0.75"/>
<path d="M150.318 320.868C150.702 321.356 149.209 322.698 148.721 323.082C148.233 323.467 146.409 323.785 146.025 323.297C145.855 322.476 147.366 321.762 147.854 321.377C148.342 320.993 149.933 320.38 150.318 320.868Z" fill="#795764"/>
<path d="M133.967 328.757C134.942 327.52 135.767 326.45 136.608 325.883C137.019 325.606 137.414 325.465 137.814 325.475C138.214 325.486 138.658 325.647 139.165 326.047C141.184 327.637 141.405 330.816 139.559 333.16C137.713 335.505 134.571 336.035 132.552 334.445C132.044 334.046 131.782 333.653 131.679 333.267C131.575 332.88 131.62 332.463 131.793 331.998C132.146 331.047 132.993 329.994 133.967 328.757Z" fill="#95A3BF" stroke="#795764" stroke-width="0.5625"/>
<path d="M137.776 329.725C138.196 329.927 137.631 331.323 137.429 331.742C137.226 332.162 136.103 332.977 135.683 332.775C135.298 332.277 136.082 331.299 136.284 330.879C136.486 330.459 137.356 329.522 137.776 329.725Z" fill="#795764"/>
<path d="M128.357 340.444C129.225 339.131 129.96 337.996 130.751 337.362C131.138 337.052 131.52 336.879 131.919 336.856C132.318 336.833 132.774 336.958 133.313 337.314C135.456 338.732 135.939 341.881 134.293 344.37C132.647 346.859 129.56 347.648 127.416 346.23C126.878 345.874 126.584 345.504 126.449 345.128C126.314 344.751 126.324 344.332 126.458 343.854C126.731 342.878 127.488 341.758 128.357 340.444Z" fill="#95A3BF" stroke="#795764" stroke-width="0.5625"/>
<path d="M132.233 341.094C132.668 341.261 132.22 342.698 132.053 343.134C131.886 343.569 130.834 344.473 130.399 344.306C129.974 343.843 130.674 342.803 130.841 342.368C131.008 341.932 131.797 340.927 132.233 341.094Z" fill="#795764"/>
<defs>
<filter id="filter0_n_30_14696" x="96.2179" y="60.3911" width="181.108" height="142.492" filterUnits="userSpaceOnUse" color-interpolation-filters="sRGB">
<feFlood flood-opacity="0" result="BackgroundImageFix"/>
<feBlend mode="normal" in="SourceGraphic" in2="BackgroundImageFix" result="shape"/>
<feTurbulence type="fractalNoise" baseFrequency="0.25 0.25" stitchTiles="stitch" numOctaves="3" result="noise" seed="8137" />
<feColorMatrix in="noise" type="luminanceToAlpha" result="alphaNoise" />
<feComponentTransfer in="alphaNoise" result="coloredNoise1">
<feFuncA type="discrete" tableValues="1 1 1 1 1 1 1 1 1 1 1 1 1 1 1 1 1 1 1 1 1 1 1 1 1 1 1 1 1 1 1 1 1 1 1 1 1 1 1 1 1 1 1 1 1 1 1 1 1 1 1 0 0 0 0 0 0 0 0 0 0 0 0 0 0 0 0 0 0 0 0 0 0 0 0 0 0 0 0 0 0 0 0 0 0 0 0 0 0 0 0 0 0 0 0 0 0 0 0 0 "/>
</feComponentTransfer>
<feComposite operator="in" in2="shape" in="coloredNoise1" result="noise1Clipped" />
<feComponentTransfer in="alphaNoise" result="coloredNoise2">
<feFuncA type="discrete" tableValues="0 0 0 0 0 0 0 0 0 0 0 0 0 0 0 0 0 0 0 0 0 0 0 0 0 0 0 0 0 0 0 0 0 0 0 0 0 0 0 0 0 0 0 0 0 0 0 0 0 1 1 1 1 1 1 1 1 1 1 1 1 1 1 1 1 1 1 1 1 1 1 1 1 1 1 1 1 1 1 1 1 1 1 1 1 1 1 1 1 1 1 1 1 1 1 1 1 1 1 1 "/>
</feComponentTransfer>
<feComposite operator="in" in2="shape" in="coloredNoise2" result="noise2Clipped" />
<feFlood flood-color="#AA7F82" result="color1Flood" />
<feComposite operator="in" in2="noise1Clipped" in="color1Flood" result="color1" />
<feFlood flood-color="rgba(255, 255, 255, 0.25)" result="color2Flood" />
<feComposite operator="in" in2="noise2Clipped" in="color2Flood" result="color2" />
<feMerge result="effect1_noise_30_14696">
<feMergeNode in="shape" />
<feMergeNode in="color1" />
<feMergeNode in="color2" />
</feMerge>
</filter>
<filter id="filter1_n_30_14696" x="167.591" y="255.937" width="50.8047" height="31.354" filterUnits="userSpaceOnUse" color-interpolation-filters="sRGB">
<feFlood flood-opacity="0" result="BackgroundImageFix"/>
<feBlend mode="normal" in="SourceGraphic" in2="BackgroundImageFix" result="shape"/>
<feTurbulence type="fractalNoise" baseFrequency="0.25 0.25" stitchTiles="stitch" numOctaves="3" result="noise" seed="8137" />
<feColorMatrix in="noise" type="luminanceToAlpha" result="alphaNoise" />
<feComponentTransfer in="alphaNoise" result="coloredNoise1">
<feFuncA type="discrete" tableValues="1 1 1 1 1 1 1 1 1 1 1 1 1 1 1 1 1 1 1 1 1 1 1 1 1 1 1 1 1 1 1 1 1 1 1 1 1 1 1 1 1 1 1 1 1 1 1 1 1 1 1 0 0 0 0 0 0 0 0 0 0 0 0 0 0 0 0 0 0 0 0 0 0 0 0 0 0 0 0 0 0 0 0 0 0 0 0 0 0 0 0 0 0 0 0 0 0 0 0 0 "/>
</feComponentTransfer>
<feComposite operator="in" in2="shape" in="coloredNoise1" result="noise1Clipped" />
<feComponentTransfer in="alphaNoise" result="coloredNoise2">
<feFuncA type="discrete" tableValues="0 0 0 0 0 0 0 0 0 0 0 0 0 0 0 0 0 0 0 0 0 0 0 0 0 0 0 0 0 0 0 0 0 0 0 0 0 0 0 0 0 0 0 0 0 0 0 0 0 1 1 1 1 1 1 1 1 1 1 1 1 1 1 1 1 1 1 1 1 1 1 1 1 1 1 1 1 1 1 1 1 1 1 1 1 1 1 1 1 1 1 1 1 1 1 1 1 1 1 1 "/>
</feComponentTransfer>
<feComposite operator="in" in2="shape" in="coloredNoise2" result="noise2Clipped" />
<feFlood flood-color="#AA7F82" result="color1Flood" />
<feComposite operator="in" in2="noise1Clipped" in="color1Flood" result="color1" />
<feFlood flood-color="rgba(255, 255, 255, 0.25)" result="color2Flood" />
<feComposite operator="in" in2="noise2Clipped" in="color2Flood" result="color2" />
<feMerge result="effect1_noise_30_14696">
<feMergeNode in="shape" />
<feMergeNode in="color1" />
<feMergeNode in="color2" />
</feMerge>
</filter>
<filter id="filter2_n_30_14696" x="201.826" y="265.5" width="37" height="43.9263" filterUnits="userSpaceOnUse" color-interpolation-filters="sRGB">
<feFlood flood-opacity="0" result="BackgroundImageFix"/>
<feBlend mode="normal" in="SourceGraphic" in2="BackgroundImageFix" result="shape"/>
<feTurbulence type="fractalNoise" baseFrequency="0.25 0.25" stitchTiles="stitch" numOctaves="3" result="noise" seed="8137" />
<feColorMatrix in="noise" type="luminanceToAlpha" result="alphaNoise" />
<feComponentTransfer in="alphaNoise" result="coloredNoise1">
<feFuncA type="discrete" tableValues="1 1 1 1 1 1 1 1 1 1 1 1 1 1 1 1 1 1 1 1 1 1 1 1 1 1 1 1 1 1 1 1 1 1 1 1 1 1 1 1 1 1 1 1 1 1 1 1 1 1 1 0 0 0 0 0 0 0 0 0 0 0 0 0 0 0 0 0 0 0 0 0 0 0 0 0 0 0 0 0 0 0 0 0 0 0 0 0 0 0 0 0 0 0 0 0 0 0 0 0 "/>
</feComponentTransfer>
<feComposite operator="in" in2="shape" in="coloredNoise1" result="noise1Clipped" />
<feComponentTransfer in="alphaNoise" result="coloredNoise2">
<feFuncA type="discrete" tableValues="0 0 0 0 0 0 0 0 0 0 0 0 0 0 0 0 0 0 0 0 0 0 0 0 0 0 0 0 0 0 0 0 0 0 0 0 0 0 0 0 0 0 0 0 0 0 0 0 0 1 1 1 1 1 1 1 1 1 1 1 1 1 1 1 1 1 1 1 1 1 1 1 1 1 1 1 1 1 1 1 1 1 1 1 1 1 1 1 1 1 1 1 1 1 1 1 1 1 1 1 "/>
</feComponentTransfer>
<feComposite operator="in" in2="shape" in="coloredNoise2" result="noise2Clipped" />
<feFlood flood-color="#AA7F82" result="color1Flood" />
<feComposite operator="in" in2="noise1Clipped" in="color1Flood" result="color1" />
<feFlood flood-color="rgba(255, 255, 255, 0.25)" result="color2Flood" />
<feComposite operator="in" in2="noise2Clipped" in="color2Flood" result="color2" />
<feMerge result="effect1_noise_30_14696">
<feMergeNode in="shape" />
<feMergeNode in="color1" />
<feMergeNode in="color2" />
</feMerge>
</filter>
<filter id="filter3_n_30_14696" x="250.879" y="264.96" width="18.0314" height="34.6729" filterUnits="userSpaceOnUse" color-interpolation-filters="sRGB">
<feFlood flood-opacity="0" result="BackgroundImageFix"/>
<feBlend mode="normal" in="SourceGraphic" in2="BackgroundImageFix" result="shape"/>
<feTurbulence type="fractalNoise" baseFrequency="0.25 0.25" stitchTiles="stitch" numOctaves="3" result="noise" seed="8137" />
<feColorMatrix in="noise" type="luminanceToAlpha" result="alphaNoise" />
<feComponentTransfer in="alphaNoise" result="coloredNoise1">
<feFuncA type="discrete" tableValues="1 1 1 1 1 1 1 1 1 1 1 1 1 1 1 1 1 1 1 1 1 1 1 1 1 1 1 1 1 1 1 1 1 1 1 1 1 1 1 1 1 1 1 1 1 1 1 1 1 1 1 0 0 0 0 0 0 0 0 0 0 0 0 0 0 0 0 0 0 0 0 0 0 0 0 0 0 0 0 0 0 0 0 0 0 0 0 0 0 0 0 0 0 0 0 0 0 0 0 0 "/>
</feComponentTransfer>
<feComposite operator="in" in2="shape" in="coloredNoise1" result="noise1Clipped" />
<feComponentTransfer in="alphaNoise" result="coloredNoise2">
<feFuncA type="discrete" tableValues="0 0 0 0 0 0 0 0 0 0 0 0 0 0 0 0 0 0 0 0 0 0 0 0 0 0 0 0 0 0 0 0 0 0 0 0 0 0 0 0 0 0 0 0 0 0 0 0 0 1 1 1 1 1 1 1 1 1 1 1 1 1 1 1 1 1 1 1 1 1 1 1 1 1 1 1 1 1 1 1 1 1 1 1 1 1 1 1 1 1 1 1 1 1 1 1 1 1 1 1 "/>
</feComponentTransfer>
<feComposite operator="in" in2="shape" in="coloredNoise2" result="noise2Clipped" />
<feFlood flood-color="#AA7F82" result="color1Flood" />
<feComposite operator="in" in2="noise1Clipped" in="color1Flood" result="color1" />
<feFlood flood-color="rgba(255, 255, 255, 0.25)" result="color2Flood" />
<feComposite operator="in" in2="noise2Clipped" in="color2Flood" result="color2" />
<feMerge result="effect1_noise_30_14696">
<feMergeNode in="shape" />
<feMergeNode in="color1" />
<feMergeNode in="color2" />
</feMerge>
</filter>
<filter id="filter4_n_30_14696" x="304.27" y="246.743" width="25.5558" height="36.3911" filterUnits="userSpaceOnUse" color-interpolation-filters="sRGB">
<feFlood flood-opacity="0" result="BackgroundImageFix"/>
<feBlend mode="normal" in="SourceGraphic" in2="BackgroundImageFix" result="shape"/>
<feTurbulence type="fractalNoise" baseFrequency="0.25 0.25" stitchTiles="stitch" numOctaves="3" result="noise" seed="8137" />
<feColorMatrix in="noise" type="luminanceToAlpha" result="alphaNoise" />
<feComponentTransfer in="alphaNoise" result="coloredNoise1">
<feFuncA type="discrete" tableValues="1 1 1 1 1 1 1 1 1 1 1 1 1 1 1 1 1 1 1 1 1 1 1 1 1 1 1 1 1 1 1 1 1 1 1 1 1 1 1 1 1 1 1 1 1 1 1 1 1 1 1 0 0 0 0 0 0 0 0 0 0 0 0 0 0 0 0 0 0 0 0 0 0 0 0 0 0 0 0 0 0 0 0 0 0 0 0 0 0 0 0 0 0 0 0 0 0 0 0 0 "/>
</feComponentTransfer>
<feComposite operator="in" in2="shape" in="coloredNoise1" result="noise1Clipped" />
<feComponentTransfer in="alphaNoise" result="coloredNoise2">
<feFuncA type="discrete" tableValues="0 0 0 0 0 0 0 0 0 0 0 0 0 0 0 0 0 0 0 0 0 0 0 0 0 0 0 0 0 0 0 0 0 0 0 0 0 0 0 0 0 0 0 0 0 0 0 0 0 1 1 1 1 1 1 1 1 1 1 1 1 1 1 1 1 1 1 1 1 1 1 1 1 1 1 1 1 1 1 1 1 1 1 1 1 1 1 1 1 1 1 1 1 1 1 1 1 1 1 1 "/>
</feComponentTransfer>
<feComposite operator="in" in2="shape" in="coloredNoise2" result="noise2Clipped" />
<feFlood flood-color="#AA7F82" result="color1Flood" />
<feComposite operator="in" in2="noise1Clipped" in="color1Flood" result="color1" />
<feFlood flood-color="rgba(255, 255, 255, 0.25)" result="color2Flood" />
<feComposite operator="in" in2="noise2Clipped" in="color2Flood" result="color2" />
<feMerge result="effect1_noise_30_14696">
<feMergeNode in="shape" />
<feMergeNode in="color1" />
<feMergeNode in="color2" />
</feMerge>
</filter>
<filter id="filter5_n_30_14696" x="322.137" y="232.741" width="31.9612" height="24.9272" filterUnits="userSpaceOnUse" color-interpolation-filters="sRGB">
<feFlood flood-opacity="0" result="BackgroundImageFix"/>
<feBlend mode="normal" in="SourceGraphic" in2="BackgroundImageFix" result="shape"/>
<feTurbulence type="fractalNoise" baseFrequency="0.25 0.25" stitchTiles="stitch" numOctaves="3" result="noise" seed="8137" />
<feColorMatrix in="noise" type="luminanceToAlpha" result="alphaNoise" />
<feComponentTransfer in="alphaNoise" result="coloredNoise1">
<feFuncA type="discrete" tableValues="1 1 1 1 1 1 1 1 1 1 1 1 1 1 1 1 1 1 1 1 1 1 1 1 1 1 1 1 1 1 1 1 1 1 1 1 1 1 1 1 1 1 1 1 1 1 1 1 1 1 1 0 0 0 0 0 0 0 0 0 0 0 0 0 0 0 0 0 0 0 0 0 0 0 0 0 0 0 0 0 0 0 0 0 0 0 0 0 0 0 0 0 0 0 0 0 0 0 0 0 "/>
</feComponentTransfer>
<feComposite operator="in" in2="shape" in="coloredNoise1" result="noise1Clipped" />
<feComponentTransfer in="alphaNoise" result="coloredNoise2">
<feFuncA type="discrete" tableValues="0 0 0 0 0 0 0 0 0 0 0 0 0 0 0 0 0 0 0 0 0 0 0 0 0 0 0 0 0 0 0 0 0 0 0 0 0 0 0 0 0 0 0 0 0 0 0 0 0 1 1 1 1 1 1 1 1 1 1 1 1 1 1 1 1 1 1 1 1 1 1 1 1 1 1 1 1 1 1 1 1 1 1 1 1 1 1 1 1 1 1 1 1 1 1 1 1 1 1 1 "/>
</feComponentTransfer>
<feComposite operator="in" in2="shape" in="coloredNoise2" result="noise2Clipped" />
<feFlood flood-color="#AA7F82" result="color1Flood" />
<feComposite operator="in" in2="noise1Clipped" in="color1Flood" result="color1" />
<feFlood flood-color="rgba(255, 255, 255, 0.25)" result="color2Flood" />
<feComposite operator="in" in2="noise2Clipped" in="color2Flood" result="color2" />
<feMerge result="effect1_noise_30_14696">
<feMergeNode in="shape" />
<feMergeNode in="color1" />
<feMergeNode in="color2" />
</feMerge>
</filter>
<filter id="filter6_i_30_14696" x="185.826" y="162.633" width="58" height="62" filterUnits="userSpaceOnUse" color-interpolation-filters="sRGB">
<feFlood flood-opacity="0" result="BackgroundImageFix"/>
<feBlend mode="normal" in="SourceGraphic" in2="BackgroundImageFix" result="shape"/>
<feColorMatrix in="SourceAlpha" type="matrix" values="0 0 0 0 0 0 0 0 0 0 0 0 0 0 0 0 0 0 127 0" result="hardAlpha"/>
<feMorphology radius="10" operator="erode" in="SourceAlpha" result="effect1_innerShadow_30_14696"/>
<feOffset dy="4"/>
<feGaussianBlur stdDeviation="5"/>
<feComposite in2="hardAlpha" operator="arithmetic" k2="-1" k3="1"/>
<feColorMatrix type="matrix" values="0 0 0 0 0.951097 0 0 0 0 0.886706 0 0 0 0 0.886706 0 0 0 0.25 0"/>
<feBlend mode="normal" in2="shape" result="effect1_innerShadow_30_14696"/>
</filter>
<filter id="filter7_i_30_14696" x="232.826" y="133.633" width="58" height="62" filterUnits="userSpaceOnUse" color-interpolation-filters="sRGB">
<feFlood flood-opacity="0" result="BackgroundImageFix"/>
<feBlend mode="normal" in="SourceGraphic" in2="BackgroundImageFix" result="shape"/>
<feColorMatrix in="SourceAlpha" type="matrix" values="0 0 0 0 0 0 0 0 0 0 0 0 0 0 0 0 0 0 127 0" result="hardAlpha"/>
<feMorphology radius="10" operator="erode" in="SourceAlpha" result="effect1_innerShadow_30_14696"/>
<feOffset dy="4"/>
<feGaussianBlur stdDeviation="5"/>
<feComposite in2="hardAlpha" operator="arithmetic" k2="-1" k3="1"/>
<feColorMatrix type="matrix" values="0 0 0 0 0.951097 0 0 0 0 0.886706 0 0 0 0 0.886706 0 0 0 0.25 0"/>
<feBlend mode="normal" in2="shape" result="effect1_innerShadow_30_14696"/>
</filter>
<filter id="filter8_n_30_14696" x="325.901" y="198.834" width="43.052" height="15.8604" filterUnits="userSpaceOnUse" color-interpolation-filters="sRGB">
<feFlood flood-opacity="0" result="BackgroundImageFix"/>
<feBlend mode="normal" in="SourceGraphic" in2="BackgroundImageFix" result="shape"/>
<feTurbulence type="fractalNoise" baseFrequency="0.25 0.25" stitchTiles="stitch" numOctaves="3" result="noise" seed="8137" />
<feColorMatrix in="noise" type="luminanceToAlpha" result="alphaNoise" />
<feComponentTransfer in="alphaNoise" result="coloredNoise1">
<feFuncA type="discrete" tableValues="1 1 1 1 1 1 1 1 1 1 1 1 1 1 1 1 1 1 1 1 1 1 1 1 1 1 1 1 1 1 1 1 1 1 1 1 1 1 1 1 1 1 1 1 1 1 1 1 1 1 1 0 0 0 0 0 0 0 0 0 0 0 0 0 0 0 0 0 0 0 0 0 0 0 0 0 0 0 0 0 0 0 0 0 0 0 0 0 0 0 0 0 0 0 0 0 0 0 0 0 "/>
</feComponentTransfer>
<feComposite operator="in" in2="shape" in="coloredNoise1" result="noise1Clipped" />
<feComponentTransfer in="alphaNoise" result="coloredNoise2">
<feFuncA type="discrete" tableValues="0 0 0 0 0 0 0 0 0 0 0 0 0 0 0 0 0 0 0 0 0 0 0 0 0 0 0 0 0 0 0 0 0 0 0 0 0 0 0 0 0 0 0 0 0 0 0 0 0 1 1 1 1 1 1 1 1 1 1 1 1 1 1 1 1 1 1 1 1 1 1 1 1 1 1 1 1 1 1 1 1 1 1 1 1 1 1 1 1 1 1 1 1 1 1 1 1 1 1 1 "/>
</feComponentTransfer>
<feComposite operator="in" in2="shape" in="coloredNoise2" result="noise2Clipped" />
<feFlood flood-color="#AA7F82" result="color1Flood" />
<feComposite operator="in" in2="noise1Clipped" in="color1Flood" result="color1" />
<feFlood flood-color="rgba(255, 255, 255, 0.25)" result="color2Flood" />
<feComposite operator="in" in2="noise2Clipped" in="color2Flood" result="color2" />
<feMerge result="effect1_noise_30_14696">
<feMergeNode in="shape" />
<feMergeNode in="color1" />
<feMergeNode in="color2" />
</feMerge>
</filter>
<filter id="filter9_n_30_14696" x="310.323" y="175.361" width="19.765" height="21.0879" filterUnits="userSpaceOnUse" color-interpolation-filters="sRGB">
<feFlood flood-opacity="0" result="BackgroundImageFix"/>
<feBlend mode="normal" in="SourceGraphic" in2="BackgroundImageFix" result="shape"/>
<feTurbulence type="fractalNoise" baseFrequency="0.25 0.25" stitchTiles="stitch" numOctaves="3" result="noise" seed="8137" />
<feColorMatrix in="noise" type="luminanceToAlpha" result="alphaNoise" />
<feComponentTransfer in="alphaNoise" result="coloredNoise1">
<feFuncA type="discrete" tableValues="1 1 1 1 1 1 1 1 1 1 1 1 1 1 1 1 1 1 1 1 1 1 1 1 1 1 1 1 1 1 1 1 1 1 1 1 1 1 1 1 1 1 1 1 1 1 1 1 1 1 1 0 0 0 0 0 0 0 0 0 0 0 0 0 0 0 0 0 0 0 0 0 0 0 0 0 0 0 0 0 0 0 0 0 0 0 0 0 0 0 0 0 0 0 0 0 0 0 0 0 "/>
</feComponentTransfer>
<feComposite operator="in" in2="shape" in="coloredNoise1" result="noise1Clipped" />
<feComponentTransfer in="alphaNoise" result="coloredNoise2">
<feFuncA type="discrete" tableValues="0 0 0 0 0 0 0 0 0 0 0 0 0 0 0 0 0 0 0 0 0 0 0 0 0 0 0 0 0 0 0 0 0 0 0 0 0 0 0 0 0 0 0 0 0 0 0 0 0 1 1 1 1 1 1 1 1 1 1 1 1 1 1 1 1 1 1 1 1 1 1 1 1 1 1 1 1 1 1 1 1 1 1 1 1 1 1 1 1 1 1 1 1 1 1 1 1 1 1 1 "/>
</feComponentTransfer>
<feComposite operator="in" in2="shape" in="coloredNoise2" result="noise2Clipped" />
<feFlood flood-color="#AA7F82" result="color1Flood" />
<feComposite operator="in" in2="noise1Clipped" in="color1Flood" result="color1" />
<feFlood flood-color="rgba(255, 255, 255, 0.25)" result="color2Flood" />
<feComposite operator="in" in2="noise2Clipped" in="color2Flood" result="color2" />
<feMerge result="effect1_noise_30_14696">
<feMergeNode in="shape" />
<feMergeNode in="color1" />
<feMergeNode in="color2" />
</feMerge>
</filter>
</defs>
</svg>
