<svg width="317" height="301" viewBox="0 0 317 301" fill="none" xmlns="http://www.w3.org/2000/svg">
<g filter="url(#filter0_d_133_638)">
<path d="M137.8 182.658C131.09 253.308 114.483 277.461 168.846 282.624C223.208 287.787 263.71 274.191 270.42 203.54C277.13 132.89 288.117 103.139 230.398 86.8585C162.611 72.1334 144.51 112.007 137.8 182.658Z" fill="#F6A480"/>
</g>
<g filter="url(#filter1_ddd_133_638)">
<path d="M211.923 11.5451C219.459 10.7778 225.777 19.4972 230.486 29.4765C238.845 19.7104 249.282 10.7037 257.146 14.486C266.955 19.2035 264.387 39.3043 261.2 53.3774C276.156 51.6466 294.181 51.0454 298.364 57.3563C301.846 62.609 295.434 72.2745 287.637 81.065C297.83 86.6007 306.713 93.0325 306.915 98.711C307.196 106.599 290.625 112.279 276.885 115.629C283.718 129.241 291.008 147.601 284.101 153.306C279.103 157.433 267.693 154.937 256.442 150.827C254.466 162.058 250.936 172.176 244.623 173.07C237.497 174.078 227.894 163.993 219.907 153.361C212.287 167.274 200.726 184.862 192.479 181.407C184.997 178.274 184.122 158.837 184.795 142.386C171.789 149.349 156.429 155.558 151.818 149.16C146.867 142.288 157.349 124.023 166.871 110.081C154.742 104.091 141.78 95.6983 142.985 87.5927C144.099 80.1014 153.757 74.4135 164.464 70.3537C158.493 59.9959 154.062 48.7674 158.634 43.31C165.036 35.6685 182.425 38.4238 196.442 42.3084C198.199 28.5183 202.31 12.5241 211.923 11.5451Z" fill="#E2B69F"/>
</g>
<g filter="url(#filter2_d_133_638)">
<path d="M159.421 187.089C166.131 257.74 182.738 281.892 128.375 287.055C74.0125 292.219 33.5112 278.623 26.8011 207.972C20.0911 137.322 9.10386 107.571 66.8231 91.2903C134.61 76.5652 152.711 116.439 159.421 187.089Z" fill="#F6A480"/>
</g>
<g filter="url(#filter3_ddd_133_638)">
<path d="M80.1382 40.8129C87.7076 41.1165 92.7323 50.6402 95.9858 61.184C105.639 52.6949 117.242 45.2508 124.495 50.1049C133.54 56.159 128.161 75.6964 123.02 89.1791C138.071 89.5759 156.001 91.5237 159.251 98.3617C161.957 104.053 154.246 112.717 145.287 120.32C154.597 127.238 162.483 134.859 161.882 140.509C161.047 148.358 143.84 151.643 129.766 153.021C134.61 167.461 139.237 186.666 131.593 191.339C126.063 194.72 115.12 190.639 104.561 184.983C101.021 195.823 96.0985 205.341 89.7222 205.335C82.5252 205.328 74.4414 193.989 68.0337 182.336C58.5274 195.035 44.6007 210.816 36.9233 206.233C29.9583 202.075 31.8346 182.709 34.8218 166.518C20.9634 171.576 4.88068 175.556 1.21924 168.572C-2.7135 161.069 10.2406 144.466 21.6353 132.007C10.4719 124.366 -1.17554 114.228 1.16064 106.373C3.32004 99.1142 13.6838 94.8459 24.8569 92.3373C20.4069 81.2407 17.6048 69.4994 22.9009 64.7416C30.3165 58.0797 47.1436 63.261 60.4722 69.0844C64.1568 55.68 70.4833 40.4257 80.1382 40.8129Z" fill="#E2B69F"/>
</g>
<path d="M123 121.18C123 134.988 95.7721 149.208 78.3751 149.208C60.9782 149.208 39.2501 128.14 39.2501 114.333C39.2501 100.526 67.6032 88.3054 85.0001 88.3054C102.397 88.3054 123 107.373 123 121.18Z" fill="#B86F4F"/>
<path d="M123 121.18C123 134.988 95.7721 149.208 78.3751 149.208C60.9782 149.208 39.2501 128.14 39.2501 114.333C39.2501 100.526 67.6032 88.3054 85.0001 88.3054C102.397 88.3054 123 107.373 123 121.18Z" fill="#B86F4F"/>
<path d="M262.674 112.871C257.558 125.695 226.999 128.815 210.84 122.37C194.682 115.924 182.306 88.3049 187.422 75.4805C192.537 62.656 223.4 61.8105 239.559 68.2563C255.718 74.702 267.79 100.046 262.674 112.871Z" fill="#B86F4F"/>
<g filter="url(#filter4_d_133_638)">
<path d="M95.8024 200.287C96.9004 271.247 83.0496 297.078 137.65 296.234C192.251 295.389 231.012 277.423 229.914 206.463C228.816 135.502 236.466 104.724 177.307 94.8881C108.312 87.7047 94.7044 129.327 95.8024 200.287Z" fill="#F6A480"/>
</g>
<g filter="url(#filter5_ddd_133_638)">
<path d="M160.888 32.5629C168.458 32.8665 173.482 42.3902 176.736 52.934C186.389 44.4449 197.992 37.0008 205.245 41.8549C214.29 47.909 208.911 67.4464 203.77 80.9291C218.821 81.3258 236.751 83.2737 240.001 90.1117C242.707 95.803 234.996 104.467 226.037 112.07C235.347 118.988 243.233 126.609 242.632 132.259C241.797 140.108 224.59 143.393 210.516 144.771C215.36 159.211 219.987 178.416 212.343 183.089C206.814 186.47 195.87 182.39 185.311 176.734C181.771 187.573 176.848 197.091 170.472 197.085C163.275 197.078 155.191 185.739 148.784 174.086C139.277 186.785 125.351 202.566 117.673 197.983C110.708 193.825 112.585 174.46 115.572 158.269C101.713 163.327 85.6307 167.306 81.9692 160.322C78.0365 152.819 90.9906 136.216 102.385 123.757C91.2219 116.116 79.5744 105.978 81.9106 98.1234C84.07 90.8642 94.4339 86.5968 105.607 84.0883C101.157 72.9914 98.3547 61.2495 103.651 56.4916C111.067 49.8298 127.894 55.011 141.222 60.8344C144.907 47.43 151.233 32.1757 160.888 32.5629Z" fill="#E2B69F"/>
</g>
<path d="M199.5 117.93C199.5 131.738 172.272 145.958 154.875 145.958C137.478 145.958 115.75 124.89 115.75 111.083C115.75 97.2758 144.103 85.0554 161.5 85.0554C178.897 85.0554 199.5 104.123 199.5 117.93Z" fill="#B86F4F"/>
<defs>
<filter id="filter0_d_133_638" x="129.582" y="83.3188" width="150.846" height="204.787" filterUnits="userSpaceOnUse" color-interpolation-filters="sRGB">
<feFlood flood-opacity="0" result="BackgroundImageFix"/>
<feColorMatrix in="SourceAlpha" type="matrix" values="0 0 0 0 0 0 0 0 0 0 0 0 0 0 0 0 0 0 127 0" result="hardAlpha"/>
<feOffset dx="2" dy="2"/>
<feGaussianBlur stdDeviation="1.25"/>
<feComposite in2="hardAlpha" operator="out"/>
<feColorMatrix type="matrix" values="0 0 0 0 0 0 0 0 0 0 0 0 0 0 0 0 0 0 0.25 0"/>
<feBlend mode="normal" in2="BackgroundImageFix" result="effect1_dropShadow_133_638"/>
<feBlend mode="normal" in="SourceGraphic" in2="effect1_dropShadow_133_638" result="shape"/>
</filter>
<filter id="filter1_ddd_133_638" x="142.407" y="10.998" width="169.012" height="175.349" filterUnits="userSpaceOnUse" color-interpolation-filters="sRGB">
<feFlood flood-opacity="0" result="BackgroundImageFix"/>
<feColorMatrix in="SourceAlpha" type="matrix" values="0 0 0 0 0 0 0 0 0 0 0 0 0 0 0 0 0 0 127 0" result="hardAlpha"/>
<feOffset dx="2" dy="2"/>
<feGaussianBlur stdDeviation="1.25"/>
<feComposite in2="hardAlpha" operator="out"/>
<feColorMatrix type="matrix" values="0 0 0 0 0 0 0 0 0 0 0 0 0 0 0 0 0 0 0.25 0"/>
<feBlend mode="normal" in2="BackgroundImageFix" result="effect1_dropShadow_133_638"/>
<feColorMatrix in="SourceAlpha" type="matrix" values="0 0 0 0 0 0 0 0 0 0 0 0 0 0 0 0 0 0 127 0" result="hardAlpha"/>
<feOffset dx="2" dy="2"/>
<feGaussianBlur stdDeviation="1.25"/>
<feComposite in2="hardAlpha" operator="out"/>
<feColorMatrix type="matrix" values="0 0 0 0 0 0 0 0 0 0 0 0 0 0 0 0 0 0 0.25 0"/>
<feBlend mode="normal" in2="effect1_dropShadow_133_638" result="effect2_dropShadow_133_638"/>
<feColorMatrix in="SourceAlpha" type="matrix" values="0 0 0 0 0 0 0 0 0 0 0 0 0 0 0 0 0 0 127 0" result="hardAlpha"/>
<feOffset dx="2" dy="2"/>
<feGaussianBlur stdDeviation="1.25"/>
<feComposite in2="hardAlpha" operator="out"/>
<feColorMatrix type="matrix" values="0 0 0 0 0 0 0 0 0 0 0 0 0 0 0 0 0 0 0.25 0"/>
<feBlend mode="normal" in2="effect2_dropShadow_133_638" result="effect3_dropShadow_133_638"/>
<feBlend mode="normal" in="SourceGraphic" in2="effect3_dropShadow_133_638" result="shape"/>
</filter>
<filter id="filter2_d_133_638" x="20.7927" y="87.7506" width="150.846" height="204.787" filterUnits="userSpaceOnUse" color-interpolation-filters="sRGB">
<feFlood flood-opacity="0" result="BackgroundImageFix"/>
<feColorMatrix in="SourceAlpha" type="matrix" values="0 0 0 0 0 0 0 0 0 0 0 0 0 0 0 0 0 0 127 0" result="hardAlpha"/>
<feOffset dx="2" dy="2"/>
<feGaussianBlur stdDeviation="1.25"/>
<feComposite in2="hardAlpha" operator="out"/>
<feColorMatrix type="matrix" values="0 0 0 0 0.128718 0 0 0 0 0.0826101 0 0 0 0 0.0826101 0 0 0 0.25 0"/>
<feBlend mode="normal" in2="BackgroundImageFix" result="effect1_dropShadow_133_638"/>
<feBlend mode="normal" in="SourceGraphic" in2="effect1_dropShadow_133_638" result="shape"/>
</filter>
<filter id="filter3_ddd_133_638" x="0" y="40.3057" width="166.415" height="171.238" filterUnits="userSpaceOnUse" color-interpolation-filters="sRGB">
<feFlood flood-opacity="0" result="BackgroundImageFix"/>
<feColorMatrix in="SourceAlpha" type="matrix" values="0 0 0 0 0 0 0 0 0 0 0 0 0 0 0 0 0 0 127 0" result="hardAlpha"/>
<feOffset dx="2" dy="2"/>
<feGaussianBlur stdDeviation="1.25"/>
<feComposite in2="hardAlpha" operator="out"/>
<feColorMatrix type="matrix" values="0 0 0 0 0 0 0 0 0 0 0 0 0 0 0 0 0 0 0.25 0"/>
<feBlend mode="normal" in2="BackgroundImageFix" result="effect1_dropShadow_133_638"/>
<feColorMatrix in="SourceAlpha" type="matrix" values="0 0 0 0 0 0 0 0 0 0 0 0 0 0 0 0 0 0 127 0" result="hardAlpha"/>
<feOffset dx="2" dy="2"/>
<feGaussianBlur stdDeviation="1.25"/>
<feComposite in2="hardAlpha" operator="out"/>
<feColorMatrix type="matrix" values="0 0 0 0 0 0 0 0 0 0 0 0 0 0 0 0 0 0 0.25 0"/>
<feBlend mode="normal" in2="effect1_dropShadow_133_638" result="effect2_dropShadow_133_638"/>
<feColorMatrix in="SourceAlpha" type="matrix" values="0 0 0 0 0 0 0 0 0 0 0 0 0 0 0 0 0 0 127 0" result="hardAlpha"/>
<feOffset dx="2" dy="2"/>
<feGaussianBlur stdDeviation="1.25"/>
<feComposite in2="hardAlpha" operator="out"/>
<feColorMatrix type="matrix" values="0 0 0 0 0 0 0 0 0 0 0 0 0 0 0 0 0 0 0.25 0"/>
<feBlend mode="normal" in2="effect2_dropShadow_133_638" result="effect3_dropShadow_133_638"/>
<feBlend mode="normal" in="SourceGraphic" in2="effect3_dropShadow_133_638" result="shape"/>
</filter>
<filter id="filter4_d_133_638" x="94.4967" y="93.5872" width="139.94" height="207.166" filterUnits="userSpaceOnUse" color-interpolation-filters="sRGB">
<feFlood flood-opacity="0" result="BackgroundImageFix"/>
<feColorMatrix in="SourceAlpha" type="matrix" values="0 0 0 0 0 0 0 0 0 0 0 0 0 0 0 0 0 0 127 0" result="hardAlpha"/>
<feOffset dx="2" dy="2"/>
<feGaussianBlur stdDeviation="1.25"/>
<feComposite in2="hardAlpha" operator="out"/>
<feColorMatrix type="matrix" values="0 0 0 0 0 0 0 0 0 0 0 0 0 0 0 0 0 0 0.25 0"/>
<feBlend mode="normal" in2="BackgroundImageFix" result="effect1_dropShadow_133_638"/>
<feBlend mode="normal" in="SourceGraphic" in2="effect1_dropShadow_133_638" result="shape"/>
</filter>
<filter id="filter5_ddd_133_638" x="80.75" y="32.0557" width="166.415" height="171.238" filterUnits="userSpaceOnUse" color-interpolation-filters="sRGB">
<feFlood flood-opacity="0" result="BackgroundImageFix"/>
<feColorMatrix in="SourceAlpha" type="matrix" values="0 0 0 0 0 0 0 0 0 0 0 0 0 0 0 0 0 0 127 0" result="hardAlpha"/>
<feOffset dx="2" dy="2"/>
<feGaussianBlur stdDeviation="1.25"/>
<feComposite in2="hardAlpha" operator="out"/>
<feColorMatrix type="matrix" values="0 0 0 0 0 0 0 0 0 0 0 0 0 0 0 0 0 0 0.25 0"/>
<feBlend mode="normal" in2="BackgroundImageFix" result="effect1_dropShadow_133_638"/>
<feColorMatrix in="SourceAlpha" type="matrix" values="0 0 0 0 0 0 0 0 0 0 0 0 0 0 0 0 0 0 127 0" result="hardAlpha"/>
<feOffset dx="2" dy="2"/>
<feGaussianBlur stdDeviation="1.25"/>
<feComposite in2="hardAlpha" operator="out"/>
<feColorMatrix type="matrix" values="0 0 0 0 0 0 0 0 0 0 0 0 0 0 0 0 0 0 0.25 0"/>
<feBlend mode="normal" in2="effect1_dropShadow_133_638" result="effect2_dropShadow_133_638"/>
<feColorMatrix in="SourceAlpha" type="matrix" values="0 0 0 0 0 0 0 0 0 0 0 0 0 0 0 0 0 0 127 0" result="hardAlpha"/>
<feOffset dx="2" dy="2"/>
<feGaussianBlur stdDeviation="1.25"/>
<feComposite in2="hardAlpha" operator="out"/>
<feColorMatrix type="matrix" values="0 0 0 0 0 0 0 0 0 0 0 0 0 0 0 0 0 0 0.25 0"/>
<feBlend mode="normal" in2="effect2_dropShadow_133_638" result="effect3_dropShadow_133_638"/>
<feBlend mode="normal" in="SourceGraphic" in2="effect3_dropShadow_133_638" result="shape"/>
</filter>
</defs>
</svg>
