<svg width="575" height="885" viewBox="0 0 575 885" fill="none" xmlns="http://www.w3.org/2000/svg">
<path opacity="0.88" d="M431.014 800.202C454.679 807.324 456.841 793.278 470.224 738.518C485.515 726.298 525.435 746.013 536.406 735.857C547.377 725.701 541.446 718.634 539.481 714.206C536.59 700.941 453.951 722.553 455.493 708.852C457.036 695.15 490.615 689.34 508.38 688.911C534.254 688.286 541.435 707.712 541.403 674.944C541.37 642.176 468.533 682.674 449.6 676.976C434.454 672.418 465.707 639.179 481.219 633.37C494.106 624.853 493.683 623.398 493.554 610.964C493.388 595.044 459.809 586.644 439.85 629.332C412.089 688.707 410.382 644.583 415.266 609.539C420.832 569.602 411.516 567.684 385.585 570.948C359.655 574.212 402.634 662.843 392.014 659.647C375.054 654.543 376.605 585.067 360.321 574.855C344.038 564.643 321.459 578.211 327.232 591.9C337.561 616.389 358.069 646.185 363.228 663.822C349.1 687.901 344.4 658.881 317.872 631.581C289.298 602.176 260.81 626.803 312.261 663.092C328.167 680.274 341.5 690.095 329.065 704.449C317.201 718.143 305.108 758.329 323.73 767.917L431.014 800.202Z" fill="#7F587D"/>
<g filter="url(#filter0_d_195_1778)">
<path d="M27.2366 64.9551C169.32 -4.76132 299.942 -53.9986 264.649 111.352C247.271 192.769 334.568 111.658 341.377 161.455C349.101 217.949 217.893 239.854 339.549 259.772C436.874 275.708 378.133 302.444 354.075 318.314C323.509 329.003 293.398 380.283 324.115 355.481C374.956 314.428 487.785 309.711 445.569 342.99C403.352 376.269 485.264 404.549 415.811 449.488C346.358 494.427 324.104 567.532 373.141 556.613C440.778 541.553 471.767 544.515 430.307 585.349C412.668 602.722 446.225 672.241 396.291 669.569C346.358 666.897 390.844 711.836 415.811 711.836C440.778 711.836 556.407 721.673 529.171 748.15C501.935 774.628 569.697 791.269 482.994 816.532C396.292 841.795 448.236 832.8 425.344 852.24C416.938 859.378 377.663 863.024 322.915 864.719C323.993 859.9 323.111 854.972 319.4 849.933C303.59 828.466 244.433 815.821 224.782 833.439C218.921 838.692 217.011 850.893 217.635 866C155.878 865.976 88.4543 865.044 27.2366 864.387L27.2366 64.9551ZM222.368 26.9033C207.618 21.9057 173.394 23.9358 163.709 41.1572C154.025 58.3787 148.623 84.8834 171.62 88.5869C194.618 92.2904 238.315 92.8545 230.797 64.1104C232.655 41.455 244.657 34.4554 222.368 26.9033Z" fill="url(#paint0_linear_195_1778)"/>
</g>
<path d="M322.873 260.581C319.371 274.106 306.784 274.209 292.264 270.449C277.744 266.689 266.79 260.49 270.292 246.965C273.794 233.441 288.404 225.526 302.923 229.286C317.443 233.045 326.375 247.057 322.873 260.581Z" fill="#A7495B"/>
<path d="M301.118 216.658L302.729 244.945L329.987 241.688L304.446 252.138L315.746 277.91L298.35 256.08L278.075 275.265L292.865 251.325L269.035 237.409L295.571 244.442L301.118 216.658Z" fill="#A7495B"/>
<path d="M283.576 220.267L299.642 243.605L321.246 226.667L304.845 248.86L327.886 265.017L301.683 255.395L294.319 282.319L294.526 254.179L266.934 254.662L293.265 246.893L283.576 220.267Z" fill="#F4ECFB"/>
<path d="M272.596 229.374L296.971 243.819L309.475 219.379L303.898 246.406L331.591 251.406L303.77 253.665L308.38 281.194L296.763 255.564L271.919 267.578L292.561 249.479L272.596 229.374Z" fill="#A7495B"/>
<path d="M265.908 245.15L294.238 245.521L292.895 218.101L301.533 244.311L328.033 234.84L305.04 250.667L322.761 272.234L299.913 255.807L284.365 278.606L293.237 252.626L265.908 245.15Z" fill="#F4ECFB"/>
<path d="M267.646 261.31L292.76 248.193L278.566 224.694L298.607 243.665L317.439 222.755L304.71 247.597L330.542 258.172L302.635 254.554L299.769 282L295.25 254.922L267.646 261.31Z" fill="#A7495B"/>
<path d="M311.853 280.32L297.501 255.89L274.738 271.236L292.689 250.276L270.866 232.509L296.311 243.985L305.587 217.658L303.363 245.71L330.918 247.207L304.098 253.069L311.853 280.32Z" fill="#F4ECFB"/>
<path d="M288.334 218.266L300.59 243.811L324.558 230.425L304.916 249.809L325.174 269.341L300.779 255.775L289.332 281.232L293.897 253.465L266.564 249.666L293.78 246.071L288.334 218.266Z" fill="#A7495B"/>
<defs>
<filter id="filter0_d_195_1778" x="4.00543e-05" y="0" width="533.296" height="884.158" filterUnits="userSpaceOnUse" color-interpolation-filters="sRGB">
<feFlood flood-opacity="0" result="BackgroundImageFix"/>
<feColorMatrix in="SourceAlpha" type="matrix" values="0 0 0 0 0 0 0 0 0 0 0 0 0 0 0 0 0 0 127 0" result="hardAlpha"/>
<feOffset dx="-18.1577" dy="9.07884"/>
<feGaussianBlur stdDeviation="4.53942"/>
<feComposite in2="hardAlpha" operator="out"/>
<feColorMatrix type="matrix" values="0 0 0 0 0 0 0 0 0 0 0 0 0 0 0 0 0 0 0.25 0"/>
<feBlend mode="normal" in2="BackgroundImageFix" result="effect1_dropShadow_195_1778"/>
<feBlend mode="normal" in="SourceGraphic" in2="effect1_dropShadow_195_1778" result="shape"/>
</filter>
<linearGradient id="paint0_linear_195_1778" x1="268.945" y1="256.941" x2="268.945" y2="2042.43" gradientUnits="userSpaceOnUse">
<stop stop-color="#6180B0"/>
<stop offset="0.355769" stop-color="#0C2141"/>
</linearGradient>
</defs>
</svg>
