<svg width="1368" height="645" viewBox="0 0 1368 645" fill="none" xmlns="http://www.w3.org/2000/svg">
<g filter="url(#filter0_dn_77_225)">
<mask id="path-1-inside-1_77_225" fill="white">
<path d="M1301.04 12.1153C1301.04 12.0712 1301.04 12.0266 1301.04 11.9825C1300.25 12.0223 1299.47 12.0655 1298.68 12.1067L1297.11 12.1015L1297.11 12.1894C1093.39 23.2485 1144.4 83.0755 1025.32 199.782C793.663 259.402 730 469.403 663.704 615.565C643.268 642.945 707.032 657.913 801.008 663.296L800.823 673.318L1284.79 673.669L1284.74 676.266L1361.36 676.537L1373.73 12.3738L1301.04 12.1153Z"/>
</mask>
<path d="M1301.04 12.1153C1301.04 12.0712 1301.04 12.0266 1301.04 11.9825C1300.25 12.0223 1299.47 12.0655 1298.68 12.1067L1297.11 12.1015L1297.11 12.1894C1093.39 23.2485 1144.4 83.0755 1025.32 199.782C793.663 259.402 730 469.403 663.704 615.565C643.268 642.945 707.032 657.913 801.008 663.296L800.823 673.318L1284.79 673.669L1284.74 676.266L1361.36 676.537L1373.73 12.3738L1301.04 12.1153Z" fill="url(#paint0_linear_77_225)"/>
<path d="M1301.04 12.1153L1301.03 16.1095L1297.01 16.0952L1297.05 12.0815L1301.04 12.1153ZM1301.04 11.9825L1300.84 7.99343L1305.07 7.78006L1305.03 12.0165L1301.04 11.9825ZM1298.68 12.1067L1298.89 16.0953L1298.78 16.1012L1298.67 16.1008L1298.68 12.1067ZM1297.11 12.1015L1293.12 12.0682L1293.15 8.09421L1297.13 8.10733L1297.11 12.1015ZM1297.11 12.1894L1301.11 12.2227L1301.07 15.9743L1297.33 16.1776L1297.11 12.1894ZM1025.32 199.782L1028.12 202.635L1027.36 203.384L1026.32 203.65L1025.32 199.782ZM663.704 615.565L667.341 617.215L667.163 617.609L666.904 617.955L663.704 615.565ZM801.008 663.296L801.237 659.308L805.073 659.528L805.002 663.369L801.008 663.296ZM800.823 673.318L800.82 677.312L796.755 677.309L796.83 673.244L800.823 673.318ZM1284.79 673.669L1284.79 669.675L1288.86 669.677L1288.79 673.743L1284.79 673.669ZM1284.74 676.266L1284.73 680.26L1280.67 680.246L1280.75 676.191L1284.74 676.266ZM1361.36 676.537L1365.36 676.612L1365.28 680.545L1361.35 680.531L1361.36 676.537ZM1373.73 12.3738L1373.75 8.37968L1377.8 8.3941L1377.73 12.4482L1373.73 12.3738ZM1301.04 12.1153L1297.05 12.0815C1297.05 12.0725 1297.05 12.0615 1297.05 12.0374C1297.05 12.0171 1297.05 11.9837 1297.05 11.9485L1301.04 11.9825L1305.03 12.0165C1305.03 12.0254 1305.03 12.0364 1305.03 12.0604C1305.03 12.0806 1305.03 12.114 1305.03 12.1491L1301.04 12.1153ZM1301.04 11.9825L1301.24 15.9716C1300.46 16.0111 1299.69 16.0534 1298.89 16.0953L1298.68 12.1067L1298.47 8.11804C1299.24 8.07751 1300.04 8.03348 1300.84 7.99343L1301.04 11.9825ZM1298.68 12.1067L1298.67 16.1008L1297.1 16.0956L1297.11 12.1015L1297.13 8.10733L1298.7 8.11252L1298.68 12.1067ZM1297.11 12.1015L1301.11 12.1348L1301.11 12.2227L1297.11 12.1894L1293.12 12.1561L1293.12 12.0682L1297.11 12.1015ZM1297.11 12.1894L1297.33 16.1776C1195.8 21.6893 1158.97 39.3094 1132.46 69.0272C1118.89 84.2329 1108.02 102.558 1092.68 125.042C1077.43 147.376 1058.13 173.22 1028.12 202.635L1025.32 199.782L1022.53 196.93C1052.05 167.991 1071.03 142.592 1086.08 120.539C1101.03 98.6358 1112.47 79.4304 1126.5 63.7086C1155.17 31.5715 1194.71 13.7485 1296.89 8.20107L1297.11 12.1894ZM1025.32 199.782L1026.32 203.65C796.935 262.684 733.993 470.268 667.341 617.215L663.704 615.565L660.066 613.916C726.006 468.538 790.392 256.12 1024.33 195.914L1025.32 199.782ZM663.704 615.565L666.904 617.955C664.685 620.929 663.894 623.351 663.876 625.294C663.858 627.177 664.56 629.124 666.354 631.218C670.145 635.644 678.183 639.982 690.641 643.866C715.279 651.549 754.301 656.62 801.237 659.308L801.008 663.296L800.78 667.283C753.74 664.589 713.891 659.484 688.263 651.492C675.587 647.54 665.642 642.666 660.288 636.416C657.509 633.172 655.848 629.416 655.888 625.219C655.927 621.081 657.614 617.047 660.503 613.176L663.704 615.565ZM801.008 663.296L805.002 663.369L804.817 673.392L800.823 673.318L796.83 673.244L797.015 663.222L801.008 663.296ZM800.823 673.318L800.826 669.324L1284.79 669.675L1284.79 673.669L1284.79 677.663L800.82 677.312L800.823 673.318ZM1284.79 673.669L1288.79 673.743L1288.74 676.341L1284.74 676.266L1280.75 676.191L1280.8 673.594L1284.79 673.669ZM1284.74 676.266L1284.76 672.272L1361.38 672.543L1361.36 676.537L1361.35 680.531L1284.73 680.26L1284.74 676.266ZM1361.36 676.537L1357.37 676.463L1369.74 12.2994L1373.73 12.3738L1377.73 12.4482L1365.36 676.612L1361.36 676.537ZM1373.73 12.3738L1373.72 16.3679L1301.03 16.1095L1301.04 12.1153L1301.05 8.12121L1373.75 8.37968L1373.73 12.3738Z" fill="#ACA689" mask="url(#path-1-inside-1_77_225)"/>
</g>
<path d="M816.724 347.695C826.562 363.937 814.719 376.284 797.281 386.846C779.844 397.408 763.415 402.186 753.577 385.944C743.739 369.702 749.9 347.973 767.337 337.411C784.775 326.849 806.886 331.453 816.724 347.695Z" fill="#A7495B"/>
<path d="M753.335 327.185L782.392 352.461L805.089 322.843L791.021 357.614L826.825 371.074L789.074 367.288L788.503 405.225L779.24 368.113L743.084 378.099L775.11 358.949L753.335 327.185Z" fill="#A7495B"/>
<path d="M740.201 347.681L778.159 354.192L782.176 317.094L788.21 354.115L825.797 347.025L791.569 363.394L810.782 396.11L783.594 369.205L757.881 396.515L775.306 363.518L740.201 347.681Z" fill="#F4ECFB"/>
<path d="M738.644 367.009L775.831 356.995L763.914 321.634L784.923 352.708L816.068 330.503L791.865 359.721L823.031 381.358L787.064 368.343L775.181 403.92L777.154 366.658L738.644 367.009Z" fill="#A7495B"/>
<path d="M747.65 388.488L774.895 361.27L746.937 336.557L780.64 353.021L796.569 318.246L790.154 355.641L827.957 358.861L790.289 365.508L797.724 402.273L780.859 368.987L747.65 388.488Z" fill="#F4ECFB"/>
<path d="M765.026 402.131L776.092 365.244L739.755 356.757L777.235 355.257L774.755 317.088L786.852 353.048L821.657 337.945L791.654 361.669L815.644 390.504L785.004 369.207L765.026 402.131Z" fill="#A7495B"/>
<path d="M825.476 377.15L788.083 367.934L781.416 404.649L778.052 367.29L740.053 371.667L775.367 357.795L758.549 323.785L783.738 352.57L811.343 327.174L791.597 358.837L825.476 377.15Z" fill="#F4ECFB"/>
<path d="M742.769 341.151L779.259 353.466L788.976 317.438L789.2 354.947L827.432 353.767L791.081 364.634L804.993 399.933L782.302 369.14L752.668 392.135L774.995 362.237L742.769 341.151Z" fill="#A7495B"/>
<g filter="url(#filter1_d_77_225)">
<path d="M415.522 334.268C391.061 381.54 372.741 393.691 409.115 412.513C445.489 431.335 477.475 433.222 501.937 385.95C526.398 338.677 542.377 321.057 506.782 293.561C463.747 264.326 439.983 286.995 415.522 334.268Z" fill="#F6A480"/>
</g>
<g filter="url(#filter2_ddd_77_225)">
<path d="M515.028 235.988C520.486 237.565 522.439 245.402 522.919 253.664C531.47 249.211 541.255 245.87 545.666 250.704C551.168 256.734 543.752 269.998 537.591 278.896C548.482 281.882 561.189 286.514 562.332 292.077C563.282 296.706 556.114 301.634 548.227 305.565C553.767 312.272 558.146 319.236 556.696 323.243C554.681 328.81 541.561 328.12 531.064 326.601C532.004 337.985 531.932 352.8 525.528 354.833C520.895 356.305 513.656 351.373 506.98 345.362C502.459 352.622 497.168 358.671 492.525 357.524C487.285 356.229 483.43 346.523 480.852 336.888C471.653 344.433 458.683 353.43 453.913 348.716C449.585 344.44 454.423 330.67 459.501 319.414C448.501 320.614 436.075 320.633 434.66 314.89C433.14 308.721 445.55 298.949 456.081 291.918C449.321 284.352 442.653 274.884 445.763 269.583C448.636 264.683 456.949 263.431 465.535 263.606C464.283 254.728 464.346 245.675 469.055 243.159C475.65 239.636 486.976 246.425 495.64 253.054C500.725 243.952 508.066 233.976 515.028 235.988Z" fill="#E2B69F"/>
</g>
<g filter="url(#filter3_d_77_225)">
<path d="M429.322 343.408C414.197 394.44 418.985 415.896 379.718 404.258C340.45 392.62 316.082 371.815 331.207 320.783C346.332 269.75 347.022 245.974 391.739 250.818C443.024 259.564 444.447 292.376 429.322 343.408Z" fill="#F6A480"/>
</g>
<g filter="url(#filter4_ddd_77_225)">
<path d="M415.144 219.43C420.325 221.762 421.153 229.795 420.463 238.042C429.557 234.841 439.715 232.913 443.4 238.322C447.997 245.068 438.782 257.153 431.428 265.092C441.788 269.585 453.715 275.964 454.062 281.632C454.349 286.349 446.558 290.216 438.195 292.995C442.734 300.417 446.086 307.928 444.085 311.691C441.305 316.918 428.413 314.384 418.236 311.399C417.56 322.802 415.398 337.458 408.772 338.568C403.978 339.371 397.507 333.467 391.745 326.574C386.246 333.124 380.154 338.366 375.72 336.576C370.715 334.554 368.268 324.401 367.075 314.499C356.903 320.671 342.793 327.748 338.736 322.408C335.055 317.564 341.788 304.615 348.402 294.187C337.343 293.823 325.039 292.089 324.448 286.204C323.814 279.883 337.478 271.959 348.897 266.484C343.271 258.04 338.006 247.726 341.832 242.916C345.368 238.471 353.774 238.404 362.251 239.789C362.263 230.823 363.602 221.869 368.62 220.043C375.645 217.486 385.901 225.804 393.542 233.59C399.861 225.297 408.536 216.456 415.144 219.43Z" fill="#E2B69F"/>
</g>
<path d="M422.448 287.351C418.58 296.957 395.654 299.222 383.55 294.348C371.447 289.474 362.233 268.73 366.101 259.124C369.969 249.519 393.118 248.96 405.221 253.834C417.325 258.708 426.317 277.745 422.448 287.351Z" fill="#B86F4F"/>
<path d="M422.448 287.351C418.58 296.957 395.654 299.222 383.55 294.348C371.447 289.474 362.233 268.73 366.101 259.124C369.969 249.519 393.118 248.96 405.221 253.834C417.325 258.708 426.317 277.745 422.448 287.351Z" fill="#B86F4F"/>
<path d="M521.949 320.7C514.797 328.189 492.663 321.799 483.227 312.787C473.791 303.776 472.918 281.094 480.07 273.605C487.222 266.116 508.931 274.174 518.367 283.186C527.803 292.197 529.101 313.211 521.949 320.7Z" fill="#B86F4F"/>
<g filter="url(#filter5_d_77_225)">
<path d="M381.365 334.767C362.249 384.442 345.376 398.533 383.599 413.242C421.822 427.95 453.822 426.31 472.938 376.635C492.053 326.96 505.998 307.69 467.596 284.273C421.608 259.947 400.481 285.091 381.365 334.767Z" fill="#F6A480"/>
</g>
<g filter="url(#filter6_ddd_77_225)">
<path d="M473.634 236.313C478.815 238.645 479.643 246.678 478.953 254.925C488.047 251.724 498.205 249.796 501.89 255.205C506.487 261.95 497.272 274.036 489.918 281.975C500.278 286.468 512.205 292.847 512.552 298.514C512.839 303.232 505.048 307.099 496.685 309.878C501.224 317.299 504.576 324.811 502.575 328.574C499.795 333.801 486.903 331.267 476.726 328.282C476.05 339.685 473.888 354.341 467.262 355.451C462.468 356.254 455.997 350.35 450.235 343.457C444.736 350.006 438.644 355.249 434.21 353.458C429.205 351.437 426.758 341.284 425.565 331.382C415.393 337.554 401.283 344.63 397.226 339.291C393.545 334.446 400.278 321.498 406.892 311.07C395.833 310.706 383.529 308.972 382.938 303.087C382.304 296.765 395.968 288.842 407.387 283.366C401.761 274.923 396.496 264.609 400.322 259.799C403.858 255.353 412.264 255.288 420.74 256.673C420.753 247.706 422.092 238.752 427.11 236.926C434.135 234.369 444.391 242.687 452.032 250.473C458.351 242.18 467.026 233.339 473.634 236.313Z" fill="#E2B69F"/>
</g>
<path d="M476.581 306.522C472.713 316.127 449.786 318.393 437.683 313.519C425.58 308.645 416.365 287.901 420.233 278.295C424.102 268.689 447.251 268.131 459.354 273.004C471.457 277.878 480.449 296.916 476.581 306.522Z" fill="#B86F4F"/>
<g filter="url(#filter7_dn_77_225)">
<mask id="path-21-inside-2_77_225" fill="white">
<path d="M80.158 190.705C104.408 190.021 142.612 194.603 216.512 193.738L218.361 193.759C374.745 195.894 328.917 306.189 525.074 352.358C581.476 356.686 626.08 363.491 660.037 371.94L790.565 372.986C809.346 365.498 835.354 358.788 869.801 353.117C1163.08 304.832 1073.16 266.524 1251.43 220.018C1272.78 214.45 1290.2 214.251 1304.41 218.161L1378.82 218.758L1377.03 377.689L1377.03 377.69L1373.49 693.38L-41.8669 682.029L-38.3209 366.34L-23.0776 366.462L-21.0934 189.894L80.158 190.705Z"/>
</mask>
<path d="M80.158 190.705C104.408 190.021 142.612 194.603 216.512 193.738L218.361 193.759C374.745 195.894 328.917 306.189 525.074 352.358C581.476 356.686 626.08 363.491 660.037 371.94L790.565 372.986C809.346 365.498 835.354 358.788 869.801 353.117C1163.08 304.832 1073.16 266.524 1251.43 220.018C1272.78 214.45 1290.2 214.251 1304.41 218.161L1378.82 218.758L1377.03 377.689L1377.03 377.69L1373.49 693.38L-41.8669 682.029L-38.3209 366.34L-23.0776 366.462L-21.0934 189.894L80.158 190.705Z" fill="url(#paint1_linear_77_225)"/>
<path d="M80.158 190.705L80.126 194.699L80.1983 194.7L80.2705 194.698L80.158 190.705ZM216.512 193.738L216.557 189.744L216.511 189.743L216.465 189.744L216.512 193.738ZM218.361 193.759L218.415 189.765L218.405 189.765L218.361 193.759ZM525.074 352.358L524.159 356.246L524.46 356.317L524.769 356.341L525.074 352.358ZM660.037 371.94L659.073 375.816L659.532 375.93L660.005 375.934L660.037 371.94ZM790.565 372.986L790.533 376.98L791.317 376.986L792.044 376.696L790.565 372.986ZM869.801 353.117L869.152 349.176L869.801 353.117ZM1251.43 220.018L1250.42 216.153L1250.42 216.153L1251.43 220.018ZM1304.41 218.161L1303.35 222.012L1303.86 222.151L1304.38 222.155L1304.41 218.161ZM1378.82 218.758L1382.81 218.803L1382.86 214.796L1378.85 214.764L1378.82 218.758ZM1377.03 377.689L1373.04 377.644L1373.02 379.326L1374.21 380.515L1377.03 377.689ZM1377.03 377.69L1381.03 377.735L1381.04 376.053L1379.85 374.865L1377.03 377.69ZM1373.49 693.38L1373.45 697.374L1377.43 697.406L1377.48 693.425L1373.49 693.38ZM-41.8669 682.029L-45.8608 681.984L-45.9058 685.991L-41.8989 686.023L-41.8669 682.029ZM-38.3209 366.34L-38.2889 362.346L-42.27 362.314L-42.3148 366.295L-38.3209 366.34ZM-23.0776 366.462L-23.1096 370.456L-19.1285 370.488L-19.0837 366.507L-23.0776 366.462ZM-21.0934 189.894L-21.0614 185.9L-25.0425 185.868L-25.0873 189.849L-21.0934 189.894ZM80.158 190.705L80.2705 194.698C92.2058 194.361 107.576 195.322 129.542 196.28C151.408 197.234 179.512 198.166 216.559 197.732L216.512 193.738L216.465 189.744C179.612 190.176 151.664 189.249 129.89 188.299C108.217 187.354 92.3601 186.365 80.0454 186.713L80.158 190.705ZM216.512 193.738L216.467 197.732L218.316 197.752L218.361 193.759L218.405 189.765L216.557 189.744L216.512 193.738ZM218.361 193.759L218.306 197.752C256.904 198.279 282.69 205.469 302.757 216.452C322.912 227.482 337.585 242.474 353.936 259.327C370.234 276.125 388.055 294.605 414.198 311.74C440.365 328.892 474.722 344.61 524.159 356.246L525.074 352.358L525.989 348.471C477.347 337.022 443.874 321.64 418.577 305.059C393.257 288.462 375.982 270.578 359.669 253.764C343.409 237.005 327.957 221.137 306.592 209.444C285.139 197.703 258.009 190.305 218.415 189.765L218.361 193.759ZM525.074 352.358L524.769 356.341C581.031 360.657 625.4 367.437 659.073 375.816L660.037 371.94L661.002 368.064C626.76 359.544 581.921 352.714 525.38 348.376L525.074 352.358ZM660.037 371.94L660.005 375.934L790.533 376.98L790.565 372.986L790.597 368.992L660.069 367.946L660.037 371.94ZM790.565 372.986L792.044 376.696C810.451 369.357 836.147 362.706 870.45 357.058L869.801 353.117L869.152 349.176C834.561 354.871 808.24 361.639 789.086 369.276L790.565 372.986ZM869.801 353.117L870.45 357.058C1017.31 332.88 1068.7 311.127 1105.77 289.344C1124.44 278.375 1138.51 268.045 1159.66 257.198C1180.57 246.472 1208.09 235.452 1252.44 223.883L1251.43 220.018L1250.42 216.153C1205.64 227.837 1177.55 239.045 1156.01 250.091C1134.71 261.015 1119.52 272 1101.72 282.457C1065.86 303.526 1015.58 325.069 869.152 349.176L869.801 353.117ZM1251.43 220.018L1252.44 223.883C1273.31 218.438 1290 218.337 1303.35 222.012L1304.41 218.161L1305.47 214.31C1290.41 210.165 1272.24 210.461 1250.42 216.153L1251.43 220.018ZM1304.41 218.161L1304.38 222.155L1378.78 222.752L1378.82 218.758L1378.85 214.764L1304.44 214.167L1304.41 218.161ZM1378.82 218.758L1374.82 218.713L1373.04 377.644L1377.03 377.689L1381.02 377.734L1382.81 218.803L1378.82 218.758ZM1377.03 377.689L1374.21 380.515L1374.21 380.516L1377.03 377.69L1379.85 374.865L1379.85 374.864L1377.03 377.689ZM1377.03 377.69L1373.04 377.645L1369.49 693.336L1373.49 693.38L1377.48 693.425L1381.03 377.735L1377.03 377.69ZM1373.49 693.38L1373.52 689.386L-41.8349 678.035L-41.8669 682.029L-41.8989 686.023L1373.45 697.374L1373.49 693.38ZM-41.8669 682.029L-37.873 682.074L-34.327 366.385L-38.3209 366.34L-42.3148 366.295L-45.8608 681.984L-41.8669 682.029ZM-38.3209 366.34L-38.3528 370.334L-23.1096 370.456L-23.0776 366.462L-23.0457 362.468L-38.2889 362.346L-38.3209 366.34ZM-23.0776 366.462L-19.0837 366.507L-17.0995 189.939L-21.0934 189.894L-25.0873 189.849L-27.0715 366.417L-23.0776 366.462ZM-21.0934 189.894L-21.1254 193.888L80.126 194.699L80.158 190.705L80.19 186.711L-21.0614 185.9L-21.0934 189.894Z" fill="#A39F86" mask="url(#path-21-inside-2_77_225)"/>
</g>
<path d="M429.7 715.497C400.053 710.911 404.962 694.873 418.669 629.803C408.231 608.963 354.228 609.413 347.459 592.986C340.691 576.558 350.859 572.094 355.31 568.397C365.356 555.784 444.791 621.195 450.202 605.841C455.612 590.487 421.795 567.067 402.533 557.487C374.478 543.535 356.533 560.492 373.553 525.684C390.574 490.876 449.469 571.324 473.187 574.992C492.162 577.927 475.114 526.55 461.111 512.411C451.392 496.741 452.609 495.411 459.196 482.264C467.63 465.43 508.813 473.748 508.577 529.365C508.249 606.724 532.992 560.708 545.8 520.956C560.396 475.655 571.608 478.401 598.356 495.187C625.105 511.973 532.025 584.092 545.329 586.15C566.577 589.436 600.887 514.804 624.04 512.314C647.193 509.824 664.925 535.84 651.496 547.423C627.475 568.144 589.538 589.277 574.737 605.371C577.752 638.218 597.949 609.789 641.195 594.401C687.776 577.825 706.256 618.629 631.016 630.772C604.664 640.862 584.95 644.452 591.149 666.093C597.062 686.739 589.496 735.658 564.102 736.284L429.7 715.497Z" fill="#7F587D"/>
<g filter="url(#filter8_dn_77_225)">
<mask id="path-24-inside-3_77_225" fill="white">
<path d="M18.05 467.735C154.556 394.138 168.004 450.186 260.214 519.465C501.099 548.215 498.299 580.144 543.613 645.482C663.127 707.99 486.559 701.377 347.307 694.295L25.1221 693.064L25.123 692.821L-12.8722 692.7L-12.2826 507.264L-11.4037 507.267C-9.2753 492.479 -0.12046 478.945 18.05 467.735Z"/>
</mask>
<path d="M18.05 467.735C154.556 394.138 168.004 450.186 260.214 519.465C501.099 548.215 498.299 580.144 543.613 645.482C663.127 707.99 486.559 701.377 347.307 694.295L25.1221 693.064L25.123 692.821L-12.8722 692.7L-12.2826 507.264L-11.4037 507.267C-9.2753 492.479 -0.12046 478.945 18.05 467.735Z" fill="url(#paint2_linear_77_225)"/>
<path d="M18.05 467.735L16.1545 464.219L16.052 464.275L15.9529 464.336L18.05 467.735ZM260.214 519.465L257.815 522.658L258.674 523.304L259.741 523.431L260.214 519.465ZM543.613 645.482L540.331 647.758L540.891 648.566L541.762 649.021L543.613 645.482ZM347.307 694.295L347.51 690.306L347.416 690.301L347.323 690.3L347.307 694.295ZM25.1221 693.064L21.128 693.05L21.1138 697.043L25.1069 697.058L25.1221 693.064ZM25.123 692.821L29.1171 692.835L29.1314 688.839L25.1357 688.827L25.123 692.821ZM-12.8722 692.7L-16.8663 692.688L-16.879 696.682L-12.8848 696.694L-12.8722 692.7ZM-12.2826 507.264L-12.2711 503.27L-16.264 503.259L-16.2767 507.252L-12.2826 507.264ZM-11.4037 507.267L-11.4152 511.261L-7.94469 511.271L-7.45027 507.836L-11.4037 507.267ZM18.05 467.735L19.9455 471.251C87.9221 434.601 123.978 430.962 154.191 443.702C169.557 450.181 183.749 461.023 200.091 474.854C216.327 488.596 234.639 505.246 257.815 522.658L260.214 519.465L262.613 516.272C239.684 499.045 221.737 482.709 205.251 468.757C188.872 454.894 173.88 443.334 157.295 436.341C123.605 422.136 84.684 427.272 16.1545 464.219L18.05 467.735ZM260.214 519.465L259.741 523.431C380.217 537.81 438.994 552.927 473.293 572.233C507.337 591.396 517.303 614.554 540.331 647.758L543.613 645.482L546.895 643.205C524.61 611.072 513.319 585.596 477.212 565.272C441.362 545.093 381.096 529.87 260.688 515.499L260.214 519.465ZM543.613 645.482L541.762 649.021C556.6 656.782 566.553 663.326 572.51 668.766C578.716 674.433 579.465 677.842 579.057 679.549C578.612 681.415 576.221 684.01 569.369 686.511C562.854 688.89 553.591 690.709 542.048 692.016C495.839 697.245 417.263 693.853 347.51 690.306L347.307 694.295L347.104 698.283C416.603 701.818 495.937 705.274 542.947 699.953C554.708 698.622 564.707 696.717 572.108 694.015C579.171 691.436 585.351 687.595 586.828 681.402C588.343 675.049 584.366 668.775 577.897 662.867C571.178 656.731 560.505 649.809 545.464 641.942L543.613 645.482ZM347.307 694.295L347.323 690.3L25.1374 689.07L25.1221 693.064L25.1069 697.058L347.292 698.289L347.307 694.295ZM25.1221 693.064L29.1163 693.078L29.1171 692.835L25.123 692.821L21.1289 692.807L21.128 693.05L25.1221 693.064ZM25.123 692.821L25.1357 688.827L-12.8595 688.706L-12.8722 692.7L-12.8848 696.694L25.1103 696.815L25.123 692.821ZM-12.8722 692.7L-8.87805 692.713L-8.28846 507.277L-12.2826 507.264L-16.2767 507.252L-16.8663 692.688L-12.8722 692.7ZM-12.2826 507.264L-12.2941 511.259L-11.4152 511.261L-11.4037 507.267L-11.3922 503.273L-12.2711 503.27L-12.2826 507.264ZM-11.4037 507.267L-7.45027 507.836C-5.52907 494.488 2.72918 481.88 20.1472 471.134L18.05 467.735L15.9529 464.336C-2.9701 476.01 -13.0215 490.471 -15.3571 506.698L-11.4037 507.267Z" fill="#ACA689" mask="url(#path-24-inside-3_77_225)"/>
</g>
<g filter="url(#filter9_dn_77_225)">
<mask id="path-26-inside-4_77_225" fill="white">
<path fill-rule="evenodd" clip-rule="evenodd" d="M1356.52 465.548C1219.42 389.332 1127.82 421.077 1032.95 488.565C788.02 512.666 813.503 604.781 717.262 656.778C552.709 718.587 867.424 695.222 1043.23 686.099L1345.06 690.7L1345.07 690.456L1383.62 691.069L1386.54 505.654L1385.65 505.639C1383.77 490.814 1374.74 477.106 1356.52 465.548Z"/>
</mask>
<path fill-rule="evenodd" clip-rule="evenodd" d="M1356.52 465.548C1219.42 389.332 1127.82 421.077 1032.95 488.565C788.02 512.666 813.503 604.781 717.262 656.778C552.709 718.587 867.424 695.222 1043.23 686.099L1345.06 690.7L1345.07 690.456L1383.62 691.069L1386.54 505.654L1385.65 505.639C1383.77 490.814 1374.74 477.106 1356.52 465.548Z" fill="url(#paint3_linear_77_225)"/>
<path fill-rule="evenodd" clip-rule="evenodd" d="M1356.52 465.548L1358.46 462.057L1358.56 462.113L1358.66 462.175L1356.52 465.548ZM1032.95 488.565L1035.27 491.82L1034.4 492.436L1033.35 492.54L1032.95 488.565ZM717.262 656.778L719.16 660.292L718.921 660.421L718.666 660.517L717.262 656.778ZM1043.23 686.099L1043.03 682.111L1043.16 682.104L1043.29 682.106L1043.23 686.099ZM1345.06 690.7L1349.06 690.761L1349 694.754L1345 694.693L1345.06 690.7ZM1345.07 690.456L1341.07 690.395L1341.14 686.399L1345.13 686.463L1345.07 690.456ZM1383.62 691.069L1387.61 691.132L1387.55 695.126L1383.55 695.062L1383.62 691.069ZM1386.54 505.654L1386.6 501.66L1390.6 501.725L1390.53 505.717L1386.54 505.654ZM1385.65 505.639L1385.58 509.633L1382.12 509.577L1381.69 506.142L1385.65 505.639ZM1356.52 465.548L1354.58 469.039C1286.59 431.244 1230.28 420.419 1179.42 427.127C1128.47 433.848 1082.49 458.226 1035.27 491.82L1032.95 488.565L1030.64 485.311C1078.28 451.416 1125.54 426.178 1178.38 419.207C1231.31 412.225 1289.35 423.635 1358.46 462.057L1356.52 465.548ZM1032.95 488.565L1033.35 492.54C911.429 504.536 857.469 533.381 822.015 565.184C804.066 581.285 790.915 598.047 775.69 614.647C760.563 631.141 743.765 646.999 719.16 660.292L717.262 656.778L715.363 653.264C738.88 640.558 754.987 625.403 769.803 609.248C784.522 593.199 798.354 575.677 816.681 559.237C853.78 525.958 909.545 496.695 1032.56 484.59L1032.95 488.565ZM717.262 656.778L718.666 660.517C698.108 668.239 685.535 674.461 679.256 679.317C676.009 681.829 675.207 683.405 675.093 683.988C675.065 684.129 675.075 684.174 675.133 684.282C675.231 684.467 675.531 684.88 676.337 685.443C678.002 686.605 680.972 687.818 685.489 688.925C689.922 690.011 695.517 690.919 702.17 691.653C715.471 693.12 732.68 693.858 752.649 694.044C832.573 694.787 954.993 686.679 1043.03 682.111L1043.23 686.099L1043.44 690.088C955.663 694.643 832.822 702.778 752.574 702.032C732.5 701.845 714.984 701.103 701.294 699.593C694.451 698.838 688.483 697.883 683.588 696.684C678.778 695.505 674.655 694.01 671.765 691.993C668.774 689.906 666.422 686.682 667.255 682.447C667.96 678.86 670.817 675.746 674.369 672.998C681.689 667.338 695.278 660.769 715.857 653.039L717.262 656.778ZM1043.23 686.099L1043.29 682.106L1345.12 686.706L1345.06 690.7L1345 694.693L1043.17 690.093L1043.23 686.099ZM1345.06 690.7L1341.07 690.638L1341.07 690.395L1345.07 690.456L1349.06 690.518L1349.06 690.761L1345.06 690.7ZM1345.07 690.456L1345.13 686.463L1383.68 687.075L1383.62 691.069L1383.55 695.062L1345 694.45L1345.07 690.456ZM1383.62 691.069L1379.62 691.006L1382.55 505.591L1386.54 505.654L1390.53 505.717L1387.61 691.132L1383.62 691.069ZM1386.54 505.654L1386.48 509.647L1385.58 509.633L1385.65 505.639L1385.71 501.646L1386.6 501.66L1386.54 505.654ZM1385.65 505.639L1381.69 506.142C1379.99 492.779 1371.86 480.011 1354.38 468.921L1356.52 465.548L1358.66 462.175C1377.61 474.201 1387.55 488.848 1389.61 505.137L1385.65 505.639Z" fill="#ACA689" mask="url(#path-26-inside-4_77_225)"/>
</g>
<path d="M410.442 487.722C394.7 493.592 378.695 523.75 372.66 538.096C372.221 543.596 372.749 553.218 378.377 547.704C384.006 542.191 406.768 512.216 417.445 497.918L430.658 504.731C436.261 512.887 454.029 524.476 462.213 529.251C465.109 545.604 470.884 574.258 470.821 558.06C470.757 541.861 464.601 525.159 461.531 518.834C439.285 498.099 418.202 489.453 410.442 487.722Z" fill="#FDAF81"/>
<path d="M394.495 536.665C405.844 521.135 432.498 492.063 448.319 500.019C454.107 504.227 467.613 523.03 464.598 554.927C460.953 561.472 448.284 576.811 430.599 580.306C433.956 574.74 448.445 564.716 451.425 562.114C451.426 562.113 451.428 562.111 451.429 562.11C454.149 548.021 459.364 518.598 454.511 513.044C454.793 513.421 453.375 515.304 445.445 519.811C437.515 524.318 406.854 532.734 394.495 536.665Z" fill="#FF985C"/>
<path d="M269.964 485.629C285.097 485.547 304.683 506.15 312.584 516.463L311.966 522.509C286.701 497.116 271.163 496.614 266.552 499.537C260.955 499.779 231.258 524.26 218.846 538.605C219.087 536.253 221.279 529.531 232.381 514.373C243.483 499.215 259.689 492.046 269.964 485.629Z" fill="#FFA977"/>
<path d="M275.365 500.915C294.594 503.939 310.159 514.597 315.538 519.548C307.899 522.618 292.021 528.764 289.621 528.786C287.222 528.808 273.845 516.93 267.457 510.988C253.623 529.116 244.557 531.971 241.621 538.998C239.273 544.62 242.787 556.988 246.86 564.951C230.714 549.099 232.01 545.087 232.631 540.081C240.151 524.011 256.137 497.892 275.365 500.915Z" fill="#FF9F67"/>
<path d="M280.191 516.166L318.128 529.004C320.673 530.726 322.896 537.096 312.948 538.327C303 539.557 289.582 531.245 284.117 526.936C280.776 530.957 272.631 535.119 263.197 537.408C253.357 537.821 248.89 550.034 248.798 557.524C247.43 550.102 248.542 540.936 249.269 537.281C259.181 527.434 274.014 519.102 280.191 516.166Z" fill="#FF9A60"/>
<rect x="307.097" y="484.403" width="90.1869" height="59.3914" rx="20" transform="rotate(6.05163 307.097 484.403)" fill="url(#paint4_linear_77_225)"/>
<path d="M279.778 512.169C284.43 525.632 295.893 532.479 302.767 538.274C316.615 549.796 322.522 547.921 333.584 546.952L333.363 543.353C329.203 529.825 316.116 523.288 311.459 521.349C313.295 515.013 309.355 505.084 308.271 500.982C305.38 490.044 301.441 486.209 299.833 485.659C307.099 495.441 303.121 509.169 300.223 514.811C298.036 515.389 295.949 511.552 295.179 509.562C292.152 478.181 287.372 477.25 285.36 480.707C281.477 485.39 274.96 498.227 279.778 512.169Z" fill="#FF8139"/>
<path d="M414.068 499.884C405.949 501.323 391.288 510.328 381.546 520.677L376.54 549.399C392.56 554.656 419.42 524.145 428.546 507.91C432.314 511.38 435.293 527.012 436.47 534.111C438.086 545.451 442.157 553.219 443.99 555.686C439.389 564.187 427.173 575.644 421.482 580.595C441.413 570.755 449.178 557.128 450.569 551.544C454.463 530.163 446.366 525.523 444.021 516.003C438.97 496.405 423.324 496.519 414.068 499.884Z" fill="#FF8E4C"/>
<path d="M401.719 500.501C386.261 508.586 377.649 526.814 374.845 533.228C354.306 547.824 367.611 548.914 376.494 550.615C387.896 547.134 401.974 552.136 418.755 527.592C440.755 495.413 417.997 509.435 407.023 522.464C395.979 528.55 389.34 524.557 390.905 525.24C392.156 525.787 402.545 510.976 409.023 503.258C412.069 499.132 417.177 492.415 401.719 500.501Z" fill="#FC792D"/>
<path d="M329.241 478.041C329.458 482.115 333.747 486.443 335.865 488.098L341.802 488.96C339.427 488.615 335.833 481.356 335.322 477.914C333.205 476.259 329.024 473.968 329.241 478.041Z" fill="#FFA977"/>
<path d="M372.513 479.272C371.147 483.116 364.856 489.451 362.356 490.435C360.046 490.1 353.053 489.085 355.428 489.43C357.803 489.774 364.261 480.431 365.73 477.276C368.23 476.292 373.88 475.428 372.513 479.272Z" fill="#FFA977"/>
<ellipse cx="331.099" cy="467.068" rx="7.17593" ry="12" transform="rotate(-2.34535 331.099 467.068)" fill="#030303"/>
<ellipse cx="370.548" cy="470.002" rx="6.52186" ry="12" transform="rotate(9.22533 370.548 470.002)" fill="#030303"/>
<path d="M1340 191.226C1331.6 191.226 1318.83 202.559 1313.5 208.226C1312.33 210.726 1310.9 215.326 1314.5 213.726C1318.1 212.126 1334 202.059 1341.5 197.226L1346.5 202.726C1347.7 207.526 1354 216.059 1357 219.726C1355.5 227.892 1353.2 242.326 1356 234.726C1358.8 227.126 1358.83 218.226 1358.5 214.726C1351.7 201.126 1343.33 193.392 1340 191.226Z" fill="#FDAF81"/>
<path d="M1313 213.045C1317.5 204.545 1328.6 188.245 1337 191.045C1340.17 192.712 1348.2 201.045 1349 217.045C1347.67 220.545 1342.5 229.045 1334 232.045C1335.26 229.05 1341.71 223.049 1343 221.547C1343 221.547 1343 221.546 1343 221.545C1343.33 214.378 1343.8 199.445 1341 197.045C1341.17 197.212 1340.6 198.245 1337 201.045C1333.4 203.845 1318.83 210.212 1313 213.045Z" fill="#FF985C"/>
<path d="M1250.5 192.226C1258.1 191.426 1269 200.559 1273.5 205.226L1273.5 208.226C1259.5 197.026 1251.67 197.559 1249.5 199.226C1246.7 199.626 1229.5 219.059 1224 226.726C1224 225.559 1225.2 221.226 1230 213.226C1234.8 205.226 1245.67 195.892 1250.5 192.226Z" fill="#FFA977"/>
<path d="M1254.55 197.84C1264.15 199.44 1271.88 204.84 1274.55 207.34C1270.71 208.84 1262.75 211.84 1261.55 211.84C1260.35 211.84 1253.71 205.84 1250.55 202.84C1243.55 211.84 1237.05 218.34 1235.55 221.84C1234.35 224.64 1238.05 233.34 1240.05 237.34C1232.05 229.34 1230.71 222.34 1231.05 219.84C1234.88 211.84 1244.95 196.24 1254.55 197.84Z" fill="#FF9F67"/>
<path d="M1254 208.226L1274 207.226C1275.5 207.559 1277.4 208.826 1273 211.226C1268.6 213.626 1260.83 212.226 1257.5 211.226C1256.69 213.709 1253.97 218.428 1250 221.226C1245.5 223.226 1245.67 229.726 1247 233.226C1245 230.026 1243.83 225.559 1243.5 223.726C1246.3 217.326 1251.67 210.726 1254 208.226Z" fill="#FF9A60"/>
<rect x="1270" y="188.464" width="45.0935" height="29.6957" rx="10" transform="rotate(-2.20958 1270 188.464)" fill="url(#paint5_linear_77_225)"/>
<path d="M1258 216.226C1263.4 211.578 1270.07 211.502 1274.5 210.726C1283.38 209.229 1285.46 211.525 1290 214.726L1289 216.226C1283.8 221.026 1276.5 220.559 1274 220.226C1273.2 223.426 1269 226.726 1267.5 228.226C1263.5 232.226 1260.83 232.893 1260 232.726C1265.6 230.326 1267.33 223.393 1267.5 220.226C1266.7 219.426 1264.83 220.559 1264 221.226C1254.8 234.026 1252.5 233.226 1252.5 231.226C1252 228.226 1252.41 221.04 1258 216.226Z" fill="#FF8139"/>
<path d="M1329 200.725C1325 201.725 1318 206.725 1313.5 212.226L1312 226.726C1320.17 228.792 1332.51 212.641 1336.5 204.226C1338.5 205.826 1340.53 213.52 1341.36 217.02C1342.56 222.62 1344.86 226.353 1345.86 227.52C1343.86 231.92 1338.17 238.059 1335.5 240.726C1345.1 235.126 1348.5 228.059 1349 225.226C1350.2 214.426 1346 212.392 1344.5 207.726C1341.3 198.126 1333.5 198.726 1329 200.725Z" fill="#FF8E4C"/>
<path d="M1286.04 217.764C1292.84 211.364 1301.54 209.764 1305.04 209.764C1315.84 202.164 1316.54 210.597 1315.54 215.764C1316.87 221.264 1314.64 232.464 1295.04 233.264C1275.44 234.064 1286.87 228.597 1295.04 225.764C1300.04 221.264 1299.54 216.764 1299.54 217.764C1299.54 218.564 1289.87 222.097 1285.04 223.764C1282.54 224.43 1279.24 224.164 1286.04 217.764Z" fill="#FA803A"/>
<path d="M1280.5 183.726C1280.9 185.726 1283.33 187.559 1284.5 188.226L1287.5 188.226C1286.3 188.226 1284 184.892 1283.5 183.226C1282.33 182.559 1280.1 181.726 1280.5 183.726Z" fill="#FFA977"/>
<path d="M1302 181.226C1301.6 183.226 1298.94 186.813 1297.78 187.479C1296.61 187.479 1293.08 187.479 1294.28 187.479C1295.48 187.479 1298 182.392 1298.5 180.726C1299.67 180.059 1302.4 179.226 1302 181.226Z" fill="#FFA977"/>
<ellipse cx="1280.63" cy="178.162" rx="3.58796" ry="6" transform="rotate(-10.6066 1280.63 178.162)" fill="#030303"/>
<ellipse cx="1300.36" cy="176.78" rx="3.26093" ry="6" transform="rotate(0.964111 1300.36 176.78)" fill="#030303"/>
<path d="M1416.95 638.027C1436.51 622.144 1425.9 612.278 1387.38 569.637C1385.82 549.743 1425.31 527.36 1423.03 512.292C1420.74 497.223 1411.39 498.18 1406.53 497.302C1393.68 492.145 1364.59 574.222 1353.92 565.076C1343.25 555.93 1357.57 524.281 1367.38 509.051C1381.67 486.87 1402.17 491.935 1374.51 473.201C1346.85 454.466 1339.31 539.089 1323.66 551.796C1311.14 561.961 1301 516.569 1304.98 500.159C1305.18 484.414 1303.71 483.937 1293.15 476.927C1279.63 467.952 1253.31 491.464 1277.89 532.74C1312.08 590.152 1273.88 566.328 1247.12 542.143C1216.62 514.582 1209.67 521.342 1197.58 545.082C1185.48 568.822 1284.85 583.317 1276.07 590.445C1262.06 601.828 1204.34 560.741 1186.41 568.628C1168.47 576.515 1166.99 603.328 1181.84 606.297C1208.41 611.607 1245.28 611.369 1263.11 617.115C1275.33 642.819 1248.16 630.167 1209.95 636.911C1168.79 644.175 1173.25 682.305 1233.31 659.686C1256.91 656.108 1272.83 650.485 1277.82 669.192C1282.58 687.039 1309.55 720.248 1328.3 710.031L1416.95 638.027Z" fill="#7F587D"/>
<path opacity="0.88" d="M62.1933 733.748C84.5824 745.301 89.3703 731.627 112.999 679.243C130.605 669.849 166.935 697.056 179.825 688.925C192.715 680.794 188.09 672.604 186.946 667.8C186.524 653.966 99.6691 660.207 103.771 646.762C107.874 633.318 142.612 633.76 160.496 636.645C186.544 640.847 190.117 661.656 196.198 628.809C202.28 595.962 121.724 622.96 103.813 613.717C89.4838 606.323 127.007 578.841 143.638 575.914C158.142 569.783 157.99 568.245 160.18 555.76C162.985 539.774 130.899 525.089 102.931 564.148C64.0293 618.475 70.5517 573.934 81.9854 539.724C95.0151 500.737 86.0362 497.077 59.4391 495.51C32.8421 493.943 59.3799 590.789 49.3325 585.605C33.2869 577.325 47.8044 507.985 33.3904 494.712C18.9764 481.438 -6.18457 490.824 -2.95235 505.621C2.82965 532.091 17.8238 565.78 19.704 584.418C1.05114 605.915 1.75613 575.953 -19.737 543.643C-42.8875 508.841 -76.0342 528.208 -31.2406 574.177C-18.5046 594.365 -6.97405 606.695 -22.1155 618.761C-36.5604 630.271 -56.1784 668.29 -39.3044 681.374L62.1933 733.748Z" fill="#7F587D"/>
<g clip-path="url(#clip0_77_225)">
<path d="M934.935 96.5843C935.462 96.6308 935.988 96.6806 936.515 96.732C936.808 96.7594 937.101 96.7868 937.403 96.815C938.489 96.95 939.533 97.2215 940.591 97.4947C941.287 97.6732 941.985 97.8386 942.685 97.9994C946.486 98.8898 950.338 99.9189 953.812 101.758C954.344 102.023 954.9 102.215 955.456 102.423C956.514 102.866 957.51 103.443 958.514 103.997C958.749 104.126 958.984 104.255 959.226 104.388C960.899 105.316 962.486 106.312 964.058 107.405C964.402 107.619 964.747 107.832 965.093 108.043C968.738 110.38 973.178 114.454 974.3 118.836C974.363 119.249 974.452 119.824 974.529 120.319C974.529 120.319 974.458 121.611 974.264 121.877C974.069 122.144 973.517 122.29 973.352 122.524C973.186 122.759 972.192 123.5 972.022 123.741C971.41 124.642 971.237 124.592 970.664 125.518C968.999 128.167 966.999 129.73 963.989 130.859C963.552 130.945 963.113 131.019 962.672 131.085C962.421 131.123 962.17 131.161 961.911 131.2C961.649 131.238 961.388 131.277 961.119 131.316C960.854 131.356 960.589 131.396 960.316 131.437C959.663 131.535 958.571 131.545 958.356 131.729C958.009 132.026 958.193 132.703 958.567 133.089C959.303 133.85 966.015 132.776 969.3 130.637C970.418 129.822 972.034 127.836 972.034 127.836C972.176 127.646 973.282 127.137 973.44 127.113C973.599 127.089 973.852 126.976 973.935 127.037C974.017 127.097 974.009 127.336 974.011 127.531C974.016 127.967 973.669 128.595 973.669 128.595C973.252 129.166 970.779 134.101 969.055 136.024C965.745 139.531 961.595 142.612 957.384 144.922C956.53 145.391 955.684 145.872 954.839 146.356C954.705 146.433 954.572 146.509 954.434 146.588C953.763 146.972 953.093 147.357 952.422 147.742C951.212 148.434 949.998 149.119 948.771 149.781C948.571 149.89 948.371 149.998 948.165 150.11C947.58 150.347 947.29 150.409 946.683 150.243C946.218 149.758 945.811 149.287 945.401 148.759C945.291 148.62 945.18 148.482 945.067 148.34C944.849 148.068 944.634 147.795 944.42 147.52C944.19 147.232 943.947 146.953 943.7 146.679C938.161 139.419 935.782 128.11 934.404 119.282C934.367 119.054 934.331 118.827 934.294 118.592C933.287 112.149 933.462 105.845 934.532 99.4281C934.686 98.483 934.809 97.5336 934.935 96.5843ZM949.088 113.446C948.376 114.897 948.361 115.861 948.765 117.427C949.345 118.762 950.288 119.763 951.632 120.306C953.039 120.711 954.538 120.485 955.874 119.916C957.074 119.211 957.984 118.24 958.434 116.903C958.662 115.585 958.463 114.26 957.772 113.112C956.685 111.819 955.396 111.138 953.748 110.854C951.705 110.909 950.19 111.687 949.088 113.446Z" fill="#F47D20"/>
<path d="M915.721 97.1934C920.029 96.4241 924.26 96.2861 928.63 96.4762C929.046 96.4931 929.463 96.5057 929.881 96.5151C930.091 96.5209 930.301 96.5267 930.518 96.5327C930.804 96.5388 930.804 96.5388 931.095 96.5451C931.244 96.5651 931.394 96.5851 931.547 96.6058C931.694 96.813 931.694 96.813 931.843 97.0243C931.648 97.5359 931.648 97.5359 931.331 98.1914C930.277 100.52 929.627 102.976 929.189 105.495C929.083 106.039 929.083 106.039 928.925 106.481C928.698 107.274 928.659 108.078 928.602 108.898C928.587 109.095 928.572 109.292 928.557 109.495C927.965 117.766 929.075 126.062 931.552 133.974C931.69 134.432 931.829 134.89 931.967 135.348C933.628 140.757 935.437 146.502 938.86 151.069C939.498 151.923 939.957 152.749 940.371 153.734C939.53 154.014 938.689 154.294 937.848 154.573C937.612 154.652 937.375 154.731 937.132 154.812C934.866 155.564 932.704 156.124 930.343 156.487C930.066 156.53 929.789 156.573 929.504 156.617C927.228 156.955 925.341 157.074 923.041 157.109L923.459 156.539C923.459 156.539 923.877 155.968 923.801 155.474C923.572 153.992 923.507 153.732 922.498 152.281C922.353 152.08 922.209 151.88 922.059 151.673C921.911 151.461 921.762 151.248 921.609 151.028C920.965 150.108 920.31 149.197 919.632 148.3C916.823 144.553 914.782 139.665 913.83 136.777C913.738 136.271 913.537 134.783 913.444 134.277C913.404 134.056 913.332 133.516 913.291 133.289C913.215 132.795 913.143 132.33 913.066 131.835C912.938 131.195 912.842 130.382 912.761 129.859C912.672 129.28 912.561 128.55 912.528 128.347C911.729 119.9 911.73 109.549 914.971 99.5287C915.027 99.3563 915.082 99.184 915.139 99.0064C915.281 98.5647 915.423 98.1231 915.566 97.6816C915.617 97.5205 915.668 97.3594 915.721 97.1934Z" fill="#F47D20"/>
<path d="M911.063 97.9826C910.916 99.1572 910.611 100.194 910.228 101.298C909.815 102.492 909.467 103.673 909.184 104.911C909.099 105.257 909.014 105.603 908.929 105.948C908.283 108.6 907.765 111.245 907.406 113.959C907.382 114.138 907.358 114.318 907.333 114.502C907.007 117.007 906.873 119.471 906.914 122.002C906.921 122.59 906.918 123.177 906.913 123.765C906.906 136.059 911.499 147.926 918.89 157.47C917.206 157.611 915.716 157.371 914.058 157.031C913.735 156.972 913.411 156.914 913.087 156.856C911.814 156.622 910.55 156.356 909.287 156.064C909.057 156.017 908.827 155.97 908.589 155.921C906.959 155.534 906.64 155.499 905.59 155.145C904.463 154.285 904.385 153.78 903.821 153.351C902.693 152.491 902.537 151.482 901.895 150.547C899.076 148.399 896.145 140.779 894.659 135.4C894.458 134.595 894.33 133.783 894.206 132.963C894.178 132.784 894.15 132.605 894.121 132.42C894.063 132.045 894.006 131.669 893.949 131.293C893.861 130.721 893.772 130.149 893.682 129.577C893.626 129.21 893.569 128.843 893.513 128.476C893.486 128.307 893.46 128.137 893.432 127.963C893.29 127.015 893.225 126.11 893.257 125.154C893.39 124.47 893.418 124.65 893.39 124.47C893.312 123.965 893.423 122.076 893.486 121.871C893.819 120.801 893.691 119.976 893.507 118.782C893.429 118.278 893.557 117.054 893.681 116.688C893.704 116.619 893.681 116.688 893.603 116.183C893.541 115.784 893.504 115.447 893.447 115.174C893.39 114.901 893.822 114.626 894.026 113.769C894.212 112.655 894.178 111.511 894.186 110.38C894.253 109.613 894.296 109.313 894.812 108.791C895.349 108.162 895.112 108.379 895.349 108.162C895.44 108.078 895.349 108.162 895.591 107.959C895.966 107.586 895.966 107.586 896.488 107.154C896.672 106.999 896.856 106.845 897.046 106.685C897.316 106.459 897.316 106.459 897.592 106.228C897.859 105.991 898.125 105.752 898.389 105.512C899.311 104.682 900.239 103.863 901.186 103.064C901.4 102.879 901.613 102.694 901.833 102.502C903.912 100.752 906.201 99.6586 908.661 98.5906C908.804 98.5242 908.947 98.4578 909.094 98.3894C909.73 98.1346 910.387 98.0731 911.063 97.9826Z" fill="#F47D20"/>
<path d="M916.152 98.4816L916.154 98.4813C916.209 98.4732 916.263 98.4651 916.318 98.4569C916.132 98.9372 915.941 99.4201 915.745 99.9072L915.743 99.9104C915.601 100.266 915.46 100.622 915.318 100.977C915.069 101.599 914.814 102.22 914.552 102.84L914.549 102.848C913.443 105.527 912.764 108.21 912.154 110.869C911.657 112.45 911.432 114.578 911.353 116.819C911.272 119.096 911.34 121.57 911.463 123.855C911.587 126.142 911.767 128.253 911.911 129.807C911.983 130.581 912.047 131.224 912.089 131.67C912.111 131.896 912.126 132.069 912.136 132.188C912.137 132.205 912.138 132.22 912.139 132.233L912.125 132.292L912.155 132.482C912.543 134.998 913.01 137.181 914.231 139.826C915.443 142.448 917.379 145.484 920.653 149.753L920.691 149.802L920.736 149.847C921.574 150.694 922.375 151.566 923.185 152.453L923.192 152.46L923.2 152.468C923.443 152.724 923.449 152.729 923.687 152.979L923.687 152.98C924.566 153.945 924.986 154.657 924.976 155.546C924.923 155.625 924.884 155.687 924.848 155.737C924.829 155.763 924.813 155.781 924.803 155.795C924.771 155.806 924.724 155.823 924.639 155.85C922.168 156.213 921.053 156.372 920.298 156.356C919.668 156.343 919.337 156.213 918.394 155.801C909.149 149.466 904.916 137.204 904.574 127.452L904.553 126.514C904.584 123.413 904.745 120.353 905.343 117.307L905.344 117.301C905.378 117.124 905.412 116.946 905.447 116.764C906.199 112.924 907.222 108.946 909.275 105.429L909.329 105.337L909.363 105.235C909.513 104.773 909.665 104.306 909.811 103.836C910.122 102.926 910.559 102.033 911.041 101.073L911.058 101.039C911.194 100.741 911.197 100.735 911.331 100.441C911.714 99.6885 911.828 99.4822 911.924 99.3718C911.957 99.3334 911.967 99.3125 912.352 99.1279C913.239 98.9046 914.094 98.8122 915.134 98.631C915.47 98.5818 915.806 98.5324 916.152 98.4816Z" fill="#FDFBF6" stroke="#5F4646" stroke-width="2"/>
<path d="M932.497 95.9561C932.844 95.8028 936.322 96.2587 936.322 96.2587C936.322 96.2587 935.981 98.7999 935.725 99.9501C934.333 106.469 934.094 112.728 935.095 119.196C935.132 119.436 935.169 119.676 935.207 119.924C936.618 128.933 944.514 146.402 946.985 147.982C947.569 148.728 948.025 149.195 949.218 149.708C947.75 150.738 946.445 151.144 945.86 151.235C944.18 151.998 943.673 152.069 943.595 152.088C943.518 152.108 942.638 152.524 941.916 152.852C940.211 153.625 940.072 153.552 939.565 152.718C939.28 152.251 939.313 152.164 938.89 151.626C938.717 151.413 938.319 151.208 937.673 150.296C935.238 147.636 933.73 140.77 931.879 135.866C931.733 135.481 931.585 135.097 931.437 134.713C929.935 130.741 929.619 127.535 929.162 124.581C929.002 123.476 928.767 122.004 928.738 121.809C928.527 120.306 928.338 119.245 928.098 117.689C927.834 115.98 927.794 115.72 927.999 113.169C928.119 111.667 928.125 109.52 928.761 107.007C928.89 106.472 928.972 105.942 929.055 105.402C929.598 102.493 932.149 96.1093 932.497 95.9561Z" fill="#FDFCFA"/>
<path d="M933.184 96.9368C933.535 96.9566 933.985 96.9979 934.436 97.0448C934.696 97.0718 934.953 97.1023 935.187 97.1294C935.169 97.2547 935.151 97.3875 935.131 97.5245C935.013 98.3061 934.869 99.1961 934.749 99.7326L934.747 99.7419C933.331 106.371 933.086 112.753 934.107 119.348C934.144 119.588 934.18 119.828 934.218 120.075L934.219 120.078C934.944 124.711 937.313 131.425 939.78 137.135C941.019 140.002 942.296 142.647 943.426 144.684C943.991 145.701 944.526 146.582 945.009 147.268C945.418 147.848 945.854 148.384 946.291 148.715C946.568 149.062 946.86 149.397 947.241 149.707C947.242 149.708 947.244 149.71 947.245 149.711C946.53 150.054 945.971 150.206 945.707 150.247L945.572 150.268L945.446 150.325C944.629 150.696 944.115 150.89 943.81 150.992C943.513 151.091 943.437 151.097 943.353 151.118C943.251 151.144 943.148 151.189 943.141 151.192C943.098 151.21 943.048 151.233 942.993 151.258C942.883 151.307 942.738 151.373 942.579 151.446C942.255 151.595 941.86 151.78 941.503 151.941C941.078 152.134 940.788 152.256 940.577 152.327C940.554 152.335 940.531 152.339 940.512 152.345C940.486 152.305 940.455 152.257 940.419 152.199C940.292 151.99 940.27 151.928 940.158 151.721C940.047 151.517 939.917 151.313 939.676 151.007L939.671 151.001L939.666 150.994L939.51 150.826C939.459 150.778 939.413 150.737 939.38 150.707C939.298 150.635 939.231 150.578 939.148 150.498C938.992 150.35 938.773 150.119 938.488 149.717L938.452 149.667L938.41 149.621L938.214 149.392C937.239 148.192 936.367 146.117 935.503 143.598C934.731 141.347 933.96 138.724 933.159 136.459L932.814 135.513L932.37 134.353C930.917 130.51 930.614 127.432 930.152 124.438C929.997 123.37 929.758 121.862 929.729 121.67C929.517 120.162 929.322 119.066 929.086 117.537C928.952 116.67 928.887 116.24 928.872 115.715C928.856 115.181 928.892 114.53 928.995 113.249C929.122 111.667 929.122 109.657 929.731 107.252L929.734 107.24C929.872 106.666 929.958 106.101 930.04 105.575C930.295 104.214 931.039 101.969 931.785 99.9998C932.154 99.0228 932.515 98.1381 932.802 97.4948C932.902 97.2704 932.991 97.0826 933.065 96.9334C933.102 96.9351 933.142 96.9344 933.184 96.9368Z" fill="#FDFCFA" stroke="#5F4646" stroke-width="2"/>
<path d="M883.501 112.632C883.826 112.577 883.826 112.577 884.158 112.522C886.416 112.183 890.66 113.238 890.66 113.238C890.66 113.238 891.688 113.438 891.215 113.848C890.743 114.258 890.512 114.577 890.158 114.94C889.864 115.244 889.864 115.244 889.564 115.554C889.017 116.045 888.887 116.136 888.887 116.136C888.887 116.136 888.519 116.521 888.411 116.602C888.303 116.684 888.195 116.766 888.084 116.85C887.212 117.519 886.381 118.208 885.574 118.956C884.102 120.27 882.457 121.332 880.816 122.418C880.422 122.679 880.029 122.942 879.637 123.206C877.054 124.935 877.525 124.467 876.613 125.114C875.67 125.556 875.348 125.797 875.207 125.837C874.759 125.965 873.801 126.56 873.725 126.066C873.648 125.572 873.754 124.891 873.77 124.304C873.773 124.14 873.777 123.976 873.781 123.807C873.878 120.358 875.037 117.765 877.495 115.304C879.336 113.699 881.1 112.973 883.501 112.632Z" fill="#C26327"/>
<path d="M854.203 121.58C854.473 121.651 854.742 121.722 855.02 121.795C856.92 122.353 858.652 123.157 860.432 124.017C863.051 125.265 865.385 125.858 868.272 125.573C868.44 125.557 868.608 125.541 868.782 125.524C869.194 125.485 869.607 125.445 870.019 125.404C869.989 125.617 869.989 125.617 869.958 125.834C868.922 133.07 868.922 133.07 869.28 140.337C869.311 140.547 869.342 140.758 869.374 140.975C869.441 141.419 869.508 141.862 869.575 142.306C869.676 142.973 869.772 143.64 869.868 144.308C870.248 146.863 870.782 149.199 871.758 151.596C871.649 151.709 871.54 151.822 871.428 151.938C870.458 152.95 869.538 153.998 868.632 155.067C868.394 155.346 868.157 155.625 867.919 155.904C867.506 156.39 867.095 156.878 866.686 157.368C863.521 161.061 860.106 163.013 855.252 163.482C851.659 163.704 848.359 161.703 845.718 159.433C840.838 154.737 839.114 147.803 838.955 141.207C838.945 138.588 839.118 135.982 839.416 133.381C839.438 133.079 839.438 133.079 839.461 132.771C839.807 128.963 841.57 125.118 844.408 122.571C847.225 120.611 851.02 120.714 854.203 121.58Z" fill="#F47D1F"/>
<path d="M890.101 114.64C890.214 114.622 890.336 114.713 890.577 114.788C890.542 114.914 890.506 115.041 890.47 115.171C889.806 117.601 889.236 120.01 888.968 122.513C888.947 122.707 888.926 122.9 888.904 123.1C888.842 123.745 888.799 124.389 888.764 125.037C888.751 125.247 888.751 125.247 888.739 125.462C888.605 128.054 888.824 130.521 889.238 133.078C889.333 133.67 889.421 134.262 889.508 134.854C890.331 140.229 892.079 145.82 895.626 150.089C896.124 150.705 896.124 150.705 896.191 151.138C895.245 151.034 894.327 150.908 893.404 150.682C893.171 150.608 893.256 150.625 893.256 150.625C892.992 150.611 893.763 150.697 893.256 150.625C892.402 150.505 890.591 149.842 889.614 149.509C888.477 149.14 887.382 148.794 886.189 148.648C885.684 148.575 885.198 148.479 884.701 148.37C882.58 147.92 879.991 148.328 878.771 148.29C878.233 148.373 877.671 148.46 877.671 148.46C877.671 148.46 876.606 148.625 876.305 148.45C875.423 146.3 874.868 144.258 874.537 141.952C874.515 141.802 874.493 141.653 874.47 141.498C873.856 137.317 872.904 132.04 874.361 127.952C874.421 127.489 874.288 127.48 874.7 126.933C874.7 126.933 875.112 126.387 875.039 125.915L874.966 125.444C874.894 124.972 875.306 124.425 875.503 124.205C875.678 124.01 876.713 123.567 876.713 123.567C876.713 123.567 877.081 123.297 877.393 123.248C877.731 123.196 877.576 123.197 877.821 123.099C878.58 122.796 885.517 118.68 888.77 115.857C889.117 115.556 889.488 115.51 889.754 115.199C889.921 115.004 889.901 114.671 890.101 114.64Z" fill="#F37D20"/>
<path d="M904.606 155.475C904.606 155.475 904.486 155.15 904.53 154.981C904.574 154.812 905.024 154.905 905.024 154.905C905.024 154.905 905.447 154.967 905.752 155.031C905.991 155.081 906.231 155.131 906.477 155.183C906.739 155.24 907.001 155.298 907.271 155.357C907.547 155.412 907.822 155.466 908.106 155.522C908.513 155.61 908.513 155.61 908.928 155.7C910.142 155.959 911.357 156.191 912.581 156.398C912.965 156.466 912.965 156.466 913.358 156.536C921.529 157.898 929.399 157.232 937.265 154.645C938.222 154.333 938.778 154.173 939.272 154.096C939.766 154.02 939.689 153.526 940.184 153.45C940.611 153.384 941.8 152.892 941.8 152.892L942.578 152.574C942.578 152.574 944.193 151.818 944.478 151.774C944.713 151.815 942.677 155.722 942.501 155.954C938.091 161.784 932.415 166.422 925.034 167.544C923.293 167.772 921.591 167.715 919.844 167.578C919.631 167.563 919.418 167.548 919.199 167.533C916.509 167.257 914.03 166.105 911.778 164.645C911.535 164.491 911.535 164.491 911.286 164.333C909.971 163.436 908.987 162.288 907.994 161.052C907.865 160.896 907.736 160.74 907.604 160.579C906.745 159.461 906.146 158.251 905.562 156.974C905.486 156.809 905.332 156.557 905.253 156.387C905.175 156.217 904.606 155.475 904.606 155.475Z" fill="#C26327"/>
<path d="M879.458 147.651C881.624 147.33 883.739 147.927 885.846 148.405C886.264 148.498 886.264 148.498 886.69 148.592C888.142 148.935 889.552 149.375 890.964 149.859C891.66 150.07 892.249 150.354 892.654 150.461C892.865 150.516 892.654 150.461 893.196 150.589C893.353 150.626 893.719 150.802 893.576 150.751C895.717 150.941 897.825 151.84 899.861 152.506C900.588 152.744 901.317 152.979 902.045 153.215C902.45 153.346 902.854 153.476 903.259 153.607C903.093 154.594 902.504 154.895 901.742 155.452C901.601 155.556 901.46 155.659 901.315 155.766C897.083 158.826 891.246 160.286 886.055 159.575C883.574 159.068 881.742 158.271 880.293 156.139C879.201 154.419 878.808 152.573 878.526 150.58C878.491 150.354 878.456 150.127 878.42 149.893C878.13 147.933 878.13 147.933 879.458 147.651Z" fill="#C26427"/>
<path d="M927.734 91.0971C930.721 92.6552 933.541 94.4633 936.269 96.4429C936.403 96.5391 936.537 96.6353 936.675 96.7345C937.337 97.221 937.878 97.6632 938.298 98.378C936.832 98.3947 935.422 98.2735 933.976 98.03C930.869 97.5166 927.693 97.4028 924.549 97.4842C924.397 97.4868 924.244 97.4895 924.087 97.4922C918.946 97.5969 913.62 98.259 908.813 100.147C908.627 100.219 908.441 100.292 908.25 100.366C905.493 101.47 903.241 102.891 900.975 104.807C900.447 105.247 899.897 105.654 899.345 106.063C898.408 106.776 897.577 107.568 896.753 108.412C896.324 108.796 896.098 108.93 895.908 109.189C895.719 109.449 895.411 109.576 894.997 109.836C894.511 110.141 894.542 110.238 894.041 110.552C893.393 109.841 893.366 109.427 893.356 108.484C893.754 102.305 898.571 94.7855 903.075 90.7616C910.513 84.4009 919.834 87.0634 927.734 91.0971Z" fill="#C26327"/>
<path d="M904.983 154.839C905.359 155.262 900.231 153.549 894.755 150.854C889.279 148.158 887.171 118.128 890.172 114.629C893.173 111.13 894.084 109.977 894.085 110.483C894.089 117.059 898.25 147.278 904.983 154.839Z" fill="#E5E5E7" stroke="#5F4646" stroke-width="2"/>
<path d="M877.114 148.012C875.29 149.306 874.226 148.964 872.06 151.323C869.895 153.681 867.674 126.199 869.574 125.398C871.474 124.598 874.437 124.455 875.922 123.912C878.316 123.036 880.763 145.426 877.114 148.012Z" fill="#E5E5E7" stroke="#5F4646" stroke-width="2"/>
<circle cx="953.542" cy="115.465" r="5.5" transform="rotate(-8.78029 953.542 115.465)" fill="#D9D9D9"/>
<circle cx="954.795" cy="113.754" r="4" transform="rotate(-8.78029 954.795 113.754)" fill="#171313"/>
</g>
<path d="M67.47 172.574C75.6898 174.304 85.8473 188.025 89.8986 194.669C90.5251 197.356 90.9798 202.152 87.7868 199.845C84.5937 197.538 71.1091 184.411 64.7659 178.136L58.7399 182.488C56.5767 186.937 48.6536 193.989 44.9624 196.959C44.7475 205.26 44.0242 219.857 42.8503 211.843C41.6763 203.83 43.4775 195.114 44.5249 191.757C53.9812 179.85 63.7618 174.007 67.47 172.574Z" fill="#FDAF81"/>
<path d="M80.6577 194.066C76.1616 185.564 65.069 169.259 56.6677 172.055C53.5003 173.72 45.4632 182.05 44.6559 198.049C45.9876 201.55 51.1504 210.052 59.6491 213.056C58.3888 210.06 51.9428 204.057 50.6559 202.555C50.6552 202.554 50.6545 202.553 50.6538 202.552C50.3238 195.385 49.8639 180.452 52.665 178.053C52.4982 178.22 53.0644 179.253 56.6632 182.055C60.2619 184.857 74.8257 191.23 80.6577 194.066Z" fill="#FF985C"/>
<path d="M141.952 175.787C134.47 174.656 123.294 183.439 118.642 187.971L118.512 191.008C132.843 180.264 140.567 181.136 142.638 182.914C145.389 183.438 158.318 197.69 163.426 205.682C163.476 204.502 162.876 201.018 158.476 192.718C154.075 184.418 146.573 179.703 141.952 175.787Z" fill="#FFA977"/>
<path d="M138.178 182.961C128.446 183.072 119.977 187.223 116.958 189.285C120.517 191.355 127.93 195.54 129.115 195.724C130.301 195.907 137.775 190.995 141.364 188.515C146.903 198.481 151.183 200.547 152.129 204.236C152.886 207.186 150.256 213.053 147.667 216.699C156.798 210.019 156.445 207.941 156.499 205.419C153.937 196.926 147.909 182.851 138.178 182.961Z" fill="#FF9F67"/>
<path d="M134.691 190.159L114.996 193.777C113.612 194.446 112.053 197.437 116.886 198.763C121.72 200.089 128.958 196.943 131.973 195.205C133.336 197.435 137.066 200.081 141.568 201.894C146.407 202.807 147.737 209.172 147.243 212.885C148.455 209.311 148.565 204.696 148.469 202.835C144.274 197.249 137.536 192.057 134.691 190.159Z" fill="#FF9A60"/>
<rect width="45.0935" height="29.6957" rx="10" transform="matrix(-0.999239 -0.0390089 -0.0390089 0.999239 123.667 172.505)" fill="url(#paint6_linear_77_225)"/>
<path d="M135.183 188.211C131.911 194.537 125.746 197.099 121.927 199.471C114.245 204.173 111.458 202.82 106.054 201.543L106.423 199.779C109.456 193.385 116.403 191.094 118.847 190.47C118.395 187.203 121.06 182.574 121.892 180.623C124.11 175.419 126.336 173.806 127.171 173.649C122.871 177.965 123.85 185.045 124.877 188.045C125.918 188.489 127.227 186.741 127.751 185.811C131.51 170.503 133.943 170.387 134.689 172.242C136.272 174.839 138.572 181.66 135.183 188.211Z" fill="#FF8139"/>
<path d="M67.6254 176.041C71.5649 177.258 78.2816 182.633 82.4747 188.37L83.1811 202.931C74.9073 204.548 63.4688 187.747 59.9455 179.127C57.8612 180.616 55.4156 188.188 54.3925 191.637C52.8886 197.163 50.3883 200.765 49.3262 201.876C51.0831 206.378 56.435 212.819 58.9521 215.627C49.6721 209.512 46.6628 202.27 46.3181 199.414C45.7093 188.564 50.014 186.763 51.7665 182.185C55.4856 172.774 63.2412 173.799 67.6254 176.041Z" fill="#FF8E4C"/>
<path d="M104.483 203.553C99.1084 195.917 90.9076 192.601 87.479 191.897C78.427 182.282 76.0462 190.402 75.9874 195.664C73.5757 200.784 73.5122 212.205 92.5514 216.928C111.591 221.651 101.489 213.998 94.0589 209.581C90.0655 204.168 91.4598 199.86 91.2588 200.84C91.098 201.623 99.8571 207.028 104.257 209.632C106.572 210.787 109.858 211.189 104.483 203.553Z" fill="#FA803A"/>
<path d="M113.17 167.761C112.769 169.761 110.335 171.593 109.168 172.259L106.168 172.258C107.368 172.258 109.669 168.926 110.17 167.26C111.337 166.594 113.571 165.761 113.17 167.761Z" fill="#FFA977"/>
<path d="M91.6708 165.251C92.0699 167.252 94.7257 170.84 95.892 171.507C97.0587 171.507 100.592 171.509 99.392 171.508C98.192 171.508 95.6702 166.42 95.171 164.753C94.0046 164.086 91.2717 163.251 91.6708 165.251Z" fill="#FFA977"/>
<ellipse cx="3.58796" cy="6" rx="3.58796" ry="6" transform="matrix(-0.982831 -0.18451 -0.18451 0.982831 117.675 156.962)" fill="#030303"/>
<ellipse cx="3.26093" cy="6" rx="3.26093" ry="6" transform="matrix(-0.999866 0.0163719 0.0163719 0.999866 96.4736 154.754)" fill="#030303"/>
<g filter="url(#filter10_d_77_225)">
<path d="M877.908 458.212C994.281 398.159 1026.4 437.145 1027.91 464.144L1117.93 497.102C1120.42 494.601 1136.22 488.394 1179.42 483.574C1233.42 477.55 1221.41 464.056 1218.41 458.057C1216.01 453.258 1224.41 452.054 1228.91 452.052C1286.1 471.526 1267.9 444.534 1263.4 432.536C1259.79 422.938 1264.89 420.535 1267.89 420.534C1315.9 432.512 1299.39 422.02 1290.38 404.024C1283.18 389.627 1287.37 382.025 1290.37 380.024C1357.87 375.493 1321.86 354.51 1312.86 354.514C1305.66 354.517 1305.86 350.517 1306.86 348.517C1384.83 283.982 1306.84 309.517 1299.35 320.02C1293.35 328.422 1290.85 323.523 1290.35 320.024C1269.32 255.533 1251.33 282.542 1269.35 332.033C1283.77 371.627 1266.37 363.535 1255.86 354.54C1248.35 336.543 1234.54 310.149 1239.36 348.547C1244.18 386.945 1237.39 407.548 1233.39 413.05C1146.42 477.589 1173.86 422.638 1179.39 417.575C1186.47 411.096 1207.59 390.553 1207.87 384.562C1208.16 378.57 1199.86 361.566 1192.86 354.569C1231.85 339.552 1228.85 320.052 1213.85 324.559C1198.85 329.066 1161.34 315.583 1185.34 306.572C1209.34 297.561 1230.33 282.551 1201.83 282.564C1173.33 282.577 1144.82 264.59 1201.82 254.064C1258.81 243.538 1210.79 209.06 1201.8 224.064C1194.61 236.067 1178.81 242.075 1171.81 243.578C1148.98 165.588 1140.29 194.092 1138.8 218.093C1140.81 235.592 1143.02 269.391 1135.82 264.594C1126.82 258.598 1041.31 234.637 1096.82 270.612C1141.24 299.392 1141.34 312.592 1135.84 315.594C1055.45 320.43 1081.35 329.619 1104.35 333.608C1129.85 332.097 1179.05 338.374 1171.87 375.578C1164.69 412.781 1144.89 419.09 1135.89 417.595C1141.22 344.179 1115.42 383.126 1107.39 413.107C1099.78 441.524 1087.89 425.116 1081.89 413.119C1081.88 392.718 1066.87 372.626 1059.37 365.129C1063.85 336.628 1045.85 329.135 1033.85 332.14C1024.25 334.545 1022.85 331.145 1023.35 329.145C1050.34 297.633 1018.84 300.647 1002.34 306.655C989.141 311.461 986.838 304.662 987.337 300.662C1031.72 262.241 988.824 272.661 961.828 282.673C950.991 201.078 940.309 240.683 936.323 270.685C873.309 239.214 838.828 282.729 898.831 288.702C946.833 293.48 943.838 304.682 936.341 309.685C910.345 320.197 874.853 337.913 940.847 324.683C1006.84 311.453 975.35 330.167 951.355 341.178C933.365 362.786 943.866 366.182 951.366 365.178C993.355 342.36 1019.86 352.647 1027.86 360.643C1078.29 429.02 1054.9 437.131 1036.9 432.639C1033.89 422.64 1023.08 402.945 1003.88 404.154C984.684 405.363 960.882 400.674 951.381 398.178C955.377 389.176 957.97 373.875 936.375 384.685C914.78 395.495 902.377 389.201 898.875 384.702C879.641 311.511 872.85 330.214 871.858 348.714C873.862 355.713 876.669 372.712 871.875 384.714C867.08 396.716 853.868 369.723 847.861 354.725C842.856 343.728 831.95 330.433 828.366 365.234C824.782 400.036 855.888 414.722 871.89 417.715C937.887 411.685 899.395 429.202 871.899 438.715C828.714 472.334 857.911 465.721 877.908 458.212Z" fill="url(#paint7_linear_77_225)"/>
</g>
<g filter="url(#filter11_d_77_225)">
<path d="M1005.12 450.646C1022.69 445.334 1032.54 444.39 1050.12 450.626C1091.72 444.607 1109.47 478.099 1113.14 492.597C1081.14 499.612 1013.84 509.442 1000.64 492.648C987.428 475.854 998.119 455.65 1005.12 450.646Z" fill="#7D6964"/>
</g>
<g filter="url(#filter12_d_77_225)">
<path d="M1176.13 479.067C1154.52 464.677 1123.13 473.092 1110.13 479.097L1086.14 494.109C1116.14 506.095 1176.15 529.468 1176.15 527.068C1176.15 524.668 1190.15 518.061 1197.15 515.058C1281.14 495.82 1218.13 483.048 1176.13 479.067Z" fill="#6B5954"/>
</g>
<g filter="url(#filter13_d_77_225)">
<path d="M978.243 510.59C991.211 485.237 1039.88 484.913 1062.6 487.92C1148.26 498.745 1121.02 519.578 1096.69 528.642C1051.8 533.189 965.276 535.944 978.243 510.59Z" fill="#654D47"/>
</g>
<g filter="url(#filter14_d_77_225)">
<path d="M1110.14 504.598C1088.15 521.608 1062.76 553.219 1137.16 543.585C1230.15 531.543 1173.14 494.069 1110.14 504.598Z" fill="#46332E"/>
</g>
<ellipse cx="1212.13" cy="470.051" rx="12" ry="10.5" transform="rotate(-0.0260272 1212.13 470.051)" fill="#B86F4F"/>
<ellipse cx="1142.3" cy="321.873" rx="12.0728" ry="8.55625" transform="rotate(20.8064 1142.3 321.873)" fill="#B86F4F"/>
<ellipse cx="1010.34" cy="309.856" rx="12.0728" ry="8.55625" transform="rotate(-20.3228 1010.34 309.856)" fill="#B86F4F"/>
<ellipse cx="932.381" cy="390.892" rx="12.0728" ry="8.55625" transform="rotate(-20.3228 932.381 390.892)" fill="#B86F4F"/>
<ellipse cx="1333.39" cy="312.05" rx="8.90084" ry="7.10007" transform="rotate(-23.6794 1333.39 312.05)" fill="#B86F4F"/>
<ellipse cx="1205.05" cy="289.629" rx="8.90084" ry="7.10007" transform="rotate(-23.6794 1205.05 289.629)" fill="#B86F4F"/>
<ellipse cx="1148.01" cy="220.654" rx="8.90084" ry="7.10007" transform="rotate(56.392 1148.01 220.654)" fill="#B86F4F"/>
<ellipse cx="1206.98" cy="228.355" rx="11.7792" ry="7.78184" transform="rotate(136.463 1206.98 228.355)" fill="#B86F4F"/>
<path d="M1274.22 285.775C1273.3 284.419 1271.38 284.061 1270.57 285.485C1270.07 286.364 1269.75 287.369 1269.64 288.443C1269.53 289.516 1269.63 290.638 1269.92 291.742C1270.22 292.847 1270.71 293.914 1271.36 294.881C1272.02 295.849 1272.83 296.699 1273.74 297.382C1274.66 298.065 1275.67 298.569 1276.7 298.863C1277.74 299.158 1278.79 299.239 1279.79 299.1C1281.42 298.876 1281.8 296.957 1280.88 295.601L1277.55 290.688L1274.22 285.775Z" fill="#B86F4F"/>
<path d="M1240.61 369.628C1240.59 367.971 1241.95 366.573 1243.53 367.084C1243.94 367.216 1244.34 367.376 1244.73 367.564C1246.04 368.194 1247.23 369.124 1248.22 370.295C1249.22 371.466 1249.99 372.855 1250.5 374.377C1251 375.9 1251.24 377.523 1251.18 379.149C1251.12 380.776 1250.77 382.37 1250.16 383.837C1249.54 385.303 1248.67 386.61 1247.6 387.679C1246.53 388.748 1245.28 389.555 1243.92 390.053C1243.49 390.21 1243.06 390.335 1242.62 390.427C1241.03 390.763 1239.82 389.283 1239.95 387.664L1240.69 378.627L1240.61 369.628Z" fill="#B86F4F"/>
<path d="M843.491 406.67C842.069 405.821 841.584 403.942 842.765 402.781C844.42 401.155 846.562 400 848.997 399.454C852.48 398.674 856.306 399.196 859.712 400.919C863.118 402.641 865.855 405.436 867.377 408.748C868.425 411.03 868.845 413.441 868.622 415.749C868.458 417.447 866.615 418.239 865.042 417.578L853.962 412.919L843.491 406.67Z" fill="#B86F4F"/>
<path d="M1123.86 376.592C1125.21 374.336 1128.26 373.596 1129.61 375.846C1130.46 377.246 1130.99 378.882 1131.2 380.653C1131.4 382.424 1131.26 384.294 1130.79 386.149C1130.31 388.003 1129.52 389.804 1128.45 391.442C1127.38 393.079 1126.06 394.519 1124.57 395.674C1123.07 396.828 1121.44 397.674 1119.77 398.158C1118.09 398.642 1116.41 398.756 1114.83 398.492C1112.23 398.057 1111.76 394.929 1113.29 392.781L1118.92 384.9L1123.86 376.592Z" fill="#B86F4F"/>
<path d="M935.672 253.098C935.964 250.274 938.585 248.139 941.077 249.498C942.582 250.319 943.902 251.429 944.957 252.761C946.011 254.094 946.777 255.62 947.21 257.247C947.642 258.874 947.731 260.569 947.471 262.227C947.211 263.885 946.607 265.473 945.697 266.893C944.787 268.313 943.589 269.537 942.177 270.489C940.764 271.44 939.167 272.101 937.481 272.43C934.697 272.974 932.848 270.146 933.434 267.371L934.929 260.294L935.672 253.098Z" fill="#B86F4F"/>
<path d="M1204.52 372.007C1205.33 373.451 1204.81 375.334 1203.18 375.645C1202.76 375.726 1202.33 375.778 1201.9 375.803C1200.44 375.884 1198.95 375.643 1197.52 375.094C1196.09 374.546 1194.74 373.701 1193.56 372.612C1192.38 371.523 1191.4 370.212 1190.66 368.759C1189.93 367.306 1189.47 365.741 1189.3 364.16C1189.13 362.579 1189.26 361.014 1189.69 359.561C1190.11 358.108 1190.82 356.797 1191.77 355.708C1192.07 355.365 1192.39 355.046 1192.73 354.753C1193.96 353.693 1195.73 354.407 1196.39 355.889L1200.11 364.16L1204.52 372.007Z" fill="#B86F4F"/>
<path d="M1087.54 423.06C1088.35 424.504 1087.83 426.387 1086.2 426.698C1085.66 426.803 1085.1 426.86 1084.53 426.87C1082.93 426.895 1081.31 426.539 1079.78 425.825C1078.25 425.111 1076.85 424.057 1075.68 422.741C1074.5 421.424 1073.59 419.877 1073 418.211C1072.42 416.545 1072.17 414.801 1072.28 413.105C1072.39 411.409 1072.85 409.804 1073.64 408.404C1074.42 407.005 1075.51 405.846 1076.82 405.011C1077.37 404.662 1077.95 404.374 1078.55 404.148C1080 403.609 1081.41 404.745 1081.66 406.271L1083.04 414.692C1083.1 415.037 1083.22 415.369 1083.39 415.674L1087.54 423.06Z" fill="#B86F4F"/>
<path d="M1002.92 351.392C1001.33 350.951 1000.37 349.237 1001.41 347.955C1001.79 347.498 1002.22 347.07 1002.72 346.676C1004.07 345.594 1005.83 344.795 1007.86 344.336C1009.9 343.876 1012.16 343.769 1014.48 344.02C1016.8 344.272 1019.13 344.876 1021.29 345.791C1023.46 346.705 1025.41 347.906 1027 349.307C1028.59 350.708 1029.79 352.275 1030.5 353.893C1031.22 355.512 1031.43 357.143 1031.13 358.669C1030.96 359.507 1030.64 360.302 1030.18 361.037C1029.47 362.148 1027.98 362.259 1026.85 361.59L1015.86 355.081C1015.64 354.946 1015.39 354.841 1015.13 354.771L1002.92 351.392Z" fill="#B86F4F"/>
<path d="M927.624 437.789C926.074 438.374 924.288 437.558 924.378 435.903C924.411 435.314 924.51 434.712 924.675 434.103C925.13 432.43 926.077 430.748 927.448 429.177C928.819 427.607 930.58 426.186 932.604 425.019C934.628 423.852 936.865 422.967 939.153 422.427C941.441 421.888 943.723 421.707 945.835 421.899C947.947 422.091 949.837 422.65 951.368 423.537C952.899 424.423 954.033 425.615 954.688 427.025C955.048 427.8 955.259 428.631 955.318 429.498C955.408 430.809 954.267 431.78 952.959 431.906L940.249 433.132C939.985 433.158 939.725 433.218 939.477 433.312L927.624 437.789Z" fill="#B86F4F"/>
<path d="M1139.95 258.988C1140.51 257.427 1142.25 256.583 1143.64 257.486C1144.54 258.07 1145.35 258.761 1146.04 259.539C1147.37 261.035 1148.19 262.783 1148.42 264.564C1148.64 266.344 1148.25 268.076 1147.29 269.541C1146.33 271.007 1144.85 272.139 1143.04 272.795C1141.22 273.451 1139.15 273.601 1137.09 273.227C1135.03 272.852 1133.07 271.97 1131.46 270.692C1129.84 269.414 1128.65 267.796 1128.03 266.045C1127.77 265.302 1127.62 264.549 1127.57 263.803C1127.47 262.15 1129.24 261.302 1130.8 261.857L1135.19 263.419C1136.75 263.974 1138.47 263.159 1139.02 261.598L1139.95 258.988Z" fill="#B86F4F"/>
<path d="M938.914 300.853C938.592 299.228 939.66 297.609 941.315 297.674C942.162 297.708 942.997 297.827 943.801 298.032C945.543 298.476 947.08 299.306 948.256 300.439C949.431 301.571 950.204 302.966 950.496 304.482C950.788 305.998 950.588 307.582 949.918 309.073C949.247 310.564 948.13 311.91 946.678 312.975C945.225 314.04 943.49 314.785 941.648 315.136C939.805 315.487 937.92 315.432 936.183 314.975C935.669 314.84 935.173 314.671 934.7 314.47C932.992 313.747 933.123 311.541 934.623 310.45L938.484 307.642C939.429 306.955 939.889 305.78 939.662 304.633L938.914 300.853Z" fill="#B86F4F"/>
<path d="M1293.41 380.777C1291.09 381.257 1288.73 379.688 1289.32 377.392C1289.69 375.981 1290.37 374.634 1291.32 373.435C1292.28 372.235 1293.49 371.208 1294.89 370.415C1296.28 369.623 1297.83 369.081 1299.44 368.824C1301.05 368.566 1302.68 368.598 1304.24 368.918C1305.79 369.238 1307.24 369.838 1308.5 370.683C1309.76 371.528 1310.79 372.6 1311.54 373.833C1312.78 375.865 1310.98 378.071 1308.62 378.342L1300.96 379.218L1293.41 380.777Z" fill="#B86F4F"/>
<ellipse cx="1250.76" cy="433.354" rx="7.5" ry="10.5" transform="rotate(-29.0312 1250.76 433.354)" fill="#B86F4F"/>
<defs>
<filter id="filter0_dn_77_225" x="639.91" y="8.53539e-05" width="733.822" height="684.525" filterUnits="userSpaceOnUse" color-interpolation-filters="sRGB">
<feFlood flood-opacity="0" result="BackgroundImageFix"/>
<feColorMatrix in="SourceAlpha" type="matrix" values="0 0 0 0 0 0 0 0 0 0 0 0 0 0 0 0 0 0 127 0" result="hardAlpha"/>
<feOffset dx="-9.98538" dy="-1.99708"/>
<feGaussianBlur stdDeviation="4.99269"/>
<feComposite in2="hardAlpha" operator="out"/>
<feColorMatrix type="matrix" values="0 0 0 0 0 0 0 0 0 0 0 0 0 0 0 0 0 0 0.25 0"/>
<feBlend mode="normal" in2="BackgroundImageFix" result="effect1_dropShadow_77_225"/>
<feBlend mode="normal" in="SourceGraphic" in2="BackgroundImageFix" result="shape"/>
<feTurbulence type="fractalNoise" baseFrequency="1.0014638900756836 1.0014638900756836" stitchTiles="stitch" numOctaves="3" result="noise" seed="310" />
<feColorMatrix in="noise" type="luminanceToAlpha" result="alphaNoise" />
<feComponentTransfer in="alphaNoise" result="coloredNoise1">
<feFuncA type="discrete" tableValues="0 0 0 0 0 0 0 0 0 0 0 0 1 1 1 1 1 1 1 1 1 1 1 1 1 1 1 1 1 1 1 1 1 1 1 1 1 1 0 0 0 0 0 0 0 0 0 0 0 0 0 0 0 0 0 0 0 0 0 0 0 0 0 0 0 0 0 0 0 0 0 0 0 0 0 0 0 0 0 0 0 0 0 0 0 0 0 0 0 0 0 0 0 0 0 0 0 0 0 0 "/>
</feComponentTransfer>
<feComposite operator="in" in2="shape" in="coloredNoise1" result="noise1Clipped" />
<feFlood flood-color="#ACA689" result="color1Flood" />
<feComposite operator="in" in2="noise1Clipped" in="color1Flood" result="color1" />
<feMerge result="effect2_noise_77_225">
<feMergeNode in="shape" />
<feMergeNode in="color1" />
</feMerge>
<feBlend mode="normal" in="effect2_noise_77_225" in2="effect1_dropShadow_77_225" result="effect2_noise_77_225"/>
</filter>
<filter id="filter1_d_77_225" x="388.234" y="280.146" width="142.673" height="148.137" filterUnits="userSpaceOnUse" color-interpolation-filters="sRGB">
<feFlood flood-opacity="0" result="BackgroundImageFix"/>
<feColorMatrix in="SourceAlpha" type="matrix" values="0 0 0 0 0 0 0 0 0 0 0 0 0 0 0 0 0 0 127 0" result="hardAlpha"/>
<feOffset dx="1.5" dy="1.5"/>
<feGaussianBlur stdDeviation="0.9375"/>
<feComposite in2="hardAlpha" operator="out"/>
<feColorMatrix type="matrix" values="0 0 0 0 0 0 0 0 0 0 0 0 0 0 0 0 0 0 0.25 0"/>
<feBlend mode="normal" in2="BackgroundImageFix" result="effect1_dropShadow_77_225"/>
<feBlend mode="normal" in="SourceGraphic" in2="effect1_dropShadow_77_225" result="shape"/>
</filter>
<filter id="filter2_ddd_77_225" x="434.158" y="235.351" width="131.634" height="125.688" filterUnits="userSpaceOnUse" color-interpolation-filters="sRGB">
<feFlood flood-opacity="0" result="BackgroundImageFix"/>
<feColorMatrix in="SourceAlpha" type="matrix" values="0 0 0 0 0 0 0 0 0 0 0 0 0 0 0 0 0 0 127 0" result="hardAlpha"/>
<feOffset dx="1.5" dy="1.5"/>
<feGaussianBlur stdDeviation="0.9375"/>
<feComposite in2="hardAlpha" operator="out"/>
<feColorMatrix type="matrix" values="0 0 0 0 0 0 0 0 0 0 0 0 0 0 0 0 0 0 0.25 0"/>
<feBlend mode="normal" in2="BackgroundImageFix" result="effect1_dropShadow_77_225"/>
<feColorMatrix in="SourceAlpha" type="matrix" values="0 0 0 0 0 0 0 0 0 0 0 0 0 0 0 0 0 0 127 0" result="hardAlpha"/>
<feOffset dx="1.5" dy="1.5"/>
<feGaussianBlur stdDeviation="0.9375"/>
<feComposite in2="hardAlpha" operator="out"/>
<feColorMatrix type="matrix" values="0 0 0 0 0 0 0 0 0 0 0 0 0 0 0 0 0 0 0.25 0"/>
<feBlend mode="normal" in2="effect1_dropShadow_77_225" result="effect2_dropShadow_77_225"/>
<feColorMatrix in="SourceAlpha" type="matrix" values="0 0 0 0 0 0 0 0 0 0 0 0 0 0 0 0 0 0 127 0" result="hardAlpha"/>
<feOffset dx="1.5" dy="1.5"/>
<feGaussianBlur stdDeviation="0.9375"/>
<feComposite in2="hardAlpha" operator="out"/>
<feColorMatrix type="matrix" values="0 0 0 0 0 0 0 0 0 0 0 0 0 0 0 0 0 0 0.25 0"/>
<feBlend mode="normal" in2="effect2_dropShadow_77_225" result="effect3_dropShadow_77_225"/>
<feBlend mode="normal" in="SourceGraphic" in2="effect3_dropShadow_77_225" result="shape"/>
</filter>
<filter id="filter3_d_77_225" x="326.297" y="249.827" width="114.779" height="160.895" filterUnits="userSpaceOnUse" color-interpolation-filters="sRGB">
<feFlood flood-opacity="0" result="BackgroundImageFix"/>
<feColorMatrix in="SourceAlpha" type="matrix" values="0 0 0 0 0 0 0 0 0 0 0 0 0 0 0 0 0 0 127 0" result="hardAlpha"/>
<feOffset dx="1.5" dy="1.5"/>
<feGaussianBlur stdDeviation="0.9375"/>
<feComposite in2="hardAlpha" operator="out"/>
<feColorMatrix type="matrix" values="0 0 0 0 0.128718 0 0 0 0 0.0826101 0 0 0 0 0.0826101 0 0 0 0.25 0"/>
<feBlend mode="normal" in2="BackgroundImageFix" result="effect1_dropShadow_77_225"/>
<feBlend mode="normal" in="SourceGraphic" in2="effect1_dropShadow_77_225" result="shape"/>
</filter>
<filter id="filter4_ddd_77_225" x="324.052" y="218.466" width="133.393" height="123.55" filterUnits="userSpaceOnUse" color-interpolation-filters="sRGB">
<feFlood flood-opacity="0" result="BackgroundImageFix"/>
<feColorMatrix in="SourceAlpha" type="matrix" values="0 0 0 0 0 0 0 0 0 0 0 0 0 0 0 0 0 0 127 0" result="hardAlpha"/>
<feOffset dx="1.5" dy="1.5"/>
<feGaussianBlur stdDeviation="0.9375"/>
<feComposite in2="hardAlpha" operator="out"/>
<feColorMatrix type="matrix" values="0 0 0 0 0 0 0 0 0 0 0 0 0 0 0 0 0 0 0.25 0"/>
<feBlend mode="normal" in2="BackgroundImageFix" result="effect1_dropShadow_77_225"/>
<feColorMatrix in="SourceAlpha" type="matrix" values="0 0 0 0 0 0 0 0 0 0 0 0 0 0 0 0 0 0 127 0" result="hardAlpha"/>
<feOffset dx="1.5" dy="1.5"/>
<feGaussianBlur stdDeviation="0.9375"/>
<feComposite in2="hardAlpha" operator="out"/>
<feColorMatrix type="matrix" values="0 0 0 0 0 0 0 0 0 0 0 0 0 0 0 0 0 0 0.25 0"/>
<feBlend mode="normal" in2="effect1_dropShadow_77_225" result="effect2_dropShadow_77_225"/>
<feColorMatrix in="SourceAlpha" type="matrix" values="0 0 0 0 0 0 0 0 0 0 0 0 0 0 0 0 0 0 127 0" result="hardAlpha"/>
<feOffset dx="1.5" dy="1.5"/>
<feGaussianBlur stdDeviation="0.9375"/>
<feComposite in2="hardAlpha" operator="out"/>
<feColorMatrix type="matrix" values="0 0 0 0 0 0 0 0 0 0 0 0 0 0 0 0 0 0 0.25 0"/>
<feBlend mode="normal" in2="effect2_dropShadow_77_225" result="effect3_dropShadow_77_225"/>
<feBlend mode="normal" in="SourceGraphic" in2="effect3_dropShadow_77_225" result="shape"/>
</filter>
<filter id="filter5_d_77_225" x="360.267" y="274.516" width="135.062" height="150.188" filterUnits="userSpaceOnUse" color-interpolation-filters="sRGB">
<feFlood flood-opacity="0" result="BackgroundImageFix"/>
<feColorMatrix in="SourceAlpha" type="matrix" values="0 0 0 0 0 0 0 0 0 0 0 0 0 0 0 0 0 0 127 0" result="hardAlpha"/>
<feOffset dx="1.5" dy="1.5"/>
<feGaussianBlur stdDeviation="0.9375"/>
<feComposite in2="hardAlpha" operator="out"/>
<feColorMatrix type="matrix" values="0 0 0 0 0 0 0 0 0 0 0 0 0 0 0 0 0 0 0.25 0"/>
<feBlend mode="normal" in2="BackgroundImageFix" result="effect1_dropShadow_77_225"/>
<feBlend mode="normal" in="SourceGraphic" in2="effect1_dropShadow_77_225" result="shape"/>
</filter>
<filter id="filter6_ddd_77_225" x="382.542" y="235.349" width="133.393" height="123.55" filterUnits="userSpaceOnUse" color-interpolation-filters="sRGB">
<feFlood flood-opacity="0" result="BackgroundImageFix"/>
<feColorMatrix in="SourceAlpha" type="matrix" values="0 0 0 0 0 0 0 0 0 0 0 0 0 0 0 0 0 0 127 0" result="hardAlpha"/>
<feOffset dx="1.5" dy="1.5"/>
<feGaussianBlur stdDeviation="0.9375"/>
<feComposite in2="hardAlpha" operator="out"/>
<feColorMatrix type="matrix" values="0 0 0 0 0 0 0 0 0 0 0 0 0 0 0 0 0 0 0.25 0"/>
<feBlend mode="normal" in2="BackgroundImageFix" result="effect1_dropShadow_77_225"/>
<feColorMatrix in="SourceAlpha" type="matrix" values="0 0 0 0 0 0 0 0 0 0 0 0 0 0 0 0 0 0 127 0" result="hardAlpha"/>
<feOffset dx="1.5" dy="1.5"/>
<feGaussianBlur stdDeviation="0.9375"/>
<feComposite in2="hardAlpha" operator="out"/>
<feColorMatrix type="matrix" values="0 0 0 0 0 0 0 0 0 0 0 0 0 0 0 0 0 0 0.25 0"/>
<feBlend mode="normal" in2="effect1_dropShadow_77_225" result="effect2_dropShadow_77_225"/>
<feColorMatrix in="SourceAlpha" type="matrix" values="0 0 0 0 0 0 0 0 0 0 0 0 0 0 0 0 0 0 127 0" result="hardAlpha"/>
<feOffset dx="1.5" dy="1.5"/>
<feGaussianBlur stdDeviation="0.9375"/>
<feComposite in2="hardAlpha" operator="out"/>
<feColorMatrix type="matrix" values="0 0 0 0 0 0 0 0 0 0 0 0 0 0 0 0 0 0 0.25 0"/>
<feBlend mode="normal" in2="effect2_dropShadow_77_225" result="effect3_dropShadow_77_225"/>
<feBlend mode="normal" in="SourceGraphic" in2="effect3_dropShadow_77_225" result="shape"/>
</filter>
<filter id="filter7_dn_77_225" x="-41.8669" y="181.905" width="1450.64" height="523.458" filterUnits="userSpaceOnUse" color-interpolation-filters="sRGB">
<feFlood flood-opacity="0" result="BackgroundImageFix"/>
<feColorMatrix in="SourceAlpha" type="matrix" values="0 0 0 0 0 0 0 0 0 0 0 0 0 0 0 0 0 0 127 0" result="hardAlpha"/>
<feOffset dx="19.9708" dy="1.99708"/>
<feGaussianBlur stdDeviation="4.99269"/>
<feComposite in2="hardAlpha" operator="out"/>
<feColorMatrix type="matrix" values="0 0 0 0 0 0 0 0 0 0 0 0 0 0 0 0 0 0 0.25 0"/>
<feBlend mode="normal" in2="BackgroundImageFix" result="effect1_dropShadow_77_225"/>
<feBlend mode="normal" in="SourceGraphic" in2="BackgroundImageFix" result="shape"/>
<feTurbulence type="fractalNoise" baseFrequency="1.0014638900756836 1.0014638900756836" stitchTiles="stitch" numOctaves="3" result="noise" seed="9529" />
<feColorMatrix in="noise" type="luminanceToAlpha" result="alphaNoise" />
<feComponentTransfer in="alphaNoise" result="coloredNoise1">
<feFuncA type="discrete" tableValues="0 0 0 0 0 0 0 0 0 0 0 0 1 1 1 1 1 1 1 1 1 1 1 1 1 1 1 1 1 1 1 1 1 1 1 1 1 1 0 0 0 0 0 0 0 0 0 0 0 0 0 0 0 0 0 0 0 0 0 0 0 0 0 0 0 0 0 0 0 0 0 0 0 0 0 0 0 0 0 0 0 0 0 0 0 0 0 0 0 0 0 0 0 0 0 0 0 0 0 0 "/>
</feComponentTransfer>
<feComposite operator="in" in2="shape" in="coloredNoise1" result="noise1Clipped" />
<feFlood flood-color="#ACA689" result="color1Flood" />
<feComposite operator="in" in2="noise1Clipped" in="color1Flood" result="color1" />
<feMerge result="effect2_noise_77_225">
<feMergeNode in="shape" />
<feMergeNode in="color1" />
</feMerge>
<feBlend mode="normal" in="effect2_noise_77_225" in2="effect1_dropShadow_77_225" result="effect2_noise_77_225"/>
</filter>
<filter id="filter8_dn_77_225" x="-12.8722" y="425.053" width="625.977" height="285.631" filterUnits="userSpaceOnUse" color-interpolation-filters="sRGB">
<feFlood flood-opacity="0" result="BackgroundImageFix"/>
<feColorMatrix in="SourceAlpha" type="matrix" values="0 0 0 0 0 0 0 0 0 0 0 0 0 0 0 0 0 0 127 0" result="hardAlpha"/>
<feOffset dx="19.9708" dy="1.99708"/>
<feGaussianBlur stdDeviation="4.99269"/>
<feComposite in2="hardAlpha" operator="out"/>
<feColorMatrix type="matrix" values="0 0 0 0 0 0 0 0 0 0 0 0 0 0 0 0 0 0 0.25 0"/>
<feBlend mode="normal" in2="BackgroundImageFix" result="effect1_dropShadow_77_225"/>
<feBlend mode="normal" in="SourceGraphic" in2="BackgroundImageFix" result="shape"/>
<feTurbulence type="fractalNoise" baseFrequency="1.0014638900756836 1.0014638900756836" stitchTiles="stitch" numOctaves="3" result="noise" seed="310" />
<feColorMatrix in="noise" type="luminanceToAlpha" result="alphaNoise" />
<feComponentTransfer in="alphaNoise" result="coloredNoise1">
<feFuncA type="discrete" tableValues="0 0 0 0 0 0 0 0 0 0 0 0 1 1 1 1 1 1 1 1 1 1 1 1 1 1 1 1 1 1 1 1 1 1 1 1 1 1 0 0 0 0 0 0 0 0 0 0 0 0 0 0 0 0 0 0 0 0 0 0 0 0 0 0 0 0 0 0 0 0 0 0 0 0 0 0 0 0 0 0 0 0 0 0 0 0 0 0 0 0 0 0 0 0 0 0 0 0 0 0 "/>
</feComponentTransfer>
<feComposite operator="in" in2="shape" in="coloredNoise1" result="noise1Clipped" />
<feFlood flood-color="#ACA689" result="color1Flood" />
<feComposite operator="in" in2="noise1Clipped" in="color1Flood" result="color1" />
<feMerge result="effect2_noise_77_225">
<feMergeNode in="shape" />
<feMergeNode in="color1" />
</feMerge>
<feBlend mode="normal" in="effect2_noise_77_225" in2="effect1_dropShadow_77_225" result="effect2_noise_77_225"/>
</filter>
<filter id="filter9_dn_77_225" x="651.114" y="409.287" width="735.427" height="296.787" filterUnits="userSpaceOnUse" color-interpolation-filters="sRGB">
<feFlood flood-opacity="0" result="BackgroundImageFix"/>
<feColorMatrix in="SourceAlpha" type="matrix" values="0 0 0 0 0 0 0 0 0 0 0 0 0 0 0 0 0 0 127 0" result="hardAlpha"/>
<feOffset dx="-9.98538" dy="-1.99708"/>
<feGaussianBlur stdDeviation="4.99269"/>
<feComposite in2="hardAlpha" operator="out"/>
<feColorMatrix type="matrix" values="0 0 0 0 0 0 0 0 0 0 0 0 0 0 0 0 0 0 0.25 0"/>
<feBlend mode="normal" in2="BackgroundImageFix" result="effect1_dropShadow_77_225"/>
<feBlend mode="normal" in="SourceGraphic" in2="BackgroundImageFix" result="shape"/>
<feTurbulence type="fractalNoise" baseFrequency="1.0014638900756836 1.0014638900756836" stitchTiles="stitch" numOctaves="3" result="noise" seed="310" />
<feColorMatrix in="noise" type="luminanceToAlpha" result="alphaNoise" />
<feComponentTransfer in="alphaNoise" result="coloredNoise1">
<feFuncA type="discrete" tableValues="0 0 0 0 0 0 0 0 0 0 0 0 1 1 1 1 1 1 1 1 1 1 1 1 1 1 1 1 1 1 1 1 1 1 1 1 1 1 0 0 0 0 0 0 0 0 0 0 0 0 0 0 0 0 0 0 0 0 0 0 0 0 0 0 0 0 0 0 0 0 0 0 0 0 0 0 0 0 0 0 0 0 0 0 0 0 0 0 0 0 0 0 0 0 0 0 0 0 0 0 "/>
</feComponentTransfer>
<feComposite operator="in" in2="shape" in="coloredNoise1" result="noise1Clipped" />
<feFlood flood-color="#ACA689" result="color1Flood" />
<feComposite operator="in" in2="noise1Clipped" in="color1Flood" result="color1" />
<feMerge result="effect2_noise_77_225">
<feMergeNode in="shape" />
<feMergeNode in="color1" />
</feMerge>
<feBlend mode="normal" in="effect2_noise_77_225" in2="effect1_dropShadow_77_225" result="effect2_noise_77_225"/>
</filter>
<filter id="filter10_d_77_225" x="824.081" y="192.58" width="521.156" height="312.522" filterUnits="userSpaceOnUse" color-interpolation-filters="sRGB">
<feFlood flood-opacity="0" result="BackgroundImageFix"/>
<feColorMatrix in="SourceAlpha" type="matrix" values="0 0 0 0 0 0 0 0 0 0 0 0 0 0 0 0 0 0 127 0" result="hardAlpha"/>
<feOffset dy="4"/>
<feGaussianBlur stdDeviation="2"/>
<feComposite in2="hardAlpha" operator="out"/>
<feColorMatrix type="matrix" values="0 0 0 0 0 0 0 0 0 0 0 0 0 0 0 0 0 0 0.25 0"/>
<feBlend mode="normal" in2="BackgroundImageFix" result="effect1_dropShadow_77_225"/>
<feBlend mode="normal" in="SourceGraphic" in2="effect1_dropShadow_77_225" result="shape"/>
</filter>
<filter id="filter11_d_77_225" x="990.367" y="446.298" width="126.769" height="63.6099" filterUnits="userSpaceOnUse" color-interpolation-filters="sRGB">
<feFlood flood-opacity="0" result="BackgroundImageFix"/>
<feColorMatrix in="SourceAlpha" type="matrix" values="0 0 0 0 0 0 0 0 0 0 0 0 0 0 0 0 0 0 127 0" result="hardAlpha"/>
<feOffset dy="4"/>
<feGaussianBlur stdDeviation="2"/>
<feComposite in2="hardAlpha" operator="out"/>
<feColorMatrix type="matrix" values="0 0 0 0 0 0 0 0 0 0 0 0 0 0 0 0 0 0 0.25 0"/>
<feBlend mode="normal" in2="BackgroundImageFix" result="effect1_dropShadow_77_225"/>
<feBlend mode="normal" in="SourceGraphic" in2="effect1_dropShadow_77_225" result="shape"/>
</filter>
<filter id="filter12_d_77_225" x="1082.14" y="471.13" width="160.406" height="64.1094" filterUnits="userSpaceOnUse" color-interpolation-filters="sRGB">
<feFlood flood-opacity="0" result="BackgroundImageFix"/>
<feColorMatrix in="SourceAlpha" type="matrix" values="0 0 0 0 0 0 0 0 0 0 0 0 0 0 0 0 0 0 127 0" result="hardAlpha"/>
<feOffset dy="4"/>
<feGaussianBlur stdDeviation="2"/>
<feComposite in2="hardAlpha" operator="out"/>
<feColorMatrix type="matrix" values="0 0 0 0 0 0 0 0 0 0 0 0 0 0 0 0 0 0 0.25 0"/>
<feBlend mode="normal" in2="BackgroundImageFix" result="effect1_dropShadow_77_225"/>
<feBlend mode="normal" in="SourceGraphic" in2="effect1_dropShadow_77_225" result="shape"/>
</filter>
<filter id="filter13_d_77_225" x="972.934" y="486.629" width="151.997" height="53.001" filterUnits="userSpaceOnUse" color-interpolation-filters="sRGB">
<feFlood flood-opacity="0" result="BackgroundImageFix"/>
<feColorMatrix in="SourceAlpha" type="matrix" values="0 0 0 0 0 0 0 0 0 0 0 0 0 0 0 0 0 0 127 0" result="hardAlpha"/>
<feOffset dy="4"/>
<feGaussianBlur stdDeviation="2"/>
<feComposite in2="hardAlpha" operator="out"/>
<feColorMatrix type="matrix" values="0 0 0 0 0 0 0 0 0 0 0 0 0 0 0 0 0 0 0.25 0"/>
<feBlend mode="normal" in2="BackgroundImageFix" result="effect1_dropShadow_77_225"/>
<feBlend mode="normal" in="SourceGraphic" in2="effect1_dropShadow_77_225" result="shape"/>
</filter>
<filter id="filter14_d_77_225" x="1083.5" y="502.754" width="106.589" height="50.6206" filterUnits="userSpaceOnUse" color-interpolation-filters="sRGB">
<feFlood flood-opacity="0" result="BackgroundImageFix"/>
<feColorMatrix in="SourceAlpha" type="matrix" values="0 0 0 0 0 0 0 0 0 0 0 0 0 0 0 0 0 0 127 0" result="hardAlpha"/>
<feOffset dy="4"/>
<feGaussianBlur stdDeviation="2"/>
<feComposite in2="hardAlpha" operator="out"/>
<feColorMatrix type="matrix" values="0 0 0 0 0 0 0 0 0 0 0 0 0 0 0 0 0 0 0.25 0"/>
<feBlend mode="normal" in2="BackgroundImageFix" result="effect1_dropShadow_77_225"/>
<feBlend mode="normal" in="SourceGraphic" in2="effect1_dropShadow_77_225" result="shape"/>
</filter>
<linearGradient id="paint0_linear_77_225" x1="1023.18" y1="5.55509" x2="1010.11" y2="677.389" gradientUnits="userSpaceOnUse">
<stop stop-color="#D2CDB4"/>
<stop offset="0.841346" stop-color="#787359"/>
</linearGradient>
<linearGradient id="paint1_linear_77_225" x1="668.356" y1="189.58" x2="668.585" y2="693.701" gradientUnits="userSpaceOnUse">
<stop offset="0.293269" stop-color="#D2CDB4"/>
<stop offset="0.730769" stop-color="#999372"/>
</linearGradient>
<linearGradient id="paint2_linear_77_225" x1="343.797" y1="386.83" x2="97.1721" y2="699.54" gradientUnits="userSpaceOnUse">
<stop offset="0.442308" stop-color="#D2CDB4"/>
<stop offset="1" stop-color="#A09A78"/>
</linearGradient>
<linearGradient id="paint3_linear_77_225" x1="715.431" y1="411.649" x2="1350.14" y2="696.373" gradientUnits="userSpaceOnUse">
<stop offset="0.457342" stop-color="#D2CDB4"/>
<stop offset="1" stop-color="#B0AB91"/>
</linearGradient>
<linearGradient id="paint4_linear_77_225" x1="352.191" y1="484.403" x2="352.191" y2="543.795" gradientUnits="userSpaceOnUse">
<stop stop-color="#FFA977"/>
<stop offset="1" stop-color="#FB6712"/>
</linearGradient>
<linearGradient id="paint5_linear_77_225" x1="1292.55" y1="188.464" x2="1292.55" y2="218.16" gradientUnits="userSpaceOnUse">
<stop stop-color="#FFA977"/>
<stop offset="1" stop-color="#FB6712"/>
</linearGradient>
<linearGradient id="paint6_linear_77_225" x1="22.5467" y1="0" x2="22.5467" y2="29.6957" gradientUnits="userSpaceOnUse">
<stop stop-color="#FFA977"/>
<stop offset="1" stop-color="#FB6712"/>
</linearGradient>
<linearGradient id="paint7_linear_77_225" x1="1084.59" y1="192.609" x2="1084.73" y2="497.117" gradientUnits="userSpaceOnUse">
<stop offset="0.480769" stop-color="#FFA977"/>
<stop offset="1" stop-color="#C17041"/>
</linearGradient>
<clipPath id="clip0_77_225">
<rect width="148" height="87" fill="white" transform="translate(832 98.3173) rotate(-8.78029)"/>
</clipPath>
</defs>
</svg>
