<svg width="223" height="222" viewBox="0 0 223 222" fill="none" xmlns="http://www.w3.org/2000/svg">
<path d="M169.202 136.642C160.74 169.322 130.324 169.572 95.238 160.487C60.1516 151.401 33.6805 136.42 42.1432 103.74C50.6058 71.0592 85.9093 51.9318 120.996 61.0175C156.082 70.1032 177.665 103.961 169.202 136.642Z" fill="#A7495B"/>
<path d="M116.633 30.5029L120.525 98.8578L186.394 90.9885L124.676 116.238L151.981 178.516L109.945 125.766L60.9514 172.125L96.6907 114.274L39.1054 80.6477L103.229 97.6435L116.633 30.5029Z" fill="#A7495B"/>
<path d="M74.2449 39.2246L113.067 95.6193L165.272 54.6884L125.64 108.317L181.315 147.359L117.999 124.109L100.203 189.169L100.704 121.171L34.0301 122.338L97.6557 103.563L74.2449 39.2246Z" fill="#F4ECFB"/>
<path d="M47.7109 61.2316L106.611 96.1358L136.828 37.0792L123.351 102.387L190.27 114.469L123.041 119.928L134.182 186.451L106.108 124.516L46.0759 153.549L95.9544 109.812L47.7109 61.2316Z" fill="#A7495B"/>
<path d="M31.5489 99.353L100.009 100.25L96.7633 33.9911L117.637 97.324L181.67 74.439L126.111 112.684L168.932 164.799L113.721 125.103L76.1513 180.197L97.5882 117.418L31.5489 99.353Z" fill="#F4ECFB"/>
<path d="M35.7493 138.402L96.4359 106.706L62.1382 49.9221L110.565 95.7656L156.071 45.2359L125.313 105.265L187.735 130.82L120.299 122.076L113.372 188.4L102.452 122.967L35.7493 138.402Z" fill="#A7495B"/>
<path d="M142.573 184.34L107.894 125.307L52.8883 162.389L96.2635 111.74L43.5305 68.8069L105.017 96.537L127.431 32.9201L122.057 100.708L188.643 104.323L123.835 118.488L142.573 184.34Z" fill="#F4ECFB"/>
<path d="M85.7423 34.3886L115.357 96.118L173.274 63.7711L125.81 110.611L174.763 157.808L115.815 125.028L88.1521 186.544L99.1836 119.445L33.1342 110.267L98.9006 101.578L85.7423 34.3886Z" fill="#A7495B"/>
</svg>
