<svg width="1153" height="550" viewBox="0 0 1153 550" fill="none" xmlns="http://www.w3.org/2000/svg">
<path d="M468.956 418.697L492.956 427.697C489.956 437.197 484.256 457.097 485.456 460.697C486.656 464.297 536.956 515.197 561.956 540.197C562.956 543.697 561.356 550.397 546.956 549.197C528.956 547.697 429.956 526.697 357.956 460.697C343.345 457.044 305.386 452.057 262.354 458.529C242.02 462.408 234.543 463.78 249.956 460.697C254.124 459.863 258.262 459.144 262.354 458.529C305.346 450.328 405.818 430.917 468.956 418.697Z" fill="url(#paint0_linear_111_527)"/>
<path d="M420.956 258.197L182.456 351.197L681.956 225.197L606.956 225.197C603.956 225.197 578.456 216.197 569.456 186.197C560.456 156.197 560.456 145.697 558.956 117.197C557.756 94.3968 539.456 103.697 530.456 111.197C517.956 123.197 487.856 157.697 467.456 199.697C447.056 241.697 427.956 256.197 420.956 258.197Z" fill="url(#paint1_linear_111_527)"/>
<path d="M883.5 157.5C859.5 193.5 828.956 206.697 816.956 208.697C740.456 273.697 594.656 399.497 623.456 382.697C652.256 365.897 741.456 384.697 782.456 396.197C769.256 375.797 776.956 345.697 782.456 333.197C790.456 324.197 813.356 306.497 840.956 307.697C868.556 308.897 888.456 321.197 894.956 327.197L894.956 297.197C900.956 279.197 923.456 257.697 933.956 249.197C945.956 231.197 959.956 259.697 965.456 276.197C982.956 290.197 1017.06 313.997 1013.46 297.197C1009.86 280.397 1011.96 242.197 1013.46 225.197L1107.96 76.697L1128.96 76.697C1122.96 70.697 1142.46 32.197 1152.96 13.6971C1152.96 -7.30294 1136.46 1.69706 1128.96 3.19706C1121.46 4.69706 963.956 181.697 944.456 196.697C924.956 211.697 953.889 209.962 913.5 210C903.552 210.009 878.068 187.93 883.5 157.5Z" fill="url(#paint2_linear_111_527)"/>
<ellipse cx="484.958" cy="340.106" rx="479.907" ry="77.9659" transform="rotate(-13.3218 484.958 340.106)" fill="url(#paint3_linear_111_527)"/>
<path d="M678.967 366.76L676.5 367.5C677.134 367.183 677.963 366.938 678.967 366.76L766.5 340.5C761 344 753.3 357 766.5 381C742.217 374.929 693.161 364.235 678.967 366.76Z" fill="url(#paint4_linear_111_527)"/>
<path d="M844.187 308.406L843 309C843.319 308.773 843.717 308.575 844.187 308.406L909 276C905.7 278.996 888 291 892.737 321C881.177 311.081 852.214 305.527 844.187 308.406Z" fill="url(#paint5_linear_111_527)"/>
<path d="M486 430.5L468 424.5C417.275 411.379 336.196 436.378 393.954 480C462.073 531.447 548.769 547.066 543.154 532.501C539.954 524.2 489.045 472.342 478.5 463.501C471.836 457.913 481.722 437.425 486 430.5Z" fill="url(#paint6_linear_111_527)"/>
<path d="M531 110.533C492.678 151.078 478.5 183.001 471.92 191.901L573 195.001C563.42 180 562.887 149.951 563.42 139.713C565.848 93 543.774 99.7828 531 110.533Z" fill="url(#paint7_linear_111_527)"/>
<path d="M429.03 251.245C460.485 226.344 466.504 203.647 472.5 190.5C488.09 197.782 547.688 182.955 565.677 185.483C586.063 214.609 599.654 225.935 607.649 227.958C764.942 207.827 857.725 202.055 914.738 210.895C944.675 195.189 986.751 156.077 1003.72 138.743C1006.58 134.604 1009.01 131.626 1010.67 130.503C1012.55 129.24 1009.69 132.643 1003.72 138.743C994.202 152.497 979.901 179.076 972.987 193.068C978.468 191.921 982.398 190.724 985.122 189.657C990.003 184.035 994.076 186.148 985.122 189.657C982.063 193.179 978.688 199.739 978 210.895C975.881 245.272 600.18 376.751 441.258 377.765C412.777 378.271 515.999 382.687 480.023 388.754C435.052 396.339 279.364 405.441 258.378 419.093C237.392 432.746 129.463 435.78 99.4821 441.847C75.4979 446.702 82.4933 462.073 88.989 469.152C-34.53 471.58 31.3167 423.779 79.7849 395.968C175.722 350.46 398.84 275.145 429.03 251.245Z" fill="url(#paint8_linear_111_527)"/>
<circle cx="130.5" cy="451.5" r="10.5" fill="#535353"/>
<circle cx="130.5" cy="451.5" r="7.5" fill="#3C3C3C"/>
<ellipse cx="328.436" cy="426.78" rx="1.62789" ry="22.217" transform="rotate(-16.3119 328.436 426.78)" fill="#595959"/>
<path d="M493.553 176.523C498.403 170.54 537.78 121.802 540.982 125.952C542.772 127.184 526.738 153.598 505.168 184.95C483.599 216.301 464.662 240.718 462.872 239.487C456.504 238.696 488.704 182.507 493.553 176.523Z" fill="#717171"/>
<path d="M849.794 302.236C842.378 304.79 782.075 325.654 781.592 320.425C780.728 318.431 808.862 304.329 844.429 288.927C879.997 273.525 909.53 262.656 910.394 264.65C915.421 268.679 857.21 299.683 849.794 302.236Z" fill="#727272"/>
<path d="M1045.5 166.499C1040.78 172.76 1008.65 226.485 1005.33 222.418C1003.5 221.247 1018.96 193.834 1039.85 161.19C1060.75 128.546 1079.17 103.033 1081 104.204C1087.42 104.737 1050.23 160.238 1045.5 166.499Z" fill="#6B6A6A"/>
<path d="M880.5 166.5C831.414 226.699 790.5 205.5 780 213C780 213 966.132 210 921 210C875.868 210 883.619 162.675 880.5 166.5Z" fill="url(#paint9_linear_111_527)"/>
<ellipse cx="334.802" cy="423.78" rx="1.62789" ry="22.217" transform="rotate(-16.3119 334.802 423.78)" fill="#595959"/>
<ellipse cx="343.802" cy="420.78" rx="1.62789" ry="22.217" transform="rotate(-16.3119 343.802 420.78)" fill="#595959"/>
<ellipse cx="352.802" cy="420.78" rx="1.62789" ry="22.217" transform="rotate(-16.3119 352.802 420.78)" fill="#595959"/>
<ellipse cx="604.098" cy="295.336" rx="247.779" ry="35.9539" transform="rotate(-11.7275 604.098 295.336)" fill="url(#paint10_linear_111_527)"/>
<defs>
<linearGradient id="paint0_linear_111_527" x1="401.968" y1="418.697" x2="401.968" y2="549.339" gradientUnits="userSpaceOnUse">
<stop stop-color="#D9D9D9"/>
<stop offset="1" stop-color="#C8C6C6"/>
</linearGradient>
<linearGradient id="paint1_linear_111_527" x1="432.206" y1="102.801" x2="432.206" y2="351.197" gradientUnits="userSpaceOnUse">
<stop stop-color="#D9D9D9"/>
<stop offset="1" stop-color="#C8C6C6"/>
</linearGradient>
<linearGradient id="paint2_linear_111_527" x1="886.35" y1="5.39212e-09" x2="886.35" y2="396.197" gradientUnits="userSpaceOnUse">
<stop stop-color="#626161"/>
<stop offset="0.514423" stop-color="#C8C6C6"/>
</linearGradient>
<linearGradient id="paint3_linear_111_527" x1="5.05121" y1="340.106" x2="964.866" y2="340.106" gradientUnits="userSpaceOnUse">
<stop offset="0.254808" stop-color="#D9D9D9"/>
<stop offset="1" stop-color="#C8C6C6"/>
</linearGradient>
<linearGradient id="paint4_linear_111_527" x1="714.483" y1="340.5" x2="728.517" y2="381" gradientUnits="userSpaceOnUse">
<stop offset="0.264423" stop-color="#D9D9D9"/>
<stop offset="1" stop-color="#807A7A"/>
</linearGradient>
<linearGradient id="paint5_linear_111_527" x1="860.857" y1="287.608" x2="879.143" y2="317.059" gradientUnits="userSpaceOnUse">
<stop offset="0.264423" stop-color="#D9D9D9"/>
<stop offset="1" stop-color="#8C8888"/>
</linearGradient>
<linearGradient id="paint6_linear_111_527" x1="413.77" y1="423.042" x2="505.516" y2="535.659" gradientUnits="userSpaceOnUse">
<stop offset="0.173077" stop-color="#D9D9D9"/>
<stop offset="1" stop-color="#7D7B7B"/>
</linearGradient>
<linearGradient id="paint7_linear_111_527" x1="523.5" y1="102" x2="523.5" y2="195" gradientUnits="userSpaceOnUse">
<stop stop-color="#6D6B6B"/>
<stop offset="0.951923" stop-color="#ABABAB"/>
</linearGradient>
<linearGradient id="paint8_linear_111_527" x1="503.768" y1="132.02" x2="509.721" y2="467.463" gradientUnits="userSpaceOnUse">
<stop offset="0.197115" stop-color="#ABABAB"/>
<stop offset="1" stop-color="#D9D9D9"/>
</linearGradient>
<linearGradient id="paint9_linear_111_527" x1="851.144" y1="166.252" x2="851.144" y2="217.624" gradientUnits="userSpaceOnUse">
<stop stop-color="#5A5A5A"/>
<stop offset="0.591346" stop-color="#A6A3A3"/>
</linearGradient>
<linearGradient id="paint10_linear_111_527" x1="356.32" y1="295.336" x2="851.877" y2="295.336" gradientUnits="userSpaceOnUse">
<stop offset="0.600962" stop-color="#BBBBBB"/>
<stop offset="1" stop-color="#ACACAC"/>
</linearGradient>
</defs>
</svg>
