<svg width="1368" height="995" viewBox="0 0 1368 995" fill="none" xmlns="http://www.w3.org/2000/svg">
<g filter="url(#filter0_i_77_221)">
<circle cx="470.73" cy="294.716" r="26.4375" transform="rotate(-56.8396 470.73 294.716)" fill="url(#paint0_linear_77_221)" fill-opacity="0.75"/>
</g>
<circle cx="470.73" cy="294.716" r="25.875" transform="rotate(-56.8396 470.73 294.716)" stroke="#97CBDB" stroke-width="1.125"/>
<path d="M473.264 275.357C473.284 278.467 468.861 275.188 463.684 277.316C458.508 279.445 455.885 286.393 454.518 283.066C453.15 279.74 456.237 275.318 461.414 273.189C466.591 271.06 474.362 271.332 473.264 275.357Z" fill="white" fill-opacity="0.72"/>
<g filter="url(#filter1_i_77_221)">
<circle cx="538.024" cy="224.012" r="17.625" transform="rotate(-45.9306 538.024 224.012)" fill="url(#paint1_linear_77_221)" fill-opacity="0.75"/>
</g>
<circle cx="538.024" cy="224.012" r="17.25" transform="rotate(-45.9306 538.024 224.012)" stroke="#97CBDB" stroke-width="0.75"/>
<path d="M542.125 211.659C541.746 213.697 539.264 210.992 535.607 211.733C531.95 212.473 529.357 216.69 528.881 214.34C528.405 211.99 530.984 209.485 534.642 208.744C538.299 208.004 543.352 209.163 542.125 211.659Z" fill="white" fill-opacity="0.72"/>
<g filter="url(#filter2_i_77_221)">
<circle cx="481.121" cy="391.058" r="35.25" transform="rotate(-34.0741 481.121 391.058)" fill="url(#paint2_linear_77_221)" fill-opacity="0.75"/>
</g>
<circle cx="481.121" cy="391.058" r="34.5" transform="rotate(-34.0741 481.121 391.058)" stroke="#97CBDB" stroke-width="1.5"/>
<path d="M494.224 368.565C492.645 372.398 488.898 366.084 481.436 366.031C473.973 365.977 467.164 373.166 467.199 368.371C467.233 363.575 473.311 359.731 480.774 359.785C488.237 359.838 497.651 364.183 494.224 368.565Z" fill="white" fill-opacity="0.72"/>
<g filter="url(#filter3_i_77_221)">
<circle cx="591.495" cy="284.431" r="35.25" transform="rotate(-90.214 591.495 284.431)" fill="url(#paint3_linear_77_221)" fill-opacity="0.75"/>
</g>
<circle cx="591.495" cy="284.431" r="34.5" transform="rotate(-90.214 591.495 284.431)" stroke="#97CBDB" stroke-width="1.5"/>
<path d="M580.117 261.017C582.42 264.464 575.09 264.057 570.887 270.225C566.684 276.392 568.861 286.051 564.898 283.351C560.935 280.65 561.129 273.461 565.332 267.294C569.534 261.127 578.387 255.729 580.117 261.017Z" fill="white" fill-opacity="0.72"/>
<g filter="url(#filter4_i_77_221)">
<circle cx="628.577" cy="199.535" r="35.25" transform="rotate(-38.0946 628.577 199.535)" fill="url(#paint4_linear_77_221)" fill-opacity="0.75"/>
</g>
<circle cx="628.577" cy="199.535" r="34.5" transform="rotate(-38.0946 628.577 199.535)" stroke="#97CBDB" stroke-width="1.5"/>
<path d="M640.071 176.178C638.765 180.113 634.585 174.077 627.137 174.547C619.688 175.016 613.401 182.665 613.099 177.879C612.797 173.093 618.59 168.832 626.039 168.362C633.487 167.893 643.183 171.566 640.071 176.178Z" fill="white" fill-opacity="0.72"/>
<g filter="url(#filter5_i_77_221)">
<circle cx="523.667" cy="115.71" r="26.4375" transform="rotate(-67.2351 523.667 115.71)" fill="url(#paint5_linear_77_221)" fill-opacity="0.75"/>
</g>
<circle cx="523.667" cy="115.71" r="25.875" transform="rotate(-67.2351 523.667 115.71)" stroke="#97CBDB" stroke-width="1.125"/>
<path d="M522.666 96.2121C523.247 99.2671 518.305 96.8396 513.597 99.8676C508.89 102.895 507.564 110.202 505.618 107.177C503.673 104.152 505.912 99.2455 510.619 96.2175C515.327 93.1896 523.02 92.055 522.666 96.2121Z" fill="white" fill-opacity="0.72"/>
<g filter="url(#filter6_i_77_221)">
<circle cx="579.389" cy="366.293" r="17.625" transform="rotate(-31.3827 579.389 366.293)" fill="url(#paint6_linear_77_221)" fill-opacity="0.75"/>
</g>
<circle cx="579.389" cy="366.293" r="17.25" transform="rotate(-31.3827 579.389 366.293)" stroke="#97CBDB" stroke-width="0.75"/>
<path d="M586.461 355.366C585.582 357.244 583.859 354.002 580.133 353.8C576.407 353.598 572.838 357.029 572.968 354.635C573.098 352.24 576.223 350.463 579.95 350.665C583.676 350.867 588.276 353.258 586.461 355.366Z" fill="white" fill-opacity="0.72"/>
<path d="M410.458 332.239C410.737 302.922 340.392 237.411 303.33 200.8C297.334 195.009 277.42 183.35 245.735 183.049C206.129 182.673 12.3447 312.919 -27.5355 341.399C-67.4157 369.88 -85.2766 396.904 -124.065 484.224C-162.854 571.543 -59.4886 635.793 -61.3233 655.2C-63.1581 674.607 109.618 728.972 126.744 721.365C140.445 715.279 214.423 738.107 249.7 750.282L374.569 751.468C430.666 733.871 546.189 684.279 559.499 626.687C576.137 554.697 480.225 391.176 454.397 388.155C438.626 386.311 410.179 361.651 410.458 332.239Z" fill="url(#paint7_linear_77_221)"/>
<g filter="url(#filter7_d_77_221)">
<path d="M795.589 535.721C679.217 475.668 647.099 514.653 645.587 541.653L555.572 574.611C553.073 572.11 537.275 565.903 494.078 561.083C440.08 555.058 452.087 541.565 455.089 535.566C457.491 530.767 449.092 529.563 444.592 529.56C387.399 549.034 405.595 522.043 410.101 510.045C413.705 500.447 408.606 498.044 405.606 498.043C357.601 510.021 374.106 499.528 383.114 481.533C390.32 467.136 386.124 459.534 383.125 457.533C315.627 453.002 351.636 432.019 360.636 432.023C367.836 432.026 367.638 428.026 366.639 426.025C288.668 361.49 366.657 387.025 374.152 397.528C380.148 405.931 382.65 401.032 383.152 397.533C404.181 333.042 422.169 360.05 404.146 409.542C389.728 449.136 407.132 441.044 417.636 432.049C425.144 414.052 438.956 387.658 434.139 426.056C429.322 464.454 436.112 485.057 440.11 490.559C527.08 555.098 499.641 500.147 494.108 495.084C487.027 488.605 465.907 468.062 465.623 462.07C465.338 456.079 473.633 439.074 480.636 432.077C441.643 417.06 444.652 397.56 459.65 402.067C474.648 406.574 512.154 393.091 488.158 384.08C464.162 375.07 443.169 360.06 471.669 360.073C500.169 360.086 528.677 342.099 471.682 331.573C414.687 321.047 462.702 286.569 471.696 301.573C478.89 313.576 494.687 319.583 501.687 321.087C524.522 243.097 533.209 271.601 534.698 295.602C532.69 313.101 530.475 346.9 537.677 342.103C546.68 336.107 632.191 312.146 576.674 348.121C532.261 376.901 532.155 390.101 537.654 393.103C618.052 397.939 592.148 407.128 569.146 411.117C543.646 409.606 494.444 415.883 501.627 453.087C508.81 490.29 528.607 496.599 537.608 495.103C532.277 421.688 558.082 460.635 566.11 490.616C573.719 519.033 585.604 502.625 591.61 490.627C591.619 470.227 606.628 450.134 614.131 442.638C609.644 414.137 627.648 406.644 639.646 409.649C649.245 412.054 650.647 408.654 650.148 406.654C623.162 375.142 654.661 378.156 671.158 384.164C684.356 388.97 686.659 382.171 686.161 378.17C641.778 339.75 684.673 350.169 711.669 360.182C722.506 278.586 733.188 318.192 737.174 348.194C800.189 316.722 834.669 360.238 774.666 366.211C726.664 370.989 729.659 382.19 737.157 387.194C763.152 397.705 798.644 415.421 732.65 402.191C666.656 388.961 698.147 407.676 722.142 418.687C740.133 440.295 729.631 443.69 722.131 442.687C680.142 419.868 653.637 430.156 645.634 438.152C595.202 506.529 618.599 514.64 636.601 510.148C639.605 500.149 650.414 480.454 669.614 481.663C688.813 482.872 712.615 478.182 722.116 475.687C718.121 466.685 715.528 451.384 737.123 462.194C758.718 473.004 771.121 466.709 774.623 462.211C793.856 389.02 800.647 407.723 801.639 426.223C799.636 433.222 796.828 450.221 801.623 462.223C806.417 474.225 819.629 447.231 825.636 432.234C830.641 421.236 841.547 407.941 845.131 442.743C848.716 477.545 817.609 492.231 801.608 495.223C735.61 489.193 774.102 506.711 801.598 516.223C844.783 549.843 815.586 543.23 795.589 535.721Z" fill="url(#paint8_linear_77_221)"/>
</g>
<g filter="url(#filter8_d_77_221)">
<path d="M668.38 528.155C650.809 522.842 640.956 521.899 623.38 528.135C581.775 522.116 564.031 555.608 560.361 570.106C592.358 577.121 659.654 586.951 672.861 570.157C686.069 553.363 675.378 533.158 668.38 528.155Z" fill="#7D6964"/>
</g>
<g filter="url(#filter9_d_77_221)">
<path d="M497.367 556.576C518.974 542.186 550.37 550.6 563.367 556.606L587.36 571.617C557.355 583.604 497.344 606.976 497.345 604.576C497.346 602.176 483.349 595.57 476.351 592.567C392.359 573.329 455.365 560.557 497.367 556.576Z" fill="#6B5954"/>
</g>
<g filter="url(#filter10_d_77_221)">
<path d="M695.254 588.099C682.286 562.746 633.615 562.422 610.9 565.429C525.233 576.254 552.48 597.087 576.812 606.151C621.696 610.697 708.222 613.453 695.254 588.099Z" fill="#654D47"/>
</g>
<g filter="url(#filter11_d_77_221)">
<path d="M563.355 582.107C585.348 599.117 610.733 630.728 536.338 621.094C443.343 609.052 500.36 571.578 563.355 582.107Z" fill="#46332E"/>
</g>
<ellipse cx="12" cy="10.5" rx="12" ry="10.5" transform="matrix(-1 -0.00045426 -0.00045426 1 473.376 537.065)" fill="#B86F4F"/>
<ellipse cx="12.0728" cy="8.55625" rx="12.0728" ry="8.55625" transform="matrix(-0.934786 0.355211 0.355211 0.934786 539.444 387.095)" fill="#B86F4F"/>
<ellipse cx="12.0728" cy="8.55625" rx="12.0728" ry="8.55625" transform="matrix(-0.937751 -0.347309 -0.347309 0.937751 677.446 383.534)" fill="#B86F4F"/>
<ellipse cx="12.0728" cy="8.55625" rx="12.0728" ry="8.55625" transform="matrix(-0.937751 -0.347309 -0.347309 0.937751 755.409 464.57)" fill="#B86F4F"/>
<ellipse cx="8.90084" cy="7.10007" rx="8.90084" ry="7.10007" transform="matrix(-0.915807 -0.401619 -0.401619 0.915807 351.11 386.631)" fill="#B86F4F"/>
<ellipse cx="8.90084" cy="7.10007" rx="8.90084" ry="7.10007" transform="matrix(-0.915807 -0.401619 -0.401619 0.915807 479.455 364.21)" fill="#B86F4F"/>
<ellipse cx="8.90084" cy="7.10007" rx="8.90084" ry="7.10007" transform="matrix(-0.553508 0.832844 0.832844 0.553508 524.496 286.82)" fill="#B86F4F"/>
<ellipse cx="11.7792" cy="7.78184" rx="11.7792" ry="7.78184" transform="matrix(0.724935 0.688818 0.688818 -0.724935 452.62 303.391)" fill="#B86F4F"/>
<path d="M399.277 363.283C400.196 361.927 402.119 361.57 402.929 362.994C403.429 363.873 403.743 364.878 403.854 365.952C403.965 367.025 403.871 368.146 403.576 369.251C403.281 370.356 402.792 371.422 402.136 372.39C401.481 373.358 400.671 374.208 399.755 374.891C398.838 375.574 397.832 376.077 396.793 376.372C395.755 376.667 394.705 376.748 393.703 376.609C392.081 376.385 391.7 374.466 392.619 373.11L395.948 368.197L399.277 363.283Z" fill="#B86F4F"/>
<path d="M432.892 447.136C432.907 445.48 431.543 444.081 429.967 444.593C429.56 444.725 429.159 444.885 428.768 445.073C427.453 445.703 426.264 446.632 425.273 447.803C424.281 448.975 423.508 450.364 423 451.886C422.493 453.408 422.261 455.032 422.32 456.658C422.378 458.284 422.726 459.879 423.341 461.345C423.956 462.812 424.826 464.119 425.898 465.188C426.971 466.256 428.222 467.064 429.577 467.562C430.004 467.718 430.438 467.843 430.877 467.936C432.467 468.272 433.676 466.792 433.545 465.172L432.811 456.136L432.892 447.136Z" fill="#B86F4F"/>
<path d="M830.006 484.179C831.428 483.329 831.914 481.451 830.732 480.29C829.077 478.664 826.935 477.509 824.5 476.963C821.017 476.183 817.191 476.705 813.785 478.428C810.379 480.15 807.643 482.945 806.12 486.257C805.072 488.539 804.652 490.95 804.875 493.258C805.039 494.956 806.882 495.748 808.455 495.087L819.536 490.428L830.006 484.179Z" fill="#B86F4F"/>
<path d="M549.633 454.101C548.289 451.845 545.236 451.105 543.882 453.355C543.04 454.755 542.502 456.39 542.301 458.162C542.1 459.933 542.24 461.803 542.712 463.657C543.185 465.512 543.98 467.313 545.049 468.951C546.118 470.588 547.439 472.028 548.932 473.183C550.425 474.337 552.058 475.182 553.732 475.667C555.406 476.151 557.086 476.265 558.669 476C561.272 475.566 561.738 472.438 560.205 470.29L554.582 462.409L549.633 454.101Z" fill="#B86F4F"/>
<path d="M737.825 330.607C737.534 327.783 734.912 325.647 732.42 327.007C730.915 327.828 729.595 328.938 728.541 330.27C727.486 331.602 726.72 333.129 726.288 334.756C725.855 336.383 725.767 338.077 726.027 339.736C726.287 341.394 726.89 342.981 727.8 344.402C728.71 345.822 729.908 347.045 731.32 347.997C732.733 348.949 734.331 349.61 736.016 349.939C738.8 350.483 740.649 347.655 740.063 344.88L738.568 337.802L737.825 330.607Z" fill="#B86F4F"/>
<path d="M468.982 449.515C468.17 450.96 468.691 452.842 470.319 453.154C470.739 453.234 471.167 453.287 471.6 453.311C473.056 453.392 474.546 453.151 475.979 452.603C477.412 452.055 478.759 451.21 479.937 450.121C481.116 449.032 482.101 447.721 482.834 446.268C483.566 444.815 484.03 443.25 484.198 441.669C484.366 440.087 484.233 438.523 483.809 437.07C483.385 435.617 482.677 434.306 481.73 433.217C481.431 432.873 481.111 432.555 480.771 432.262C479.54 431.201 477.768 431.915 477.102 433.398L473.39 441.669L468.982 449.515Z" fill="#B86F4F"/>
<path d="M585.959 500.569C585.147 502.013 585.668 503.895 587.295 504.207C587.842 504.312 588.401 504.369 588.969 504.379C590.564 504.404 592.186 504.047 593.717 503.334C595.248 502.62 596.65 501.566 597.821 500.25C598.993 498.933 599.906 497.386 600.494 495.72C601.081 494.054 601.33 492.31 601.22 490.614C601.111 488.918 600.647 487.313 599.862 485.913C599.077 484.514 597.99 483.355 596.679 482.52C596.131 482.171 595.55 481.883 594.943 481.657C593.493 481.118 592.092 482.254 591.84 483.78L590.453 492.201C590.396 492.546 590.279 492.878 590.108 493.183L585.959 500.569Z" fill="#B86F4F"/>
<path d="M670.574 428.901C672.171 428.459 673.132 426.746 672.083 425.464C671.709 425.007 671.274 424.579 670.781 424.185C669.427 423.103 667.67 422.303 665.636 421.844C663.602 421.385 661.342 421.277 659.02 421.529C656.697 421.78 654.369 422.385 652.203 423.299C650.037 424.214 648.088 425.414 646.496 426.816C644.904 428.217 643.708 429.783 642.995 431.402C642.282 433.021 642.069 434.652 642.372 436.178C642.539 437.016 642.859 437.81 643.322 438.545C644.023 439.657 645.518 439.768 646.648 439.098L657.633 432.59C657.862 432.454 658.107 432.35 658.363 432.279L670.574 428.901Z" fill="#B86F4F"/>
<path d="M745.873 515.298C747.423 515.883 749.21 515.066 749.119 513.412C749.087 512.822 748.988 512.22 748.822 511.611C748.367 509.939 747.42 508.257 746.049 506.686C744.678 505.115 742.917 503.695 740.893 502.528C738.869 501.361 736.633 500.475 734.345 499.936C732.057 499.396 729.775 499.216 727.662 499.408C725.55 499.6 723.66 500.159 722.129 501.046C720.599 501.932 719.465 503.123 718.809 504.534C718.449 505.309 718.239 506.139 718.179 507.006C718.089 508.317 719.231 509.289 720.539 509.415L733.248 510.641C733.512 510.667 733.772 510.727 734.02 510.821L745.873 515.298Z" fill="#B86F4F"/>
<path d="M533.547 336.496C532.991 334.935 531.246 334.092 529.857 334.995C528.959 335.579 528.149 336.27 527.459 337.048C526.131 338.544 525.303 340.292 525.081 342.073C524.858 343.853 525.251 345.585 526.209 347.05C527.166 348.515 528.647 349.648 530.462 350.304C532.277 350.96 534.347 351.11 536.408 350.736C538.469 350.361 540.429 349.479 542.041 348.201C543.653 346.922 544.844 345.305 545.464 343.554C545.726 342.811 545.881 342.058 545.928 341.312C546.032 339.659 544.256 338.811 542.695 339.366L538.308 340.928C536.747 341.483 535.031 340.668 534.476 339.107L533.547 336.496Z" fill="#B86F4F"/>
<path d="M734.583 378.362C734.905 376.737 733.838 375.118 732.182 375.183C731.335 375.217 730.501 375.336 729.697 375.541C727.954 375.985 726.417 376.815 725.242 377.947C724.066 379.08 723.293 380.475 723.002 381.991C722.71 383.507 722.909 385.091 723.579 386.582C724.25 388.073 725.368 389.419 726.82 390.484C728.272 391.548 730.007 392.294 731.85 392.645C733.692 392.996 735.577 392.941 737.314 392.484C737.828 392.349 738.324 392.18 738.797 391.979C740.505 391.256 740.375 389.05 738.875 387.959L735.013 385.151C734.068 384.463 733.608 383.289 733.835 382.142L734.583 378.362Z" fill="#B86F4F"/>
<path d="M380.087 458.286C382.409 458.766 384.768 457.197 384.176 454.901C383.812 453.49 383.131 452.143 382.174 450.944C381.216 449.744 380.003 448.717 378.608 447.924C377.213 447.131 375.665 446.59 374.058 446.333C372.451 446.075 370.819 446.107 369.262 446.427C367.704 446.747 366.253 447.347 364.997 448.192C363.741 449.037 362.706 450.109 361.956 451.342C360.719 453.374 362.514 455.58 364.877 455.851L372.539 456.726L380.087 458.286Z" fill="#B86F4F"/>
<ellipse cx="7.5" cy="10.5" rx="7.5" ry="10.5" transform="matrix(-0.874355 -0.485287 -0.485287 0.874355 434.39 505.322)" fill="#B86F4F"/>
<path d="M973.357 514.595C973.672 481.457 886.074 407.336 839.921 365.914C832.454 359.361 807.663 346.162 768.239 345.788C718.959 345.32 477.986 492.326 428.396 524.474C378.807 556.622 356.612 587.149 308.445 685.803C260.277 784.457 388.958 857.19 386.696 879.124C384.434 901.058 599.468 962.693 620.769 954.113C637.81 947.249 729.881 973.132 773.787 986.931L929.156 988.406C998.936 968.578 1142.62 912.65 1159.12 847.568C1179.74 766.216 1060.23 581.285 1028.09 577.844C1008.46 575.742 973.041 547.838 973.357 514.595Z" fill="url(#paint9_linear_77_221)"/>
<path d="M812.955 567.302C832.512 551.418 821.902 541.552 783.376 498.911C781.825 479.017 821.311 456.634 819.026 441.566C816.742 426.497 807.385 427.454 802.525 426.576C789.681 421.419 760.594 503.496 749.92 494.35C739.247 485.204 753.572 453.555 763.382 438.325C777.67 416.144 798.166 421.209 770.509 402.475C742.852 383.74 735.306 468.363 719.661 481.07C707.144 491.235 697.002 445.843 700.985 429.434C701.179 413.688 699.71 413.211 689.148 406.201C675.626 397.226 649.314 420.738 673.892 462.014C708.077 519.426 669.883 495.602 643.121 471.417C612.624 443.856 605.672 450.616 593.578 474.356C581.484 498.096 680.849 512.591 672.072 519.719C658.056 531.102 600.345 490.015 582.408 497.902C564.471 505.789 562.987 532.602 577.84 535.571C604.409 540.881 641.282 540.643 659.112 546.389C671.333 572.093 644.164 559.441 605.949 566.185C564.787 573.45 569.247 611.579 629.314 588.961C652.914 585.382 668.832 579.759 673.819 598.466C678.576 616.313 705.547 649.522 724.297 639.306L812.955 567.302Z" fill="#7F587D"/>
<path d="M1023.07 851.55C1042.93 878.077 1157.54 883.819 1219.36 888.727C1229.27 889.403 1256.98 884.847 1288.54 861.216C1327.99 831.679 1430.28 568.59 1450.18 512.942C1470.08 457.294 1469.19 419.563 1447.6 311.923C1426 204.282 1334 196.954 1271.11 196.955C1249.06 196.955 1048.25 268.497 1036.53 288.245C1027.15 304.042 938.269 339.354 894.999 355.035L770.624 448.161C727.202 506.272 646.953 637.928 673.341 699.665C706.327 776.836 913.552 851.273 941.184 834.502C958.056 824.261 1003.14 824.939 1023.07 851.55Z" fill="url(#paint10_linear_77_221)"/>
<path d="M1329.68 212.793C1331.25 231.717 1315.14 237.491 1294.83 239.173C1274.51 240.855 1257.67 237.809 1256.11 218.884C1254.54 199.96 1269.74 183.255 1290.06 181.573C1310.37 179.891 1328.11 193.868 1329.68 212.793Z" fill="#A7495B"/>
<path d="M1282.08 166.177L1296.82 201.755L1330.34 185.36L1302.25 210.216L1328.3 238.224L1296.2 218.007L1278.78 251.712L1287.03 214.362L1250.21 207.185L1287.41 204.318L1282.08 166.177Z" fill="#A7495B"/>
<path d="M1261.19 178.67L1292.26 201.419L1312.4 170L1301.29 205.83L1338.1 216.238L1300.17 215.633L1302.78 253.484L1290.44 217.281L1255.25 230.266L1285.55 208.495L1261.19 178.67Z" fill="#F4ECFB"/>
<path d="M1251.18 195.278L1288.93 202.89L1294.02 165.925L1298.98 203.106L1336.76 197.111L1302.07 212.478L1320.32 245.739L1293.93 218.055L1267.43 244.606L1285.81 212.13L1251.18 195.278Z" fill="#A7495B"/>
<path d="M1249.67 218.52L1286.19 206.299L1272.18 171.715L1295.01 201.476L1324.77 177.448L1302.36 208.062L1334.76 227.796L1298.08 216.955L1288.34 253.18L1288.09 215.866L1249.67 218.52Z" fill="#F4ECFB"/>
<path d="M1259.14 238.478L1285.49 210.391L1256.74 186.597L1290.96 201.96L1305.76 166.687L1300.56 204.27L1338.44 206.264L1301.01 214.127L1309.63 250.633L1291.7 217.91L1259.14 238.478Z" fill="#A7495B"/>
<path d="M1324.39 243.061L1295.02 218.144L1272.69 248.038L1286.33 213.096L1250.36 200.076L1288.16 203.399L1288.26 165.458L1297.98 202.454L1334.01 192.025L1302.22 211.566L1324.39 243.061Z" fill="#F4ECFB"/>
<path d="M1266.4 173.97L1293.57 201.259L1318.33 173.34L1301.81 207.017L1336.56 223.002L1299.18 216.526L1295.9 254.325L1289.31 216.646L1252.53 224.021L1285.85 207.21L1266.4 173.97Z" fill="#A7495B"/>
<path d="M323.218 286.177C319.636 304.825 335.031 312.289 355.052 316.135C375.073 319.981 392.138 318.754 395.72 300.105C399.303 281.457 385.977 263.222 365.956 259.376C345.935 255.53 326.8 267.529 323.218 286.177Z" fill="#A7495B"/>
<path d="M375.533 244.922L357.068 278.718L325.493 258.831L350.766 286.549L321.869 311.61L355.953 294.944L369.668 330.319L365.461 292.301L402.834 289.104L366.149 282.273L375.533 244.922Z" fill="#A7495B"/>
<path d="M394.969 259.578L361.638 278.872L344.983 245.48L352.187 282.291L314.477 288.702L352.26 292.159L345.61 329.513L361.758 294.838L395.357 311.513L367.554 286.626L394.969 259.578Z" fill="#F4ECFB"/>
<path d="M403.144 277.162L364.795 280.691L363.685 243.393L354.78 279.83L317.861 269.828L350.707 288.818L328.999 319.935L358.204 295.234L381.708 324.468L366.911 290.212L403.144 277.162Z" fill="#A7495B"/>
<path d="M402.162 300.432L367.157 284.374L384.789 251.487L358.905 278.636L331.886 251.561L350.894 284.397L316.564 300.551L354.195 293.696L359.997 330.755L364.246 293.682L402.162 300.432Z" fill="#F4ECFB"/>
<path d="M390.609 319.262L367.416 288.517L398.541 267.935L362.875 279.549L351.939 242.896L353.089 280.819L315.205 278.748L351.582 290.571L339.104 325.945L360.436 295.329L390.609 319.262Z" fill="#A7495B"/>
<path d="M325.245 316.839L357.107 295.205L376.113 327.317L366.289 291.117L403.441 282.019L365.508 281.28L369.463 243.546L355.843 279.289L321.135 265.065L350.651 287.895L325.245 316.839Z" fill="#F4ECFB"/>
<path d="M390.293 254.348L360.355 278.573L338.726 248.165L351.547 283.416L315.287 295.592L353.149 293.153L352.367 331.086L362.947 294.328L398.724 305.595L367.4 285.316L390.293 254.348Z" fill="#A7495B"/>
<path d="M-9.72967 339.789C0.33486 355.891 16.6948 350.884 33.9828 340.078C51.2708 329.273 62.9402 316.761 52.8757 300.658C42.8111 284.556 20.6375 280.262 3.34955 291.067C-13.9384 301.873 -19.7942 323.686 -9.72967 339.789Z" fill="#A7495B"/>
<path d="M0.531843 273.959L9.99884 311.289L-26.6704 318.202L10.71 321.315L6.588 359.343L20.2233 323.937L54.345 340.526L25.3918 315.531L50.6021 287.756L19.0727 307.714L0.531843 273.959Z" fill="#A7495B"/>
<path d="M24.7475 271.473L13.4525 308.291L-21.4745 295.156L8.85355 317.229L-14.4166 347.586L15.6223 324.409L36.1675 356.306L24.4045 319.909L60.3723 309.265L23.0634 309.948L24.7475 271.473Z" fill="#F4ECFB"/>
<path d="M42.703 278.794L17.0033 307.477L-9.19071 280.901L9.07901 313.66L-24.7803 331.454L12.2107 323.018L17.4785 360.591L22.0705 322.618L59.1855 328.046L25.0325 313.013L42.703 278.794Z" fill="#A7495B"/>
<path d="M57.818 296.514L21.241 308.568L11.7817 272.471L11.2889 309.978L-26.9336 308.524L9.33888 319.651L-4.82465 354.849L18.0858 324.219L47.5547 347.426L25.4417 317.369L57.818 296.514Z" fill="#F4ECFB"/>
<path d="M62.1654 318.174L24.249 311.427L33.051 275.165L14.8195 307.946L-18.1358 288.53L8.51284 315.536L-20.6567 339.798L14.0446 323.708L28.9722 358.119L23.7701 321.168L62.1654 318.174Z" fill="#A7495B"/>
<path d="M12.6201 360.877L21.2463 323.344L57.0252 333.94L25.1926 314.099L46.2264 282.152L17.9265 307.422L-4.85274 277.081L9.48953 312.54L-25.6226 325.736L11.5413 322.38L12.6201 360.877Z" fill="#F4ECFB"/>
<path d="M17.7617 270.822L12.3084 308.946L-24.2321 301.382L9.14997 318.488L-9.135 352.085L16.9496 324.533L42.1893 352.861L24.9284 318.727L58.8124 302.637L22.06 309.093L17.7617 270.822Z" fill="#A7495B"/>
<g filter="url(#filter12_d_77_221)">
<path d="M1130.69 220.369C1127.35 255.696 1119.05 267.776 1146.24 270.345C1173.42 272.915 1193.67 266.108 1197.01 230.781C1200.34 195.454 1205.83 180.576 1176.97 172.449C1143.07 165.102 1134.03 185.043 1130.69 220.369Z" fill="#F6A480"/>
</g>
<g filter="url(#filter13_ddd_77_221)">
<path d="M1167.71 134.797C1171.48 134.411 1174.64 138.771 1177 143.76C1181.18 138.875 1186.39 134.367 1190.33 136.256C1195.23 138.613 1193.95 148.663 1192.36 155.7C1199.84 154.831 1208.85 154.528 1210.95 157.683C1212.69 160.309 1209.48 165.144 1205.59 169.541C1210.68 172.307 1215.13 175.518 1215.23 178.358C1215.37 182.302 1207.09 185.145 1200.22 186.823C1203.64 193.628 1207.29 202.806 1203.84 205.66C1201.34 207.725 1195.63 206.479 1190 204.427C1189.02 210.043 1187.26 215.103 1184.1 215.551C1180.54 216.057 1175.74 211.015 1171.74 205.7C1167.93 212.659 1162.16 221.457 1158.03 219.731C1154.29 218.166 1153.85 208.446 1154.18 200.221C1147.68 203.705 1140 206.816 1137.69 203.618C1135.22 200.182 1140.45 191.046 1145.21 184.072C1139.15 181.08 1132.66 176.889 1133.26 172.836C1133.82 169.09 1138.65 166.244 1144 164.211C1141.01 159.034 1138.79 153.421 1141.08 150.691C1144.28 146.868 1152.97 148.243 1159.98 150.182C1160.86 143.286 1162.91 135.288 1167.71 134.797Z" fill="#E2B69F"/>
</g>
<g filter="url(#filter14_d_77_221)">
<path d="M1141.5 222.58C1144.87 257.904 1153.18 269.977 1126 272.57C1098.82 275.164 1078.57 268.376 1075.2 233.052C1071.83 197.728 1066.33 182.855 1095.18 174.702C1129.07 167.324 1138.13 187.257 1141.5 222.58Z" fill="#F6A480"/>
</g>
<g filter="url(#filter15_ddd_77_221)">
<path d="M1101.83 149.46C1105.61 149.611 1108.13 154.372 1109.76 159.644C1114.58 155.397 1120.38 151.671 1124.01 154.096C1128.53 157.121 1125.85 166.891 1123.28 173.633C1130.81 173.828 1139.77 174.799 1141.4 178.217C1142.75 181.062 1138.9 185.397 1134.42 189.201C1139.08 192.658 1143.02 196.464 1142.72 199.29C1142.31 203.214 1133.7 204.861 1126.67 205.553C1129.09 212.772 1131.41 222.373 1127.59 224.711C1124.83 226.403 1119.35 224.365 1114.07 221.539C1112.3 226.96 1109.85 231.72 1106.66 231.719C1103.06 231.717 1099.02 226.048 1095.81 220.223C1091.06 226.575 1084.1 234.469 1080.26 232.179C1076.77 230.101 1077.71 220.417 1079.2 212.32C1072.27 214.852 1064.23 216.849 1062.4 213.357C1060.43 209.606 1066.9 201.301 1072.6 195.068C1067.01 191.25 1061.19 186.186 1062.35 182.259C1063.43 178.628 1068.61 176.492 1074.2 175.235C1071.97 169.687 1070.57 163.817 1073.21 161.437C1076.92 158.105 1085.34 160.692 1092 163.601C1093.84 156.898 1097 149.269 1101.83 149.46Z" fill="#E2B69F"/>
</g>
<path d="M1123.28 189.634C1123.28 196.538 1109.67 203.654 1100.97 203.658C1092.27 203.662 1081.4 193.133 1081.4 186.229C1081.4 179.326 1095.57 173.209 1104.27 173.205C1112.97 173.201 1123.27 182.731 1123.28 189.634Z" fill="#B86F4F"/>
<path d="M1123.28 189.634C1123.28 196.538 1109.67 203.654 1100.97 203.658C1092.27 203.662 1081.4 193.133 1081.4 186.229C1081.4 179.326 1095.57 173.209 1104.27 173.205C1112.97 173.201 1123.27 182.731 1123.28 189.634Z" fill="#B86F4F"/>
<path d="M1193.11 185.448C1190.56 191.861 1175.28 193.428 1167.2 190.209C1159.12 186.99 1152.92 173.183 1155.48 166.77C1158.03 160.356 1173.46 159.926 1181.54 163.146C1189.63 166.365 1195.67 179.034 1193.11 185.448Z" fill="#B86F4F"/>
<g filter="url(#filter16_d_77_221)">
<path d="M1109.7 229.194C1110.26 264.673 1103.34 277.592 1130.64 277.157C1157.94 276.723 1177.32 267.731 1176.75 232.251C1176.19 196.771 1180.01 181.38 1150.42 176.476C1115.93 172.9 1109.13 193.714 1109.7 229.194Z" fill="#F6A480"/>
</g>
<g filter="url(#filter17_ddd_77_221)">
<path d="M1142.2 145.317C1145.99 145.467 1148.5 150.229 1150.13 155.501C1154.95 151.254 1160.75 147.527 1164.38 149.953C1168.91 152.977 1166.22 162.747 1163.65 169.49C1171.18 169.685 1180.14 170.655 1181.77 174.074C1183.13 176.919 1179.27 181.254 1174.79 185.057C1179.45 188.514 1183.4 192.321 1183.1 195.146C1182.68 199.071 1174.08 200.717 1167.04 201.409C1169.47 208.628 1171.78 218.23 1167.96 220.568C1165.2 222.26 1159.73 220.222 1154.44 217.396C1152.68 222.816 1150.22 227.577 1147.03 227.576C1143.43 227.574 1139.39 221.905 1136.18 216.08C1131.43 222.432 1124.47 230.326 1120.63 228.036C1117.15 225.958 1118.08 216.274 1119.57 208.177C1112.64 210.709 1104.6 212.705 1102.77 209.214C1100.8 205.463 1107.28 197.157 1112.97 190.925C1107.39 187.107 1101.56 182.043 1102.73 178.115C1103.81 174.485 1108.99 172.348 1114.57 171.091C1112.35 165.544 1110.94 159.674 1113.59 157.294C1117.29 153.961 1125.71 156.549 1132.38 159.457C1134.21 152.754 1137.37 145.126 1142.2 145.317Z" fill="#E2B69F"/>
</g>
<path d="M1161.53 187.992C1161.53 194.895 1147.92 202.012 1139.22 202.016C1130.52 202.02 1119.65 191.491 1119.65 184.587C1119.65 177.684 1133.82 171.567 1142.52 171.563C1151.22 171.559 1161.52 181.088 1161.53 187.992Z" fill="#B86F4F"/>
<g filter="url(#filter18_d_77_221)">
<path d="M1085.71 258.655C1101.29 290.536 1113.32 298.914 1088.79 310.903C1064.26 322.892 1042.91 323.662 1027.33 291.782C1011.75 259.901 1001.37 247.914 1025.51 230.131C1054.64 211.303 1070.13 226.775 1085.71 258.655Z" fill="#F6A480"/>
</g>
<g filter="url(#filter19_ddd_77_221)">
<path d="M1020.89 191.634C1017.23 192.602 1015.81 197.796 1015.37 203.296C1009.73 200.198 1003.26 197.819 1000.25 200.973C996.49 204.908 1001.23 213.862 1005.2 219.886C997.896 221.71 989.356 224.604 988.51 228.294C987.806 231.366 992.509 234.76 997.707 237.501C993.912 241.886 990.885 246.459 991.79 249.152C993.048 252.893 1001.8 252.633 1008.82 251.781C1008.02 259.354 1007.84 269.23 1012.08 270.683C1015.15 271.734 1020.05 268.556 1024.59 264.651C1027.49 269.559 1030.92 273.673 1034.04 272.98C1037.55 272.196 1040.26 265.785 1042.13 259.403C1048.15 264.572 1056.65 270.767 1059.9 267.698C1062.85 264.914 1059.84 255.663 1056.63 248.083C1063.94 249.051 1072.22 249.254 1073.25 245.448C1074.36 241.36 1066.24 234.657 1059.33 229.81C1063.95 224.871 1068.54 218.663 1066.55 215.082C1064.71 211.772 1059.18 210.811 1053.46 210.796C1054.43 204.898 1054.53 198.863 1051.43 197.114C1047.08 194.666 1039.43 199.018 1033.56 203.304C1030.31 197.16 1025.56 190.399 1020.89 191.634Z" fill="#E2B69F"/>
</g>
<g filter="url(#filter20_d_77_221)">
<path d="M1076.38 264.537C1085.68 298.78 1082.16 313.007 1108.51 305.85C1134.86 298.693 1151.42 285.198 1142.11 250.955C1132.81 216.711 1132.72 200.854 1102.84 203.4C1068.52 208.446 1067.07 230.293 1076.38 264.537Z" fill="#F6A480"/>
</g>
<g filter="url(#filter21_ddd_77_221)">
<path d="M1087.72 182.123C1084.23 183.599 1083.56 188.941 1083.89 194.449C1077.88 192.176 1071.14 190.733 1068.6 194.282C1065.43 198.708 1071.39 206.904 1076.17 212.308C1069.19 215.144 1061.15 219.213 1060.83 222.986C1060.57 226.126 1065.7 228.823 1071.23 230.803C1068.1 235.68 1065.74 240.634 1067.02 243.172C1068.79 246.698 1077.43 245.205 1084.25 243.371C1084.53 250.982 1085.75 260.784 1090.15 261.625C1093.33 262.233 1097.73 258.396 1101.68 253.889C1105.24 258.338 1109.22 261.927 1112.21 260.801C1115.57 259.53 1117.36 252.8 1118.3 246.218C1124.99 250.487 1134.28 255.42 1137.07 251.923C1139.6 248.75 1135.31 240.017 1131.06 232.966C1138.44 232.892 1146.66 231.925 1147.15 228.012C1147.67 223.808 1138.68 218.318 1131.15 214.495C1135.03 208.953 1138.7 202.16 1136.22 198.896C1133.93 195.879 1128.33 195.706 1122.66 196.5C1122.79 190.523 1122.03 184.535 1118.72 183.241C1114.07 181.43 1107.11 186.818 1101.9 191.89C1097.82 186.266 1092.17 180.242 1087.72 182.123Z" fill="#E2B69F"/>
</g>
<path d="M1081.81 227.28C1084.24 233.741 1099.49 235.601 1107.63 232.537C1115.77 229.474 1122.23 215.789 1119.8 209.327C1117.37 202.866 1101.95 202.14 1093.81 205.204C1085.67 208.267 1079.38 220.819 1081.81 227.28Z" fill="#B86F4F"/>
<path d="M1081.81 227.28C1084.24 233.741 1099.49 235.601 1107.63 232.537C1115.77 229.474 1122.23 215.789 1119.8 209.327C1117.37 202.866 1101.95 202.14 1093.81 205.204C1085.67 208.267 1079.38 220.819 1081.81 227.28Z" fill="#B86F4F"/>
<path d="M1014.99 247.988C1019.64 253.088 1034.49 249.167 1040.92 243.305C1047.34 237.443 1048.27 222.339 1043.62 217.239C1038.97 212.138 1024.37 217.177 1017.95 223.039C1011.52 228.901 1010.34 242.887 1014.99 247.988Z" fill="#B86F4F"/>
<g filter="url(#filter22_d_77_221)">
<path d="M1108.47 259.509C1120.45 292.909 1131.48 302.559 1105.78 311.778C1080.08 320.998 1058.78 319.416 1046.8 286.016C1034.82 252.616 1025.82 239.56 1051.77 224.539C1082.79 209.028 1096.49 226.109 1108.47 259.509Z" fill="#F6A480"/>
</g>
<g filter="url(#filter23_ddd_77_221)">
<path d="M1048.48 192.483C1044.99 193.958 1044.31 199.3 1044.65 204.808C1038.64 202.535 1031.9 201.093 1029.36 204.641C1026.19 209.067 1032.15 217.263 1036.93 222.667C1029.95 225.503 1021.91 229.573 1021.59 233.345C1021.33 236.485 1026.46 239.182 1031.99 241.162C1028.86 246.039 1026.5 250.993 1027.78 253.531C1029.55 257.057 1038.18 255.564 1045.01 253.73C1045.29 261.341 1046.51 271.143 1050.91 271.984C1054.09 272.592 1058.49 268.755 1062.44 264.248C1066 268.697 1069.98 272.286 1072.96 271.16C1076.33 269.889 1078.12 263.159 1079.06 256.577C1085.75 260.846 1095.04 265.779 1097.83 262.282C1100.36 259.109 1096.07 250.376 1091.82 243.325C1099.2 243.252 1107.42 242.284 1107.91 238.371C1108.43 234.167 1099.44 228.678 1091.91 224.854C1095.79 219.312 1099.46 212.519 1096.98 209.255C1094.69 206.238 1089.09 206.065 1083.42 206.859C1083.55 200.882 1082.79 194.894 1079.48 193.6C1074.83 191.789 1067.87 197.177 1062.66 202.249C1058.57 196.625 1052.93 190.601 1048.48 192.483Z" fill="#E2B69F"/>
</g>
<path d="M1045.44 239.23C1047.87 245.692 1063.12 247.552 1071.26 244.488C1079.4 241.424 1085.86 227.739 1083.43 221.278C1081 214.817 1065.58 214.091 1057.43 217.154C1049.29 220.218 1043.01 232.769 1045.44 239.23Z" fill="#B86F4F"/>
<defs>
<filter id="filter0_i_77_221" x="442.79" y="266.776" width="54.3811" height="54.3811" filterUnits="userSpaceOnUse" color-interpolation-filters="sRGB">
<feFlood flood-opacity="0" result="BackgroundImageFix"/>
<feBlend mode="normal" in="SourceGraphic" in2="BackgroundImageFix" result="shape"/>
<feColorMatrix in="SourceAlpha" type="matrix" values="0 0 0 0 0 0 0 0 0 0 0 0 0 0 0 0 0 0 127 0" result="hardAlpha"/>
<feOffset dx="-1.875" dy="-3.75"/>
<feGaussianBlur stdDeviation="0.75"/>
<feComposite in2="hardAlpha" operator="arithmetic" k2="-1" k3="1"/>
<feColorMatrix type="matrix" values="0 0 0 0 0.283449 0 0 0 0 0.362029 0 0 0 0 0.597769 0 0 0 0.45 0"/>
<feBlend mode="normal" in2="shape" result="effect1_innerShadow_77_221"/>
</filter>
<filter id="filter1_i_77_221" x="519.399" y="205.387" width="36.25" height="36.2501" filterUnits="userSpaceOnUse" color-interpolation-filters="sRGB">
<feFlood flood-opacity="0" result="BackgroundImageFix"/>
<feBlend mode="normal" in="SourceGraphic" in2="BackgroundImageFix" result="shape"/>
<feColorMatrix in="SourceAlpha" type="matrix" values="0 0 0 0 0 0 0 0 0 0 0 0 0 0 0 0 0 0 127 0" result="hardAlpha"/>
<feOffset dx="-1.25" dy="-2.5"/>
<feGaussianBlur stdDeviation="0.5"/>
<feComposite in2="hardAlpha" operator="arithmetic" k2="-1" k3="1"/>
<feColorMatrix type="matrix" values="0 0 0 0 0.283449 0 0 0 0 0.362029 0 0 0 0 0.597769 0 0 0 0.45 0"/>
<feBlend mode="normal" in2="shape" result="effect1_innerShadow_77_221"/>
</filter>
<filter id="filter2_i_77_221" x="443.867" y="353.805" width="72.5071" height="72.5071" filterUnits="userSpaceOnUse" color-interpolation-filters="sRGB">
<feFlood flood-opacity="0" result="BackgroundImageFix"/>
<feBlend mode="normal" in="SourceGraphic" in2="BackgroundImageFix" result="shape"/>
<feColorMatrix in="SourceAlpha" type="matrix" values="0 0 0 0 0 0 0 0 0 0 0 0 0 0 0 0 0 0 127 0" result="hardAlpha"/>
<feOffset dx="-2.5" dy="-5"/>
<feGaussianBlur stdDeviation="1"/>
<feComposite in2="hardAlpha" operator="arithmetic" k2="-1" k3="1"/>
<feColorMatrix type="matrix" values="0 0 0 0 0.283449 0 0 0 0 0.362029 0 0 0 0 0.597769 0 0 0 0.45 0"/>
<feBlend mode="normal" in2="shape" result="effect1_innerShadow_77_221"/>
</filter>
<filter id="filter3_i_77_221" x="554.245" y="247.181" width="72.5001" height="72.5" filterUnits="userSpaceOnUse" color-interpolation-filters="sRGB">
<feFlood flood-opacity="0" result="BackgroundImageFix"/>
<feBlend mode="normal" in="SourceGraphic" in2="BackgroundImageFix" result="shape"/>
<feColorMatrix in="SourceAlpha" type="matrix" values="0 0 0 0 0 0 0 0 0 0 0 0 0 0 0 0 0 0 127 0" result="hardAlpha"/>
<feOffset dx="-2.5" dy="-5"/>
<feGaussianBlur stdDeviation="1"/>
<feComposite in2="hardAlpha" operator="arithmetic" k2="-1" k3="1"/>
<feColorMatrix type="matrix" values="0 0 0 0 0.283449 0 0 0 0 0.362029 0 0 0 0 0.597769 0 0 0 0.45 0"/>
<feBlend mode="normal" in2="shape" result="effect1_innerShadow_77_221"/>
</filter>
<filter id="filter4_i_77_221" x="591.326" y="162.283" width="72.5031" height="72.5031" filterUnits="userSpaceOnUse" color-interpolation-filters="sRGB">
<feFlood flood-opacity="0" result="BackgroundImageFix"/>
<feBlend mode="normal" in="SourceGraphic" in2="BackgroundImageFix" result="shape"/>
<feColorMatrix in="SourceAlpha" type="matrix" values="0 0 0 0 0 0 0 0 0 0 0 0 0 0 0 0 0 0 127 0" result="hardAlpha"/>
<feOffset dx="-2.5" dy="-5"/>
<feGaussianBlur stdDeviation="1"/>
<feComposite in2="hardAlpha" operator="arithmetic" k2="-1" k3="1"/>
<feColorMatrix type="matrix" values="0 0 0 0 0.283449 0 0 0 0 0.362029 0 0 0 0 0.597769 0 0 0 0.45 0"/>
<feBlend mode="normal" in2="shape" result="effect1_innerShadow_77_221"/>
</filter>
<filter id="filter5_i_77_221" x="495.723" y="87.7661" width="54.3887" height="54.3888" filterUnits="userSpaceOnUse" color-interpolation-filters="sRGB">
<feFlood flood-opacity="0" result="BackgroundImageFix"/>
<feBlend mode="normal" in="SourceGraphic" in2="BackgroundImageFix" result="shape"/>
<feColorMatrix in="SourceAlpha" type="matrix" values="0 0 0 0 0 0 0 0 0 0 0 0 0 0 0 0 0 0 127 0" result="hardAlpha"/>
<feOffset dx="-1.875" dy="-3.75"/>
<feGaussianBlur stdDeviation="0.75"/>
<feComposite in2="hardAlpha" operator="arithmetic" k2="-1" k3="1"/>
<feColorMatrix type="matrix" values="0 0 0 0 0.283449 0 0 0 0 0.362029 0 0 0 0 0.597769 0 0 0 0.45 0"/>
<feBlend mode="normal" in2="shape" result="effect1_innerShadow_77_221"/>
</filter>
<filter id="filter6_i_77_221" x="560.761" y="347.665" width="36.2551" height="36.255" filterUnits="userSpaceOnUse" color-interpolation-filters="sRGB">
<feFlood flood-opacity="0" result="BackgroundImageFix"/>
<feBlend mode="normal" in="SourceGraphic" in2="BackgroundImageFix" result="shape"/>
<feColorMatrix in="SourceAlpha" type="matrix" values="0 0 0 0 0 0 0 0 0 0 0 0 0 0 0 0 0 0 127 0" result="hardAlpha"/>
<feOffset dx="-1.25" dy="-2.5"/>
<feGaussianBlur stdDeviation="0.5"/>
<feComposite in2="hardAlpha" operator="arithmetic" k2="-1" k3="1"/>
<feColorMatrix type="matrix" values="0 0 0 0 0.283449 0 0 0 0 0.362029 0 0 0 0 0.597769 0 0 0 0.45 0"/>
<feBlend mode="normal" in2="shape" result="effect1_innerShadow_77_221"/>
</filter>
<filter id="filter7_d_77_221" x="328.261" y="270.089" width="521.156" height="312.521" filterUnits="userSpaceOnUse" color-interpolation-filters="sRGB">
<feFlood flood-opacity="0" result="BackgroundImageFix"/>
<feColorMatrix in="SourceAlpha" type="matrix" values="0 0 0 0 0 0 0 0 0 0 0 0 0 0 0 0 0 0 127 0" result="hardAlpha"/>
<feOffset dy="4"/>
<feGaussianBlur stdDeviation="2"/>
<feComposite in2="hardAlpha" operator="out"/>
<feColorMatrix type="matrix" values="0 0 0 0 0 0 0 0 0 0 0 0 0 0 0 0 0 0 0.25 0"/>
<feBlend mode="normal" in2="BackgroundImageFix" result="effect1_dropShadow_77_221"/>
<feBlend mode="normal" in="SourceGraphic" in2="effect1_dropShadow_77_221" result="shape"/>
</filter>
<filter id="filter8_d_77_221" x="556.361" y="523.807" width="126.769" height="63.61" filterUnits="userSpaceOnUse" color-interpolation-filters="sRGB">
<feFlood flood-opacity="0" result="BackgroundImageFix"/>
<feColorMatrix in="SourceAlpha" type="matrix" values="0 0 0 0 0 0 0 0 0 0 0 0 0 0 0 0 0 0 127 0" result="hardAlpha"/>
<feOffset dy="4"/>
<feGaussianBlur stdDeviation="2"/>
<feComposite in2="hardAlpha" operator="out"/>
<feColorMatrix type="matrix" values="0 0 0 0 0 0 0 0 0 0 0 0 0 0 0 0 0 0 0.25 0"/>
<feBlend mode="normal" in2="BackgroundImageFix" result="effect1_dropShadow_77_221"/>
<feBlend mode="normal" in="SourceGraphic" in2="effect1_dropShadow_77_221" result="shape"/>
</filter>
<filter id="filter9_d_77_221" x="430.954" y="548.638" width="160.406" height="64.1094" filterUnits="userSpaceOnUse" color-interpolation-filters="sRGB">
<feFlood flood-opacity="0" result="BackgroundImageFix"/>
<feColorMatrix in="SourceAlpha" type="matrix" values="0 0 0 0 0 0 0 0 0 0 0 0 0 0 0 0 0 0 127 0" result="hardAlpha"/>
<feOffset dy="4"/>
<feGaussianBlur stdDeviation="2"/>
<feComposite in2="hardAlpha" operator="out"/>
<feColorMatrix type="matrix" values="0 0 0 0 0 0 0 0 0 0 0 0 0 0 0 0 0 0 0.25 0"/>
<feBlend mode="normal" in2="BackgroundImageFix" result="effect1_dropShadow_77_221"/>
<feBlend mode="normal" in="SourceGraphic" in2="effect1_dropShadow_77_221" result="shape"/>
</filter>
<filter id="filter10_d_77_221" x="548.566" y="564.137" width="151.997" height="53.001" filterUnits="userSpaceOnUse" color-interpolation-filters="sRGB">
<feFlood flood-opacity="0" result="BackgroundImageFix"/>
<feColorMatrix in="SourceAlpha" type="matrix" values="0 0 0 0 0 0 0 0 0 0 0 0 0 0 0 0 0 0 127 0" result="hardAlpha"/>
<feOffset dy="4"/>
<feGaussianBlur stdDeviation="2"/>
<feComposite in2="hardAlpha" operator="out"/>
<feColorMatrix type="matrix" values="0 0 0 0 0 0 0 0 0 0 0 0 0 0 0 0 0 0 0.25 0"/>
<feBlend mode="normal" in2="BackgroundImageFix" result="effect1_dropShadow_77_221"/>
<feBlend mode="normal" in="SourceGraphic" in2="effect1_dropShadow_77_221" result="shape"/>
</filter>
<filter id="filter11_d_77_221" x="483.405" y="580.263" width="106.589" height="50.6206" filterUnits="userSpaceOnUse" color-interpolation-filters="sRGB">
<feFlood flood-opacity="0" result="BackgroundImageFix"/>
<feColorMatrix in="SourceAlpha" type="matrix" values="0 0 0 0 0 0 0 0 0 0 0 0 0 0 0 0 0 0 127 0" result="hardAlpha"/>
<feOffset dy="4"/>
<feGaussianBlur stdDeviation="2"/>
<feComposite in2="hardAlpha" operator="out"/>
<feColorMatrix type="matrix" values="0 0 0 0 0 0 0 0 0 0 0 0 0 0 0 0 0 0 0.25 0"/>
<feBlend mode="normal" in2="BackgroundImageFix" result="effect1_dropShadow_77_221"/>
<feBlend mode="normal" in="SourceGraphic" in2="effect1_dropShadow_77_221" result="shape"/>
</filter>
<filter id="filter12_d_77_221" x="1126.6" y="170.685" width="75.3982" height="102.397" filterUnits="userSpaceOnUse" color-interpolation-filters="sRGB">
<feFlood flood-opacity="0" result="BackgroundImageFix"/>
<feColorMatrix in="SourceAlpha" type="matrix" values="0 0 0 0 0 0 0 0 0 0 0 0 0 0 0 0 0 0 127 0" result="hardAlpha"/>
<feOffset dx="1" dy="1"/>
<feGaussianBlur stdDeviation="0.625"/>
<feComposite in2="hardAlpha" operator="out"/>
<feColorMatrix type="matrix" values="0 0 0 0 0 0 0 0 0 0 0 0 0 0 0 0 0 0 0.25 0"/>
<feBlend mode="normal" in2="BackgroundImageFix" result="effect1_dropShadow_77_221"/>
<feBlend mode="normal" in="SourceGraphic" in2="effect1_dropShadow_77_221" result="shape"/>
</filter>
<filter id="filter13_ddd_77_221" x="1132.97" y="134.523" width="84.5076" height="87.6779" filterUnits="userSpaceOnUse" color-interpolation-filters="sRGB">
<feFlood flood-opacity="0" result="BackgroundImageFix"/>
<feColorMatrix in="SourceAlpha" type="matrix" values="0 0 0 0 0 0 0 0 0 0 0 0 0 0 0 0 0 0 127 0" result="hardAlpha"/>
<feOffset dx="1" dy="1"/>
<feGaussianBlur stdDeviation="0.625"/>
<feComposite in2="hardAlpha" operator="out"/>
<feColorMatrix type="matrix" values="0 0 0 0 0 0 0 0 0 0 0 0 0 0 0 0 0 0 0.25 0"/>
<feBlend mode="normal" in2="BackgroundImageFix" result="effect1_dropShadow_77_221"/>
<feColorMatrix in="SourceAlpha" type="matrix" values="0 0 0 0 0 0 0 0 0 0 0 0 0 0 0 0 0 0 127 0" result="hardAlpha"/>
<feOffset dx="1" dy="1"/>
<feGaussianBlur stdDeviation="0.625"/>
<feComposite in2="hardAlpha" operator="out"/>
<feColorMatrix type="matrix" values="0 0 0 0 0 0 0 0 0 0 0 0 0 0 0 0 0 0 0.25 0"/>
<feBlend mode="normal" in2="effect1_dropShadow_77_221" result="effect2_dropShadow_77_221"/>
<feColorMatrix in="SourceAlpha" type="matrix" values="0 0 0 0 0 0 0 0 0 0 0 0 0 0 0 0 0 0 127 0" result="hardAlpha"/>
<feOffset dx="1" dy="1"/>
<feGaussianBlur stdDeviation="0.625"/>
<feComposite in2="hardAlpha" operator="out"/>
<feColorMatrix type="matrix" values="0 0 0 0 0 0 0 0 0 0 0 0 0 0 0 0 0 0 0.25 0"/>
<feBlend mode="normal" in2="effect2_dropShadow_77_221" result="effect3_dropShadow_77_221"/>
<feBlend mode="normal" in="SourceGraphic" in2="effect3_dropShadow_77_221" result="shape"/>
</filter>
<filter id="filter14_d_77_221" x="1072.18" y="172.926" width="75.4482" height="102.39" filterUnits="userSpaceOnUse" color-interpolation-filters="sRGB">
<feFlood flood-opacity="0" result="BackgroundImageFix"/>
<feColorMatrix in="SourceAlpha" type="matrix" values="0 0 0 0 0 0 0 0 0 0 0 0 0 0 0 0 0 0 127 0" result="hardAlpha"/>
<feOffset dx="1" dy="1"/>
<feGaussianBlur stdDeviation="0.625"/>
<feComposite in2="hardAlpha" operator="out"/>
<feColorMatrix type="matrix" values="0 0 0 0 0.128718 0 0 0 0 0.0826101 0 0 0 0 0.0826101 0 0 0 0.25 0"/>
<feBlend mode="normal" in2="BackgroundImageFix" result="effect1_dropShadow_77_221"/>
<feBlend mode="normal" in="SourceGraphic" in2="effect1_dropShadow_77_221" result="shape"/>
</filter>
<filter id="filter15_ddd_77_221" x="1061.79" y="149.207" width="83.2019" height="85.6271" filterUnits="userSpaceOnUse" color-interpolation-filters="sRGB">
<feFlood flood-opacity="0" result="BackgroundImageFix"/>
<feColorMatrix in="SourceAlpha" type="matrix" values="0 0 0 0 0 0 0 0 0 0 0 0 0 0 0 0 0 0 127 0" result="hardAlpha"/>
<feOffset dx="1" dy="1"/>
<feGaussianBlur stdDeviation="0.625"/>
<feComposite in2="hardAlpha" operator="out"/>
<feColorMatrix type="matrix" values="0 0 0 0 0 0 0 0 0 0 0 0 0 0 0 0 0 0 0.25 0"/>
<feBlend mode="normal" in2="BackgroundImageFix" result="effect1_dropShadow_77_221"/>
<feColorMatrix in="SourceAlpha" type="matrix" values="0 0 0 0 0 0 0 0 0 0 0 0 0 0 0 0 0 0 127 0" result="hardAlpha"/>
<feOffset dx="1" dy="1"/>
<feGaussianBlur stdDeviation="0.625"/>
<feComposite in2="hardAlpha" operator="out"/>
<feColorMatrix type="matrix" values="0 0 0 0 0 0 0 0 0 0 0 0 0 0 0 0 0 0 0.25 0"/>
<feBlend mode="normal" in2="effect1_dropShadow_77_221" result="effect2_dropShadow_77_221"/>
<feColorMatrix in="SourceAlpha" type="matrix" values="0 0 0 0 0 0 0 0 0 0 0 0 0 0 0 0 0 0 127 0" result="hardAlpha"/>
<feOffset dx="1" dy="1"/>
<feGaussianBlur stdDeviation="0.625"/>
<feComposite in2="hardAlpha" operator="out"/>
<feColorMatrix type="matrix" values="0 0 0 0 0 0 0 0 0 0 0 0 0 0 0 0 0 0 0.25 0"/>
<feBlend mode="normal" in2="effect2_dropShadow_77_221" result="effect3_dropShadow_77_221"/>
<feBlend mode="normal" in="SourceGraphic" in2="effect3_dropShadow_77_221" result="shape"/>
</filter>
<filter id="filter16_d_77_221" x="1109.06" y="175.828" width="69.9597" height="103.589" filterUnits="userSpaceOnUse" color-interpolation-filters="sRGB">
<feFlood flood-opacity="0" result="BackgroundImageFix"/>
<feColorMatrix in="SourceAlpha" type="matrix" values="0 0 0 0 0 0 0 0 0 0 0 0 0 0 0 0 0 0 127 0" result="hardAlpha"/>
<feOffset dx="1" dy="1"/>
<feGaussianBlur stdDeviation="0.625"/>
<feComposite in2="hardAlpha" operator="out"/>
<feColorMatrix type="matrix" values="0 0 0 0 0 0 0 0 0 0 0 0 0 0 0 0 0 0 0.25 0"/>
<feBlend mode="normal" in2="BackgroundImageFix" result="effect1_dropShadow_77_221"/>
<feBlend mode="normal" in="SourceGraphic" in2="effect1_dropShadow_77_221" result="shape"/>
</filter>
<filter id="filter17_ddd_77_221" x="1102.16" y="145.064" width="83.2019" height="85.6271" filterUnits="userSpaceOnUse" color-interpolation-filters="sRGB">
<feFlood flood-opacity="0" result="BackgroundImageFix"/>
<feColorMatrix in="SourceAlpha" type="matrix" values="0 0 0 0 0 0 0 0 0 0 0 0 0 0 0 0 0 0 127 0" result="hardAlpha"/>
<feOffset dx="1" dy="1"/>
<feGaussianBlur stdDeviation="0.625"/>
<feComposite in2="hardAlpha" operator="out"/>
<feColorMatrix type="matrix" values="0 0 0 0 0 0 0 0 0 0 0 0 0 0 0 0 0 0 0.25 0"/>
<feBlend mode="normal" in2="BackgroundImageFix" result="effect1_dropShadow_77_221"/>
<feColorMatrix in="SourceAlpha" type="matrix" values="0 0 0 0 0 0 0 0 0 0 0 0 0 0 0 0 0 0 127 0" result="hardAlpha"/>
<feOffset dx="1" dy="1"/>
<feGaussianBlur stdDeviation="0.625"/>
<feComposite in2="hardAlpha" operator="out"/>
<feColorMatrix type="matrix" values="0 0 0 0 0 0 0 0 0 0 0 0 0 0 0 0 0 0 0.25 0"/>
<feBlend mode="normal" in2="effect1_dropShadow_77_221" result="effect2_dropShadow_77_221"/>
<feColorMatrix in="SourceAlpha" type="matrix" values="0 0 0 0 0 0 0 0 0 0 0 0 0 0 0 0 0 0 127 0" result="hardAlpha"/>
<feOffset dx="1" dy="1"/>
<feGaussianBlur stdDeviation="0.625"/>
<feComposite in2="hardAlpha" operator="out"/>
<feColorMatrix type="matrix" values="0 0 0 0 0 0 0 0 0 0 0 0 0 0 0 0 0 0 0.25 0"/>
<feBlend mode="normal" in2="effect2_dropShadow_77_221" result="effect3_dropShadow_77_221"/>
<feBlend mode="normal" in="SourceGraphic" in2="effect3_dropShadow_77_221" result="shape"/>
</filter>
<filter id="filter18_d_77_221" x="1010.93" y="221.713" width="94.1167" height="99.0763" filterUnits="userSpaceOnUse" color-interpolation-filters="sRGB">
<feFlood flood-opacity="0" result="BackgroundImageFix"/>
<feColorMatrix in="SourceAlpha" type="matrix" values="0 0 0 0 0 0 0 0 0 0 0 0 0 0 0 0 0 0 127 0" result="hardAlpha"/>
<feOffset dx="1" dy="1"/>
<feGaussianBlur stdDeviation="0.625"/>
<feComposite in2="hardAlpha" operator="out"/>
<feColorMatrix type="matrix" values="0 0 0 0 0 0 0 0 0 0 0 0 0 0 0 0 0 0 0.25 0"/>
<feBlend mode="normal" in2="BackgroundImageFix" result="effect1_dropShadow_77_221"/>
<feBlend mode="normal" in="SourceGraphic" in2="effect1_dropShadow_77_221" result="shape"/>
</filter>
<filter id="filter19_ddd_77_221" x="988.189" y="191.237" width="87.417" height="84.0693" filterUnits="userSpaceOnUse" color-interpolation-filters="sRGB">
<feFlood flood-opacity="0" result="BackgroundImageFix"/>
<feColorMatrix in="SourceAlpha" type="matrix" values="0 0 0 0 0 0 0 0 0 0 0 0 0 0 0 0 0 0 127 0" result="hardAlpha"/>
<feOffset dx="1" dy="1"/>
<feGaussianBlur stdDeviation="0.625"/>
<feComposite in2="hardAlpha" operator="out"/>
<feColorMatrix type="matrix" values="0 0 0 0 0 0 0 0 0 0 0 0 0 0 0 0 0 0 0.25 0"/>
<feBlend mode="normal" in2="BackgroundImageFix" result="effect1_dropShadow_77_221"/>
<feColorMatrix in="SourceAlpha" type="matrix" values="0 0 0 0 0 0 0 0 0 0 0 0 0 0 0 0 0 0 127 0" result="hardAlpha"/>
<feOffset dx="1" dy="1"/>
<feGaussianBlur stdDeviation="0.625"/>
<feComposite in2="hardAlpha" operator="out"/>
<feColorMatrix type="matrix" values="0 0 0 0 0 0 0 0 0 0 0 0 0 0 0 0 0 0 0.25 0"/>
<feBlend mode="normal" in2="effect1_dropShadow_77_221" result="effect2_dropShadow_77_221"/>
<feColorMatrix in="SourceAlpha" type="matrix" values="0 0 0 0 0 0 0 0 0 0 0 0 0 0 0 0 0 0 127 0" result="hardAlpha"/>
<feOffset dx="1" dy="1"/>
<feGaussianBlur stdDeviation="0.625"/>
<feComposite in2="hardAlpha" operator="out"/>
<feColorMatrix type="matrix" values="0 0 0 0 0 0 0 0 0 0 0 0 0 0 0 0 0 0 0.25 0"/>
<feBlend mode="normal" in2="effect2_dropShadow_77_221" result="effect3_dropShadow_77_221"/>
<feBlend mode="normal" in="SourceGraphic" in2="effect3_dropShadow_77_221" result="shape"/>
</filter>
<filter id="filter20_d_77_221" x="1071.22" y="202.886" width="75.7529" height="107.017" filterUnits="userSpaceOnUse" color-interpolation-filters="sRGB">
<feFlood flood-opacity="0" result="BackgroundImageFix"/>
<feColorMatrix in="SourceAlpha" type="matrix" values="0 0 0 0 0 0 0 0 0 0 0 0 0 0 0 0 0 0 127 0" result="hardAlpha"/>
<feOffset dx="1" dy="1"/>
<feGaussianBlur stdDeviation="0.625"/>
<feComposite in2="hardAlpha" operator="out"/>
<feColorMatrix type="matrix" values="0 0 0 0 0.128718 0 0 0 0 0.0826101 0 0 0 0 0.0826101 0 0 0 0.25 0"/>
<feBlend mode="normal" in2="BackgroundImageFix" result="effect1_dropShadow_77_221"/>
<feBlend mode="normal" in="SourceGraphic" in2="effect1_dropShadow_77_221" result="shape"/>
</filter>
<filter id="filter21_ddd_77_221" x="1060.57" y="181.522" width="88.8486" height="82.4165" filterUnits="userSpaceOnUse" color-interpolation-filters="sRGB">
<feFlood flood-opacity="0" result="BackgroundImageFix"/>
<feColorMatrix in="SourceAlpha" type="matrix" values="0 0 0 0 0 0 0 0 0 0 0 0 0 0 0 0 0 0 127 0" result="hardAlpha"/>
<feOffset dx="1" dy="1"/>
<feGaussianBlur stdDeviation="0.625"/>
<feComposite in2="hardAlpha" operator="out"/>
<feColorMatrix type="matrix" values="0 0 0 0 0 0 0 0 0 0 0 0 0 0 0 0 0 0 0.25 0"/>
<feBlend mode="normal" in2="BackgroundImageFix" result="effect1_dropShadow_77_221"/>
<feColorMatrix in="SourceAlpha" type="matrix" values="0 0 0 0 0 0 0 0 0 0 0 0 0 0 0 0 0 0 127 0" result="hardAlpha"/>
<feOffset dx="1" dy="1"/>
<feGaussianBlur stdDeviation="0.625"/>
<feComposite in2="hardAlpha" operator="out"/>
<feColorMatrix type="matrix" values="0 0 0 0 0 0 0 0 0 0 0 0 0 0 0 0 0 0 0.25 0"/>
<feBlend mode="normal" in2="effect1_dropShadow_77_221" result="effect2_dropShadow_77_221"/>
<feColorMatrix in="SourceAlpha" type="matrix" values="0 0 0 0 0 0 0 0 0 0 0 0 0 0 0 0 0 0 127 0" result="hardAlpha"/>
<feOffset dx="1" dy="1"/>
<feGaussianBlur stdDeviation="0.625"/>
<feComposite in2="hardAlpha" operator="out"/>
<feColorMatrix type="matrix" values="0 0 0 0 0 0 0 0 0 0 0 0 0 0 0 0 0 0 0.25 0"/>
<feBlend mode="normal" in2="effect2_dropShadow_77_221" result="effect3_dropShadow_77_221"/>
<feBlend mode="normal" in="SourceGraphic" in2="effect3_dropShadow_77_221" result="shape"/>
</filter>
<filter id="filter22_d_77_221" x="1034.77" y="218.511" width="88.9062" height="100.362" filterUnits="userSpaceOnUse" color-interpolation-filters="sRGB">
<feFlood flood-opacity="0" result="BackgroundImageFix"/>
<feColorMatrix in="SourceAlpha" type="matrix" values="0 0 0 0 0 0 0 0 0 0 0 0 0 0 0 0 0 0 127 0" result="hardAlpha"/>
<feOffset dx="1" dy="1"/>
<feGaussianBlur stdDeviation="0.625"/>
<feComposite in2="hardAlpha" operator="out"/>
<feColorMatrix type="matrix" values="0 0 0 0 0 0 0 0 0 0 0 0 0 0 0 0 0 0 0.25 0"/>
<feBlend mode="normal" in2="BackgroundImageFix" result="effect1_dropShadow_77_221"/>
<feBlend mode="normal" in="SourceGraphic" in2="effect1_dropShadow_77_221" result="shape"/>
</filter>
<filter id="filter23_ddd_77_221" x="1021.33" y="191.881" width="88.8486" height="82.4165" filterUnits="userSpaceOnUse" color-interpolation-filters="sRGB">
<feFlood flood-opacity="0" result="BackgroundImageFix"/>
<feColorMatrix in="SourceAlpha" type="matrix" values="0 0 0 0 0 0 0 0 0 0 0 0 0 0 0 0 0 0 127 0" result="hardAlpha"/>
<feOffset dx="1" dy="1"/>
<feGaussianBlur stdDeviation="0.625"/>
<feComposite in2="hardAlpha" operator="out"/>
<feColorMatrix type="matrix" values="0 0 0 0 0 0 0 0 0 0 0 0 0 0 0 0 0 0 0.25 0"/>
<feBlend mode="normal" in2="BackgroundImageFix" result="effect1_dropShadow_77_221"/>
<feColorMatrix in="SourceAlpha" type="matrix" values="0 0 0 0 0 0 0 0 0 0 0 0 0 0 0 0 0 0 127 0" result="hardAlpha"/>
<feOffset dx="1" dy="1"/>
<feGaussianBlur stdDeviation="0.625"/>
<feComposite in2="hardAlpha" operator="out"/>
<feColorMatrix type="matrix" values="0 0 0 0 0 0 0 0 0 0 0 0 0 0 0 0 0 0 0.25 0"/>
<feBlend mode="normal" in2="effect1_dropShadow_77_221" result="effect2_dropShadow_77_221"/>
<feColorMatrix in="SourceAlpha" type="matrix" values="0 0 0 0 0 0 0 0 0 0 0 0 0 0 0 0 0 0 127 0" result="hardAlpha"/>
<feOffset dx="1" dy="1"/>
<feGaussianBlur stdDeviation="0.625"/>
<feComposite in2="hardAlpha" operator="out"/>
<feColorMatrix type="matrix" values="0 0 0 0 0 0 0 0 0 0 0 0 0 0 0 0 0 0 0.25 0"/>
<feBlend mode="normal" in2="effect2_dropShadow_77_221" result="effect3_dropShadow_77_221"/>
<feBlend mode="normal" in="SourceGraphic" in2="effect3_dropShadow_77_221" result="shape"/>
</filter>
<linearGradient id="paint0_linear_77_221" x1="470.73" y1="268.279" x2="470.73" y2="321.154" gradientUnits="userSpaceOnUse">
<stop stop-color="#ADCDF2" stop-opacity="0.5"/>
<stop offset="0.961538" stop-color="#64768C" stop-opacity="0.5"/>
</linearGradient>
<linearGradient id="paint1_linear_77_221" x1="538.024" y1="206.387" x2="538.024" y2="241.637" gradientUnits="userSpaceOnUse">
<stop stop-color="#ADCDF2" stop-opacity="0.5"/>
<stop offset="0.961538" stop-color="#64768C" stop-opacity="0.5"/>
</linearGradient>
<linearGradient id="paint2_linear_77_221" x1="481.121" y1="355.809" x2="481.121" y2="426.309" gradientUnits="userSpaceOnUse">
<stop stop-color="#ADCDF2" stop-opacity="0.5"/>
<stop offset="0.961538" stop-color="#64768C" stop-opacity="0.5"/>
</linearGradient>
<linearGradient id="paint3_linear_77_221" x1="591.495" y1="249.181" x2="591.495" y2="319.681" gradientUnits="userSpaceOnUse">
<stop stop-color="#ADCDF2" stop-opacity="0.5"/>
<stop offset="0.961538" stop-color="#64768C" stop-opacity="0.5"/>
</linearGradient>
<linearGradient id="paint4_linear_77_221" x1="628.577" y1="164.285" x2="628.577" y2="234.785" gradientUnits="userSpaceOnUse">
<stop stop-color="#ADCDF2" stop-opacity="0.5"/>
<stop offset="0.961538" stop-color="#64768C" stop-opacity="0.5"/>
</linearGradient>
<linearGradient id="paint5_linear_77_221" x1="523.667" y1="89.273" x2="523.667" y2="142.148" gradientUnits="userSpaceOnUse">
<stop stop-color="#ADCDF2" stop-opacity="0.5"/>
<stop offset="0.961538" stop-color="#64768C" stop-opacity="0.5"/>
</linearGradient>
<linearGradient id="paint6_linear_77_221" x1="579.389" y1="348.668" x2="579.389" y2="383.918" gradientUnits="userSpaceOnUse">
<stop stop-color="#ADCDF2" stop-opacity="0.5"/>
<stop offset="0.961538" stop-color="#64768C" stop-opacity="0.5"/>
</linearGradient>
<linearGradient id="paint7_linear_77_221" x1="341.661" y1="210.044" x2="157.694" y2="696.226" gradientUnits="userSpaceOnUse">
<stop stop-color="#969DA7"/>
<stop offset="1" stop-color="#222325"/>
</linearGradient>
<linearGradient id="paint8_linear_77_221" x1="588.906" y1="270.118" x2="588.768" y2="574.626" gradientUnits="userSpaceOnUse">
<stop offset="0.480769" stop-color="#FFA977"/>
<stop offset="1" stop-color="#C17041"/>
</linearGradient>
<linearGradient id="paint9_linear_77_221" x1="688.807" y1="426.298" x2="512.747" y2="840.124" gradientUnits="userSpaceOnUse">
<stop stop-color="#969DA7"/>
<stop offset="1" stop-color="#222325"/>
</linearGradient>
<linearGradient id="paint10_linear_77_221" x1="1127.11" y1="270.98" x2="734.393" y2="661.498" gradientUnits="userSpaceOnUse">
<stop stop-color="#969DA7"/>
<stop offset="1" stop-color="#222325"/>
</linearGradient>
</defs>
</svg>
