<svg width="397" height="307" viewBox="0 0 397 307" fill="none" xmlns="http://www.w3.org/2000/svg">
<path d="M167.122 195.745C146.474 195.745 148.126 182.791 150.604 130.974C141.312 116.146 104.627 122.935 98.2948 111.073C91.9627 99.2118 98.4095 94.5559 101.048 91.1742C106.554 80.2487 167.466 121.219 169.531 108.732C171.596 96.2461 146.13 82.2179 132.02 77.1277C111.47 69.7142 101.048 84.9315 108.963 56.0574C116.878 27.1833 165.402 82.1997 181.92 82.1997C195.135 82.1997 178.135 44.6114 167.122 35.377C158.863 24.4517 159.551 23.2812 162.648 12.3559C166.614 -1.63231 195.501 -0.129948 201.192 42.7906C209.107 102.49 221.096 64.0499 225.625 31.8653C230.787 -4.8122 238.703 -4.03156 258.663 5.72345C278.622 15.4785 222.898 82.1997 232.164 82.1997C246.962 82.1997 262.448 20.5505 277.934 15.8682C293.42 11.186 308.218 29.1347 300.303 39.6696C286.144 58.5153 262.563 79.3384 254.189 93.5152C259.695 118.487 270.442 94.1541 298.238 77.1277C328.178 58.7885 345.041 88.0526 295.141 106.391C278.278 117.317 265.247 122.436 271.74 138.387C277.934 153.604 277.934 192.233 260.727 195.745H167.122Z" fill="#7F587D"/>
<path d="M193.672 119.585C190.146 111.31 181.923 107.395 167.503 99.0405C150.661 86.2988 120.748 94.6847 111.347 98.6909C99.5944 103.699 58.3502 165.32 50.0686 178.473C41.787 191.626 39.8341 201.526 39.1169 231.074C38.3997 260.621 76.8581 265.332 78.7044 271.022C80.5507 276.713 138.307 269.685 142.433 265.336C145.733 261.857 170.408 258.721 182.333 257.588L219.385 241.8C233.799 229.612 261.839 200.76 258.685 182.857C254.742 160.477 206.268 126.906 198.263 129.392C193.375 130.91 197.209 127.886 193.672 119.585Z" fill="url(#paint0_linear_195_1749)"/>
<g filter="url(#filter0_d_195_1749)">
<path d="M134.204 129.567C144.211 164.507 140.808 179.127 167.692 171.426C194.577 163.726 211.346 149.673 201.339 114.733C191.332 79.7937 191.009 63.5549 160.446 66.582C125.374 72.2323 124.197 94.6272 134.204 129.567Z" fill="#F6A480"/>
</g>
<g filter="url(#filter1_ddd_195_1749)">
<path d="M137.559 34.127C141.009 32.3521 145.652 35.3297 149.763 39.2082C151.923 32.989 155.214 26.7427 159.671 27.0758C165.229 27.4914 167.762 37.5544 168.873 44.8602C175.681 41.2391 184.163 37.5846 187.337 39.8116C189.979 41.6657 188.728 47.4732 186.653 53.1224C192.548 53.8565 197.986 55.2603 199.144 57.9299C200.753 61.6385 193.913 67.4439 187.989 71.6091C193.791 76.8222 200.699 84.2137 198.472 88.2249C196.86 91.127 190.953 92.0709 184.82 92.2144C185.977 97.9382 186.187 103.422 183.344 105.028C180.134 106.841 173.671 103.825 167.875 100.249C166.843 108.307 164.619 118.855 160.04 118.749C155.887 118.654 151.836 109.549 149.082 101.579C144.182 107.33 138.021 113.164 134.626 110.976C130.98 108.625 132.564 97.9554 134.498 89.5276C127.595 88.939 119.846 87.3619 118.906 83.2722C118.036 79.4922 121.578 74.9747 125.924 71.0374C121.141 67.2152 116.93 62.6902 118.089 59.2336C119.713 54.3936 128.519 52.4563 135.929 51.6883C134.188 44.785 133.159 36.3907 137.559 34.127Z" fill="#E2B69F"/>
</g>
<g filter="url(#filter2_d_195_1749)">
<path d="M145.341 127.639C161.747 160.07 174.179 168.481 149.225 181.105C124.27 193.728 102.418 194.817 86.0126 162.386C69.6068 129.955 58.807 117.823 83.2837 99.2718C112.851 79.5799 128.935 95.2076 145.341 127.639Z" fill="#F6A480"/>
</g>
<g filter="url(#filter3_ddd_195_1749)">
<path d="M80.1963 72.7159C83.8626 71.4455 88.0388 75.0484 91.5612 79.4681C94.577 73.6158 98.7164 67.8963 103.082 68.855C108.526 70.0506 109.614 80.3703 109.683 87.7597C116.933 85.1354 125.846 82.7141 128.674 85.3667C131.028 87.5749 128.971 93.1479 126.119 98.4479C131.852 100.006 137.037 102.163 137.807 104.97C138.876 108.868 131.286 113.65 124.833 116.938C129.842 122.918 135.638 131.21 132.867 134.867C130.863 137.512 124.881 137.613 118.789 136.89C119.127 142.72 118.561 148.178 115.52 149.367C112.087 150.709 106.113 146.812 100.88 142.453C98.721 150.285 95.0312 160.414 90.5137 159.664C86.4151 158.983 83.6895 149.398 82.0873 141.119C76.4251 146.121 69.5021 151.028 66.4506 148.382C63.1727 145.54 66.2454 135.201 69.3496 127.13C62.5988 125.574 55.1502 122.919 54.7957 118.738C54.4683 114.873 58.612 110.9 63.4703 107.616C59.2745 103.157 55.7439 98.0829 57.3793 94.8244C59.6697 90.2619 68.6611 89.5865 76.1046 89.8715C75.3558 82.7917 75.5207 74.3361 80.1963 72.7159Z" fill="#E2B69F"/>
</g>
<path d="M115.655 103.022C118.236 109.605 107.913 121.475 99.6178 124.727C91.3231 127.979 77.0253 121.996 74.4443 115.413C71.8634 108.829 83.0975 97.703 91.3922 94.451C99.6869 91.199 113.075 96.4391 115.655 103.022Z" fill="#B86F4F"/>
<path d="M115.655 103.022C118.236 109.605 107.913 121.475 99.6178 124.727C91.3231 127.979 77.0253 121.996 74.4443 115.413C71.8634 108.829 83.0975 97.703 91.3922 94.451C99.6869 91.199 113.075 96.4391 115.655 103.022Z" fill="#B86F4F"/>
<path d="M180.697 72.9515C180.655 80.0224 166.668 87.2222 157.759 87.1695C148.85 87.1167 137.787 76.2617 137.829 69.1909C137.87 62.12 152.427 55.9478 161.337 56.0005C170.246 56.0533 180.739 65.8807 180.697 72.9515Z" fill="#B86F4F"/>
<g filter="url(#filter4_d_195_1749)">
<path d="M117.475 145.823C131.263 179.451 129.488 194.356 155.363 183.747C181.238 173.138 196.36 157.326 182.573 123.698C168.785 90.0707 166.679 73.9658 136.634 80.3346C102.395 89.8066 103.687 112.195 117.475 145.823Z" fill="#F6A480"/>
</g>
<g filter="url(#filter5_ddd_195_1749)">
<path d="M117.155 53.6875C120.821 52.4172 124.998 56.02 128.52 60.4397C131.536 54.5875 135.675 48.868 140.041 49.8266C145.485 51.0223 146.572 61.342 146.641 68.7314C153.892 66.107 162.805 63.6858 165.633 66.3384C167.987 68.5466 165.929 74.1196 163.078 79.4196C168.81 80.9779 173.996 83.135 174.766 85.9413C175.835 89.8398 168.245 94.6221 161.792 97.9098C166.801 103.889 172.597 112.182 169.826 115.838C167.821 118.484 161.84 118.585 155.747 117.862C156.086 123.692 155.52 129.15 152.478 130.339C149.045 131.681 143.072 127.784 137.838 123.425C135.68 131.257 131.99 141.386 127.472 140.635C123.374 139.955 120.648 130.37 119.046 122.091C113.384 127.093 106.461 131.999 103.409 129.354C100.131 126.512 103.204 116.173 106.308 108.102C99.5575 106.545 92.1089 103.891 91.7544 99.7093C91.4271 95.8445 95.5707 91.8719 100.429 88.5872C96.2332 84.1284 92.7026 79.0545 94.3381 75.7961C96.6285 71.2336 105.62 70.5582 113.063 70.8432C112.315 63.7634 112.479 55.3077 117.155 53.6875Z" fill="#E2B69F"/>
</g>
<path d="M151.522 87.1726C154.103 93.7557 143.779 105.625 135.485 108.877C127.19 112.129 112.892 106.146 110.311 99.5629C107.73 92.9799 118.964 81.8534 127.259 78.6014C135.554 75.3494 148.941 80.5895 151.522 87.1726Z" fill="#B86F4F"/>
<path d="M331.137 127.887C331.086 117.56 300.968 94.8702 285.088 82.1776C282.52 80.1704 274.033 76.1726 260.636 76.2393C243.889 76.3227 162.713 123.252 146.017 133.501C129.321 143.749 121.926 153.365 106.031 184.331C90.1359 215.296 134.207 237.362 133.543 244.208C132.879 251.053 206.238 269.259 213.435 266.486C219.193 264.268 250.6 271.905 265.584 276.001L318.383 275.738C341.998 269.234 390.552 251.138 395.847 230.781C402.466 205.335 360.973 148.265 350.036 147.342C343.358 146.778 331.189 138.248 331.137 127.887Z" fill="url(#paint1_linear_195_1749)"/>
<defs>
<filter id="filter0_d_195_1749" x="128.51" y="65.969" width="78.0584" height="109.765" filterUnits="userSpaceOnUse" color-interpolation-filters="sRGB">
<feFlood flood-opacity="0" result="BackgroundImageFix"/>
<feColorMatrix in="SourceAlpha" type="matrix" values="0 0 0 0 0 0 0 0 0 0 0 0 0 0 0 0 0 0 127 0" result="hardAlpha"/>
<feOffset dx="1.02425" dy="1.02425"/>
<feGaussianBlur stdDeviation="0.640154"/>
<feComposite in2="hardAlpha" operator="out"/>
<feColorMatrix type="matrix" values="0 0 0 0 0 0 0 0 0 0 0 0 0 0 0 0 0 0 0.25 0"/>
<feBlend mode="normal" in2="BackgroundImageFix" result="effect1_dropShadow_195_1749"/>
<feBlend mode="normal" in="SourceGraphic" in2="effect1_dropShadow_195_1749" result="shape"/>
</filter>
<filter id="filter1_ddd_195_1749" x="117.639" y="26.8069" width="84.0482" height="94.2481" filterUnits="userSpaceOnUse" color-interpolation-filters="sRGB">
<feFlood flood-opacity="0" result="BackgroundImageFix"/>
<feColorMatrix in="SourceAlpha" type="matrix" values="0 0 0 0 0 0 0 0 0 0 0 0 0 0 0 0 0 0 127 0" result="hardAlpha"/>
<feOffset dx="1.02425" dy="1.02425"/>
<feGaussianBlur stdDeviation="0.640154"/>
<feComposite in2="hardAlpha" operator="out"/>
<feColorMatrix type="matrix" values="0 0 0 0 0 0 0 0 0 0 0 0 0 0 0 0 0 0 0.25 0"/>
<feBlend mode="normal" in2="BackgroundImageFix" result="effect1_dropShadow_195_1749"/>
<feColorMatrix in="SourceAlpha" type="matrix" values="0 0 0 0 0 0 0 0 0 0 0 0 0 0 0 0 0 0 127 0" result="hardAlpha"/>
<feOffset dx="1.02425" dy="1.02425"/>
<feGaussianBlur stdDeviation="0.640154"/>
<feComposite in2="hardAlpha" operator="out"/>
<feColorMatrix type="matrix" values="0 0 0 0 0 0 0 0 0 0 0 0 0 0 0 0 0 0 0.25 0"/>
<feBlend mode="normal" in2="effect1_dropShadow_195_1749" result="effect2_dropShadow_195_1749"/>
<feColorMatrix in="SourceAlpha" type="matrix" values="0 0 0 0 0 0 0 0 0 0 0 0 0 0 0 0 0 0 127 0" result="hardAlpha"/>
<feOffset dx="1.02425" dy="1.02425"/>
<feGaussianBlur stdDeviation="0.640154"/>
<feComposite in2="hardAlpha" operator="out"/>
<feColorMatrix type="matrix" values="0 0 0 0 0 0 0 0 0 0 0 0 0 0 0 0 0 0 0.25 0"/>
<feBlend mode="normal" in2="effect2_dropShadow_195_1749" result="effect3_dropShadow_195_1749"/>
<feBlend mode="normal" in="SourceGraphic" in2="effect3_dropShadow_195_1749" result="shape"/>
</filter>
<filter id="filter2_d_195_1749" x="68.6568" y="90.3289" width="97.0154" height="101.286" filterUnits="userSpaceOnUse" color-interpolation-filters="sRGB">
<feFlood flood-opacity="0" result="BackgroundImageFix"/>
<feColorMatrix in="SourceAlpha" type="matrix" values="0 0 0 0 0 0 0 0 0 0 0 0 0 0 0 0 0 0 127 0" result="hardAlpha"/>
<feOffset dx="1.02425" dy="1.02425"/>
<feGaussianBlur stdDeviation="0.640154"/>
<feComposite in2="hardAlpha" operator="out"/>
<feColorMatrix type="matrix" values="0 0 0 0 0.128718 0 0 0 0 0.0826101 0 0 0 0 0.0826101 0 0 0 0.25 0"/>
<feBlend mode="normal" in2="BackgroundImageFix" result="effect1_dropShadow_195_1749"/>
<feBlend mode="normal" in="SourceGraphic" in2="effect1_dropShadow_195_1749" result="shape"/>
</filter>
<filter id="filter3_ddd_195_1749" x="54.5215" y="68.493" width="85.6917" height="93.5147" filterUnits="userSpaceOnUse" color-interpolation-filters="sRGB">
<feFlood flood-opacity="0" result="BackgroundImageFix"/>
<feColorMatrix in="SourceAlpha" type="matrix" values="0 0 0 0 0 0 0 0 0 0 0 0 0 0 0 0 0 0 127 0" result="hardAlpha"/>
<feOffset dx="1.02425" dy="1.02425"/>
<feGaussianBlur stdDeviation="0.640154"/>
<feComposite in2="hardAlpha" operator="out"/>
<feColorMatrix type="matrix" values="0 0 0 0 0 0 0 0 0 0 0 0 0 0 0 0 0 0 0.25 0"/>
<feBlend mode="normal" in2="BackgroundImageFix" result="effect1_dropShadow_195_1749"/>
<feColorMatrix in="SourceAlpha" type="matrix" values="0 0 0 0 0 0 0 0 0 0 0 0 0 0 0 0 0 0 127 0" result="hardAlpha"/>
<feOffset dx="1.02425" dy="1.02425"/>
<feGaussianBlur stdDeviation="0.640154"/>
<feComposite in2="hardAlpha" operator="out"/>
<feColorMatrix type="matrix" values="0 0 0 0 0 0 0 0 0 0 0 0 0 0 0 0 0 0 0.25 0"/>
<feBlend mode="normal" in2="effect1_dropShadow_195_1749" result="effect2_dropShadow_195_1749"/>
<feColorMatrix in="SourceAlpha" type="matrix" values="0 0 0 0 0 0 0 0 0 0 0 0 0 0 0 0 0 0 127 0" result="hardAlpha"/>
<feOffset dx="1.02425" dy="1.02425"/>
<feGaussianBlur stdDeviation="0.640154"/>
<feComposite in2="hardAlpha" operator="out"/>
<feColorMatrix type="matrix" values="0 0 0 0 0 0 0 0 0 0 0 0 0 0 0 0 0 0 0.25 0"/>
<feBlend mode="normal" in2="effect2_dropShadow_195_1749" result="effect3_dropShadow_195_1749"/>
<feBlend mode="normal" in="SourceGraphic" in2="effect3_dropShadow_195_1749" result="shape"/>
</filter>
<filter id="filter4_d_195_1749" x="108.145" y="78.7107" width="81.9425" height="110.713" filterUnits="userSpaceOnUse" color-interpolation-filters="sRGB">
<feFlood flood-opacity="0" result="BackgroundImageFix"/>
<feColorMatrix in="SourceAlpha" type="matrix" values="0 0 0 0 0 0 0 0 0 0 0 0 0 0 0 0 0 0 127 0" result="hardAlpha"/>
<feOffset dx="1.02425" dy="1.02425"/>
<feGaussianBlur stdDeviation="0.640154"/>
<feComposite in2="hardAlpha" operator="out"/>
<feColorMatrix type="matrix" values="0 0 0 0 0 0 0 0 0 0 0 0 0 0 0 0 0 0 0.25 0"/>
<feBlend mode="normal" in2="BackgroundImageFix" result="effect1_dropShadow_195_1749"/>
<feBlend mode="normal" in="SourceGraphic" in2="effect1_dropShadow_195_1749" result="shape"/>
</filter>
<filter id="filter5_ddd_195_1749" x="91.4803" y="49.4646" width="85.6917" height="93.5147" filterUnits="userSpaceOnUse" color-interpolation-filters="sRGB">
<feFlood flood-opacity="0" result="BackgroundImageFix"/>
<feColorMatrix in="SourceAlpha" type="matrix" values="0 0 0 0 0 0 0 0 0 0 0 0 0 0 0 0 0 0 127 0" result="hardAlpha"/>
<feOffset dx="1.02425" dy="1.02425"/>
<feGaussianBlur stdDeviation="0.640154"/>
<feComposite in2="hardAlpha" operator="out"/>
<feColorMatrix type="matrix" values="0 0 0 0 0 0 0 0 0 0 0 0 0 0 0 0 0 0 0.25 0"/>
<feBlend mode="normal" in2="BackgroundImageFix" result="effect1_dropShadow_195_1749"/>
<feColorMatrix in="SourceAlpha" type="matrix" values="0 0 0 0 0 0 0 0 0 0 0 0 0 0 0 0 0 0 127 0" result="hardAlpha"/>
<feOffset dx="1.02425" dy="1.02425"/>
<feGaussianBlur stdDeviation="0.640154"/>
<feComposite in2="hardAlpha" operator="out"/>
<feColorMatrix type="matrix" values="0 0 0 0 0 0 0 0 0 0 0 0 0 0 0 0 0 0 0.25 0"/>
<feBlend mode="normal" in2="effect1_dropShadow_195_1749" result="effect2_dropShadow_195_1749"/>
<feColorMatrix in="SourceAlpha" type="matrix" values="0 0 0 0 0 0 0 0 0 0 0 0 0 0 0 0 0 0 127 0" result="hardAlpha"/>
<feOffset dx="1.02425" dy="1.02425"/>
<feGaussianBlur stdDeviation="0.640154"/>
<feComposite in2="hardAlpha" operator="out"/>
<feColorMatrix type="matrix" values="0 0 0 0 0 0 0 0 0 0 0 0 0 0 0 0 0 0 0.25 0"/>
<feBlend mode="normal" in2="effect2_dropShadow_195_1749" result="effect3_dropShadow_195_1749"/>
<feBlend mode="normal" in="SourceGraphic" in2="effect3_dropShadow_195_1749" result="shape"/>
</filter>
<linearGradient id="paint0_linear_195_1749" x1="101.234" y1="126.976" x2="100.447" y2="248.189" gradientUnits="userSpaceOnUse">
<stop stop-color="#969DA7"/>
<stop offset="1" stop-color="#222325"/>
</linearGradient>
<linearGradient id="paint1_linear_195_1749" x1="301.347" y1="85.2244" x2="247.618" y2="263.853" gradientUnits="userSpaceOnUse">
<stop stop-color="#969DA7"/>
<stop offset="1" stop-color="#222325"/>
</linearGradient>
</defs>
</svg>
