<svg width="522" height="361" viewBox="0 0 522 361" fill="none" xmlns="http://www.w3.org/2000/svg">
<g filter="url(#filter0_d_131_1151)">
<path d="M53.7875 265.509C170.187 205.509 202.287 244.509 203.787 271.509L293.787 304.508C296.287 302.008 312.087 295.808 355.287 291.008C409.287 285.008 397.287 271.509 394.287 265.509C391.887 260.709 400.287 259.508 404.787 259.508C461.971 279.008 443.787 252.008 439.287 240.008C435.687 230.408 440.787 228.008 443.787 228.008C491.787 240.008 475.287 229.508 466.287 211.508C459.087 197.108 463.287 189.508 466.287 187.508C533.787 183.008 497.787 162.009 488.787 162.009C481.587 162.009 481.787 158.009 482.787 156.008C560.787 91.5087 482.787 117.008 475.287 127.508C469.287 135.908 466.787 131.008 466.287 127.508C445.287 63.0076 427.287 90.0081 445.287 139.508C459.687 179.108 442.287 171.009 431.787 162.009C424.287 144.009 410.487 117.608 415.287 156.008C420.087 194.409 413.287 215.008 409.287 220.508C322.287 285.008 349.752 230.069 355.287 225.009C362.371 218.533 383.5 198 383.787 192.008C384.075 186.017 375.787 169.009 368.787 162.009C407.787 147.009 404.787 127.508 389.787 132.008C374.787 136.508 337.287 123.008 361.287 114.008C385.287 105.008 406.287 90.0081 377.787 90.0081C349.287 90.0081 320.787 72.0082 377.787 61.5081C434.787 51.0079 386.787 16.5081 377.787 31.5081C370.587 43.5081 354.787 49.5082 347.787 51.0082C324.987 -26.9918 316.287 1.50823 314.787 25.5082C316.787 43.0083 318.987 76.8084 311.787 72.0082C302.787 66.008 217.287 42.0082 272.787 78.0084C317.187 106.809 317.287 120.008 311.787 123.008C231.387 127.808 257.287 137.008 280.287 141.008C305.787 139.508 354.987 145.808 347.787 183.008C340.587 220.208 320.787 226.509 311.787 225.009C317.151 151.596 291.329 190.531 283.287 220.508C275.665 248.922 263.787 232.508 257.787 220.508C257.787 200.108 242.787 180.008 235.287 172.509C239.787 144.009 221.787 136.508 209.787 139.508C200.187 141.908 198.787 138.508 199.287 136.508C226.287 105.008 194.787 108.008 178.287 114.008C165.087 118.808 162.787 112.008 163.287 108.008C207.687 69.608 164.787 80.008 137.787 90.0081C126.987 8.40775 116.287 48.0082 112.287 78.0084C49.2875 46.5084 14.7875 90.0084 74.7875 96.0084C122.787 100.808 119.787 112.008 112.287 117.008C86.2875 127.508 50.7875 145.208 116.787 132.008C182.787 118.808 151.287 137.508 127.287 148.508C109.287 170.108 119.787 173.509 127.287 172.509C169.287 149.709 195.787 160.008 203.787 168.008C254.187 236.408 230.787 244.508 212.787 240.008C209.787 230.008 198.987 210.308 179.787 211.508C160.587 212.708 136.787 208.008 127.287 205.508C131.287 196.508 133.887 181.208 112.287 192.008C90.6875 202.809 78.2875 196.509 74.7875 192.008C55.5875 118.808 48.7875 137.508 47.7875 156.008C49.7875 163.008 52.5875 180.008 47.7875 192.008C42.9875 204.008 29.7875 177.009 23.7875 162.009C18.7875 151.009 7.88749 137.709 4.28749 172.509C0.687486 207.309 31.7875 222.009 47.7875 225.009C113.787 219.009 75.2874 236.509 47.7875 246.009C4.58746 279.609 33.7875 273.009 53.7875 265.509Z" fill="url(#paint0_linear_131_1151)"/>
</g>
<g filter="url(#filter1_d_131_1151)">
<path d="M181 258.001C198.573 252.696 208.427 251.757 226 258.001C267.608 252.001 285.336 285.501 289 300.001C257 307.001 189.7 316.801 176.5 300.001C163.3 283.201 174 263.001 181 258.001Z" fill="#7D6964"/>
</g>
<g filter="url(#filter2_d_131_1151)">
<path d="M352 286.5C330.4 272.1 299 280.5 286 286.5L262 301.5C292 313.5 352 336.9 352 334.5C352 332.1 366 325.5 373 322.5C457 303.3 394 290.5 352 286.5Z" fill="#6B5954"/>
</g>
<g filter="url(#filter3_d_131_1151)">
<path d="M154.099 317.933C167.078 292.586 215.75 292.284 238.463 295.301C324.125 306.165 296.869 326.986 272.533 336.038C227.647 340.564 141.12 343.28 154.099 317.933Z" fill="#654D47"/>
</g>
<g filter="url(#filter4_d_131_1151)">
<path d="M286 312C264 329 238.6 360.6 313 351C406 339 349 301.5 286 312Z" fill="#46332E"/>
</g>
<ellipse cx="388" cy="277.5" rx="12" ry="10.5" fill="#B86F4F"/>
<ellipse cx="318.241" cy="129.29" rx="12.0728" ry="8.55625" transform="rotate(20.8324 318.241 129.29)" fill="#B86F4F"/>
<ellipse cx="186.291" cy="117.213" rx="12.0728" ry="8.55625" transform="rotate(-20.2968 186.291 117.213)" fill="#B86F4F"/>
<ellipse cx="108.291" cy="198.213" rx="12.0728" ry="8.55625" transform="rotate(-20.2968 108.291 198.213)" fill="#B86F4F"/>
<ellipse cx="509.336" cy="119.554" rx="8.90084" ry="7.10007" transform="rotate(-23.6534 509.336 119.554)" fill="#B86F4F"/>
<ellipse cx="381.002" cy="97.0744" rx="8.90084" ry="7.10007" transform="rotate(-23.6534 381.002 97.0744)" fill="#B86F4F"/>
<ellipse cx="324.002" cy="28.074" rx="8.90084" ry="7.10007" transform="rotate(56.418 324.002 28.074)" fill="#B86F4F"/>
<ellipse cx="382.962" cy="35.8015" rx="11.7792" ry="7.78184" transform="rotate(136.489 382.962 35.8015)" fill="#B86F4F"/>
<path d="M450.178 93.2516C449.26 91.8952 447.337 91.5369 446.526 92.9604C446.026 93.8392 445.711 94.8441 445.599 95.9177C445.488 96.9912 445.582 98.1125 445.876 99.2173C446.171 100.322 446.659 101.389 447.315 102.357C447.97 103.325 448.779 104.175 449.695 104.859C450.612 105.542 451.618 106.046 452.656 106.342C453.694 106.637 454.744 106.718 455.746 106.58C457.368 106.356 457.75 104.438 456.832 103.081L453.505 98.1664L450.178 93.2516Z" fill="#B86F4F"/>
<path d="M416.525 177.089C416.511 175.433 417.876 174.035 419.451 174.547C419.858 174.679 420.258 174.839 420.65 175.027C421.964 175.658 423.153 176.588 424.144 177.76C425.135 178.932 425.907 180.321 426.414 181.843C426.921 183.366 427.152 184.99 427.093 186.616C427.034 188.242 426.685 189.837 426.069 191.303C425.454 192.769 424.583 194.076 423.51 195.144C422.438 196.212 421.186 197.019 419.83 197.516C419.403 197.672 418.969 197.797 418.53 197.89C416.94 198.225 415.732 196.745 415.864 195.125L416.602 186.089L416.525 177.089Z" fill="#B86F4F"/>
<path d="M19.3944 213.951C17.9721 213.101 17.4878 211.223 18.6701 210.062C20.3252 208.437 22.4684 207.283 24.9034 206.738C28.387 205.959 32.2123 206.484 35.6176 208.207C39.0228 209.931 41.7582 212.728 43.2788 216.04C44.3264 218.322 44.7446 220.734 44.5208 223.041C44.3561 224.74 42.5124 225.531 40.9397 224.869L29.8617 220.206L19.3944 213.951Z" fill="#B86F4F"/>
<path d="M299.781 184.001C301.126 181.746 304.18 181.007 305.532 183.257C306.373 184.658 306.91 186.294 307.111 188.065C307.311 189.836 307.17 191.706 306.697 193.56C306.224 195.415 305.428 197.215 304.358 198.853C303.288 200.49 301.966 201.929 300.473 203.083C298.98 204.237 297.346 205.081 295.672 205.565C293.998 206.048 292.318 206.161 290.734 205.896C288.132 205.46 287.668 202.332 289.201 200.185L294.828 192.306L299.781 184.001Z" fill="#B86F4F"/>
<path d="M111.645 60.421C111.937 57.5976 114.56 55.4631 117.051 56.8234C118.556 57.6451 119.876 58.7562 120.929 60.0888C121.983 61.4215 122.749 62.948 123.18 64.5754C123.612 66.2028 123.7 67.8972 123.439 69.5553C123.178 71.2135 122.574 72.8008 121.663 74.2207C120.753 75.6406 119.554 76.8634 118.142 77.8147C116.729 78.766 115.131 79.4259 113.445 79.7543C110.661 80.2966 108.813 77.4678 109.4 74.693L110.899 67.6164L111.645 60.421Z" fill="#B86F4F"/>
<path d="M380.434 179.452C381.245 180.897 380.723 182.779 379.095 183.09C378.675 183.17 378.247 183.223 377.813 183.247C376.358 183.327 374.868 183.085 373.435 182.536C372.002 181.987 370.656 181.142 369.478 180.053C368.3 178.963 367.315 177.652 366.583 176.198C365.851 174.745 365.388 173.18 365.221 171.598C365.054 170.017 365.187 168.452 365.612 166.999C366.037 165.547 366.745 164.236 367.693 163.147C367.992 162.804 368.312 162.486 368.652 162.193C369.884 161.133 371.656 161.848 372.321 163.331L376.029 171.603L380.434 179.452Z" fill="#B86F4F"/>
<path d="M263.434 230.452C264.245 231.897 263.723 233.779 262.095 234.09C261.549 234.194 260.99 234.252 260.422 234.261C258.826 234.286 257.205 233.928 255.674 233.213C254.144 232.499 252.743 231.445 251.571 230.128C250.4 228.811 249.488 227.263 248.901 225.597C248.314 223.93 248.067 222.186 248.177 220.49C248.287 218.795 248.751 217.189 249.537 215.79C250.323 214.391 251.411 213.233 252.722 212.399C253.27 212.05 253.851 211.762 254.458 211.536C255.909 210.998 257.309 212.134 257.56 213.661L258.944 222.082C259 222.427 259.117 222.759 259.288 223.064L263.434 230.452Z" fill="#B86F4F"/>
<path d="M178.851 158.746C177.254 158.304 176.294 156.59 177.344 155.308C177.718 154.851 178.154 154.423 178.647 154.03C180.001 152.948 181.759 152.15 183.793 151.691C185.827 151.233 188.086 151.126 190.409 151.379C192.732 151.632 195.06 152.237 197.225 153.153C199.39 154.068 201.339 155.27 202.93 156.671C204.522 158.073 205.717 159.64 206.429 161.26C207.142 162.879 207.354 164.51 207.05 166.035C206.883 166.873 206.563 167.668 206.099 168.403C205.397 169.514 203.902 169.624 202.772 168.954L191.79 162.441C191.562 162.305 191.317 162.201 191.061 162.13L178.851 158.746Z" fill="#B86F4F"/>
<path d="M103.513 245.108C101.962 245.693 100.176 244.876 100.268 243.221C100.3 242.632 100.399 242.03 100.565 241.421C101.021 239.749 101.969 238.067 103.341 236.497C104.712 234.927 106.474 233.507 108.499 232.341C110.523 231.175 112.76 230.29 115.048 229.752C117.336 229.213 119.619 229.034 121.731 229.227C123.843 229.42 125.732 229.98 127.263 230.867C128.793 231.754 129.927 232.946 130.582 234.357C130.941 235.132 131.151 235.963 131.21 236.83C131.3 238.141 130.158 239.112 128.85 239.238L116.14 240.458C115.876 240.483 115.616 240.543 115.368 240.637L103.513 245.108Z" fill="#B86F4F"/>
<path d="M315.921 66.4036C316.477 64.8429 318.223 63.9999 319.611 64.9038C320.508 65.488 321.318 66.1796 322.008 66.9578C323.336 68.4541 324.162 70.203 324.384 71.9835C324.606 73.7641 324.212 75.4962 323.254 76.9608C322.295 78.4255 320.815 79.557 318.999 80.2121C317.183 80.8673 315.114 81.0167 313.053 80.6415C310.992 80.2662 309.032 79.3833 307.421 78.1042C305.81 76.8251 304.619 75.2073 304 73.4555C303.738 72.7124 303.583 71.9593 303.537 71.2137C303.433 69.56 305.21 68.7132 306.771 69.2694L311.157 70.8328C312.718 71.3891 314.434 70.5748 314.99 69.0141L315.921 66.4036Z" fill="#B86F4F"/>
<path d="M114.865 108.178C114.544 106.552 115.612 104.934 117.267 105C118.114 105.034 118.949 105.153 119.753 105.359C121.495 105.803 123.032 106.634 124.207 107.768C125.382 108.901 126.154 110.296 126.445 111.812C126.736 113.328 126.536 114.912 125.865 116.403C125.194 117.894 124.075 119.239 122.623 120.303C121.17 121.367 119.435 122.112 117.592 122.462C115.749 122.813 113.864 122.756 112.128 122.299C111.614 122.163 111.118 121.994 110.645 121.793C108.937 121.069 109.068 118.863 110.569 117.773L114.432 114.967C115.377 114.28 115.838 113.105 115.611 111.958L114.865 108.178Z" fill="#B86F4F"/>
<path d="M469.324 188.263C467.003 188.742 464.644 187.172 465.237 184.876C465.602 183.465 466.284 182.119 467.242 180.92C468.199 179.721 469.413 178.694 470.808 177.902C472.204 177.11 473.752 176.569 475.359 176.312C476.966 176.055 478.598 176.088 480.155 176.409C481.713 176.729 483.164 177.331 484.419 178.176C485.675 179.022 486.709 180.094 487.459 181.327C488.695 183.36 486.899 185.565 484.536 185.834L476.873 186.707L469.324 188.263Z" fill="#B86F4F"/>
<ellipse cx="426.651" cy="240.82" rx="7.5" ry="10.5" transform="rotate(-29.0052 426.651 240.82)" fill="#B86F4F"/>
<defs>
<filter id="filter0_d_131_1151" x="0" y="0" width="521.183" height="312.508" filterUnits="userSpaceOnUse" color-interpolation-filters="sRGB">
<feFlood flood-opacity="0" result="BackgroundImageFix"/>
<feColorMatrix in="SourceAlpha" type="matrix" values="0 0 0 0 0 0 0 0 0 0 0 0 0 0 0 0 0 0 127 0" result="hardAlpha"/>
<feOffset dy="4"/>
<feGaussianBlur stdDeviation="2"/>
<feComposite in2="hardAlpha" operator="out"/>
<feColorMatrix type="matrix" values="0 0 0 0 0 0 0 0 0 0 0 0 0 0 0 0 0 0 0.25 0"/>
<feBlend mode="normal" in2="BackgroundImageFix" result="effect1_dropShadow_131_1151"/>
<feBlend mode="normal" in="SourceGraphic" in2="effect1_dropShadow_131_1151" result="shape"/>
</filter>
<filter id="filter1_d_131_1151" x="166.239" y="253.663" width="126.761" height="63.6141" filterUnits="userSpaceOnUse" color-interpolation-filters="sRGB">
<feFlood flood-opacity="0" result="BackgroundImageFix"/>
<feColorMatrix in="SourceAlpha" type="matrix" values="0 0 0 0 0 0 0 0 0 0 0 0 0 0 0 0 0 0 127 0" result="hardAlpha"/>
<feOffset dy="4"/>
<feGaussianBlur stdDeviation="2"/>
<feComposite in2="hardAlpha" operator="out"/>
<feColorMatrix type="matrix" values="0 0 0 0 0 0 0 0 0 0 0 0 0 0 0 0 0 0 0.25 0"/>
<feBlend mode="normal" in2="BackgroundImageFix" result="effect1_dropShadow_131_1151"/>
<feBlend mode="normal" in="SourceGraphic" in2="effect1_dropShadow_131_1151" result="shape"/>
</filter>
<filter id="filter2_d_131_1151" x="258" y="278.549" width="160.405" height="64.1226" filterUnits="userSpaceOnUse" color-interpolation-filters="sRGB">
<feFlood flood-opacity="0" result="BackgroundImageFix"/>
<feColorMatrix in="SourceAlpha" type="matrix" values="0 0 0 0 0 0 0 0 0 0 0 0 0 0 0 0 0 0 127 0" result="hardAlpha"/>
<feOffset dy="4"/>
<feGaussianBlur stdDeviation="2"/>
<feComposite in2="hardAlpha" operator="out"/>
<feColorMatrix type="matrix" values="0 0 0 0 0 0 0 0 0 0 0 0 0 0 0 0 0 0 0.25 0"/>
<feBlend mode="normal" in2="BackgroundImageFix" result="effect1_dropShadow_131_1151"/>
<feBlend mode="normal" in="SourceGraphic" in2="effect1_dropShadow_131_1151" result="shape"/>
</filter>
<filter id="filter3_d_131_1151" x="148.787" y="294" width="152" height="53" filterUnits="userSpaceOnUse" color-interpolation-filters="sRGB">
<feFlood flood-opacity="0" result="BackgroundImageFix"/>
<feColorMatrix in="SourceAlpha" type="matrix" values="0 0 0 0 0 0 0 0 0 0 0 0 0 0 0 0 0 0 127 0" result="hardAlpha"/>
<feOffset dy="4"/>
<feGaussianBlur stdDeviation="2"/>
<feComposite in2="hardAlpha" operator="out"/>
<feColorMatrix type="matrix" values="0 0 0 0 0 0 0 0 0 0 0 0 0 0 0 0 0 0 0.25 0"/>
<feBlend mode="normal" in2="BackgroundImageFix" result="effect1_dropShadow_131_1151"/>
<feBlend mode="normal" in="SourceGraphic" in2="effect1_dropShadow_131_1151" result="shape"/>
</filter>
<filter id="filter4_d_131_1151" x="259.348" y="310.167" width="106.594" height="50.6118" filterUnits="userSpaceOnUse" color-interpolation-filters="sRGB">
<feFlood flood-opacity="0" result="BackgroundImageFix"/>
<feColorMatrix in="SourceAlpha" type="matrix" values="0 0 0 0 0 0 0 0 0 0 0 0 0 0 0 0 0 0 127 0" result="hardAlpha"/>
<feOffset dy="4"/>
<feGaussianBlur stdDeviation="2"/>
<feComposite in2="hardAlpha" operator="out"/>
<feColorMatrix type="matrix" values="0 0 0 0 0 0 0 0 0 0 0 0 0 0 0 0 0 0 0.25 0"/>
<feBlend mode="normal" in2="BackgroundImageFix" result="effect1_dropShadow_131_1151"/>
<feBlend mode="normal" in="SourceGraphic" in2="effect1_dropShadow_131_1151" result="shape"/>
</filter>
<linearGradient id="paint0_linear_131_1151" x1="260.591" y1="0" x2="260.591" y2="304.508" gradientUnits="userSpaceOnUse">
<stop offset="0.480769" stop-color="#FFA977"/>
<stop offset="1" stop-color="#C17041"/>
</linearGradient>
</defs>
</svg>
