<svg width="336" height="251" viewBox="0 0 336 251" fill="none" xmlns="http://www.w3.org/2000/svg">
<path d="M103.921 250.834C73.9213 250.834 76.3212 234.234 79.9212 167.834C66.4212 148.834 13.1212 157.533 3.92121 142.333C-5.2788 127.133 4.08784 121.167 7.92117 116.834C15.9212 102.833 104.421 155.334 107.421 139.333C110.421 123.333 73.4213 105.357 52.9212 98.8341C23.064 89.3341 7.92118 108.834 19.4212 71.8338C30.9212 34.8336 101.421 105.333 125.421 105.333C144.621 105.333 119.921 57.1666 103.921 45.3333C91.9212 31.3333 92.9212 29.8333 97.4212 15.8333C103.183 -2.09169 145.153 -0.166519 153.421 54.8333C164.921 131.333 182.34 82.0757 188.921 40.8333C196.421 -6.16652 207.921 -5.16618 236.921 7.33422C265.921 19.8346 184.958 105.333 198.421 105.333C219.921 105.333 242.421 26.3341 264.921 20.3341C287.421 14.3341 308.921 37.3341 297.421 50.834C276.849 74.9834 242.588 101.667 230.421 119.833C238.421 151.834 254.035 120.652 294.421 98.8341C337.921 75.3335 362.421 112.833 289.921 136.333C265.421 150.333 246.487 156.894 255.921 177.334C264.921 196.833 264.921 246.333 239.921 250.834H103.921Z" fill="#7F587D"/>
</svg>
