<svg width="611" height="311" viewBox="0 0 611 311" fill="none" xmlns="http://www.w3.org/2000/svg">
<g filter="url(#filter0_d_185_1646)">
<path d="M454.689 211.495C452.289 211.495 448.689 208.495 447.189 206.995C448.501 206.209 450.363 205.064 451.548 204.269C451.632 203.908 451.834 203.637 452.189 203.495C453.14 203.115 452.622 203.549 451.548 204.269C451.159 205.944 453.319 209.576 454.689 211.495Z" fill="url(#paint0_linear_185_1646)"/>
<path d="M423.189 232.496C417.989 231.696 410.023 225.496 406.689 222.496L419.189 215.996C415.989 220.396 420.523 228.829 423.189 232.496Z" fill="url(#paint1_linear_185_1646)"/>
<path d="M394.689 285.996C377.689 289.996 336.189 262.329 319.689 249.996C327.023 245.496 343.189 235.695 345.189 238.495C347.189 241.295 358.189 240.996 363.689 242.495C367.189 249.996 382.689 272.496 394.689 285.996Z" fill="url(#paint2_linear_185_1646)"/>
<path d="M544.689 95.4954C540.289 102.695 533.189 102.162 530.189 100.995L548.689 138.496C575.089 194.096 598.023 195.329 606.189 188.996C580.189 176.196 569.356 127.662 567.189 104.996C569.589 47.3956 589.189 19.9955 598.689 13.4954C592.289 7.89543 580.356 15.8288 575.189 20.4954C540.189 68.4954 550.189 86.4954 544.689 95.4954Z" fill="url(#paint3_linear_185_1646)"/>
<path d="M375.689 67.9957C382.483 64.1137 394.79 56.7255 398.275 53.4298C398.616 52.1845 398.973 51.5627 399.189 51.9957C399.324 52.2647 398.98 52.7637 398.275 53.4298C397.043 57.9356 396.03 70.604 402.689 70.9957C409.489 71.3957 414.189 72.1623 415.689 72.4956C420.189 69.8289 429.489 63.9956 430.689 61.9956C432.189 59.4956 428.189 74.4956 430.689 75.4956C432.689 76.2956 440.189 76.8289 443.689 76.9956C446.023 75.9956 450.989 73.3957 452.189 70.9957C453.689 67.9957 450.189 79.4956 452.189 79.4956C453.789 79.4956 461.856 80.8289 465.689 81.4956C467.856 80.4956 472.289 78.1957 472.689 76.9957C472.689 76.9957 472.689 76.9956 472.689 76.9956C472.773 76.7456 472.759 76.7734 472.689 76.9957C472.342 78.107 470.606 84.0789 472.689 84.4956C474.689 84.8956 408.856 73.6623 375.689 67.9957Z" fill="url(#paint4_linear_185_1646)"/>
<path d="M387.689 3.99547C384.489 -6.40453 321.689 40.9955 290.689 65.9955C325.189 71.3288 388.889 78.7956 367.689 65.9955C346.489 53.1954 372.189 19.3288 387.689 3.99547Z" fill="url(#paint5_linear_185_1646)" stroke="#7480A3"/>
<path d="M40.1885 186.996C2.39084 194.456 12.1886 183.996 22.1888 174.996L49.1886 153.996L77.6888 136.496C80.6888 149.329 78.1882 179.496 40.1885 186.996Z" fill="url(#paint6_linear_185_1646)"/>
<path d="M21.6894 204.496L36.6887 193.996L94.1895 247.996C90.3561 246.662 65.0893 237.496 26.6893 221.496C-11.7107 205.496 7.35595 202.996 21.6894 204.496Z" fill="url(#paint7_linear_185_1646)"/>
<path d="M554.557 119.496C562.339 158.774 433.585 225.213 331.193 245.498C229.192 297.998 36.1894 251.495 36.1899 199.496C35.5888 196.462 35.6035 193.219 36.1899 189.812C39.0016 173.476 54.9565 153.365 79.1894 134.366C115.326 106.035 169.87 80.1759 226.689 72.9957C320.689 47.9958 544.534 82.4955 554.557 119.496Z" fill="url(#paint8_linear_185_1646)"/>
<g filter="url(#filter1_f_185_1646)">
<path d="M59.1897 183.496C79.1897 188.329 119.99 199.896 123.19 207.496C127.19 216.996 121.69 232.496 99.6897 216.996C77.6897 201.496 61.6897 182.996 17.1897 187.996C10.6897 183.496 32.6895 169.796 48.6895 164.996" stroke="black"/>
</g>
<g filter="url(#filter2_f_185_1646)">
<path d="M100.189 216.996C92.356 216.329 73.6893 213.996 61.6893 209.996M61.6893 209.996C45.856 208.996 13.3893 206.496 10.1893 204.496C6.85597 205.996 2.5893 209.496 12.1893 211.496C21.7893 213.496 49.1893 211.329 61.6893 209.996Z" stroke="black"/>
</g>
<g filter="url(#filter3_f_185_1646)">
<path d="M27.1895 203.996C27.1895 201.996 39.5228 193.829 45.6895 189.996C68.8895 191.196 88.3561 206.162 95.1895 213.496C90.7895 213.496 71.0228 207.162 61.6895 203.996C50.1895 204.829 27.1895 205.996 27.1895 203.996Z" fill="#151515"/>
</g>
<g filter="url(#filter4_f_185_1646)">
<path d="M221.689 150.496C248.856 209.329 249.489 304.296 34.6895 213.496" stroke="black"/>
</g>
<g filter="url(#filter5_f_185_1646)">
<path d="M257.189 137.996C282.189 206.996 272.189 318.396 32.1895 211.996" stroke="black"/>
</g>
<path opacity="0.61" d="M427.689 146.496C381.689 120.496 302.189 154.496 279.689 163.996C286.189 175.163 310.889 196.896 303.689 182.496C296.489 168.096 386.189 157.996 427.689 146.496Z" fill="url(#paint9_linear_185_1646)"/>
<g filter="url(#filter6_f_185_1646)">
<path d="M302.689 156.496C296.023 155.163 281.789 153.296 278.189 156.496C273.689 160.496 273.189 156.996 278.189 158.496C283.189 159.996 386.689 118.995 429.689 146.996C401.189 154.496 355.818 161.621 327.189 170.319M327.189 170.319C312.522 174.775 302.689 178.786 302.689 181.496C302.689 189.496 319.023 177.378 327.189 170.319Z" stroke="black"/>
</g>
<g opacity="0.74" filter="url(#filter7_f_185_1646)">
<ellipse cx="288.317" cy="172.116" rx="17.638" ry="8.1809" transform="rotate(19.2751 288.317 172.116)" fill="#D9D9D9"/>
</g>
<g opacity="0.74" filter="url(#filter8_f_185_1646)">
<ellipse cx="154.039" cy="169.04" rx="17.638" ry="8.1809" transform="rotate(19.2751 154.039 169.04)" fill="#D9D9D9"/>
</g>
<g opacity="0.74" filter="url(#filter9_f_185_1646)">
<ellipse cx="90.5609" cy="198.468" rx="34.0816" ry="8.1809" transform="rotate(19.2751 90.5609 198.468)" fill="#D9D9D9"/>
</g>
<g style="mix-blend-mode:lighten" opacity="0.72">
<path d="M548.189 109.495C552.077 130.681 402.189 125.496 283.189 138.995C163.689 138.995 41.6892 175.918 41.6891 161.995C58.1335 143.419 148.69 88.4146 262.69 67.4951C380.295 45.9138 531.689 99.4952 548.189 109.495Z" fill="url(#paint10_linear_185_1646)"/>
</g>
<g style="mix-blend-mode:lighten" opacity="0.98" filter="url(#filter10_f_185_1646)">
<path d="M373.19 90.2233C374.563 99.2319 310.84 115.297 261.336 122.846C211.832 130.395 107.69 165.496 104.689 160.996C104.689 155.996 199.857 97.7721 249.362 90.2233C298.866 82.6745 371.816 81.2148 373.19 90.2233Z" fill="#D9D9D9"/>
</g>
<circle cx="131.689" cy="174.496" r="14" fill="url(#paint11_linear_185_1646)" stroke="#393B3E" stroke-width="2"/>
<ellipse cx="129.189" cy="176.996" rx="8.5" ry="7.5" fill="#272A2C"/>
<g filter="url(#filter11_f_185_1646)">
<path d="M300.689 62.4956C319.114 44.3459 361.309 7.33642 382.689 4.49561" stroke="black"/>
</g>
<g filter="url(#filter12_f_185_1646)">
<path d="M309.689 62.4956C325.354 45.031 362.483 9.18045 385.689 5.49561" stroke="black"/>
</g>
<g filter="url(#filter13_f_185_1646)">
<path d="M317.689 61.4956C332.441 44.766 366.693 10.1447 385.689 5.49561" stroke="black"/>
</g>
<g filter="url(#filter14_f_185_1646)">
<path d="M324.689 61.4956C339.157 46.5562 370.812 15.4411 381.689 10.4956" stroke="black"/>
</g>
<g filter="url(#filter15_f_185_1646)">
<path d="M332.689 62.4956C348.689 44.1623 381.389 7.09561 384.189 5.49561" stroke="black"/>
</g>
<g filter="url(#filter16_f_185_1646)">
<path d="M344.189 62.4956C345.023 59.6623 350.189 49.9956 364.189 33.9956" stroke="black"/>
</g>
<g filter="url(#filter17_f_185_1646)">
<path d="M352.189 62.9956L361.689 40.4956" stroke="black"/>
</g>
<g filter="url(#filter18_f_185_1646)">
<path d="M359.689 63.4956V57.4956" stroke="black"/>
</g>
<g filter="url(#filter19_f_185_1646)">
<path d="M576.189 21.4956C565.689 32.1623 544.889 61.5956 545.689 93.9956C549.856 87.3289 561.789 63.4956 576.189 21.4956Z" fill="#D9D9D9"/>
</g>
<g filter="url(#filter20_f_185_1646)">
<path d="M601.19 190.996C563.99 174.596 561.356 126.162 564.69 103.996C553.89 121.596 550.19 134.329 549.689 138.496C571.289 188.096 593.023 194.162 601.19 190.996Z" fill="#D9D9D9"/>
</g>
<g filter="url(#filter21_f_185_1646)">
<path d="M537.189 103.496C540.023 104.329 546.589 103.796 550.189 94.9956C551.856 73.8289 563.589 27.8956 597.189 13.4956" stroke="black"/>
</g>
<g filter="url(#filter22_f_185_1646)">
<path d="M544.689 106.996C547.189 107.662 553.489 106.996 558.689 98.9956C562.689 71.3289 575.989 15.4956 597.189 13.4956" stroke="black"/>
</g>
<g filter="url(#filter23_f_185_1646)">
<path d="M80.6895 142.996C155.689 82.9958 305.689 21.4956 540.189 109.496" stroke="black"/>
</g>
<g filter="url(#filter24_f_185_1646)">
<path d="M151.189 151.496L51.3118 180.929C-13.0882 201.329 25.8565 171.996 52.6898 154.996C67.8565 143.329 102.99 118.396 122.19 111.996" stroke="black"/>
</g>
<g style="mix-blend-mode:lighten" opacity="0.52" filter="url(#filter25_f_185_1646)">
<path d="M553.906 122.076C557.322 134.024 470.19 199.996 413.19 217.996C335.69 249.996 119.189 294.496 268.19 228.495C264.775 216.547 403.544 153.116 461.69 136.495C519.836 119.875 550.491 110.128 553.906 122.076Z" fill="#AAAECB"/>
</g>
</g>
<defs>
<filter id="filter0_d_185_1646" x="-4" y="2.02734" width="614.189" height="316.633" filterUnits="userSpaceOnUse" color-interpolation-filters="sRGB">
<feFlood flood-opacity="0" result="BackgroundImageFix"/>
<feColorMatrix in="SourceAlpha" type="matrix" values="0 0 0 0 0 0 0 0 0 0 0 0 0 0 0 0 0 0 127 0" result="hardAlpha"/>
<feOffset dy="4"/>
<feGaussianBlur stdDeviation="2"/>
<feComposite in2="hardAlpha" operator="out"/>
<feColorMatrix type="matrix" values="0 0 0 0 0 0 0 0 0 0 0 0 0 0 0 0 0 0 0.25 0"/>
<feBlend mode="normal" in2="BackgroundImageFix" result="effect1_dropShadow_185_1646"/>
<feBlend mode="normal" in="SourceGraphic" in2="effect1_dropShadow_185_1646" result="shape"/>
</filter>
<filter id="filter1_f_185_1646" x="7.52051" y="156.517" width="125.374" height="75.5597" filterUnits="userSpaceOnUse" color-interpolation-filters="sRGB">
<feFlood flood-opacity="0" result="BackgroundImageFix"/>
<feBlend mode="normal" in="SourceGraphic" in2="BackgroundImageFix" result="shape"/>
<feGaussianBlur stdDeviation="4" result="effect1_foregroundBlur_185_1646"/>
</filter>
<filter id="filter2_f_185_1646" x="1.80322" y="199.93" width="102.428" height="21.5637" filterUnits="userSpaceOnUse" color-interpolation-filters="sRGB">
<feFlood flood-opacity="0" result="BackgroundImageFix"/>
<feBlend mode="normal" in="SourceGraphic" in2="BackgroundImageFix" result="shape"/>
<feGaussianBlur stdDeviation="2" result="effect1_foregroundBlur_185_1646"/>
</filter>
<filter id="filter3_f_185_1646" x="23.1895" y="185.996" width="76" height="31.5" filterUnits="userSpaceOnUse" color-interpolation-filters="sRGB">
<feFlood flood-opacity="0" result="BackgroundImageFix"/>
<feBlend mode="normal" in="SourceGraphic" in2="BackgroundImageFix" result="shape"/>
<feGaussianBlur stdDeviation="2" result="effect1_foregroundBlur_185_1646"/>
</filter>
<filter id="filter4_f_185_1646" x="26.4948" y="142.286" width="216.187" height="117.267" filterUnits="userSpaceOnUse" color-interpolation-filters="sRGB">
<feFlood flood-opacity="0" result="BackgroundImageFix"/>
<feBlend mode="normal" in="SourceGraphic" in2="BackgroundImageFix" result="shape"/>
<feGaussianBlur stdDeviation="4" result="effect1_foregroundBlur_185_1646"/>
</filter>
<filter id="filter5_f_185_1646" x="23.9868" y="129.825" width="251.045" height="134.654" filterUnits="userSpaceOnUse" color-interpolation-filters="sRGB">
<feFlood flood-opacity="0" result="BackgroundImageFix"/>
<feBlend mode="normal" in="SourceGraphic" in2="BackgroundImageFix" result="shape"/>
<feGaussianBlur stdDeviation="4" result="effect1_foregroundBlur_185_1646"/>
</filter>
<filter id="filter6_f_185_1646" x="266.123" y="128.687" width="172.784" height="63.9431" filterUnits="userSpaceOnUse" color-interpolation-filters="sRGB">
<feFlood flood-opacity="0" result="BackgroundImageFix"/>
<feBlend mode="normal" in="SourceGraphic" in2="BackgroundImageFix" result="shape"/>
<feGaussianBlur stdDeviation="4" result="effect1_foregroundBlur_185_1646"/>
</filter>
<filter id="filter7_f_185_1646" x="256.448" y="147.445" width="63.7388" height="49.3438" filterUnits="userSpaceOnUse" color-interpolation-filters="sRGB">
<feFlood flood-opacity="0" result="BackgroundImageFix"/>
<feBlend mode="normal" in="SourceGraphic" in2="BackgroundImageFix" result="shape"/>
<feGaussianBlur stdDeviation="7.5" result="effect1_foregroundBlur_185_1646"/>
</filter>
<filter id="filter8_f_185_1646" x="122.17" y="144.368" width="63.7388" height="49.3438" filterUnits="userSpaceOnUse" color-interpolation-filters="sRGB">
<feFlood flood-opacity="0" result="BackgroundImageFix"/>
<feBlend mode="normal" in="SourceGraphic" in2="BackgroundImageFix" result="shape"/>
<feGaussianBlur stdDeviation="7.5" result="effect1_foregroundBlur_185_1646"/>
</filter>
<filter id="filter9_f_185_1646" x="43.2748" y="169.821" width="94.5721" height="57.2941" filterUnits="userSpaceOnUse" color-interpolation-filters="sRGB">
<feFlood flood-opacity="0" result="BackgroundImageFix"/>
<feBlend mode="normal" in="SourceGraphic" in2="BackgroundImageFix" result="shape"/>
<feGaussianBlur stdDeviation="7.5" result="effect1_foregroundBlur_185_1646"/>
</filter>
<filter id="filter10_f_185_1646" x="89.6895" y="69.0023" width="298.522" height="107.39" filterUnits="userSpaceOnUse" color-interpolation-filters="sRGB">
<feFlood flood-opacity="0" result="BackgroundImageFix"/>
<feBlend mode="normal" in="SourceGraphic" in2="BackgroundImageFix" result="shape"/>
<feGaussianBlur stdDeviation="7.5" result="effect1_foregroundBlur_185_1646"/>
</filter>
<filter id="filter11_f_185_1646" x="296.339" y="0" width="90.4166" height="66.8518" filterUnits="userSpaceOnUse" color-interpolation-filters="sRGB">
<feFlood flood-opacity="0" result="BackgroundImageFix"/>
<feBlend mode="normal" in="SourceGraphic" in2="BackgroundImageFix" result="shape"/>
<feGaussianBlur stdDeviation="2" result="effect1_foregroundBlur_185_1646"/>
</filter>
<filter id="filter12_f_185_1646" x="305.317" y="1.00183" width="84.4506" height="65.8276" filterUnits="userSpaceOnUse" color-interpolation-filters="sRGB">
<feFlood flood-opacity="0" result="BackgroundImageFix"/>
<feBlend mode="normal" in="SourceGraphic" in2="BackgroundImageFix" result="shape"/>
<feGaussianBlur stdDeviation="2" result="effect1_foregroundBlur_185_1646"/>
</filter>
<filter id="filter13_f_185_1646" x="313.314" y="1.00989" width="76.4939" height="64.8164" filterUnits="userSpaceOnUse" color-interpolation-filters="sRGB">
<feFlood flood-opacity="0" result="BackgroundImageFix"/>
<feBlend mode="normal" in="SourceGraphic" in2="BackgroundImageFix" result="shape"/>
<feGaussianBlur stdDeviation="2" result="effect1_foregroundBlur_185_1646"/>
</filter>
<filter id="filter14_f_185_1646" x="320.33" y="6.04041" width="65.566" height="59.8031" filterUnits="userSpaceOnUse" color-interpolation-filters="sRGB">
<feFlood flood-opacity="0" result="BackgroundImageFix"/>
<feBlend mode="normal" in="SourceGraphic" in2="BackgroundImageFix" result="shape"/>
<feGaussianBlur stdDeviation="2" result="effect1_foregroundBlur_185_1646"/>
</filter>
<filter id="filter15_f_185_1646" x="328.313" y="1.06152" width="60.1248" height="65.7628" filterUnits="userSpaceOnUse" color-interpolation-filters="sRGB">
<feFlood flood-opacity="0" result="BackgroundImageFix"/>
<feBlend mode="normal" in="SourceGraphic" in2="BackgroundImageFix" result="shape"/>
<feGaussianBlur stdDeviation="2" result="effect1_foregroundBlur_185_1646"/>
</filter>
<filter id="filter16_f_185_1646" x="339.71" y="29.6664" width="28.8561" height="36.9703" filterUnits="userSpaceOnUse" color-interpolation-filters="sRGB">
<feFlood flood-opacity="0" result="BackgroundImageFix"/>
<feBlend mode="normal" in="SourceGraphic" in2="BackgroundImageFix" result="shape"/>
<feGaussianBlur stdDeviation="2" result="effect1_foregroundBlur_185_1646"/>
</filter>
<filter id="filter17_f_185_1646" x="347.729" y="36.3011" width="18.4211" height="30.8889" filterUnits="userSpaceOnUse" color-interpolation-filters="sRGB">
<feFlood flood-opacity="0" result="BackgroundImageFix"/>
<feBlend mode="normal" in="SourceGraphic" in2="BackgroundImageFix" result="shape"/>
<feGaussianBlur stdDeviation="2" result="effect1_foregroundBlur_185_1646"/>
</filter>
<filter id="filter18_f_185_1646" x="355.189" y="53.4956" width="9" height="14" filterUnits="userSpaceOnUse" color-interpolation-filters="sRGB">
<feFlood flood-opacity="0" result="BackgroundImageFix"/>
<feBlend mode="normal" in="SourceGraphic" in2="BackgroundImageFix" result="shape"/>
<feGaussianBlur stdDeviation="2" result="effect1_foregroundBlur_185_1646"/>
</filter>
<filter id="filter19_f_185_1646" x="537.667" y="13.4956" width="46.5225" height="88.5" filterUnits="userSpaceOnUse" color-interpolation-filters="sRGB">
<feFlood flood-opacity="0" result="BackgroundImageFix"/>
<feBlend mode="normal" in="SourceGraphic" in2="BackgroundImageFix" result="shape"/>
<feGaussianBlur stdDeviation="4" result="effect1_foregroundBlur_185_1646"/>
</filter>
<filter id="filter20_f_185_1646" x="541.689" y="95.9956" width="67.5001" height="103.693" filterUnits="userSpaceOnUse" color-interpolation-filters="sRGB">
<feFlood flood-opacity="0" result="BackgroundImageFix"/>
<feBlend mode="normal" in="SourceGraphic" in2="BackgroundImageFix" result="shape"/>
<feGaussianBlur stdDeviation="4" result="effect1_foregroundBlur_185_1646"/>
</filter>
<filter id="filter21_f_185_1646" x="529.048" y="5.03601" width="76.3381" height="107.24" filterUnits="userSpaceOnUse" color-interpolation-filters="sRGB">
<feFlood flood-opacity="0" result="BackgroundImageFix"/>
<feBlend mode="normal" in="SourceGraphic" in2="BackgroundImageFix" result="shape"/>
<feGaussianBlur stdDeviation="4" result="effect1_foregroundBlur_185_1646"/>
</filter>
<filter id="filter22_f_185_1646" x="536.561" y="4.9978" width="68.6758" height="110.694" filterUnits="userSpaceOnUse" color-interpolation-filters="sRGB">
<feFlood flood-opacity="0" result="BackgroundImageFix"/>
<feBlend mode="normal" in="SourceGraphic" in2="BackgroundImageFix" result="shape"/>
<feGaussianBlur stdDeviation="4" result="effect1_foregroundBlur_185_1646"/>
</filter>
<filter id="filter23_f_185_1646" x="72.3771" y="57.0363" width="475.988" height="94.3497" filterUnits="userSpaceOnUse" color-interpolation-filters="sRGB">
<feFlood flood-opacity="0" result="BackgroundImageFix"/>
<feBlend mode="normal" in="SourceGraphic" in2="BackgroundImageFix" result="shape"/>
<feGaussianBlur stdDeviation="4" result="effect1_foregroundBlur_185_1646"/>
</filter>
<filter id="filter24_f_185_1646" x="7.74756" y="103.521" width="151.583" height="92.8604" filterUnits="userSpaceOnUse" color-interpolation-filters="sRGB">
<feFlood flood-opacity="0" result="BackgroundImageFix"/>
<feBlend mode="normal" in="SourceGraphic" in2="BackgroundImageFix" result="shape"/>
<feGaussianBlur stdDeviation="4" result="effect1_foregroundBlur_185_1646"/>
</filter>
<filter id="filter25_f_185_1646" x="202.073" y="101.777" width="366.931" height="175.84" filterUnits="userSpaceOnUse" color-interpolation-filters="sRGB">
<feFlood flood-opacity="0" result="BackgroundImageFix"/>
<feBlend mode="normal" in="SourceGraphic" in2="BackgroundImageFix" result="shape"/>
<feGaussianBlur stdDeviation="7.5" result="effect1_foregroundBlur_185_1646"/>
</filter>
<linearGradient id="paint0_linear_185_1646" x1="447.189" y1="203.388" x2="454.689" y2="211.462" gradientUnits="userSpaceOnUse">
<stop offset="0.331731" stop-color="#30333D"/>
<stop offset="1" stop-color="#7480A3"/>
</linearGradient>
<linearGradient id="paint1_linear_185_1646" x1="406.689" y1="217.663" x2="423.189" y2="230.828" gradientUnits="userSpaceOnUse">
<stop offset="0.379808" stop-color="#30333D"/>
<stop offset="1" stop-color="#7480A3"/>
</linearGradient>
<linearGradient id="paint2_linear_185_1646" x1="345.168" y1="237.931" x2="367.711" y2="285.495" gradientUnits="userSpaceOnUse">
<stop stop-color="#30333D"/>
<stop offset="1" stop-color="#7480A3"/>
</linearGradient>
<linearGradient id="paint3_linear_185_1646" x1="578.046" y1="11.5693" x2="558.333" y2="191.601" gradientUnits="userSpaceOnUse">
<stop stop-color="#7480A3"/>
<stop offset="1" stop-color="#30333D"/>
</linearGradient>
<linearGradient id="paint4_linear_185_1646" x1="430.082" y1="51.8584" x2="418.354" y2="84.506" gradientUnits="userSpaceOnUse">
<stop stop-color="#30333D"/>
<stop offset="1" stop-color="#7480A3"/>
</linearGradient>
<linearGradient id="paint5_linear_185_1646" x1="340.284" y1="73.0631" x2="338.095" y2="2.52734" gradientUnits="userSpaceOnUse">
<stop stop-color="#7480A3"/>
<stop offset="1" stop-color="#2B303D"/>
</linearGradient>
<linearGradient id="paint6_linear_185_1646" x1="4.0791" y1="142.466" x2="94.1895" y2="242.025" gradientUnits="userSpaceOnUse">
<stop stop-color="#7682A6"/>
<stop offset="1" stop-color="#353A4B"/>
</linearGradient>
<linearGradient id="paint7_linear_185_1646" x1="4.0791" y1="142.466" x2="94.1895" y2="242.025" gradientUnits="userSpaceOnUse">
<stop stop-color="#7682A6"/>
<stop offset="1" stop-color="#353A4B"/>
</linearGradient>
<linearGradient id="paint8_linear_185_1646" x1="347.19" y1="48.4545" x2="386.483" y2="240.66" gradientUnits="userSpaceOnUse">
<stop stop-color="#7480A3"/>
<stop offset="1" stop-color="#30333D"/>
</linearGradient>
<linearGradient id="paint9_linear_185_1646" x1="358.19" y1="140.958" x2="358.19" y2="187.566" gradientUnits="userSpaceOnUse">
<stop stop-color="#7480A3"/>
<stop offset="1" stop-color="#30333D"/>
</linearGradient>
<linearGradient id="paint10_linear_185_1646" x1="245.832" y1="70.5886" x2="255.055" y2="163.883" gradientUnits="userSpaceOnUse">
<stop stop-color="#6E90F3"/>
<stop offset="1" stop-color="#30333D"/>
</linearGradient>
<linearGradient id="paint11_linear_185_1646" x1="139.492" y1="159.496" x2="123.887" y2="189.496" gradientUnits="userSpaceOnUse">
<stop stop-color="#212D84"/>
<stop offset="1" stop-color="#E0DADA"/>
</linearGradient>
</defs>
</svg>
