<svg width="607" height="310" viewBox="0 0 607 310" fill="none" xmlns="http://www.w3.org/2000/svg">
<path d="M454.689 210.494C452.289 210.494 448.689 207.494 447.189 205.994C448.501 205.207 450.363 204.062 451.548 203.267C451.632 202.906 451.834 202.636 452.189 202.494C453.14 202.113 452.622 202.547 451.548 203.267C451.159 204.942 453.319 208.575 454.689 210.494Z" fill="url(#paint0_linear_23_3943)"/>
<path d="M423.189 231.494C417.989 230.694 410.023 224.494 406.689 221.494L419.189 214.994C415.989 219.394 420.523 227.827 423.189 231.494Z" fill="url(#paint1_linear_23_3943)"/>
<path d="M394.689 284.994C377.689 288.994 336.189 261.327 319.689 248.994C327.023 244.494 343.189 234.693 345.189 237.493C347.189 240.293 358.189 239.994 363.689 241.493C367.189 248.994 382.689 271.494 394.689 284.994Z" fill="url(#paint2_linear_23_3943)"/>
<path d="M544.689 94.4937C540.289 101.694 533.189 101.16 530.189 99.9937L548.689 137.494C575.089 193.094 598.023 194.327 606.189 187.994C580.189 175.194 569.356 126.661 567.189 103.994C569.589 46.3939 589.189 18.9938 598.689 12.4937C592.289 6.89372 580.356 14.827 575.189 19.4937C540.189 67.4937 550.189 85.4937 544.689 94.4937Z" fill="url(#paint3_linear_23_3943)"/>
<path d="M375.689 66.994C382.483 63.112 394.79 55.7238 398.275 52.4281C398.616 51.1828 398.973 50.561 399.189 50.994C399.324 51.263 398.98 51.762 398.275 52.4281C397.043 56.9339 396.03 69.6023 402.689 69.994C409.489 70.394 414.189 71.1606 415.689 71.4939C420.189 68.8272 429.489 62.9939 430.689 60.9939C432.189 58.4939 428.189 73.4939 430.689 74.4939C432.689 75.2939 440.189 75.8272 443.689 75.9939C446.023 74.9939 450.989 72.394 452.189 69.994C453.689 66.994 450.189 78.4939 452.189 78.4939C453.789 78.4939 461.856 79.8272 465.689 80.4939C467.856 79.4939 472.289 77.194 472.689 75.994C472.689 75.994 472.689 75.9939 472.689 75.9939C472.773 75.7439 472.759 75.7717 472.689 75.994C472.342 77.1053 470.606 83.0772 472.689 83.4939C474.689 83.8939 408.856 72.6606 375.689 66.994Z" fill="url(#paint4_linear_23_3943)"/>
<path d="M387.689 2.99376C384.489 -7.40624 321.689 39.9938 290.689 64.9938C325.189 70.3271 388.889 77.7939 367.689 64.9938C346.489 52.1937 372.189 18.3271 387.689 2.99376Z" fill="url(#paint5_linear_23_3943)" stroke="#7480A3"/>
<path d="M44.0001 186.526C14.0001 188.526 12.5001 186.526 22.1889 173.994L51.0001 154.526L78.5001 133.026C81.5001 145.859 85.8285 183.737 44.0001 186.526Z" fill="#7682A6"/>
<path d="M26.5001 200.526L36.6888 192.994L108.5 240.026C104.667 238.692 74.5 228.026 32.0001 213.526C7.50012 205.167 18.5001 200.526 26.5001 200.526Z" fill="#7682A6"/>
<path d="M554.824 116.995C562.605 156.272 433.852 222.711 331.46 242.997C207.767 267.502 77.267 252.057 36.4569 199.026C35.8558 195.992 30.2669 194.526 45.7669 188.526C48.5787 172.19 55.2234 150.864 79.4564 131.865C115.593 103.533 170.136 77.6744 226.956 70.4943C320.956 45.4944 544.801 79.9941 554.824 116.995Z" fill="#7480A3"/>
<path d="M59.1897 182.494C79.1897 187.327 119.99 198.894 123.19 206.494C127.19 215.994 121.69 231.494 99.6897 215.994C77.6897 200.494 61.6897 181.994 17.1897 186.994C10.6897 182.494 32 162.826 48 158.026" stroke="#666872" stroke-width="3" stroke-linecap="round"/>
<path d="M28 201.026C28 199.026 38 192.026 45.5 188.526C67.3105 192.557 69 195.026 94.5 214.026C90 215.526 64.5 205.026 53.5 202.994C37 201.026 28 203.026 28 201.026Z" fill="#151515"/>
<path d="M221.689 149.494C248.856 208.327 249.489 303.294 34.6895 212.494" stroke="#666872" stroke-width="3" stroke-linecap="round"/>
<path d="M257.189 136.994C282.189 205.994 279 312.026 34 212.526" stroke="#646670" stroke-width="3" stroke-linecap="round"/>
<path opacity="0.61" d="M427.689 145.494C381.689 119.494 301 151.026 278.5 160.526C285 171.692 310.889 195.894 303.689 181.494C296.489 167.095 386.189 156.994 427.689 145.494Z" fill="url(#paint6_linear_23_3943)"/>
<circle cx="131.689" cy="173.494" r="15" fill="white"/>
<ellipse cx="129.189" cy="175.994" rx="8.5" ry="7.5" fill="#272A2C"/>
<g filter="url(#filter0_f_23_3943)">
<path d="M309.689 61.4939C325.354 44.0292 362.483 8.17874 385.689 4.4939" stroke="black"/>
</g>
<g filter="url(#filter1_f_23_3943)">
<path d="M317.689 60.4939C332.441 43.7643 366.693 9.14295 385.689 4.4939" stroke="black"/>
</g>
<g filter="url(#filter2_f_23_3943)">
<path d="M324.689 60.4939C339.157 45.5545 370.812 14.4394 381.689 9.4939" stroke="black"/>
</g>
<g filter="url(#filter3_f_23_3943)">
<path d="M332.689 61.4939C348.689 43.1606 381.389 6.0939 384.189 4.4939" stroke="black"/>
</g>
<g filter="url(#filter4_f_23_3943)">
<path d="M344.189 61.4939C345.023 58.6606 350.189 48.9939 364.189 32.9939" stroke="black"/>
</g>
<g filter="url(#filter5_f_23_3943)">
<path d="M352.189 61.9939L361.689 39.4939" stroke="black"/>
</g>
<g filter="url(#filter6_f_23_3943)">
<path d="M359.689 62.4939V56.4939" stroke="black"/>
</g>
<g filter="url(#filter7_f_23_3943)">
<path d="M537.189 102.494C540.023 103.327 546.589 102.794 550.189 93.9939C551.856 72.8272 563.589 26.8939 597.189 12.4939" stroke="black"/>
</g>
<g filter="url(#filter8_f_23_3943)">
<path d="M544.689 105.994C547.189 106.661 553.489 105.994 558.689 97.9939C562.689 70.3272 575.989 14.4939 597.189 12.4939" stroke="black"/>
</g>
<g style="mix-blend-mode:lighten" opacity="0.52" filter="url(#filter9_f_23_3943)">
<path d="M553.906 121.074C557.322 133.022 470.19 198.994 413.19 216.994C335.69 248.994 119.189 293.494 268.19 227.494C264.775 215.546 403.544 152.114 461.69 135.494C519.836 118.873 550.491 109.126 553.906 121.074Z" fill="#AAAECB"/>
</g>
<defs>
<filter id="filter0_f_23_3943" x="305.317" y="0" width="84.4507" height="65.8276" filterUnits="userSpaceOnUse" color-interpolation-filters="sRGB">
<feFlood flood-opacity="0" result="BackgroundImageFix"/>
<feBlend mode="normal" in="SourceGraphic" in2="BackgroundImageFix" result="shape"/>
<feGaussianBlur stdDeviation="2" result="effect1_foregroundBlur_23_3943"/>
</filter>
<filter id="filter1_f_23_3943" x="313.314" y="0.00830078" width="76.4939" height="64.8162" filterUnits="userSpaceOnUse" color-interpolation-filters="sRGB">
<feFlood flood-opacity="0" result="BackgroundImageFix"/>
<feBlend mode="normal" in="SourceGraphic" in2="BackgroundImageFix" result="shape"/>
<feGaussianBlur stdDeviation="2" result="effect1_foregroundBlur_23_3943"/>
</filter>
<filter id="filter2_f_23_3943" x="320.33" y="5.03882" width="65.5662" height="59.803" filterUnits="userSpaceOnUse" color-interpolation-filters="sRGB">
<feFlood flood-opacity="0" result="BackgroundImageFix"/>
<feBlend mode="normal" in="SourceGraphic" in2="BackgroundImageFix" result="shape"/>
<feGaussianBlur stdDeviation="2" result="effect1_foregroundBlur_23_3943"/>
</filter>
<filter id="filter3_f_23_3943" x="328.313" y="0.0598145" width="60.1248" height="65.7629" filterUnits="userSpaceOnUse" color-interpolation-filters="sRGB">
<feFlood flood-opacity="0" result="BackgroundImageFix"/>
<feBlend mode="normal" in="SourceGraphic" in2="BackgroundImageFix" result="shape"/>
<feGaussianBlur stdDeviation="2" result="effect1_foregroundBlur_23_3943"/>
</filter>
<filter id="filter4_f_23_3943" x="339.71" y="28.6646" width="28.856" height="36.9705" filterUnits="userSpaceOnUse" color-interpolation-filters="sRGB">
<feFlood flood-opacity="0" result="BackgroundImageFix"/>
<feBlend mode="normal" in="SourceGraphic" in2="BackgroundImageFix" result="shape"/>
<feGaussianBlur stdDeviation="2" result="effect1_foregroundBlur_23_3943"/>
</filter>
<filter id="filter5_f_23_3943" x="347.729" y="35.2993" width="18.4214" height="30.8892" filterUnits="userSpaceOnUse" color-interpolation-filters="sRGB">
<feFlood flood-opacity="0" result="BackgroundImageFix"/>
<feBlend mode="normal" in="SourceGraphic" in2="BackgroundImageFix" result="shape"/>
<feGaussianBlur stdDeviation="2" result="effect1_foregroundBlur_23_3943"/>
</filter>
<filter id="filter6_f_23_3943" x="355.189" y="52.4939" width="9" height="14" filterUnits="userSpaceOnUse" color-interpolation-filters="sRGB">
<feFlood flood-opacity="0" result="BackgroundImageFix"/>
<feBlend mode="normal" in="SourceGraphic" in2="BackgroundImageFix" result="shape"/>
<feGaussianBlur stdDeviation="2" result="effect1_foregroundBlur_23_3943"/>
</filter>
<filter id="filter7_f_23_3943" x="529.048" y="4.03442" width="76.3381" height="107.24" filterUnits="userSpaceOnUse" color-interpolation-filters="sRGB">
<feFlood flood-opacity="0" result="BackgroundImageFix"/>
<feBlend mode="normal" in="SourceGraphic" in2="BackgroundImageFix" result="shape"/>
<feGaussianBlur stdDeviation="4" result="effect1_foregroundBlur_23_3943"/>
</filter>
<filter id="filter8_f_23_3943" x="536.561" y="3.99609" width="68.6758" height="110.694" filterUnits="userSpaceOnUse" color-interpolation-filters="sRGB">
<feFlood flood-opacity="0" result="BackgroundImageFix"/>
<feBlend mode="normal" in="SourceGraphic" in2="BackgroundImageFix" result="shape"/>
<feGaussianBlur stdDeviation="4" result="effect1_foregroundBlur_23_3943"/>
</filter>
<filter id="filter9_f_23_3943" x="202.073" y="100.775" width="366.931" height="175.84" filterUnits="userSpaceOnUse" color-interpolation-filters="sRGB">
<feFlood flood-opacity="0" result="BackgroundImageFix"/>
<feBlend mode="normal" in="SourceGraphic" in2="BackgroundImageFix" result="shape"/>
<feGaussianBlur stdDeviation="7.5" result="effect1_foregroundBlur_23_3943"/>
</filter>
<linearGradient id="paint0_linear_23_3943" x1="447.189" y1="202.386" x2="454.689" y2="210.46" gradientUnits="userSpaceOnUse">
<stop offset="0.331731" stop-color="#30333D"/>
<stop offset="1" stop-color="#7480A3"/>
</linearGradient>
<linearGradient id="paint1_linear_23_3943" x1="406.689" y1="216.661" x2="423.189" y2="229.826" gradientUnits="userSpaceOnUse">
<stop offset="0.379808" stop-color="#30333D"/>
<stop offset="1" stop-color="#7480A3"/>
</linearGradient>
<linearGradient id="paint2_linear_23_3943" x1="345.168" y1="236.929" x2="367.711" y2="284.494" gradientUnits="userSpaceOnUse">
<stop stop-color="#30333D"/>
<stop offset="1" stop-color="#7480A3"/>
</linearGradient>
<linearGradient id="paint3_linear_23_3943" x1="578.046" y1="10.5676" x2="558.333" y2="190.599" gradientUnits="userSpaceOnUse">
<stop stop-color="#7480A3"/>
<stop offset="1" stop-color="#30333D"/>
</linearGradient>
<linearGradient id="paint4_linear_23_3943" x1="430.082" y1="50.8567" x2="418.354" y2="83.5043" gradientUnits="userSpaceOnUse">
<stop stop-color="#30333D"/>
<stop offset="1" stop-color="#7480A3"/>
</linearGradient>
<linearGradient id="paint5_linear_23_3943" x1="340.284" y1="72.0614" x2="338.095" y2="1.52563" gradientUnits="userSpaceOnUse">
<stop stop-color="#7480A3"/>
<stop offset="1" stop-color="#2B303D"/>
</linearGradient>
<linearGradient id="paint6_linear_23_3943" x1="358.19" y1="139.957" x2="358.19" y2="186.564" gradientUnits="userSpaceOnUse">
<stop stop-color="#5F73AE"/>
<stop offset="0.485577" stop-color="#30333D"/>
</linearGradient>
</defs>
</svg>
